<svg width="1621" height="575" viewBox="0 0 1621 575" fill="none" xmlns="http://www.w3.org/2000/svg">
<g clip-path="url(#clip0_907_8397)">
<path d="M1621.2 0.101562H0.21875V574.862H1621.2V0.101562Z" fill="#FFDD00"/>
<path d="M724.509 155.047C724.509 162.827 717.169 168.947 708.089 168.947C701.109 168.947 695.559 165.567 692.319 161.317C691.959 160.737 692.029 160.307 692.539 159.877L694.629 157.857C695.129 157.427 695.639 157.497 696.139 157.997C699.019 161.097 702.759 163.757 708.019 163.757C714.639 163.757 718.959 159.727 718.959 154.757C718.959 142.587 693.179 146.117 693.179 129.847C693.179 122.427 699.439 117.027 707.729 117.027C713.129 117.027 718.459 119.617 721.989 123.797C722.419 124.297 722.419 124.737 721.919 125.307L720.119 127.177C719.619 127.677 719.109 127.757 718.609 127.247C715.369 124.007 712.129 122.137 707.739 122.137C702.559 122.137 698.519 124.947 698.519 129.917C698.519 141.797 724.509 137.977 724.509 155.047Z" fill="black"/>
<path d="M729.551 150.44C729.551 140 737.331 131.93 747.411 131.93C757.491 131.93 765.271 139.99 765.271 150.44C765.271 160.89 757.491 168.95 747.411 168.95C737.331 168.95 729.551 160.88 729.551 150.44ZM760.081 150.44C760.081 142.52 754.541 136.83 747.411 136.83C740.281 136.83 734.741 142.52 734.741 150.44C734.741 158.36 740.281 164.05 747.411 164.05C754.541 164.05 760.081 158.36 760.081 150.44Z" fill="black"/>
<path d="M806.519 150.439C806.519 160.739 799.319 168.869 789.239 168.869C783.769 168.869 779.589 166.349 776.779 162.609L776.489 166.929C776.419 167.579 776.059 168.009 775.409 168.009H772.459C771.809 168.009 771.379 167.579 771.379 166.929V116.529C771.379 115.879 771.809 115.449 772.459 115.449H775.699C776.349 115.449 776.779 115.879 776.779 116.529V138.349C779.519 134.529 783.759 132.009 789.239 132.009C799.319 132.009 806.519 140.149 806.519 150.439ZM801.339 150.369C801.339 142.669 796.009 136.909 788.809 136.909C781.609 136.909 776.349 143.029 776.349 150.369C776.349 157.709 781.609 163.979 788.809 163.979C796.009 163.979 801.339 158.149 801.339 150.369Z" fill="black"/>
<path d="M831.139 134.238L829.989 136.757C829.699 137.337 829.339 137.407 828.689 137.257C828.039 137.117 827.319 136.897 825.879 136.897C821.489 136.897 818.029 140.207 818.029 144.747V166.927C818.029 167.577 817.599 168.007 816.949 168.007H813.709C813.059 168.007 812.629 167.577 812.629 166.927V133.807C812.629 133.157 813.059 132.727 813.709 132.727H816.589C817.239 132.727 817.599 133.157 817.669 133.807L817.959 136.908C819.899 133.958 822.859 131.938 826.669 131.938C828.399 131.938 829.909 132.367 830.919 133.087C831.349 133.377 831.419 133.668 831.139 134.238Z" fill="black"/>
<path d="M865.85 149.07C865.85 151.52 865.56 152.67 863.76 152.67H837.33C838.12 159.37 842.95 164.26 850.44 164.26C854.83 164.26 857.78 162.68 860.09 160.73C860.59 160.3 861.03 160.08 861.6 160.59L862.97 161.89C863.55 162.47 863.62 162.97 863.04 163.55C859.73 167.01 855.12 168.95 849.86 168.95C839.35 168.95 832 160.81 832 150.44C832 140.07 839.13 131.93 849.28 131.93C859.43 131.93 865.84 140.07 865.84 149.07H865.85ZM837.26 148.5H861.09C860.8 141.88 855.98 136.69 849.28 136.69C842.58 136.69 837.98 141.66 837.25 148.5H837.26Z" fill="black"/>
<path d="M924.738 133.808V166.928C924.738 167.578 924.308 168.008 923.658 168.008H920.708C920.058 168.008 919.698 167.578 919.628 166.928L919.338 162.608C916.528 166.348 912.358 168.868 906.878 168.868C896.798 168.868 889.598 160.728 889.598 150.438C889.598 140.148 896.798 132.008 906.878 132.008C912.348 132.008 916.598 134.528 919.338 138.348L919.628 133.808C919.698 133.158 920.058 132.728 920.708 132.728H923.658C924.308 132.728 924.738 133.158 924.738 133.808ZM919.778 150.368C919.778 143.028 914.518 136.908 907.318 136.908C900.118 136.908 894.788 142.668 894.788 150.368C894.788 158.068 900.118 163.978 907.318 163.978C914.518 163.978 919.778 157.788 919.778 150.368Z" fill="black"/>
<path d="M523.849 246.56C524.349 247.06 524.349 247.57 523.849 248.07C519.389 252.53 513.269 255.34 506.279 255.34C491.879 255.34 480.359 243.89 480.359 229.42C480.359 214.95 491.879 203.43 506.279 203.43C513.259 203.43 519.389 206.24 523.849 210.7C524.349 211.2 524.349 211.71 523.849 212.21L519.099 217.32C518.669 217.82 518.089 217.82 517.589 217.39C514.569 214.72 510.819 213.07 506.209 213.07C497.429 213.07 490.509 220.06 490.509 229.42C490.509 238.78 497.419 245.69 506.209 245.69C510.819 245.69 514.559 244.03 517.589 241.37C518.089 240.94 518.669 240.94 519.099 241.44L523.849 246.55V246.56Z" fill="black"/>
<path d="M563.159 220.208V253.328C563.159 253.978 562.729 254.408 562.079 254.408H555.459C554.809 254.408 554.449 253.978 554.379 253.328L554.089 250.308C551.569 253.258 548.039 255.348 543.429 255.348C533.569 255.348 526.359 247.138 526.359 236.838C526.359 226.538 533.559 218.328 543.429 218.328C547.889 218.328 551.489 220.488 554.159 223.508L554.379 220.198C554.449 219.548 554.809 219.118 555.459 219.118H562.079C562.729 219.118 563.159 219.548 563.159 220.198V220.208ZM553.589 236.768C553.589 231.438 549.769 226.978 544.589 226.978C539.409 226.978 535.519 231.158 535.519 236.768C535.519 242.378 539.339 246.708 544.589 246.708C549.839 246.708 553.589 242.098 553.589 236.768Z" fill="black"/>
<path d="M593.19 221.43L591.03 226.76C590.74 227.55 590.17 227.7 589.45 227.48C588.73 227.26 587.87 226.98 586.5 226.98C582.04 226.98 579.16 230.29 579.16 234.61V253.33C579.16 253.98 578.73 254.41 578.08 254.41H570.74C570.09 254.41 569.66 253.98 569.66 253.33V220.21C569.66 219.56 570.09 219.13 570.74 219.13H577.72C578.37 219.13 578.73 219.56 578.8 220.21L579.09 224.1C580.96 220.72 583.84 218.34 588.09 218.34C590.11 218.34 591.83 219.13 592.84 220C593.42 220.43 593.42 220.94 593.2 221.44L593.19 221.43Z" fill="black"/>
<path d="M620.038 221.43L617.878 226.76C617.588 227.55 617.018 227.7 616.298 227.48C615.578 227.26 614.718 226.98 613.348 226.98C608.888 226.98 606.008 230.29 606.008 234.61V253.33C606.008 253.98 605.578 254.41 604.928 254.41H597.588C596.938 254.41 596.508 253.98 596.508 253.33V220.21C596.508 219.56 596.938 219.13 597.588 219.13H604.568C605.218 219.13 605.578 219.56 605.648 220.21L605.938 224.1C607.808 220.72 610.688 218.34 614.938 218.34C616.958 218.34 618.678 219.13 619.688 220C620.268 220.43 620.268 220.94 620.048 221.44L620.038 221.43Z" fill="black"/>
<path d="M622.988 207.17C622.988 204.29 625.288 201.91 628.248 201.91C631.208 201.91 633.428 204.29 633.428 207.17C633.428 210.05 631.128 212.43 628.248 212.43C625.368 212.43 622.988 210.05 622.988 207.17ZM624.578 219.13H631.918C632.568 219.13 632.998 219.56 632.998 220.21V253.33C632.998 253.98 632.568 254.41 631.918 254.41H624.578C623.928 254.41 623.498 253.98 623.498 253.33V220.21C623.498 219.56 623.928 219.13 624.578 219.13Z" fill="black"/>
<path d="M665.33 244.548C665.33 251.388 658.35 255.348 651.86 255.348C645.81 255.348 640.91 252.398 638.39 249.438C637.96 248.938 638.1 248.428 638.39 247.998L641.2 244.038C641.63 243.458 642.14 243.608 642.78 244.108C645.66 245.978 648.76 247.348 651.56 247.348C653.86 247.348 656.1 246.628 656.1 244.398C656.1 238.778 639.03 240.938 639.03 229.058C639.03 222.288 644.93 218.328 651.27 218.328C655.81 218.328 660.41 220.198 663.37 223.658C663.8 224.158 663.66 224.738 663.3 225.168L660.56 228.768C660.13 229.348 659.62 229.198 658.98 228.698C656.24 226.898 654.59 225.958 652.07 225.958C649.84 225.958 648.18 227.178 648.18 228.978C648.18 234.738 665.32 231.568 665.32 244.528L665.33 244.548Z" fill="black"/>
<path d="M742.439 205.088V253.328C742.439 253.978 742.009 254.408 741.359 254.408H733.659C733.009 254.408 732.579 253.978 732.579 253.328V224.668L720.919 253.538C720.699 254.118 720.199 254.398 719.619 254.398H712.639C712.059 254.398 711.559 254.108 711.339 253.538L699.669 224.668V253.328C699.669 253.978 699.239 254.408 698.589 254.408H690.889C690.239 254.408 689.809 253.978 689.809 253.328V205.088C689.809 204.438 690.239 204.008 690.889 204.008H699.749C700.329 204.008 700.829 204.228 701.049 204.728L716.169 243.108L731.219 204.728C731.439 204.228 731.939 204.008 732.519 204.008H741.379C742.029 204.008 742.459 204.438 742.459 205.088H742.439Z" fill="black"/>
<path d="M780.601 240.3H757.991C758.931 244.98 762.531 247.64 768.071 247.64C770.881 247.64 773.111 246.92 775.561 245.19C776.211 244.76 776.641 244.76 777.141 245.26L780.311 248.36C780.811 248.86 780.811 249.37 780.241 249.94C776.861 253.32 772.251 255.34 767.131 255.34C756.111 255.34 748.551 247.2 748.551 236.83C748.551 226.46 756.111 218.32 766.341 218.32C776.571 218.32 783.121 226.46 783.121 236.03C783.121 238.84 782.761 240.28 780.601 240.28V240.3ZM757.851 234.1H774.701C774.051 229.13 770.671 226.39 766.421 226.39C762.171 226.39 758.641 229.13 757.851 234.1Z" fill="black"/>
<path d="M808.029 220.208V225.828C808.029 226.478 807.599 226.908 806.949 226.908H801.909V253.338C801.909 253.988 801.479 254.418 800.829 254.418H793.489C792.839 254.418 792.409 253.988 792.409 253.338V226.908H787.369C786.719 226.908 786.289 226.478 786.289 225.828V220.208C786.289 219.558 786.719 219.128 787.369 219.128H792.409V209.408C792.409 208.758 792.839 208.328 793.489 208.328H800.829C801.479 208.328 801.909 208.758 801.909 209.408V219.128H806.949C807.599 219.128 808.029 219.558 808.029 220.208Z" fill="black"/>
<path d="M836.69 221.43L834.53 226.76C834.24 227.55 833.67 227.7 832.95 227.48C832.23 227.26 831.37 226.98 830 226.98C825.54 226.98 822.66 230.29 822.66 234.61V253.33C822.66 253.98 822.23 254.41 821.58 254.41H814.24C813.59 254.41 813.16 253.98 813.16 253.33V220.21C813.16 219.56 813.59 219.13 814.24 219.13H821.22C821.87 219.13 822.23 219.56 822.3 220.21L822.59 224.1C824.46 220.72 827.34 218.34 831.59 218.34C833.61 218.34 835.33 219.13 836.34 220C836.92 220.43 836.92 220.94 836.7 221.44L836.69 221.43Z" fill="black"/>
<path d="M837.398 236.838C837.398 226.468 845.538 218.328 855.688 218.328C865.838 218.328 873.978 226.468 873.978 236.838C873.978 247.208 865.838 255.348 855.688 255.348C845.538 255.348 837.398 247.208 837.398 236.838ZM864.838 236.838C864.838 231.148 860.738 227.118 855.698 227.118C850.658 227.118 846.558 231.148 846.558 236.838C846.558 242.528 850.588 246.558 855.698 246.558C860.808 246.558 864.838 242.528 864.838 236.838Z" fill="black"/>
<path d="M916.169 236.838C916.169 247.138 908.969 255.348 899.099 255.348C894.779 255.348 891.399 253.548 888.879 250.888V267.018C888.879 267.668 888.449 268.098 887.799 268.098H880.459C879.809 268.098 879.379 267.668 879.379 267.018V220.218C879.379 219.568 879.809 219.138 880.459 219.138H887.079C887.729 219.138 888.089 219.568 888.159 220.218L888.379 223.528C891.039 220.508 894.639 218.348 899.109 218.348C908.969 218.348 916.179 226.558 916.179 236.858L916.169 236.838ZM907.029 236.768C907.029 231.148 903.209 226.978 897.959 226.978C892.709 226.978 888.959 231.438 888.959 236.768C888.959 242.098 892.779 246.708 897.959 246.708C903.139 246.708 907.029 242.458 907.029 236.768Z" fill="black"/>
<path d="M920.129 236.838C920.129 226.468 928.269 218.328 938.419 218.328C948.569 218.328 956.709 226.468 956.709 236.838C956.709 247.208 948.569 255.348 938.419 255.348C928.269 255.348 920.129 247.208 920.129 236.838ZM947.569 236.838C947.569 231.148 943.469 227.118 938.429 227.118C933.389 227.118 929.289 231.148 929.289 236.838C929.289 242.528 933.319 246.558 938.429 246.558C943.539 246.558 947.569 242.528 947.569 236.838Z" fill="black"/>
<path d="M963.189 201.848H970.529C971.179 201.848 971.609 202.278 971.609 202.928V253.328C971.609 253.978 971.179 254.408 970.529 254.408H963.189C962.539 254.408 962.109 253.978 962.109 253.328V202.928C962.109 202.278 962.539 201.848 963.189 201.848Z" fill="black"/>
<path d="M977.801 207.17C977.801 204.29 980.101 201.91 983.061 201.91C986.021 201.91 988.241 204.29 988.241 207.17C988.241 210.05 985.941 212.43 983.061 212.43C980.181 212.43 977.801 210.05 977.801 207.17ZM979.391 219.13H986.731C987.381 219.13 987.811 219.56 987.811 220.21V253.33C987.811 253.98 987.381 254.41 986.731 254.41H979.391C978.741 254.41 978.311 253.98 978.311 253.33V220.21C978.311 219.56 978.741 219.13 979.391 219.13Z" fill="black"/>
<path d="M1014.67 220.208V225.828C1014.67 226.478 1014.24 226.908 1013.59 226.908H1008.55V253.338C1008.55 253.988 1008.12 254.418 1007.47 254.418H1000.13C999.48 254.418 999.05 253.988 999.05 253.338V226.908H994.01C993.36 226.908 992.93 226.478 992.93 225.828V220.208C992.93 219.558 993.36 219.128 994.01 219.128H999.05V209.408C999.05 208.758 999.48 208.328 1000.13 208.328H1007.47C1008.12 208.328 1008.55 208.758 1008.55 209.408V219.128H1013.59C1014.24 219.128 1014.67 219.558 1014.67 220.208Z" fill="black"/>
<path d="M1054.7 220.208V253.328C1054.7 253.978 1054.27 254.408 1053.62 254.408H1047C1046.35 254.408 1045.99 253.978 1045.92 253.328L1045.63 250.308C1043.11 253.258 1039.58 255.348 1034.97 255.348C1025.11 255.348 1017.9 247.138 1017.9 236.838C1017.9 226.538 1025.1 218.328 1034.97 218.328C1039.43 218.328 1043.03 220.488 1045.7 223.508L1045.92 220.198C1045.99 219.548 1046.35 219.118 1047 219.118H1053.62C1054.27 219.118 1054.7 219.548 1054.7 220.198V220.208ZM1045.13 236.768C1045.13 231.438 1041.31 226.978 1036.13 226.978C1030.95 226.978 1027.06 231.158 1027.06 236.768C1027.06 242.378 1030.88 246.708 1036.13 246.708C1041.38 246.708 1045.13 242.098 1045.13 236.768Z" fill="black"/>
<path d="M1094.59 233.24V253.33C1094.59 253.98 1094.16 254.41 1093.51 254.41H1086.17C1085.52 254.41 1085.09 253.98 1085.09 253.33V234.97C1085.09 229.14 1081.92 227.12 1078.47 227.12C1073.14 227.12 1070.69 232.38 1070.69 234.03V253.33C1070.69 253.98 1070.26 254.41 1069.61 254.41H1062.27C1061.62 254.41 1061.19 253.98 1061.19 253.33V220.21C1061.19 219.56 1061.62 219.13 1062.27 219.13H1069.33C1069.98 219.13 1070.34 219.56 1070.41 220.21L1070.7 224.82V224.89C1073 221.15 1076.75 218.34 1081.86 218.34C1089.06 218.34 1094.61 223.81 1094.61 233.25L1094.59 233.24Z" fill="black"/>
<path d="M1136.78 220.208V253.328C1136.78 253.978 1136.35 254.408 1135.7 254.408H1129.08C1128.43 254.408 1128.07 253.978 1128 253.328L1127.71 250.308C1125.19 253.258 1121.66 255.348 1117.05 255.348C1107.19 255.348 1099.98 247.138 1099.98 236.838C1099.98 226.538 1107.18 218.328 1117.05 218.328C1121.51 218.328 1125.11 220.488 1127.78 223.508L1128 220.198C1128.07 219.548 1128.43 219.118 1129.08 219.118H1135.7C1136.35 219.118 1136.78 219.548 1136.78 220.198V220.208ZM1127.2 236.768C1127.2 231.438 1123.38 226.978 1118.2 226.978C1113.02 226.978 1109.13 231.158 1109.13 236.768C1109.13 242.378 1112.95 246.708 1118.2 246.708C1123.45 246.708 1127.2 242.098 1127.2 236.768Z" fill="black"/>
<path d="M712.96 454.209L699.45 395.559H617.85V390.379H542.9V395.559H420.5V390.379H345.55V395.559H277.61L267.57 454.239L267.91 487.169L301.86 491.959H370.23C369.83 490.429 369.6 488.829 369.6 487.169C369.6 476.629 378.15 468.079 388.69 468.079C399.23 468.079 407.78 476.629 407.78 487.169C407.78 488.829 407.55 490.429 407.15 491.959H590.08C589.68 490.429 589.45 488.829 589.45 487.169C589.45 476.629 598 468.079 608.54 468.079C619.08 468.079 627.63 476.629 627.63 487.169C627.63 488.829 627.4 490.429 627 491.959H712.96V454.209Z" fill="#FFDD00" stroke="#1D1D1B" stroke-width="8.11" stroke-linecap="round" stroke-linejoin="round"/>
<path d="M388.668 468.07C378.128 468.07 369.578 476.62 369.578 487.16C369.578 488.82 369.808 490.42 370.208 491.95C372.338 500.18 379.788 506.26 388.668 506.26C397.548 506.26 405.008 500.18 407.128 491.95C407.528 490.42 407.758 488.82 407.758 487.16C407.758 476.62 399.208 468.07 388.668 468.07Z" fill="white" stroke="#1D1D1B" stroke-width="8.11" stroke-linecap="round" stroke-linejoin="round"/>
<path d="M608.531 468.07C597.991 468.07 589.441 476.62 589.441 487.16C589.441 488.82 589.671 490.42 590.071 491.95C592.201 500.18 599.651 506.26 608.531 506.26C617.411 506.26 624.871 500.18 626.991 491.95C627.391 490.42 627.621 488.82 627.621 487.16C627.621 476.62 619.071 468.07 608.531 468.07Z" fill="white" stroke="#1D1D1B" stroke-width="8.11" stroke-linecap="round" stroke-linejoin="round"/>
<path d="M608.528 493.688C612.129 493.688 615.048 490.769 615.048 487.168C615.048 483.568 612.129 480.648 608.528 480.648C604.927 480.648 602.008 483.568 602.008 487.168C602.008 490.769 604.927 493.688 608.528 493.688Z" fill="black"/>
<path d="M388.668 493.688C392.269 493.688 395.188 490.769 395.188 487.168C395.188 483.568 392.269 480.648 388.668 480.648C385.068 480.648 382.148 483.568 382.148 487.168C382.148 490.769 385.068 493.688 388.668 493.688Z" fill="black"/>
<path d="M447.25 415.25H354.27V457.98H447.25V415.25Z" fill="white" stroke="#1D1D1B" stroke-width="8.11" stroke-linecap="round" stroke-linejoin="round"/>
<path d="M643.77 415.25H489.59V457.98H643.77V415.25Z" fill="white" stroke="#1D1D1B" stroke-width="8.11" stroke-linecap="round" stroke-linejoin="round"/>
<path d="M704.738 415.25H713.978C717.558 415.25 720.728 417.53 721.878 420.92L728.248 439.8" stroke="#1D1D1B" stroke-width="8.11" stroke-linecap="round" stroke-linejoin="round"/>
<path d="M703.981 415.25H685.801V457.98L712.961 464.76V453.6L703.981 415.25H704.741H703.981Z" fill="white"/>
<path d="M703.981 415.25H685.801V457.98L712.961 464.76V453.6L703.981 415.25ZM703.981 415.25H704.741H703.981Z" stroke="#1D1D1B" stroke-width="8.11" stroke-linecap="round" stroke-linejoin="round"/>
<path d="M354.268 415.25H311.918V491.96H354.268V415.25Z" fill="white" stroke="#1D1D1B" stroke-width="8.11" stroke-linecap="round" stroke-linejoin="round"/>
<path d="M333.191 434.57V491.96" stroke="#1D1D1B" stroke-width="8.11" stroke-linecap="round" stroke-linejoin="round"/>
<path d="M489.588 415.25H447.238V491.96H489.588V415.25Z" fill="white" stroke="#1D1D1B" stroke-width="8.11" stroke-linecap="round" stroke-linejoin="round"/>
<path d="M468.52 434.57V491.96" stroke="#1D1D1B" stroke-width="8.11" stroke-linecap="round" stroke-linejoin="round"/>
<path d="M685.8 415.25H643.75V491.96H685.8V415.25Z" fill="white" stroke="#1D1D1B" stroke-width="8.11" stroke-linecap="round" stroke-linejoin="round"/>
<path d="M664.719 434.57V491.96" stroke="#1D1D1B" stroke-width="8.11" stroke-linecap="round" stroke-linejoin="round"/>
<path d="M628.559 420.602H496.559V454.022H520.409C522.099 457.332 524.549 460.262 527.559 462.492C531.669 465.532 536.729 467.202 541.849 467.202C541.989 467.202 542.129 467.202 542.269 467.202C544.259 467.162 546.109 466.932 547.759 466.522C548.449 466.352 549.059 466.142 549.629 465.902V465.882C552.709 464.602 554.799 461.552 554.799 458.162C554.799 456.662 554.389 455.262 553.689 454.042H628.559V420.622V420.602Z" fill="white"/>
<path d="M615.46 438.44C615.17 436.27 614.48 434.15 613.43 432.23C611.36 428.42 607.92 425.42 603.86 423.9C601.83 423.14 599.67 422.75 597.5 422.75C592.46 422.75 587.57 424.91 584.16 428.62C578.51 422.43 569.06 420.98 561.81 425.17C559.92 426.26 558.22 427.7 556.84 429.4C553.39 425.63 548.58 423.23 543.48 422.82C538.98 422.45 534.42 423.61 530.65 426.09C527.04 428.47 524.22 431.98 522.7 436.03C521.12 440.24 521 444.95 522.34 449.25C523.63 453.37 526.24 457.02 529.71 459.58C533.3 462.24 537.73 463.65 542.2 463.57C543.76 463.54 545.35 463.38 546.87 463C547.33 462.88 547.77 462.74 548.19 462.56C547.64 462.78 547.04 462.9 546.41 462.9C543.78 462.9 541.65 460.77 541.65 458.14C541.65 455.78 543.37 453.82 545.63 453.44C545.04 453.52 544.45 453.66 543.82 453.78C541.46 454.21 538.98 453.95 536.84 452.85C532.86 450.79 530.5 446.39 531 441.94C531.49 437.54 534.73 433.77 539.01 432.62C541.36 431.99 543.91 432.17 546.14 433.15C548.53 434.2 550.52 436.19 551.85 438.41C552.18 438.97 552.47 439.55 552.7 440.16C552.93 440.76 553.07 441.39 553.38 441.96C554.01 443.1 555.1 443.95 556.35 444.27C558.84 444.91 561.3 443.44 562.06 441.04C562.27 440.38 562.3 439.7 562.44 439.03C562.69 437.85 563.19 436.73 563.9 435.75C565.31 433.84 567.49 432.57 569.85 432.29C574.38 431.77 578.62 435.02 579.31 439.52C579.49 440.7 579.67 441.75 580.47 442.71C581.31 443.71 582.56 444.33 583.87 444.4C585.2 444.47 586.53 443.96 587.47 443.02C588.35 442.15 588.73 441.06 588.87 439.86C589.41 435.29 593.68 431.88 598.25 432.27C602.78 432.66 606.2 436.67 606.03 441.21C606.01 441.74 605.98 442.23 606 442.72C606 440.08 608.15 437.94 610.79 437.94C613.43 437.94 615.58 440.09 615.58 442.73C615.58 442.73 615.58 442.74 615.58 442.75C615.6 442.56 615.61 442.36 615.62 442.17C615.67 440.92 615.64 439.67 615.48 438.44" fill="#FFDD00"/>
<path d="M615.568 442.739C615.568 445.389 613.418 447.529 610.778 447.529C608.128 447.529 605.988 445.379 605.988 442.739C605.988 440.099 608.138 437.949 610.778 437.949C613.418 437.949 615.568 440.099 615.568 442.739Z" fill="#1D1D1B"/>
<path d="M551.168 458.151C551.168 460.781 549.038 462.911 546.408 462.911C543.778 462.911 541.648 460.781 541.648 458.151C541.648 455.521 543.778 453.391 546.408 453.391C549.038 453.391 551.168 455.521 551.168 458.151Z" fill="#1D1D1B"/>
<path d="M847.52 506.259V388.879" stroke="#1D1D1B" stroke-width="8.11" stroke-miterlimit="10" stroke-linecap="round"/>
<path d="M847.521 387.6C853.856 387.6 858.991 382.465 858.991 376.13C858.991 369.795 853.856 364.66 847.521 364.66C841.186 364.66 836.051 369.795 836.051 376.13C836.051 382.465 841.186 387.6 847.521 387.6Z" stroke="#1D1D1B" stroke-width="8.11" stroke-miterlimit="10" stroke-linecap="round"/>
<path d="M847.52 364.651V302.691" stroke="#1D1D1B" stroke-width="8.11" stroke-miterlimit="10" stroke-linecap="round"/>
<path d="M858.789 378.289L914.069 398.529" stroke="#1D1D1B" stroke-width="8.11" stroke-miterlimit="10" stroke-linecap="round"/>
<path d="M835.579 377.941L780.969 398.531" stroke="#1D1D1B" stroke-width="8.11" stroke-miterlimit="10" stroke-linecap="round"/>
<path d="M105.469 354.121H177.869C197.189 354.121 212.879 369.811 212.879 389.131C212.879 408.451 197.189 424.141 177.869 424.141H105.469V354.121Z" fill="white" stroke="#1D1D1B" stroke-width="8.11" stroke-linecap="round" stroke-linejoin="round"/>
<path d="M108.488 424.141V506.261" stroke="#1D1D1B" stroke-width="8.11" stroke-linecap="round" stroke-linejoin="round"/>
<path d="M87.5508 506.26V349.24C87.5508 343.13 92.5008 338.18 98.6108 338.18C104.061 338.18 108.481 342.6 108.481 348.05V354.12" stroke="#1D1D1B" stroke-width="8.11" stroke-linecap="round" stroke-linejoin="round"/>
<path d="M1470.02 506.26H1499.23V396.25H1450.28V506.26H1470.02Z" fill="#FFDD00" stroke="#1D1D1B" stroke-width="8.11" stroke-linecap="round" stroke-linejoin="round"/>
<path d="M1420.43 282.68H1529.09C1533.45 282.68 1536.98 279.147 1536.98 274.79V207.3C1536.98 202.942 1533.45 199.41 1529.09 199.41H1420.43C1416.07 199.41 1412.54 202.942 1412.54 207.3V274.79C1412.54 279.147 1416.07 282.68 1420.43 282.68Z" fill="#FFDD00" stroke="#1D1D1B" stroke-width="8.11" stroke-miterlimit="10"/>
<path d="M1439.28 265.23H1510.24C1513.2 265.23 1515.6 262.831 1515.6 259.87V222.22C1515.6 219.26 1513.2 216.86 1510.24 216.86H1439.28C1436.32 216.86 1433.92 219.26 1433.92 222.22V259.87C1433.92 262.831 1436.32 265.23 1439.28 265.23Z" fill="white" stroke="#1D1D1B" stroke-width="8.11" stroke-miterlimit="10"/>
<path d="M1474.76 396.25V282.68" stroke="#1D1D1B" stroke-width="8.11" stroke-miterlimit="10"/>
<path d="M2 506H1648" stroke="#1D1D1B" stroke-width="8.11" stroke-miterlimit="10" stroke-linecap="round"/>
<path d="M1221.76 376.531H1023.56V486.971H1221.76V376.531Z" fill="white"/>
<path d="M1023.56 358.91V505.68H1005.9V358.91" stroke="#1D1D1B" stroke-width="8.11" stroke-miterlimit="10" stroke-linecap="round"/>
<path d="M1089.63 358.91V504.83" stroke="#1D1D1B" stroke-width="8.11" stroke-miterlimit="10" stroke-linecap="round"/>
<path d="M1155.7 358.91V504.83" stroke="#1D1D1B" stroke-width="8.11" stroke-miterlimit="10" stroke-linecap="round"/>
<path d="M1238.86 358.91V505.68H1221.76V358.91" stroke="#1D1D1B" stroke-width="8.11" stroke-miterlimit="10" stroke-linecap="round"/>
<path d="M1001.43 358.91H1243.33C1243.33 349.16 1235.12 341.25 1224.99 341.25H1019.77C1009.64 341.25 1001.43 349.16 1001.43 358.91Z" stroke="#1D1D1B" stroke-width="8.11" stroke-miterlimit="10" stroke-linecap="round"/>
<path d="M1069.44 479.648H1175.33C1181.04 479.648 1185.68 484.288 1185.68 489.998H1059.09C1059.09 484.288 1063.73 479.648 1069.44 479.648Z" fill="#1A171B"/>
</g>
<defs>
<clipPath id="clip0_907_8397">
<rect width="1621" height="575" fill="white"/>
</clipPath>
</defs>
</svg>
