<svg width="100" height="100" viewBox="0 0 100 100" fill="none" xmlns="http://www.w3.org/2000/svg">
<path d="M50.39 81.78C67.7262 81.78 81.78 67.7262 81.78 50.39C81.78 33.0538 67.7262 19 50.39 19C33.0538 19 19 33.0538 19 50.39C19 67.7262 33.0538 81.78 50.39 81.78Z" fill="#FFDD00"/>
<path d="M41.7736 28.28C39.1392 28.28 37 30.441 37 33.1022V68.4579C37 71.1191 39.1392 73.28 41.7736 73.28H59.2737C61.9081 73.28 64.0473 71.1191 64.0473 68.4579V61.915C63.5323 61.995 62.9975 62.025 62.4528 62.025C61.9081 62.025 61.3832 61.985 60.8583 61.915V68.4579C60.8583 69.3483 60.1452 70.0686 59.2638 70.0686H41.7637C40.8823 70.0686 40.1692 69.3483 40.1692 68.4579V33.1022C40.1692 32.2118 40.8823 31.4915 41.7637 31.4915H59.2638C60.1452 31.4915 60.8583 32.2118 60.8583 33.1022V39.6451C61.3733 39.565 61.9081 39.535 62.4528 39.535C62.9975 39.535 63.5224 39.575 64.0473 39.6451V33.1022C64.0473 30.441 61.9081 28.28 59.2737 28.28H41.7736Z" fill="black"/>
<path d="M48.1416 33.1022C47.2602 33.1022 46.5471 33.8225 46.5471 34.7129C46.5471 35.6033 47.2602 36.3236 48.1416 36.3236H52.9153C53.7967 36.3236 54.5098 35.6033 54.5098 34.7129C54.5098 33.8225 53.7967 33.1022 52.9153 33.1022H48.1416Z" fill="black"/>
<path d="M62.4527 45.9579C63.3342 45.9579 64.0472 46.6782 64.0472 47.5686V49.1793H65.6418C66.5232 49.1793 67.2363 49.8996 67.2363 50.79C67.2363 51.6804 66.5232 52.4007 65.6418 52.4007H64.0472V54.0115C64.0472 54.9019 63.3342 55.6222 62.4527 55.6222C61.5713 55.6222 60.8582 54.9019 60.8582 54.0115V52.4007H59.2637C58.3823 52.4007 57.6692 51.6804 57.6692 50.79C57.6692 49.8996 58.3823 49.1793 59.2637 49.1793H60.8582V47.5686C60.8582 46.6782 61.5713 45.9579 62.4527 45.9579Z" fill="black"/>
<path fill-rule="evenodd" clip-rule="evenodd" d="M52.9053 50.77C52.9053 45.4477 57.1738 41.1257 62.4525 41.1257C67.7313 41.1257 71.9998 45.4376 71.9998 50.77C71.9998 56.1024 67.7313 60.4143 62.4525 60.4143C57.1738 60.4143 52.9053 56.1024 52.9053 50.77ZM62.4525 44.3472C58.9367 44.3472 56.0943 47.2284 56.0943 50.77C56.0943 54.3116 58.9466 57.1929 62.4525 57.1929C65.9585 57.1929 68.8108 54.3116 68.8108 50.77C68.8108 47.2284 65.9585 44.3472 62.4525 44.3472Z" fill="black"/>
<path d="M93 16.5C93 16.2653 92.8461 16.0697 92.6307 15.9915L89.43 14.8278C86.5165 13.7717 84.2493 11.4932 83.2029 8.57908L82.0437 5.3716C81.9616 5.14668 81.7462 5 81.5 5C81.2538 5 81.0384 5.14668 80.9563 5.3716L79.7971 8.57908C78.7507 11.503 76.4835 13.7815 73.57 14.8278L70.3693 15.9915C70.1539 16.0697 70 16.2751 70 16.5C70 16.7249 70.1539 16.9303 70.3693 17.0085L73.57 18.1722C76.4835 19.2283 78.7507 21.5068 79.7971 24.4209L80.9563 27.6284C81.0384 27.8533 81.2538 28 81.5 28C81.7462 28 81.9616 27.8533 82.0437 27.6284L83.2029 24.4209C84.2493 21.497 86.5165 19.2185 89.43 18.1722L92.6307 17.0085C92.8461 16.9303 93 16.7249 93 16.5Z" fill="#FFDD00"/>
<path d="M99.6043 27.4332L98.0214 26.8663C97.3476 26.6203 96.7487 26.2353 96.2567 25.7433C95.7647 25.2513 95.3797 24.6524 95.1337 23.9786L94.5668 22.3957C94.4813 22.1604 94.2567 22 94 22C93.7433 22 93.5187 22.1604 93.4332 22.3957L92.8663 23.9786C92.385 25.3262 91.3262 26.3743 89.9786 26.8663L88.3957 27.4332C88.1604 27.5187 88 27.7433 88 28C88 28.2567 88.1604 28.4813 88.3957 28.5668L89.9786 29.1337C91.3262 29.615 92.3743 30.6738 92.8663 32.0214L93.4332 33.6043C93.5187 33.8396 93.7433 34 94 34C94.2567 34 94.4813 33.8396 94.5668 33.6043L95.1337 32.0214C95.615 30.6738 96.6738 29.6257 98.0214 29.1337L99.6043 28.5668C99.8396 28.4813 100 28.2567 100 28C100 27.7433 99.8396 27.5187 99.6043 27.4332Z" fill="black"/>
</svg>
