<?xml version="1.0" encoding="UTF-8"?>
<svg id="Camada_3" data-name="Camada 3" xmlns="http://www.w3.org/2000/svg" viewBox="0 0 380 194">
  <defs>
    <style>
      .cls-1 {
        fill: none;
        stroke-linecap: round;
        stroke-linejoin: round;
        stroke-width: 4.41px;
      }

      .cls-1, .cls-2 {
        stroke: #1a171b;
      }

      .cls-3 {
        fill: #ffdc00;
      }

      .cls-4, .cls-2 {
        fill: #fff;
      }

      .cls-5, .cls-6 {
        opacity: .05;
      }

      .cls-5, .cls-7 {
        fill: #1a171b;
      }

      .cls-6, .cls-8 {
        fill: #000207;
      }

      .cls-2 {
        stroke-width: .54px;
      }
    </style>
  </defs>
  <g>
    <path d="M246.96,38.04v.76c0,.16-.11.27-.27.27h-6.21c-.16,0-.27-.11-.27-.27v-12.06c0-.16.11-.27.27-.27h6.19c.16,0,.27.11.27.27v.76c0,.16-.11.27-.27.27h-5.06v3.98h4.75c.16,0,.27.11.27.27v.76c0,.16-.11.27-.27.27h-4.75v4.74h5.08c.16,0,.27.11.27.27Z"/>
    <path d="M256.19,33.56v5.24c0,.16-.11.27-.27.27h-.81c-.16,0-.27-.11-.27-.27v-5.15c0-1.57-.77-2.39-2.03-2.39-1.75,0-2.7,1.73-2.7,2.09v5.46c0,.16-.11.27-.27.27h-.81c-.16,0-.27-.11-.27-.27v-8.28c0-.16.11-.27.27-.27h.74c.16,0,.25.11.27.27l.07,1.24c.65-.95,1.64-1.71,2.99-1.71,1.85,0,3.1,1.15,3.1,3.51Z"/>
    <path d="M262.04,30.52v.61c0,.16-.11.27-.27.27h-1.26v7.4c0,.16-.11.27-.27.27h-.81c-.16,0-.27-.11-.27-.27v-7.4h-1.26c-.16,0-.27-.11-.27-.27v-.61c0-.16.11-.27.27-.27h1.26v-2.43c0-.16.11-.27.27-.27h.81c.16,0,.27.11.27.27v2.43h1.26c.16,0,.27.11.27.27Z"/>
    <path d="M268.11,30.63l-.29.63c-.07.14-.16.16-.32.13s-.34-.09-.7-.09c-1.1,0-1.96.83-1.96,1.96v5.54c0,.16-.11.27-.27.27h-.81c-.16,0-.27-.11-.27-.27v-8.28c0-.16.11-.27.27-.27h.72c.16,0,.25.11.27.27l.07.77c.49-.74,1.22-1.24,2.18-1.24.43,0,.81.11,1.06.29.11.07.13.14.05.29Z"/>
    <path d="M277.32,34.33c0,.61-.07.9-.52.9h-6.61c.2,1.67,1.4,2.9,3.28,2.9,1.1,0,1.84-.4,2.41-.88.13-.11.23-.16.38-.04l.34.32c.14.14.16.27.02.41-.83.86-1.98,1.35-3.29,1.35-2.63,0-4.47-2.04-4.47-4.63s1.78-4.63,4.32-4.63,4.14,2.03,4.14,4.29ZM270.17,34.19h5.96c-.07-1.66-1.28-2.95-2.95-2.95s-2.83,1.24-3.01,2.95Z"/>
    <path d="M290.97,33.56v5.24c0,.16-.11.27-.27.27h-.81c-.16,0-.27-.11-.27-.27v-5.15c0-1.57-.77-2.39-2.03-2.39-1.75,0-2.7,1.73-2.7,2.09v5.46c0,.16-.11.27-.27.27h-.81c-.16,0-.27-.11-.27-.27v-8.28c0-.16.11-.27.27-.27h.74c.16,0,.25.11.27.27l.07,1.24c.65-.95,1.64-1.71,2.99-1.71,1.85,0,3.1,1.15,3.1,3.51Z"/>
    <path d="M292.49,34.68c0-2.61,1.94-4.63,4.47-4.63s4.47,2.02,4.47,4.63-1.94,4.63-4.47,4.63-4.47-2.02-4.47-4.63ZM300.13,34.68c0-1.98-1.39-3.4-3.17-3.4s-3.17,1.42-3.17,3.4,1.39,3.4,3.17,3.4,3.17-1.42,3.17-3.4Z"/>
    <path d="M315.07,33.56v5.24c0,.16-.11.27-.27.27h-.81c-.16,0-.27-.11-.27-.27v-5.15c0-1.57-.77-2.39-2.03-2.39-1.75,0-2.7,1.73-2.7,2.09v5.46c0,.16-.11.27-.27.27h-.81c-.16,0-.27-.11-.27-.27v-8.28c0-.16.11-.27.27-.27h.74c.16,0,.25.11.27.27l.07,1.24c.65-.95,1.64-1.71,2.99-1.71,1.85,0,3.1,1.15,3.1,3.51Z"/>
    <path d="M316.59,34.68c0-2.61,1.94-4.63,4.47-4.63s4.47,2.02,4.47,4.63-1.94,4.63-4.47,4.63-4.47-2.02-4.47-4.63ZM324.23,34.68c0-1.98-1.39-3.4-3.17-3.4s-3.17,1.42-3.17,3.4,1.39,3.4,3.17,3.4,3.17-1.42,3.17-3.4Z"/>
    <path d="M333.08,36.84c0,1.49-1.51,2.47-3.04,2.47s-2.65-.74-3.28-1.48c-.11-.13-.11-.23-.02-.34l.4-.49c.13-.16.22-.13.38.02.45.41,1.37,1.1,2.48,1.1,1.04,0,1.76-.47,1.76-1.3,0-2.11-4.84-1.4-4.84-4.36,0-1.42,1.26-2.41,2.84-2.41.94,0,2.09.47,2.83,1.33.11.13.07.25-.02.38l-.31.4c-.11.14-.25.11-.4-.02-.7-.61-1.26-.94-2.11-.94-.65,0-1.55.31-1.55,1.26,0,2,4.86,1.24,4.86,4.38Z"/>
    <path d="M340.55,36.84c0,1.49-1.51,2.47-3.04,2.47s-2.65-.74-3.28-1.48c-.11-.13-.11-.23-.02-.34l.4-.49c.13-.16.22-.13.38.02.45.41,1.37,1.1,2.48,1.1,1.04,0,1.76-.47,1.76-1.3,0-2.11-4.84-1.4-4.84-4.36,0-1.42,1.26-2.41,2.84-2.41.94,0,2.09.47,2.83,1.33.11.13.07.25-.02.38l-.31.4c-.11.14-.25.11-.4-.02-.7-.61-1.26-.94-2.11-.94-.65,0-1.55.31-1.55,1.26,0,2,4.86,1.24,4.86,4.38Z"/>
    <path d="M341.72,34.68c0-2.61,1.94-4.63,4.47-4.63s4.47,2.02,4.47,4.63-1.94,4.63-4.47,4.63-4.47-2.02-4.47-4.63ZM349.36,34.68c0-1.98-1.39-3.4-3.17-3.4s-3.17,1.42-3.17,3.4,1.39,3.4,3.17,3.4,3.17-1.42,3.17-3.4Z"/>
    <path d="M199.51,58.71c.13.13.13.25,0,.38-1.12,1.12-2.65,1.82-4.39,1.82-3.6,0-6.48-2.86-6.48-6.48s2.88-6.5,6.48-6.5c1.75,0,3.28.7,4.39,1.82.13.13.13.25,0,.38l-1.19,1.28c-.11.13-.25.13-.38.02-.76-.67-1.69-1.08-2.84-1.08-2.2,0-3.93,1.75-3.93,4.09s1.73,4.07,3.93,4.07c1.15,0,2.09-.41,2.84-1.08.13-.11.27-.11.38.02l1.19,1.28Z"/>
    <path d="M209.89,52.12v8.28c0,.16-.11.27-.27.27h-1.66c-.16,0-.25-.11-.27-.27l-.07-.76c-.63.74-1.51,1.26-2.66,1.26-2.47,0-4.27-2.05-4.27-4.63s1.8-4.63,4.27-4.63c1.12,0,2.02.54,2.68,1.3l.05-.83c.02-.16.11-.27.27-.27h1.66c.16,0,.27.11.27.27ZM207.5,56.26c0-1.33-.95-2.45-2.25-2.45s-2.27,1.04-2.27,2.45.95,2.48,2.27,2.48,2.25-1.15,2.25-2.48Z"/>
    <path d="M219.87,55.38v5.02c0,.16-.11.27-.27.27h-1.84c-.16,0-.27-.11-.27-.27v-4.59c0-1.46-.79-1.96-1.66-1.96-1.33,0-1.94,1.31-1.94,1.73v4.83c0,.16-.11.27-.27.27h-1.84c-.16,0-.27-.11-.27-.27v-8.28c0-.16.11-.27.27-.27h1.76c.16,0,.25.11.27.27l.07,1.15v.02c.58-.94,1.51-1.64,2.79-1.64,1.8,0,3.19,1.37,3.19,3.73Z"/>
    <path d="M230.41,52.12v8.28c0,.16-.11.27-.27.27h-1.66c-.16,0-.25-.11-.27-.27l-.07-.76c-.63.74-1.51,1.26-2.66,1.26-2.47,0-4.27-2.05-4.27-4.63s1.8-4.63,4.27-4.63c1.12,0,2.02.54,2.68,1.3l.05-.83c.02-.16.11-.27.27-.27h1.66c.16,0,.27.11.27.27ZM228.02,56.26c0-1.33-.95-2.45-2.25-2.45s-2.27,1.04-2.27,2.45.95,2.48,2.27,2.48,2.25-1.15,2.25-2.48Z"/>
    <path d="M232.3,47.53h1.84c.16,0,.27.11.27.27v12.6c0,.16-.11.27-.27.27h-1.84c-.16,0-.27-.11-.27-.27v-12.6c0-.16.11-.27.27-.27Z"/>
    <path d="M249.66,47.8v12.6c0,.16-.11.27-.27.27h-1.66c-.16,0-.25-.11-.27-.27l-.07-.76c-.63.74-1.51,1.26-2.66,1.26-2.47,0-4.27-2.05-4.27-4.63s1.8-4.63,4.27-4.63c1.04,0,1.91.47,2.56,1.15v-5.01c0-.16.11-.27.27-.27h1.84c.16,0,.27.11.27.27ZM247.26,56.26c0-1.33-.95-2.45-2.25-2.45s-2.27,1.04-2.27,2.45.95,2.48,2.27,2.48,2.25-1.15,2.25-2.48Z"/>
    <path d="M251,56.28c0-2.59,2.03-4.63,4.57-4.63s4.57,2.03,4.57,4.63-2.03,4.63-4.57,4.63-4.57-2.04-4.57-4.63ZM257.86,56.28c0-1.42-1.03-2.43-2.29-2.43s-2.29,1.01-2.29,2.43,1.01,2.43,2.29,2.43,2.29-1.01,2.29-2.43Z"/>
    <path d="M284.51,48.37l-3.83,12.08c-.05.14-.2.22-.34.22h-1.91c-.14,0-.27-.07-.31-.22l-2.92-8.7-2.92,8.7c-.05.14-.16.22-.31.22h-1.91c-.14,0-.29-.07-.32-.22l-3.82-12.08c-.07-.18.02-.31.22-.31h2c.14,0,.25.05.31.22l2.61,9.15,2.94-9.15c.02-.09.07-.14.14-.18.04-.02.09-.04.14-.04h1.84c.07,0,.13.02.16.04.05.04.09.09.13.18l2.94,9.15,2.65-9.15c.04-.16.16-.22.31-.22h2c.2,0,.27.13.22.31Z"/>
    <path d="M294.22,55.38v5.02c0,.16-.11.27-.27.27h-1.84c-.16,0-.27-.11-.27-.27v-4.59c0-1.46-.79-1.96-1.66-1.96-1.33,0-1.94,1.31-1.94,1.73v4.83c0,.16-.11.27-.27.27h-1.84c-.16,0-.27-.11-.27-.27v-12.6c0-.16.11-.27.27-.27h1.84c.16,0,.27.11.27.27v5.49c.58-.94,1.51-1.64,2.79-1.64,1.8,0,3.19,1.37,3.19,3.73Z"/>
    <path d="M304.77,52.12v8.28c0,.16-.11.27-.27.27h-1.66c-.16,0-.25-.11-.27-.27l-.07-.76c-.63.74-1.51,1.26-2.66,1.26-2.47,0-4.27-2.05-4.27-4.63s1.8-4.63,4.27-4.63c1.12,0,2.02.54,2.68,1.3l.05-.83c.02-.16.11-.27.27-.27h1.66c.16,0,.27.11.27.27ZM302.38,56.26c0-1.33-.95-2.45-2.25-2.45s-2.27,1.04-2.27,2.45.95,2.48,2.27,2.48,2.25-1.15,2.25-2.48Z"/>
    <path d="M311.47,52.12v1.4c0,.16-.11.27-.27.27h-1.26v6.61c0,.16-.11.27-.27.27h-1.84c-.16,0-.27-.11-.27-.27v-6.61h-1.26c-.16,0-.27-.11-.27-.27v-1.4c0-.16.11-.27.27-.27h1.26v-2.43c0-.16.11-.27.27-.27h1.84c.16,0,.27.11.27.27v2.43h1.26c.16,0,.27.11.27.27Z"/>
    <path d="M319.19,58.2c0,1.71-1.75,2.7-3.37,2.7-1.51,0-2.74-.74-3.37-1.48-.11-.13-.07-.25,0-.36l.7-.99c.11-.14.23-.11.4.02.72.47,1.49.81,2.2.81.58,0,1.13-.18,1.13-.74,0-1.4-4.27-.86-4.27-3.83,0-1.69,1.48-2.68,3.06-2.68,1.13,0,2.29.47,3.02,1.33.11.13.07.27-.02.38l-.68.9c-.11.14-.23.11-.4-.02-.68-.45-1.1-.68-1.73-.68-.56,0-.97.31-.97.76,0,1.44,4.29.65,4.29,3.89Z"/>
    <path d="M329.38,52.12v8.28c0,.16-.11.27-.27.27h-1.66c-.16,0-.25-.11-.27-.27l-.07-.76c-.63.74-1.51,1.26-2.66,1.26-2.47,0-4.27-2.05-4.27-4.63s1.8-4.63,4.27-4.63c1.12,0,2.02.54,2.68,1.3l.05-.83c.02-.16.11-.27.27-.27h1.66c.16,0,.27.11.27.27ZM326.98,56.26c0-1.33-.95-2.45-2.25-2.45s-2.27,1.04-2.27,2.45.95,2.48,2.27,2.48,2.25-1.15,2.25-2.48Z"/>
    <path d="M340.19,56.28c0,2.58-1.8,4.63-4.27,4.63-1.08,0-1.93-.45-2.56-1.12v4.03c0,.16-.11.27-.27.27h-1.84c-.16,0-.27-.11-.27-.27v-11.7c0-.16.11-.27.27-.27h1.66c.16,0,.25.11.27.27l.05.83c.67-.76,1.57-1.3,2.68-1.3,2.47,0,4.27,2.05,4.27,4.63ZM337.91,56.26c0-1.4-.95-2.45-2.27-2.45s-2.25,1.12-2.25,2.45.95,2.48,2.25,2.48,2.27-1.06,2.27-2.48Z"/>
    <path d="M350.74,56.28c0,2.58-1.8,4.63-4.27,4.63-1.08,0-1.93-.45-2.56-1.12v4.03c0,.16-.11.27-.27.27h-1.84c-.16,0-.27-.11-.27-.27v-11.7c0-.16.11-.27.27-.27h1.66c.16,0,.25.11.27.27l.05.83c.67-.76,1.57-1.3,2.68-1.3,2.47,0,4.27,2.05,4.27,4.63ZM348.46,56.26c0-1.4-.95-2.45-2.27-2.45s-2.25,1.12-2.25,2.45.95,2.48,2.25,2.48,2.27-1.06,2.27-2.48Z"/>
  </g>
  <g>
    <g>
      <path class="cls-2" d="M111.79,39.07h-14.03c-5.43,0-9.88,4.44-9.88,9.88h0c0,4.57,3.15,8.44,7.39,9.55.95.25,1.47,1.28,1.11,2.19l-1.61,4.04,8.76-5.21c.77-.46,1.65-.7,2.55-.7h5.71c5.43,0,9.88-4.44,9.88-9.88h0c0-5.43-4.44-9.88-9.88-9.88Z"/>
      <rect class="cls-3" x="98.09" y="47.41" width="3.42" height="6.84" rx="1.11" ry="1.11"/>
      <path class="cls-3" d="M111.31,48.88h-.01c.73,0,1.3-.66,1.16-1.41-.11-.56-.63-.95-1.2-.95h-4.2c-.27,0-.47-.24-.43-.5l.46-3.11c.09-.61-.37-1.2-.99-1.19-.55.01-.99.47-.96,1.03.05,1.03-.39,2.03-1.06,2.81l-1.56,1.82c-.19.22-.28.49-.28.78l.13,4.72c0,.35.18.68.46.89h0c.41.3.9.47,1.41.47h6.24c.47,0,.89-.34.94-.8.05-.53-.36-.98-.89-.98h.38c.47,0,.89-.34.94-.8.05-.53-.36-.98-.89-.98h.41c.52,0,.94-.45.89-.98-.05-.46-.47-.8-.94-.8Z"/>
    </g>
    <g>
      <g>
        <g>
          <path class="cls-4" d="M27.47,153.24v-68.09c0-6.55,5.31-11.86,11.86-11.86h52.25c6.55,0,11.86,5.31,11.86,11.86v122.2c0,6.55-5.31,11.86-11.86,11.86h-52.25c-6.55,0-11.86-5.31-11.86-11.86v-37.73"/>
          <path class="cls-1" d="M27.47,129.98v-44.83c0-6.55,5.31-11.86,11.86-11.86h52.25c6.55,0,11.86,5.31,11.86,11.86v122.2c0,6.55-5.31,11.86-11.86,11.86h-52.25c-6.55,0-11.86-5.31-11.86-11.86v-77.36Z"/>
          <path class="cls-8" d="M46.93,74.26h37.17v2.77c0,2.53-2.05,4.58-4.58,4.58h-28.01c-2.53,0-4.58-2.05-4.58-4.58v-2.77h0Z"/>
        </g>
        <path class="cls-3" d="M87.29,110h-43.68c-4.34,0-7.89,3.55-7.89,7.89h0c0,3.65,2.52,6.74,5.9,7.63.76.2,1.18,1.02.89,1.75l-1.28,3.22,7-4.16c.62-.37,1.32-.56,2.03-.56h37.03c4.34,0,7.89-3.55,7.89-7.89h0c0-4.34-3.55-7.89-7.89-7.89Z"/>
        <path class="cls-6" d="M43.61,139.92h43.68c4.34,0,7.89,3.55,7.89,7.89h0c0,3.65-2.52,6.74-5.9,7.63-.76.2-1.18,1.02-.89,1.75l1.28,3.22-7-4.16c-.62-.37-1.32-.56-2.03-.56h-37.03c-4.34,0-7.89-3.55-7.89-7.89h0c0-4.34,3.55-7.89,7.89-7.89Z"/>
        <path class="cls-6" d="M43.61,85.62h43.68c4.34,0,7.89,3.55,7.89,7.89h0c0,3.65-2.52,6.74-5.9,7.63-.76.2-1.18,1.02-.89,1.75l1.28,3.22-7-4.16c-.62-.37-1.32-.56-2.03-.56h-37.03c-4.34,0-7.89-3.55-7.89-7.89h0c0-4.34,3.55-7.89,7.89-7.89Z"/>
        <path class="cls-3" d="M87.29,165.81h-43.68c-4.34,0-7.89,3.55-7.89,7.89h0c0,3.65,2.52,6.74,5.9,7.63.76.2,1.18,1.02.89,1.75l-1.28,3.22,7-4.16c.62-.37,1.32-.56,2.03-.56h37.03c4.34,0,7.89-3.55,7.89-7.89h0c0-4.34-3.55-7.89-7.89-7.89Z"/>
      </g>
      <g>
        <polygon class="cls-4" points="73.37 170.56 81.5 170.56 81.5 136.39 86.5 136.39 86.5 170.56 94.63 170.56 94.63 127.1 73.37 127.1 73.37 170.56"/>
        <polygon class="cls-3" points="99.62 170.56 160.01 170.56 184.65 170.56 192.24 170.56 192.24 152.73 99.62 152.73 99.62 170.56"/>
        <path class="cls-4" d="M235.94,146.69l-4.42-19.58h-8.03v21.15l12.87,2.97v-.81c0-1.25-.14-2.5-.41-3.72Z"/>
        <path class="cls-3" d="M223.48,170.56h8.18c2.59,0,4.69-2.1,4.69-4.69v-9.53l-12.87-2.97v17.18Z"/>
        <polygon class="cls-4" points="197.23 170.56 205.37 170.56 205.37 136.39 210.36 136.39 210.36 170.56 218.49 170.56 218.49 127.1 197.23 127.1 197.23 170.56"/>
        <path class="cls-3" d="M229.4,117.74c-.41-1.8-2-3.07-3.84-3.07h-35.11c-1.2,0-2.34-.47-3.19-1.32l-1.67-1.67h-52.99l-2.29,1.93c-.81.68-1.84,1.06-2.9,1.06h-62.32c-2.08,0-3.76,1.71-3.72,3.79h0c.04,2.03,1.69,3.66,3.72,3.66h165.29l-.99-4.37Z"/>
        <path class="cls-7" d="M178.05,148.6s0-.07,0-.11h0s0,.07,0,.11"/>
        <path class="cls-7" d="M247.23,127.91c-.92-3.41-4.03-5.8-7.56-5.8h-4.16l-1.23-5.47c-.92-4.07-4.54-6.96-8.71-6.96h-34.91l-2.99-2.99h-56.88l-3.55,2.99h-40.77c-1.39,0-2.51,1.15-2.47,2.54v.04c.04,1.34,1.14,2.41,2.48,2.41h40.94c1.06,0,2.09-.37,2.9-1.06l2.29-1.93h52.99l1.67,1.67c.85.85,1.99,1.32,3.19,1.32h35.11c1.84,0,3.44,1.28,3.84,3.07l.99,4.37H63.93c-1.37,0-2.47,1.11-2.47,2.48v.06c0,1.36,1.11,2.45,2.47,2.45h4.45v43.46h-6.07c-1.38,0-2.5,1.12-2.5,2.5h0c0,1.38,1.12,2.5,2.5,2.5h169.35c5.35,0,9.68-4.33,9.68-9.68v-15.46c0-1.62-.18-3.24-.54-4.82l-4.17-18.48h3.04c1.28,0,2.41.86,2.74,2.12l2.9,10.48h5.18l-3.26-11.8ZM94.63,170.56h-8.13v-34.17h-4.99v34.17h-8.13v-43.46h21.26v43.46ZM192.24,170.56h-92.62v-17.83h92.62v17.83ZM192.24,147.74h-92.62v-20.64h92.62v20.64ZM218.49,170.56h-8.13v-34.17h-4.99v34.17h-8.13v-43.46h21.26v43.46ZM236.35,165.87c0,2.59-2.1,4.69-4.69,4.69h-8.18v-17.18l12.87,2.97v9.53ZM236.35,151.22l-12.87-2.97v-21.15h8.03l4.42,19.58c.28,1.22.41,2.47.41,3.72v.81Z"/>
        <path class="cls-4" d="M192.24,127.1h-92.62v20.64h15.79c1,1.95,2.45,3.68,4.22,5,2.43,1.8,5.41,2.78,8.43,2.78.08,0,.17,0,.25,0,1.17-.02,2.27-.16,3.24-.4.41-.1.77-.22,1.1-.37h0c1.82-.77,3.06-2.57,3.06-4.57,0-.89-.24-1.71-.65-2.43h57.19v-20.64Z"/>
        <path class="cls-3" d="M171.51,138.54c-.17-1.28-.58-2.53-1.2-3.67-1.22-2.25-3.25-4.02-5.65-4.92-1.2-.45-2.47-.68-3.75-.68-2.98,0-5.86,1.27-7.87,3.46-3.33-3.65-8.91-4.51-13.19-2.03-1.12.65-2.12,1.5-2.93,2.49-2.03-2.23-4.88-3.64-7.88-3.88-2.66-.22-5.35.47-7.57,1.93-2.13,1.4-3.8,3.48-4.69,5.87-.93,2.49-1,5.27-.21,7.8.76,2.43,2.3,4.58,4.35,6.1,2.12,1.57,4.73,2.4,7.37,2.36.92-.02,1.86-.11,2.76-.34.27-.07.53-.15.78-.26-.32.13-.68.2-1.05.2-1.55,0-2.81-1.26-2.81-2.81,0-1.39,1.02-2.55,2.35-2.77-.35.05-.7.13-1.07.2-1.39.25-2.86.1-4.12-.55-2.35-1.21-3.74-3.81-3.45-6.44.29-2.6,2.2-4.82,4.73-5.5,1.39-.37,2.89-.27,4.2.31,1.41.62,2.58,1.79,3.37,3.11.2.33.36.67.5,1.03.14.35.22.73.4,1.06.37.67,1.01,1.17,1.76,1.37,1.47.38,2.92-.49,3.37-1.9.12-.39.14-.79.22-1.19.15-.7.44-1.36.86-1.93.83-1.13,2.12-1.88,3.51-2.04,2.67-.31,5.17,1.61,5.58,4.27.11.7.21,1.32.69,1.88.5.59,1.23.96,2,1,.79.04,1.57-.26,2.13-.82.52-.52.74-1.16.83-1.87.32-2.7,2.84-4.71,5.53-4.48,2.67.23,4.69,2.6,4.59,5.27-.01.31-.03.6-.02.89,0-1.56,1.27-2.82,2.83-2.82s2.83,1.27,2.83,2.83c0,0,0,0,0,.01,0-.11.02-.23.02-.34.03-.73.01-1.47-.08-2.2"/>
        <path class="cls-7" d="M171.57,141.08c0,1.56-1.27,2.83-2.83,2.83s-2.83-1.27-2.83-2.83,1.27-2.83,2.83-2.83,2.83,1.27,2.83,2.83"/>
        <path class="cls-7" d="M133.57,150.17c0,1.55-1.26,2.81-2.81,2.81s-2.81-1.26-2.81-2.81,1.26-2.81,2.81-2.81,2.81,1.26,2.81,2.81"/>
        <g>
          <path class="cls-4" d="M172.33,162.33c-4.07,0-7.37,3.31-7.37,7.37s3.31,7.37,7.37,7.37c4.07,0,7.37-3.31,7.37-7.37s-3.31-7.37-7.37-7.37Z"/>
          <path class="cls-7" d="M172.33,182.07c-6.82,0-12.37-5.55-12.37-12.37s5.55-12.37,12.37-12.37c6.82,0,12.37,5.55,12.37,12.37s-5.55,12.37-12.37,12.37ZM172.33,162.33c-4.07,0-7.37,3.31-7.37,7.37s3.31,7.37,7.37,7.37c4.07,0,7.37-3.31,7.37-7.37s-3.31-7.37-7.37-7.37Z"/>
          <rect class="cls-7" x="169.3" y="166.67" width="6.07" height="6.07" rx="3.03" ry="3.03"/>
        </g>
      </g>
    </g>
    <g>
      <path class="cls-5" d="M314.13,92.71h-44.07c-6.49,0-11.79,5.31-11.79,11.79h0c0,5.46,3.76,10.09,8.82,11.41,1.14.3,1.76,1.53,1.32,2.62l-1.92,4.82,10.47-6.22c.92-.55,1.97-.84,3.04-.84h34.13c6.49,0,11.79-5.31,11.79-11.79h0c0-6.49-5.31-11.79-11.79-11.79Z"/>
      <g>
        <path class="cls-3" d="M314.13,94.13h-44.07c-6.49,0-11.79,5.31-11.79,11.79h0c0,5.46,3.76,10.09,8.82,11.41,1.14.3,1.76,1.53,1.32,2.62l-1.92,4.82,10.47-6.22c.92-.55,1.97-.84,3.04-.84h34.13c6.49,0,11.79-5.31,11.79-11.79h0c0-6.49-5.31-11.79-11.79-11.79Z"/>
        <g>
          <path class="cls-7" d="M279.75,103.84v5.44c0,.11-.07.18-.18.18h-1.09c-.11,0-.17-.07-.18-.18l-.05-.5c-.41.48-.99.83-1.75.83-1.62,0-2.8-1.35-2.8-3.04s1.18-3.04,2.8-3.04c.73,0,1.32.35,1.76.85l.04-.54c.01-.11.07-.18.18-.18h1.09c.11,0,.18.07.18.18ZM278.18,106.56c0-.88-.63-1.61-1.48-1.61s-1.49.69-1.49,1.61.63,1.63,1.49,1.63,1.48-.76,1.48-1.63Z"/>
          <path class="cls-7" d="M280.99,100.82h1.21c.11,0,.18.07.18.18v8.28c0,.11-.07.18-.18.18h-1.21c-.11,0-.18-.07-.18-.18v-8.28c0-.11.07-.18.18-.18Z"/>
          <path class="cls-7" d="M288.54,107.14h-3.71c.15.77.75,1.21,1.66,1.21.46,0,.83-.12,1.23-.4.11-.07.18-.07.26.01l.52.51c.08.08.08.17-.01.26-.56.56-1.31.89-2.15.89-1.81,0-3.05-1.34-3.05-3.04s1.24-3.04,2.92-3.04,2.76,1.34,2.76,2.91c0,.46-.06.7-.41.7ZM284.8,106.12h2.77c-.11-.82-.66-1.27-1.36-1.27s-1.28.45-1.41,1.27Z"/>
          <path class="cls-7" d="M293.7,104.04l-.35.88c-.05.13-.14.15-.26.12s-.26-.08-.48-.08c-.73,0-1.21.54-1.21,1.25v3.07c0,.11-.07.18-.18.18h-1.21c-.11,0-.18-.07-.18-.18v-5.44c0-.11.07-.18.18-.18h1.15c.11,0,.17.07.18.18l.05.64c.31-.56.78-.95,1.48-.95.33,0,.61.13.78.27.09.07.09.15.06.24Z"/>
          <path class="cls-7" d="M297.71,103.84v.92c0,.11-.07.18-.18.18h-.83v4.34c0,.11-.07.18-.18.18h-1.21c-.11,0-.18-.07-.18-.18v-4.34h-.83c-.11,0-.18-.07-.18-.18v-.92c0-.11.07-.18.18-.18h.83v-1.6c0-.11.07-.18.18-.18h1.21c.11,0,.18.07.18.18v1.6h.83c.11,0,.18.07.18.18Z"/>
          <path class="cls-7" d="M304.28,103.84v5.44c0,.11-.07.18-.18.18h-1.09c-.11,0-.17-.07-.18-.18l-.05-.5c-.41.48-.99.83-1.75.83-1.62,0-2.8-1.35-2.8-3.04s1.18-3.04,2.8-3.04c.73,0,1.32.35,1.76.85l.04-.54c.01-.11.07-.18.18-.18h1.09c.11,0,.18.07.18.18ZM302.71,106.56c0-.88-.63-1.61-1.48-1.61s-1.49.69-1.49,1.61.63,1.63,1.49,1.63,1.48-.76,1.48-1.63Z"/>
          <path class="cls-7" d="M309.58,107.84c0,1.12-1.15,1.77-2.21,1.77-.99,0-1.8-.48-2.21-.97-.07-.08-.05-.17,0-.24l.46-.65c.07-.09.15-.07.26.01.47.31.98.53,1.44.53.38,0,.75-.12.75-.48,0-.92-2.8-.57-2.8-2.52,0-1.11.97-1.76,2.01-1.76.75,0,1.5.31,1.99.88.07.08.05.18-.01.25l-.45.59c-.07.09-.15.07-.26-.01-.45-.3-.72-.45-1.14-.45-.37,0-.64.2-.64.5,0,.95,2.81.43,2.81,2.55Z"/>
        </g>
      </g>
      <g>
        <path class="cls-5" d="M295.35,111.86h44.07c6.49,0,11.79,5.31,11.79,11.79h0c0,5.46-3.76,10.09-8.82,11.41-1.14.3-1.76,1.53-1.32,2.62l1.92,4.82-10.47-6.22c-.92-.55-1.97-.84-3.04-.84h-34.13c-6.49,0-11.79-5.31-11.79-11.79h0c0-6.49,5.31-11.79,11.79-11.79Z"/>
        <path class="cls-2" d="M296.67,113.19h44.07c6.49,0,11.79,5.31,11.79,11.79h0c0,5.46-3.76,10.09-8.82,11.41-1.14.3-1.76,1.53-1.32,2.62l1.92,4.82-10.47-6.22c-.92-.55-1.97-.84-3.04-.84h-34.13c-6.49,0-11.79-5.31-11.79-11.79h0c0-6.49,5.31-11.79,11.79-11.79Z"/>
        <g>
          <path class="cls-7" d="M306.37,122.89v5.44c0,.11-.07.18-.18.18h-1.09c-.11,0-.17-.07-.18-.18l-.05-.5c-.41.48-.99.83-1.75.83-1.62,0-2.8-1.35-2.8-3.04s1.18-3.04,2.8-3.04c.73,0,1.32.35,1.76.85l.04-.54c.01-.11.07-.18.18-.18h1.09c.11,0,.18.07.18.18ZM304.8,125.61c0-.88-.63-1.61-1.48-1.61s-1.49.69-1.49,1.61.63,1.63,1.49,1.63,1.48-.76,1.48-1.63Z"/>
          <path class="cls-7" d="M311.77,122.71h1.22c.13,0,.19.07.14.2l-2.16,5.45c-.04.09-.12.14-.21.14h-1.21c-.09,0-.18-.05-.21-.14l-2.18-5.45c-.05-.13.01-.2.14-.2h1.22c.09,0,.18.05.21.14l1.42,3.83,1.41-3.83c.04-.09.12-.14.21-.14Z"/>
          <path class="cls-7" d="M313.87,120.75c0-.47.38-.86.86-.86s.85.39.85.86-.38.86-.85.86-.86-.39-.86-.86ZM314.13,122.71h1.21c.11,0,.18.07.18.18v5.44c0,.11-.07.18-.18.18h-1.21c-.11,0-.18-.07-.18-.18v-5.44c0-.11.07-.18.18-.18Z"/>
          <path class="cls-7" d="M320.83,126.89c0,1.12-1.15,1.77-2.21,1.77-.99,0-1.8-.48-2.21-.97-.07-.08-.05-.17,0-.24l.46-.65c.07-.09.15-.07.26.01.47.31.98.53,1.44.53.38,0,.75-.12.75-.48,0-.92-2.8-.57-2.8-2.52,0-1.11.97-1.76,2.01-1.76.74,0,1.5.31,1.99.88.07.08.05.18-.01.25l-.45.59c-.07.09-.15.07-.26-.01-.45-.3-.72-.45-1.14-.45-.37,0-.64.2-.64.5,0,.95,2.81.43,2.81,2.55Z"/>
          <path class="cls-7" d="M321.47,125.62c0-1.7,1.34-3.04,3-3.04s3,1.34,3,3.04-1.34,3.04-3,3.04-3-1.34-3-3.04ZM325.98,125.62c0-.93-.67-1.6-1.5-1.6s-1.5.66-1.5,1.6.66,1.6,1.5,1.6,1.5-.66,1.5-1.6Z"/>
          <path class="cls-7" d="M332.47,126.89c0,1.12-1.15,1.77-2.21,1.77-.99,0-1.8-.48-2.21-.97-.07-.08-.05-.17,0-.24l.46-.65c.07-.09.15-.07.26.01.47.31.98.53,1.44.53.38,0,.75-.12.75-.48,0-.92-2.8-.57-2.8-2.52,0-1.11.97-1.76,2.01-1.76.74,0,1.5.31,1.99.88.07.08.05.18-.01.25l-.45.59c-.07.09-.15.07-.26-.01-.45-.3-.72-.45-1.14-.45-.37,0-.64.2-.64.5,0,.95,2.81.43,2.81,2.55Z"/>
        </g>
      </g>
      <path class="cls-5" d="M320.4,133.86h-44.07c-6.49,0-11.79,5.31-11.79,11.79h0c0,5.46,3.76,10.09,8.82,11.41,1.14.3,1.76,1.53,1.32,2.62l-1.92,4.82,10.47-6.22c.92-.55,1.97-.84,3.04-.84h34.13c6.49,0,11.79-5.31,11.79-11.79h0c0-6.49-5.31-11.79-11.79-11.79Z"/>
      <g>
        <path class="cls-3" d="M320.4,135.21h-44.07c-6.49,0-11.79,5.31-11.79,11.79h0c0,5.46,3.76,10.09,8.82,11.41,1.14.3,1.76,1.53,1.32,2.62l-1.92,4.82,10.47-6.22c.92-.55,1.97-.84,3.04-.84h34.13c6.49,0,11.79-5.31,11.79-11.79h0c0-6.49-5.31-11.79-11.79-11.79Z"/>
        <g>
          <path class="cls-7" d="M285.65,147.06v3.3c0,.11-.07.18-.18.18h-1.21c-.11,0-.18-.07-.18-.18v-3.02c0-.96-.52-1.29-1.09-1.29-.88,0-1.28.86-1.28,1.13v3.17c0,.11-.07.18-.18.18h-1.21c-.11,0-.18-.07-.18-.18v-5.44c0-.11.07-.18.18-.18h1.16c.11,0,.17.07.18.18l.05.76h0c.38-.6.99-1.06,1.83-1.06,1.18,0,2.09.9,2.09,2.45Z"/>
          <path class="cls-7" d="M286.54,147.65c0-1.7,1.34-3.04,3-3.04s3,1.34,3,3.04-1.34,3.04-3,3.04-3-1.34-3-3.04ZM291.04,147.65c0-.93-.67-1.6-1.5-1.6s-1.5.66-1.5,1.6.66,1.6,1.5,1.6,1.5-.66,1.5-1.6Z"/>
          <path class="cls-7" d="M296.63,144.92v.92c0,.11-.07.18-.18.18h-.83v4.34c0,.11-.07.18-.18.18h-1.21c-.11,0-.18-.07-.18-.18v-4.34h-.83c-.11,0-.18-.07-.18-.18v-.92c0-.11.07-.18.18-.18h.83v-1.6c0-.11.07-.18.18-.18h1.21c.11,0,.18.07.18.18v1.6h.83c.11,0,.18.07.18.18Z"/>
          <path class="cls-7" d="M297.65,144.74h1.21c.11,0,.18.07.18.18v5.44c0,.11-.07.18-.18.18h-1.21c-.11,0-.18-.07-.18-.18v-5.44c0-.11.07-.18.18-.18ZM299.74,142.48l-.71,1.49c-.05.11-.11.14-.2.14h-1.06c-.13,0-.2-.07-.14-.2l.71-1.49c.05-.11.11-.14.2-.14h1.06c.13,0,.2.07.14.2Z"/>
          <path class="cls-7" d="M304.16,148.72c.09-.08.18-.08.26,0l.72.69c.07.07.08.17.01.25-.54.63-1.35,1.03-2.27,1.03-1.67,0-2.96-1.34-2.96-3.04s1.29-3.04,2.96-3.04c.9,0,1.69.4,2.24,1.03.07.08.06.18-.01.25l-.72.7c-.08.08-.17.07-.26-.01-.33-.29-.67-.52-1.21-.52-.88,0-1.49.69-1.49,1.6s.62,1.6,1.49,1.6c.56,0,.91-.22,1.24-.52Z"/>
          <path class="cls-7" d="M305.97,142.77c0-.47.38-.86.86-.86s.85.39.85.86-.38.86-.85.86-.86-.39-.86-.86ZM306.23,144.74h1.21c.11,0,.18.07.18.18v5.44c0,.11-.07.18-.18.18h-1.21c-.11,0-.18-.07-.18-.18v-5.44c0-.11.07-.18.18-.18Z"/>
          <path class="cls-7" d="M314.55,144.92v5.44c0,.11-.07.18-.18.18h-1.09c-.11,0-.17-.07-.18-.18l-.05-.5c-.41.48-.99.83-1.75.83-1.62,0-2.8-1.35-2.8-3.04s1.18-3.04,2.8-3.04c.73,0,1.32.35,1.76.85l.04-.54c.01-.11.07-.18.18-.18h1.09c.11,0,.18.07.18.18ZM312.98,147.64c0-.88-.63-1.61-1.48-1.61s-1.49.69-1.49,1.61.63,1.63,1.49,1.63,1.48-.76,1.48-1.63Z"/>
          <path class="cls-7" d="M319.85,148.91c0,1.12-1.15,1.77-2.21,1.77-.99,0-1.8-.48-2.21-.97-.07-.08-.05-.17,0-.24l.46-.65c.07-.09.15-.07.26.01.47.31.98.53,1.44.53.38,0,.75-.12.75-.48,0-.92-2.8-.57-2.8-2.52,0-1.11.97-1.76,2.01-1.76.75,0,1.5.31,1.99.88.07.08.05.18-.01.25l-.45.59c-.07.09-.15.07-.26-.01-.45-.3-.72-.45-1.14-.45-.37,0-.64.2-.64.5,0,.95,2.81.43,2.81,2.55Z"/>
        </g>
      </g>
    </g>
    <g>
      <path class="cls-3" d="M83.02,48.3h-14.03c-5.43,0-9.88,4.44-9.88,9.88h0c0,4.57,3.15,8.44,7.39,9.55.95.25,1.47,1.28,1.11,2.19l-1.61,4.04,8.76-5.21c.77-.46,1.65-.7,2.55-.7h5.71c5.43,0,9.88-4.44,9.88-9.88h0c0-5.43-4.44-9.88-9.88-9.88Z"/>
      <path class="cls-4" d="M83.31,55.03c-.51-2.35-2.98-3.71-5.25-2.89l-2.06.75-2.06-.75c-2.26-.83-4.73.53-5.25,2.89-.29,1.32.12,2.7,1.07,3.66l6.24,6.24,6.24-6.24c.96-.96,1.36-2.34,1.07-3.66Z"/>
    </g>
  </g>
</svg>