<?xml version="1.0" encoding="UTF-8"?>
<svg id="_4474" data-name="4474" xmlns="http://www.w3.org/2000/svg" viewBox="0 0 1797.1 1311.55">
  <defs>
    <style>
      .cls-1 {
        fill: #fff;
      }

      .cls-2 {
        fill: none;
        stroke: #c61d23;
        stroke-linecap: round;
        stroke-linejoin: round;
        stroke-width: 4px;
      }
    </style>
  </defs>
  <g id="_4474-2" data-name="4474">
    <line class="cls-2" x1="1213.31" y1="519.75" x2="1220.18" y2="513.77"/>
    <path class="cls-2" d="M1639.36,180.71l-24.69-8.31c-2.81-.95-5.8-1.24-8.74-.85l-18.04,2.39-42.67,11.32c-3.43.91-5.68,4.21-5.26,7.74l3.24,27.28-18.54,48.66"/>
    <path class="cls-2" d="M1533.92,238.49l-3.34-1.91c-3.49-1.99-5.17-6.1-4.09-9.97l4.45-15.93-14.9-69.85-2.19-9.36c-1.36-5.82-7.12-9.49-12.97-8.27l-74.47,15.59c-6.17,1.29-9.99,7.49-8.39,13.58l32.66,123.86-26.62,70.84"/>
    <circle class="cls-2" cx="1643.83" cy="182.22" r="4.47"/>
    <circle class="cls-1" cx="1432.81" cy="323" r="2"/>
    <circle class="cls-1" cx="1447.65" cy="284.27" r="2"/>
    <circle class="cls-1" cx="1431.32" cy="202.69" r="2"/>
    <circle class="cls-1" cx="1423.72" cy="174.14" r="2"/>
    <circle class="cls-1" cx="1434.39" cy="137.14" r="2"/>
    <circle class="cls-1" cx="1461.62" cy="131.43" r="2"/>
    <circle class="cls-1" cx="1490.48" cy="125.31" r="2"/>
    <circle class="cls-1" cx="1541.87" cy="208.85" r="2"/>
    <circle class="cls-1" cx="1528.15" cy="259.44" r="2"/>
    <circle class="cls-1" cx="1552.17" cy="183.41" r="2"/>
    <circle class="cls-1" cx="1602.9" cy="171.98" r="2"/>
    <line class="cls-2" x1="1423.69" y1="382.64" x2="1424.08" y2="347.07"/>
    <polyline class="cls-2" points="1423.88 382.99 1422.2 382.82 1378.41 387.81 1325.47 423.76"/>
    <circle class="cls-1" cx="1414.3" cy="383.81" r="2"/>
    <circle class="cls-1" cx="1342.11" cy="412.53" r="2"/>
    <circle class="cls-1" cx="1381.68" cy="387.44" r="2"/>
    <circle class="cls-1" cx="1220.18" cy="513.77" r="2"/>
    <circle class="cls-1" cx="1233.94" cy="501.75" r="2"/>
    <circle class="cls-1" cx="1240.15" cy="496.48" r="2"/>
    <circle class="cls-1" cx="1283.91" cy="458.01" r="2"/>
    <polyline class="cls-2" points="1220.18 513.77 1233.94 501.75 1240.15 496.48 1283.91 458.01 1325.47 423.76"/>
    <circle class="cls-1" cx="1220.18" cy="513.77" r="2"/>
    <circle class="cls-1" cx="1233.94" cy="501.75" r="2"/>
    <circle class="cls-1" cx="1240.15" cy="496.48" r="2"/>
    <circle class="cls-1" cx="1283.91" cy="458.01" r="2"/>
    <path class="cls-2" d="M1025.3,776.52l1.07-8.37c.27-2.08,1.09-4.04,2.39-5.69l2.82-3.57c4.67-5.9,7.21-13.21,7.21-20.74v-1.02c0-5.21,1.22-10.35,3.56-15.01l16.39-32.63c1.63-3.24,2.72-6.72,3.23-10.31l5.83-41.07c.51-3.63,3.2-6.56,6.77-7.4l2.77-.65c3.71-.87,6.46-4.01,6.82-7.8l1.38-14.5h0s-12.66-17.38-12.66-17.38h0s-9.77-5.06-17.21-8.89c-4.55-2.34-6.3-7.95-3.9-12.47h0c2.35-4.41,7.79-6.12,12.24-3.86l.26.13c14.41,7.33,31.68,6.11,44.92-3.15l30.67-21.47c4.76-3.33,10.29-5.38,16.07-5.94l29.35-2.87c10.38-1.02,20.18-5.25,28.03-12.11"/>
    <circle class="cls-1" cx="1025.3" cy="776.52" r="2"/>
    <circle class="cls-1" cx="1036.81" cy="749.77" r="2"/>
    <circle class="cls-1" cx="1055.51" cy="581.44" r="2"/>
    <circle class="cls-1" cx="1064.65" cy="660.12" r="2"/>
    <path class="cls-2" d="M892.78,875.9l28.14-3.09c5.3-.58,10.4-2.37,14.9-5.24l26.98-17.17,28.3-13.5c10.68-5.09,17.47-15.87,17.47-27.7v-9.57c0-7.53,2.54-14.83,7.21-20.74l11.56-14.62"/>
    <circle class="cls-1" cx="892.78" cy="875.9" r="2"/>
    <circle class="cls-1" cx="1008.56" cy="801.57" r="2"/>
    <circle class="cls-1" cx="1027.31" cy="764.24" r="2"/>
  </g>
</svg>