<?xml version="1.0" encoding="UTF-8"?>
<svg id="_4415" data-name="4415" xmlns="http://www.w3.org/2000/svg" viewBox="0 0 1797.1 1311.55">
  <defs>
    <style>
      .cls-1 {
        fill: #fff;
      }

      .cls-2 {
        fill: none;
        stroke: #c61d23;
        stroke-linecap: round;
        stroke-linejoin: round;
        stroke-width: 4px;
      }
    </style>
  </defs>
  <g id="_4415-2" data-name="4415">
    <path class="cls-2" d="M1025.3,776.52l1.07-8.37c.27-2.08,1.09-4.04,2.39-5.69l2.82-3.57c4.67-5.9,7.21-13.21,7.21-20.74v-1.02c0-5.21,1.22-10.35,3.56-15.01l16.39-32.63c1.63-3.24,2.72-6.72,3.23-10.31l5.83-41.07c.51-3.63,3.2-6.56,6.77-7.4l2.77-.65c3.71-.87,6.46-4.01,6.82-7.8l1.38-14.5h0s-12.66-17.38-12.66-17.38h0s-9.77-5.06-17.21-8.89c-4.55-2.34-6.3-7.95-3.9-12.47h0c2.35-4.41,7.79-6.12,12.24-3.86l.26.13c14.41,7.33,31.68,6.11,44.92-3.15l30.67-21.47c4.76-3.33,10.29-5.38,16.07-5.94l29.35-2.87c10.38-1.02,20.18-5.25,28.03-12.11l6.87-5.99"/>
    <circle class="cls-1" cx="1025.3" cy="776.52" r="2"/>
    <circle class="cls-1" cx="1027.31" cy="764.24" r="2"/>
    <circle class="cls-1" cx="1036.81" cy="749.77" r="2"/>
    <circle class="cls-1" cx="1055.51" cy="581.44" r="2"/>
    <circle class="cls-1" cx="1064.65" cy="660.12" r="2"/>
    <polyline class="cls-2" points="1220.18 513.77 1233.94 501.75 1240.15 496.48 1283.91 458.01 1325.47 423.76"/>
    <circle class="cls-1" cx="1220.18" cy="513.77" r="2"/>
    <circle class="cls-1" cx="1233.94" cy="501.75" r="2"/>
    <circle class="cls-1" cx="1240.15" cy="496.48" r="2"/>
    <circle class="cls-1" cx="1283.91" cy="458.01" r="2"/>
    <polyline class="cls-2" points="1325.47 423.76 1378.41 387.81 1423.74 382.65 1423.74 382.39 1423.74 376.34 1424.08 347.07"/>
    <circle class="cls-1" cx="1414.3" cy="383.81" r="2"/>
    <circle class="cls-1" cx="1424.08" cy="351.11" r="2"/>
    <circle class="cls-1" cx="1342.11" cy="412.53" r="2"/>
    <circle class="cls-1" cx="1381.68" cy="387.44" r="2"/>
    <polyline class="cls-2" points="1530.95 272.09 1520.52 291.95 1514.06 296.42 1507.61 347.07 1424.08 347.07"/>
    <circle class="cls-1" cx="1480.66" cy="347.07" r="2"/>
    <circle class="cls-1" cx="1511.79" cy="313.77" r="2"/>
    <circle class="cls-1" cx="1530.95" cy="272.09" r="2"/>
  </g>
</svg>