<?xml version="1.0" encoding="UTF-8"?>
<svg id="Praia_da_Figueirinha" data-name="Praia da Figueirinha" xmlns="http://www.w3.org/2000/svg" viewBox="0 0 1797.1 1311.55">
  <defs>
    <style>
      .cls-1 {
        fill: none;
        stroke: #53b069;
        stroke-linecap: round;
        stroke-linejoin: round;
        stroke-width: 4px;
      }

      .cls-2 {
        fill: #eaeadd;
      }

      .cls-3 {
        fill: #53b069;
      }
    </style>
  </defs>
  <g id="Praia_da_Figueirinha-2" data-name="Praia da Figueirinha">
    <line class="cls-1" x1="910.16" y1="658.11" x2="910.16" y2="892.52"/>
    <g>
      <g>
        <path class="cls-2" d="M551.73,686.07c6.3-1.66,12.72-2.11,19.2-2.36,1.85-.07,3.96-.13,5.38-1.5.99-.95,1.51-2.35,2.28-3.46,1.25-1.8,2.92-3.22,4.84-4.26,4.23-2.29,9.35-2.78,14.08-2.6,2.53.1,5.54.78,7.99-.11,3.2-1.17,3.26-4.65,5.06-7.07,2.16-2.9,6.87-6.1,11.04-6.83,5.54-4.48,21.68-7.73,40.73-7.73,23.63,0,42.79,4.99,42.79,11.14,0,1.22-.76,2.39-2.16,3.49-1.61,2.9-4.72,4.94-7.74,6.43-2.45,1.21-5.08,2.22-7.21,3.97-2.51,2.07-3.19,5.04-5.02,7.57-3.05,4.24-7.73,5.75-12.73,6.12-3.35.25-6.67.24-9.35,2.55-2.05,1.77-3.39,4.19-5.63,5.77-4.19,2.96-9.51,2.52-14.34,1.98-3.45-.39-6.82-.8-10.25.02-3.07.74-6.01,1.98-9.15,2.47-2.21.35-4.54.38-6.72-.18-2.7-.7-4.22-2.64-6.62-3.83-3.3-1.63-7.33-.22-10.6.78-3.26.99-6.52,1.91-9.87,2.53-5.88,1.09-12.31,1.8-18.21.46-2.78-.64-5.07-2.34-7.77-3.07-3.55-.96-7.23,1.43-10.76,1.7-3.52.27-8.46-.77-9.01-4.98-.71-5.47,5.56-7.9,9.75-9.01Z"/>
        <g>
          <path class="cls-1" d="M662.81,682.68c-8.35-8.35-19.67-13.04-31.48-13.04s-23.13,4.69-31.48,13.04"/>
          <path class="cls-1" d="M665.46,605.84c-8.18-4.72-17.9-6-27.02-3.56-9.12,2.44-16.9,8.41-21.62,16.59l61.68,35.61c4.72-8.18,6-17.9,3.56-27.02-2.44-9.12-8.41-16.9-16.59-21.62Z"/>
          <path class="cls-1" d="M665.46,605.84c5.68,3.28,2.31,19.74-7.53,36.78"/>
          <path class="cls-1" d="M665.46,605.84c-5.68-3.28-18.25,7.87-28.09,24.91"/>
          <line class="cls-1" x1="647.66" y1="636.68" x2="629.85" y2="667.52"/>
          <path class="cls-1" d="M665.46,605.84c-8.18-4.72-17.9-6-27.02-3.56-9.12,2.44-16.9,8.41-21.62,16.59l61.68,35.61c4.72-8.18,6-17.9,3.56-27.02-2.44-9.12-8.41-16.9-16.59-21.62Z"/>
          <line class="cls-1" x1="647.66" y1="636.68" x2="629.85" y2="667.52"/>
        </g>
      </g>
      <g>
        <path class="cls-3" d="M742.71,681.23v-28.72h9.7c2.25,0,4.1.4,5.53,1.21,1.44.81,2.5,1.9,3.19,3.27.69,1.37,1.04,2.91,1.04,4.6s-.34,3.23-1.03,4.61c-.69,1.38-1.75,2.48-3.18,3.3-1.43.82-3.26,1.23-5.5,1.23h-6.95v-3.08h6.84c1.54,0,2.78-.27,3.72-.8.94-.53,1.62-1.25,2.04-2.17.42-.91.64-1.94.64-3.09s-.21-2.18-.64-3.08c-.43-.91-1.11-1.62-2.05-2.14-.94-.52-2.2-.78-3.76-.78h-6.11v25.63h-3.48Z"/>
        <path class="cls-3" d="M767.33,681.23v-21.54h3.2v3.25h.22c.39-1.07,1.1-1.93,2.13-2.59,1.03-.66,2.19-1,3.48-1,.24,0,.55,0,.91.01.36,0,.64.02.83.04v3.37c-.11-.03-.37-.07-.76-.13s-.82-.09-1.25-.09c-1.05,0-1.98.22-2.8.65-.82.43-1.46,1.03-1.94,1.79s-.71,1.63-.71,2.6v13.63h-3.31Z"/>
        <path class="cls-3" d="M788.36,681.73c-1.36,0-2.6-.26-3.72-.78s-2-1.27-2.65-2.26c-.65-.99-.98-2.18-.98-3.58,0-1.23.24-2.24.73-3.01s1.14-1.38,1.95-1.82c.81-.44,1.71-.77,2.7-.99s1.98-.39,2.98-.53c1.31-.17,2.37-.3,3.19-.39.82-.09,1.42-.24,1.79-.46.38-.21.57-.59.57-1.12v-.11c0-1.38-.38-2.46-1.13-3.23-.75-.77-1.89-1.15-3.41-1.15s-2.82.35-3.72,1.04c-.9.69-1.53,1.43-1.89,2.22l-3.14-1.12c.56-1.31,1.31-2.33,2.25-3.06.94-.73,1.97-1.25,3.08-1.54,1.12-.29,2.22-.44,3.3-.44.69,0,1.49.08,2.39.25.9.16,1.78.5,2.62,1s1.55,1.27,2.11,2.29c.56,1.02.84,2.38.84,4.09v14.19h-3.31v-2.92h-.17c-.22.47-.6.97-1.12,1.5-.52.53-1.22.99-2.09,1.36-.87.37-1.93.56-3.18.56ZM788.87,678.76c1.31,0,2.41-.26,3.32-.77.9-.51,1.58-1.18,2.05-1.99.46-.81.69-1.67.69-2.57v-3.03c-.14.17-.45.32-.92.46-.47.14-1.01.25-1.63.35-.61.1-1.21.18-1.78.25-.58.07-1.04.13-1.4.18-.86.11-1.66.29-2.41.54-.74.25-1.34.62-1.79,1.11-.45.49-.68,1.16-.68,2,0,1.15.43,2.02,1.28,2.6.86.58,1.94.88,3.26.88Z"/>
        <path class="cls-3" d="M805.97,656.1c-.64,0-1.2-.22-1.66-.66s-.69-.97-.69-1.58.23-1.14.69-1.58,1.02-.66,1.66-.66,1.2.22,1.66.66.69.97.69,1.58-.23,1.15-.69,1.58-1.02.66-1.66.66ZM804.29,681.23v-21.54h3.31v21.54h-3.31Z"/>
        <path class="cls-3" d="M820,681.73c-1.36,0-2.6-.26-3.72-.78s-2-1.27-2.65-2.26c-.65-.99-.98-2.18-.98-3.58,0-1.23.24-2.24.73-3.01s1.14-1.38,1.95-1.82c.81-.44,1.71-.77,2.7-.99s1.98-.39,2.98-.53c1.31-.17,2.37-.3,3.19-.39.82-.09,1.42-.24,1.79-.46.38-.21.57-.59.57-1.12v-.11c0-1.38-.38-2.46-1.13-3.23-.75-.77-1.89-1.15-3.41-1.15s-2.82.35-3.72,1.04c-.9.69-1.53,1.43-1.89,2.22l-3.14-1.12c.56-1.31,1.31-2.33,2.25-3.06.94-.73,1.97-1.25,3.08-1.54,1.12-.29,2.22-.44,3.3-.44.69,0,1.49.08,2.39.25.9.16,1.78.5,2.62,1s1.55,1.27,2.11,2.29c.56,1.02.84,2.38.84,4.09v14.19h-3.31v-2.92h-.17c-.22.47-.6.97-1.12,1.5-.52.53-1.22.99-2.09,1.36-.87.37-1.93.56-3.18.56ZM820.5,678.76c1.31,0,2.41-.26,3.32-.77.9-.51,1.58-1.18,2.05-1.99.46-.81.69-1.67.69-2.57v-3.03c-.14.17-.45.32-.92.46-.47.14-1.01.25-1.63.35-.61.1-1.21.18-1.78.25-.58.07-1.04.13-1.4.18-.86.11-1.66.29-2.41.54-.74.25-1.34.62-1.79,1.11-.45.49-.68,1.16-.68,2,0,1.15.43,2.02,1.28,2.6.86.58,1.94.88,3.26.88Z"/>
        <path class="cls-3" d="M855.16,681.68c-1.79,0-3.38-.46-4.75-1.37-1.37-.91-2.45-2.2-3.23-3.87-.78-1.67-1.16-3.64-1.16-5.92s.39-4.22,1.16-5.89c.78-1.66,1.86-2.95,3.24-3.86,1.38-.91,2.98-1.36,4.8-1.36,1.4,0,2.51.23,3.33.69.82.46,1.44.99,1.88,1.57.43.58.77,1.06,1.02,1.44h.28v-10.6h3.31v28.72h-3.2v-3.31h-.39c-.24.39-.59.89-1.04,1.48-.45.59-1.09,1.12-1.92,1.58s-1.94.69-3.32.69ZM855.61,678.71c1.33,0,2.45-.35,3.37-1.04s1.61-1.66,2.09-2.9c.48-1.24.71-2.67.71-4.3s-.23-3.02-.7-4.23c-.47-1.21-1.16-2.16-2.08-2.83s-2.05-1.02-3.39-1.02-2.57.36-3.5,1.07c-.93.71-1.63,1.68-2.09,2.9s-.69,2.59-.69,4.1.24,2.92.71,4.17c.47,1.25,1.17,2.24,2.1,2.97.93.73,2.09,1.1,3.47,1.1Z"/>
        <path class="cls-3" d="M877.88,681.73c-1.36,0-2.6-.26-3.72-.78s-2-1.27-2.65-2.26c-.65-.99-.98-2.18-.98-3.58,0-1.23.24-2.24.73-3.01s1.14-1.38,1.95-1.82c.81-.44,1.71-.77,2.7-.99s1.98-.39,2.98-.53c1.31-.17,2.37-.3,3.19-.39.82-.09,1.42-.24,1.79-.46.38-.21.57-.59.57-1.12v-.11c0-1.38-.38-2.46-1.13-3.23-.75-.77-1.89-1.15-3.41-1.15s-2.82.35-3.72,1.04c-.9.69-1.53,1.43-1.89,2.22l-3.14-1.12c.56-1.31,1.31-2.33,2.25-3.06.94-.73,1.97-1.25,3.08-1.54,1.12-.29,2.22-.44,3.3-.44.69,0,1.49.08,2.39.25.9.16,1.78.5,2.62,1s1.55,1.27,2.11,2.29c.56,1.02.84,2.38.84,4.09v14.19h-3.31v-2.92h-.17c-.22.47-.6.97-1.12,1.5-.52.53-1.22.99-2.09,1.36-.87.37-1.93.56-3.18.56ZM878.38,678.76c1.31,0,2.41-.26,3.32-.77.9-.51,1.58-1.18,2.05-1.99.46-.81.69-1.67.69-2.57v-3.03c-.14.17-.45.32-.92.46-.47.14-1.01.25-1.63.35-.61.1-1.21.18-1.78.25-.58.07-1.04.13-1.4.18-.86.11-1.66.29-2.41.54-.74.25-1.34.62-1.79,1.11-.45.49-.68,1.16-.68,2,0,1.15.43,2.02,1.28,2.6.86.58,1.94.88,3.26.88Z"/>
        <path class="cls-3" d="M615.35,729.74v-36.92h24.45v6.44h-16.64v8.8h15.02v6.44h-15.02v15.25h-7.81Z"/>
        <path class="cls-3" d="M648.76,698.48c-1.14,0-2.12-.38-2.93-1.14-.81-.76-1.22-1.68-1.22-2.75s.41-1.97,1.22-2.73c.81-.76,1.79-1.15,2.93-1.15s2.12.38,2.93,1.15c.81.76,1.22,1.67,1.22,2.73s-.41,1.99-1.22,2.75c-.81.76-1.79,1.14-2.93,1.14ZM644.9,729.74v-27.69h7.68v27.69h-7.68Z"/>
        <path class="cls-3" d="M671.18,740.7c-2.49,0-4.62-.34-6.39-1.02-1.77-.68-3.18-1.6-4.23-2.77-1.05-1.17-1.73-2.48-2.04-3.93l7.1-.96c.22.55.56,1.07,1.03,1.55s1.09.87,1.87,1.16c.78.29,1.72.44,2.84.44,1.67,0,3.05-.41,4.14-1.22s1.63-2.17,1.63-4.07v-5.07h-.32c-.34.77-.84,1.5-1.51,2.18-.67.69-1.54,1.24-2.6,1.68s-2.32.65-3.79.65c-2.08,0-3.97-.48-5.67-1.45s-3.05-2.45-4.06-4.45-1.51-4.53-1.51-7.6.51-5.76,1.53-7.86,2.38-3.68,4.08-4.72,3.57-1.57,5.6-1.57c1.55,0,2.85.26,3.89.78,1.05.52,1.89,1.17,2.53,1.95.64.78,1.14,1.54,1.49,2.28h.29v-4.65h7.63v27.96c0,2.36-.58,4.33-1.73,5.91-1.15,1.59-2.75,2.78-4.79,3.58-2.04.8-4.38,1.2-7.02,1.2ZM671.34,723.57c1.24,0,2.29-.31,3.15-.93.86-.62,1.52-1.51,1.98-2.67.46-1.16.69-2.55.69-4.17s-.23-3.03-.69-4.23c-.46-1.2-1.12-2.12-1.98-2.79s-1.92-.99-3.15-.99-2.33.34-3.19,1.02c-.87.68-1.52,1.62-1.97,2.82-.44,1.2-.67,2.59-.67,4.17s.23,2.98.68,4.14c.45,1.16,1.11,2.05,1.96,2.69s1.92.95,3.18.95Z"/>
        <path class="cls-3" d="M708.61,717.95v-15.9h7.68v27.69h-7.37v-5.03h-.29c-.62,1.62-1.66,2.93-3.11,3.91-1.45.99-3.21,1.48-5.29,1.48-1.85,0-3.48-.42-4.89-1.26-1.41-.84-2.5-2.04-3.29-3.59-.79-1.55-1.19-3.41-1.2-5.57v-17.63h7.68v16.26c.01,1.63.45,2.93,1.32,3.88.87.95,2.02,1.42,3.48,1.42.93,0,1.79-.21,2.6-.64s1.46-1.06,1.96-1.9c.5-.84.74-1.88.73-3.12Z"/>
        <path class="cls-3" d="M735.04,730.28c-2.85,0-5.3-.58-7.35-1.74-2.05-1.16-3.63-2.81-4.73-4.94-1.11-2.13-1.66-4.66-1.66-7.58s.55-5.35,1.66-7.5,2.67-3.83,4.68-5.03c2.01-1.2,4.38-1.8,7.09-1.8,1.83,0,3.53.29,5.11.87,1.58.58,2.96,1.46,4.15,2.62,1.18,1.17,2.11,2.63,2.77,4.39s.99,3.82.99,6.17v2.11h-23.38v-4.76h16.15c0-1.11-.24-2.08-.72-2.94s-1.14-1.52-1.99-2.01c-.85-.49-1.83-.73-2.95-.73s-2.2.27-3.09.8c-.9.54-1.6,1.25-2.1,2.15s-.76,1.89-.77,2.98v4.52c0,1.37.25,2.55.77,3.55.51,1,1.23,1.77,2.17,2.31.94.54,2.05.81,3.33.81.85,0,1.63-.12,2.34-.36.71-.24,1.32-.6,1.82-1.08.5-.48.89-1.07,1.15-1.77l7.1.47c-.36,1.71-1.1,3.19-2.21,4.46-1.11,1.27-2.54,2.25-4.29,2.96-1.75.7-3.76,1.05-6.05,1.05Z"/>
        <path class="cls-3" d="M756.62,698.48c-1.14,0-2.12-.38-2.93-1.14-.81-.76-1.22-1.68-1.22-2.75s.41-1.97,1.22-2.73c.81-.76,1.79-1.15,2.93-1.15s2.12.38,2.93,1.15c.81.76,1.22,1.67,1.22,2.73s-.41,1.99-1.22,2.75c-.81.76-1.79,1.14-2.93,1.14ZM752.76,729.74v-27.69h7.68v27.69h-7.68Z"/>
        <path class="cls-3" d="M766.57,729.74v-27.69h7.45v4.83h.29c.5-1.72,1.35-3.02,2.54-3.9s2.56-1.33,4.11-1.33c.38,0,.8.02,1.24.07.44.05.83.11,1.17.2v6.81c-.36-.11-.86-.2-1.5-.29-.64-.08-1.22-.13-1.75-.13-1.13,0-2.14.24-3.02.73-.88.49-1.58,1.16-2.09,2.03s-.77,1.86-.77,2.99v15.67h-7.68Z"/>
        <path class="cls-3" d="M791.17,698.48c-1.14,0-2.12-.38-2.93-1.14-.81-.76-1.22-1.68-1.22-2.75s.41-1.97,1.22-2.73c.81-.76,1.79-1.15,2.93-1.15s2.12.38,2.93,1.15c.81.76,1.22,1.67,1.22,2.73s-.41,1.99-1.22,2.75c-.81.76-1.79,1.14-2.93,1.14ZM787.32,729.74v-27.69h7.68v27.69h-7.68Z"/>
        <path class="cls-3" d="M808.81,713.73v16.01h-7.68v-27.69h7.32v4.89h.33c.61-1.61,1.64-2.89,3.08-3.83,1.44-.94,3.19-1.42,5.25-1.42,1.92,0,3.6.42,5.03,1.26,1.43.84,2.54,2.04,3.33,3.6.79,1.56,1.19,3.41,1.19,5.56v17.63h-7.68v-16.26c.01-1.69-.42-3.02-1.3-3.97-.88-.96-2.08-1.43-3.62-1.43-1.03,0-1.94.22-2.73.67-.79.45-1.4,1.09-1.84,1.94-.44.85-.66,1.87-.68,3.06Z"/>
        <path class="cls-3" d="M840.37,713.73v16.01h-7.68v-36.92h7.46v14.12h.32c.62-1.63,1.63-2.92,3.03-3.85,1.39-.93,3.14-1.4,5.25-1.4,1.92,0,3.6.42,5.04,1.25,1.44.84,2.55,2.03,3.35,3.59.8,1.56,1.19,3.42,1.18,5.58v17.63h-7.68v-16.26c.01-1.71-.42-3.03-1.29-3.98-.87-.95-2.09-1.42-3.65-1.42-1.05,0-1.97.22-2.77.67-.8.45-1.42,1.09-1.87,1.94-.45.85-.68,1.87-.69,3.06Z"/>
        <path class="cls-3" d="M872.28,730.26c-1.77,0-3.34-.31-4.72-.93-1.38-.62-2.47-1.54-3.27-2.76-.8-1.22-1.2-2.74-1.2-4.57,0-1.54.28-2.83.85-3.88.56-1.04,1.33-1.89,2.31-2.52s2.08-1.12,3.33-1.44,2.55-.55,3.92-.69c1.61-.17,2.91-.33,3.89-.48.99-.15,1.7-.38,2.14-.68.45-.3.67-.75.67-1.33v-.11c0-1.14-.36-2.03-1.07-2.65s-1.73-.94-3.04-.94c-1.38,0-2.48.3-3.3.91-.82.61-1.36,1.37-1.62,2.28l-7.1-.58c.36-1.68,1.07-3.14,2.13-4.37,1.06-1.23,2.42-2.18,4.1-2.85s3.62-1,5.83-1c1.54,0,3.01.18,4.43.54s2.67.92,3.77,1.68c1.1.76,1.97,1.73,2.6,2.91.64,1.18.96,2.6.96,4.25v18.68h-7.28v-3.84h-.22c-.44.87-1.04,1.62-1.79,2.28s-1.64,1.17-2.69,1.53c-1.05.37-2.25.55-3.62.55ZM874.48,724.96c1.13,0,2.13-.23,2.99-.68.87-.45,1.54-1.06,2.04-1.83.49-.77.74-1.64.74-2.61v-2.94c-.24.16-.57.3-.98.42-.42.13-.88.24-1.4.34-.52.1-1.03.19-1.55.27-.52.08-.99.15-1.41.21-.9.13-1.69.34-2.36.63-.67.29-1.2.68-1.57,1.16-.37.49-.56,1.09-.56,1.81,0,1.05.38,1.84,1.14,2.39.76.55,1.73.82,2.91.82Z"/>
      </g>
    </g>
  </g>
</svg>