<?xml version="1.0" encoding="UTF-8"?>
<svg xmlns="http://www.w3.org/2000/svg" xmlns:xlink="http://www.w3.org/1999/xlink" viewBox="0 0 1797.1 1311.55">
  <defs>
    <style>
      .cls-1 {
        stroke: #fff;
        stroke-linecap: round;
        stroke-linejoin: round;
        stroke-width: 4.08px;
      }

      .cls-1, .cls-2 {
        fill: none;
      }

      .cls-3 {
        fill: url(#Gradiente_sem_nome_11-6);
      }

      .cls-4 {
        fill: url(#Gradiente_sem_nome_11-5);
      }

      .cls-5 {
        fill: url(#Gradiente_sem_nome_11-7);
      }

      .cls-6 {
        fill: url(#Gradiente_sem_nome_11);
      }

      .cls-7 {
        fill: #fff;
      }

      .cls-2 {
        stroke: #53b069;
        stroke-miterlimit: 10;
        stroke-width: 4px;
      }

      .cls-8 {
        fill: #eaeadd;
      }

      .cls-9 {
        fill: url(#Gradiente_sem_nome_11-10);
      }

      .cls-10 {
        opacity: .2;
      }

      .cls-11 {
        fill: #a6d4ff;
      }

      .cls-12 {
        fill: url(#Gradiente_sem_nome_11-2);
      }

      .cls-13 {
        fill: url(#Gradiente_sem_nome_11-8);
      }

      .cls-14 {
        fill: url(#Gradiente_sem_nome_11-9);
      }

      .cls-15 {
        fill: url(#Gradiente_sem_nome_11-3);
      }

      .cls-16 {
        fill: #b7dec0;
      }

      .cls-17 {
        fill: url(#Gradiente_sem_nome_11-4);
      }
    </style>
    <linearGradient id="Gradiente_sem_nome_11" data-name="Gradiente sem nome 11" x1="983.84" y1="246.9" x2="983.84" y2="190.53" gradientUnits="userSpaceOnUse">
      <stop offset="0" stop-color="#53b069" stop-opacity="0"/>
      <stop offset="1" stop-color="#53b069"/>
    </linearGradient>
    <linearGradient id="Gradiente_sem_nome_11-2" data-name="Gradiente sem nome 11" x1="901.57" y1="263.95" x2="901.57" y2="207.58" xlink:href="#Gradiente_sem_nome_11"/>
    <linearGradient id="Gradiente_sem_nome_11-3" data-name="Gradiente sem nome 11" x1="694.04" y1="411.48" x2="694.04" y2="355.11" xlink:href="#Gradiente_sem_nome_11"/>
    <linearGradient id="Gradiente_sem_nome_11-4" data-name="Gradiente sem nome 11" x1="611.78" y1="428.53" x2="611.78" y2="372.16" xlink:href="#Gradiente_sem_nome_11"/>
    <linearGradient id="Gradiente_sem_nome_11-5" data-name="Gradiente sem nome 11" x1="507.88" y1="638.85" x2="507.88" y2="582.49" xlink:href="#Gradiente_sem_nome_11"/>
    <linearGradient id="Gradiente_sem_nome_11-6" data-name="Gradiente sem nome 11" x1="425.62" y1="655.9" x2="425.62" y2="599.53" xlink:href="#Gradiente_sem_nome_11"/>
    <linearGradient id="Gradiente_sem_nome_11-7" data-name="Gradiente sem nome 11" x1="208.99" y1="737.79" x2="208.99" y2="681.42" xlink:href="#Gradiente_sem_nome_11"/>
    <linearGradient id="Gradiente_sem_nome_11-8" data-name="Gradiente sem nome 11" x1="126.73" y1="754.84" x2="126.73" y2="698.47" xlink:href="#Gradiente_sem_nome_11"/>
    <linearGradient id="Gradiente_sem_nome_11-9" data-name="Gradiente sem nome 11" x1="254.28" y1="992.79" x2="254.28" y2="936.42" xlink:href="#Gradiente_sem_nome_11"/>
    <linearGradient id="Gradiente_sem_nome_11-10" data-name="Gradiente sem nome 11" x1="172.01" y1="1009.84" x2="172.01" y2="953.47" xlink:href="#Gradiente_sem_nome_11"/>
  </defs>
  <g id="Mar">
    <g>
      <rect class="cls-11" y="114.68" width="1831.36" height="1196.87"/>
      <g class="cls-10">
        <path class="cls-1" d="M1865.24,340.73c-38,0-38-28.4-75.99-28.4-37.99,0-37.99,28.4-75.99,28.4-38,0-38-28.4-75.99-28.4-38,0-38,28.4-75.99,28.4-38,0-38-28.4-75.99-28.4-38,0-38,28.4-76,28.4-38,0-38-28.4-76-28.4-38,0-38,28.4-75.99,28.4-38,0-38-28.4-75.99-28.4-38,0-38,28.4-75.99,28.4-38,0-38-28.4-75.99-28.4-38,0-38,28.4-76,28.4-38,0-38-28.4-75.99-28.4s-38,28.4-76,28.4c-38,0-38-28.4-75.99-28.4-38,0-38,28.4-75.99,28.4-38,0-38-28.4-76-28.4-37.99,0-37.99,28.4-75.99,28.4-38,0-38-28.4-75.99-28.4-38,0-38,28.4-76,28.4-38,0-38-28.4-75.99-28.4-38,0-38,28.4-75.99,28.4-38,0-38-28.4-75.99-28.4-38,0-38,28.4-75.99,28.4-38,0-38-28.4-76-28.4-38,0-38,28.4-76,28.4-38,0-38-28.4-76-28.4-38,0-38,28.4-76,28.4-38,0-38-28.4-76-28.4-38,0-38,28.4-76,28.4-38,0-38-28.4-76-28.4-38,0-38,28.4-76,28.4-38,0-38-28.4-76-28.4-38,0-38,28.4-76.01,28.4-38,0-38-28.4-76.01-28.4"/>
        <path class="cls-1" d="M1865.24,394.68c-38,0-38-28.4-75.99-28.4-37.99,0-37.99,28.4-75.99,28.4-38,0-38-28.4-75.99-28.4-38,0-38,28.4-75.99,28.4-38,0-38-28.4-75.99-28.4-38,0-38,28.4-76,28.4s-38-28.4-76-28.4c-38,0-38,28.4-75.99,28.4-38,0-38-28.4-75.99-28.4-38,0-38,28.4-75.99,28.4-38,0-38-28.4-75.99-28.4s-38,28.4-76,28.4c-38,0-38-28.4-75.99-28.4s-38,28.4-76,28.4c-38,0-38-28.4-75.99-28.4-38,0-38,28.4-75.99,28.4-38,0-38-28.4-76-28.4-37.99,0-37.99,28.4-75.99,28.4-38,0-38-28.4-75.99-28.4-38,0-38,28.4-76,28.4-38,0-38-28.4-75.99-28.4-38,0-38,28.4-75.99,28.4-38,0-38-28.4-75.99-28.4-38,0-38,28.4-75.99,28.4-38,0-38-28.4-76-28.4s-38,28.4-76,28.4c-38,0-38-28.4-76-28.4-38,0-38,28.4-76,28.4-38,0-38-28.4-76-28.4-38,0-38,28.4-76,28.4-38,0-38-28.4-76-28.4-38,0-38,28.4-76,28.4-38,0-38-28.4-76-28.4-38,0-38,28.4-76.01,28.4-38,0-38-28.4-76.01-28.4"/>
        <path class="cls-1" d="M1865.24,448.64c-38,0-38-28.4-75.99-28.4-37.99,0-37.99,28.4-75.99,28.4-38,0-38-28.4-75.99-28.4-38,0-38,28.4-75.99,28.4s-38-28.4-75.99-28.4c-38,0-38,28.4-76,28.4-38,0-38-28.4-76-28.4-38,0-38,28.4-75.99,28.4-38,0-38-28.4-75.99-28.4-38,0-38,28.4-75.99,28.4-38,0-38-28.4-75.99-28.4-38,0-38,28.4-76,28.4-38,0-38-28.4-75.99-28.4-38,0-38,28.4-76,28.4-38,0-38-28.4-75.99-28.4s-38,28.4-75.99,28.4-38-28.4-76-28.4c-37.99,0-37.99,28.4-75.99,28.4-38,0-38-28.4-75.99-28.4-38,0-38,28.4-76,28.4-38,0-38-28.4-75.99-28.4-38,0-38,28.4-75.99,28.4-38,0-38-28.4-75.99-28.4-38,0-38,28.4-75.99,28.4-38,0-38-28.4-76-28.4-38,0-38,28.4-76,28.4-38,0-38-28.4-76-28.4-38,0-38,28.4-76,28.4-38,0-38-28.4-76-28.4-38,0-38,28.4-76,28.4-38,0-38-28.4-76-28.4-38,0-38,28.4-76,28.4-38,0-38-28.4-76-28.4-38,0-38,28.4-76.01,28.4s-38-28.4-76.01-28.4"/>
        <path class="cls-1" d="M1865.24,502.6c-38,0-38-28.4-75.99-28.4-37.99,0-37.99,28.4-75.99,28.4-38,0-38-28.4-75.99-28.4-38,0-38,28.4-75.99,28.4-38,0-38-28.4-75.99-28.4s-38,28.4-76,28.4c-38,0-38-28.4-76-28.4-38,0-38,28.4-75.99,28.4-38,0-38-28.4-75.99-28.4-38,0-38,28.4-75.99,28.4-38,0-38-28.4-75.99-28.4-38,0-38,28.4-76,28.4s-38-28.4-75.99-28.4c-38,0-38,28.4-76,28.4-38,0-38-28.4-75.99-28.4-38,0-38,28.4-75.99,28.4-38,0-38-28.4-76-28.4-37.99,0-37.99,28.4-75.99,28.4-38,0-38-28.4-75.99-28.4s-38,28.4-76,28.4c-38,0-38-28.4-75.99-28.4-38,0-38,28.4-75.99,28.4-38,0-38-28.4-75.99-28.4-38,0-38,28.4-75.99,28.4-38,0-38-28.4-76-28.4-38,0-38,28.4-76,28.4-38,0-38-28.4-76-28.4-38,0-38,28.4-76,28.4-38,0-38-28.4-76-28.4-38,0-38,28.4-76,28.4-38,0-38-28.4-76-28.4-38,0-38,28.4-76,28.4-38,0-38-28.4-76-28.4-38,0-38,28.4-76.01,28.4s-38-28.4-76.01-28.4"/>
        <path class="cls-1" d="M1865.24,556.56c-38,0-38-28.4-75.99-28.4s-37.99,28.4-75.99,28.4c-38,0-38-28.4-75.99-28.4-38,0-38,28.4-75.99,28.4-38,0-38-28.4-75.99-28.4-38,0-38,28.4-76,28.4s-38-28.4-76-28.4c-38,0-38,28.4-75.99,28.4-38,0-38-28.4-75.99-28.4-38,0-38,28.4-75.99,28.4-38,0-38-28.4-75.99-28.4-38,0-38,28.4-76,28.4-38,0-38-28.4-75.99-28.4-38,0-38,28.4-76,28.4-38,0-38-28.4-75.99-28.4s-38,28.4-75.99,28.4c-38,0-38-28.4-76-28.4s-37.99,28.4-75.99,28.4-38-28.4-75.99-28.4c-38,0-38,28.4-76,28.4-38,0-38-28.4-75.99-28.4-38,0-38,28.4-75.99,28.4-38,0-38-28.4-75.99-28.4-38,0-38,28.4-75.99,28.4-38,0-38-28.4-76-28.4-38,0-38,28.4-76,28.4-38,0-38-28.4-76-28.4-38,0-38,28.4-76,28.4-38,0-38-28.4-76-28.4-38,0-38,28.4-76,28.4s-38-28.4-76-28.4c-38,0-38,28.4-76,28.4-38,0-38-28.4-76-28.4-38,0-38,28.4-76.01,28.4-38,0-38-28.4-76.01-28.4"/>
        <path class="cls-1" d="M1865.24,610.52c-38,0-38-28.4-75.99-28.4-37.99,0-37.99,28.4-75.99,28.4-38,0-38-28.4-75.99-28.4-38,0-38,28.4-75.99,28.4-38,0-38-28.4-75.99-28.4-38,0-38,28.4-76,28.4-38,0-38-28.4-76-28.4-38,0-38,28.4-75.99,28.4-38,0-38-28.4-75.99-28.4-38,0-38,28.4-75.99,28.4-38,0-38-28.4-75.99-28.4-38,0-38,28.4-76,28.4-38,0-38-28.4-75.99-28.4-38,0-38,28.4-76,28.4-38,0-38-28.4-75.99-28.4-38,0-38,28.4-75.99,28.4-38,0-38-28.4-76-28.4-37.99,0-37.99,28.4-75.99,28.4-38,0-38-28.4-75.99-28.4-38,0-38,28.4-76,28.4s-38-28.4-75.99-28.4c-38,0-38,28.4-75.99,28.4-38,0-38-28.4-75.99-28.4-38,0-38,28.4-75.99,28.4-38,0-38-28.4-76-28.4s-38,28.4-76,28.4-38-28.4-76-28.4c-38,0-38,28.4-76,28.4-38,0-38-28.4-76-28.4-38,0-38,28.4-76,28.4s-38-28.4-76-28.4c-38,0-38,28.4-76,28.4-38,0-38-28.4-76-28.4-38,0-38,28.4-76.01,28.4-38,0-38-28.4-76.01-28.4"/>
        <path class="cls-1" d="M1865.24,664.48c-38,0-38-28.4-75.99-28.4-37.99,0-37.99,28.4-75.99,28.4-38,0-38-28.4-75.99-28.4-38,0-38,28.4-75.99,28.4-38,0-38-28.4-75.99-28.4-38,0-38,28.4-76,28.4-38,0-38-28.4-76-28.4-38,0-38,28.4-75.99,28.4-38,0-38-28.4-75.99-28.4-38,0-38,28.4-75.99,28.4-38,0-38-28.4-75.99-28.4-38,0-38,28.4-76,28.4-38,0-38-28.4-75.99-28.4-38,0-38,28.4-76,28.4-38,0-38-28.4-75.99-28.4-38,0-38,28.4-75.99,28.4-38,0-38-28.4-76-28.4-37.99,0-37.99,28.4-75.99,28.4s-38-28.4-75.99-28.4c-38,0-38,28.4-76,28.4-38,0-38-28.4-75.99-28.4-38,0-38,28.4-75.99,28.4s-38-28.4-75.99-28.4c-38,0-38,28.4-75.99,28.4-38,0-38-28.4-76-28.4s-38,28.4-76,28.4c-38,0-38-28.4-76-28.4-38,0-38,28.4-76,28.4-38,0-38-28.4-76-28.4-38,0-38,28.4-76,28.4-38,0-38-28.4-76-28.4-38,0-38,28.4-76,28.4-38,0-38-28.4-76-28.4-38,0-38,28.4-76.01,28.4-38,0-38-28.4-76.01-28.4"/>
        <path class="cls-1" d="M1865.24,718.44c-38,0-38-28.4-75.99-28.4s-37.99,28.4-75.99,28.4c-38,0-38-28.4-75.99-28.4-38,0-38,28.4-75.99,28.4s-38-28.4-75.99-28.4-38,28.4-76,28.4c-38,0-38-28.4-76-28.4-38,0-38,28.4-75.99,28.4-38,0-38-28.4-75.99-28.4-38,0-38,28.4-75.99,28.4-38,0-38-28.4-75.99-28.4s-38,28.4-76,28.4-38-28.4-75.99-28.4c-38,0-38,28.4-76,28.4-38,0-38-28.4-75.99-28.4-38,0-38,28.4-75.99,28.4-38,0-38-28.4-76-28.4s-37.99,28.4-75.99,28.4-38-28.4-75.99-28.4c-38,0-38,28.4-76,28.4-38,0-38-28.4-75.99-28.4-38,0-38,28.4-75.99,28.4-38,0-38-28.4-75.99-28.4-38,0-38,28.4-75.99,28.4-38,0-38-28.4-76-28.4s-38,28.4-76,28.4c-38,0-38-28.4-76-28.4-38,0-38,28.4-76,28.4-38,0-38-28.4-76-28.4-38,0-38,28.4-76,28.4-38,0-38-28.4-76-28.4-38,0-38,28.4-76,28.4-38,0-38-28.4-76-28.4-38,0-38,28.4-76.01,28.4-38,0-38-28.4-76.01-28.4"/>
        <path class="cls-1" d="M1865.24,772.39c-38,0-38-28.4-75.99-28.4-37.99,0-37.99,28.4-75.99,28.4-38,0-38-28.4-75.99-28.4-38,0-38,28.4-75.99,28.4-38,0-38-28.4-75.99-28.4-38,0-38,28.4-76,28.4-38,0-38-28.4-76-28.4-38,0-38,28.4-75.99,28.4-38,0-38-28.4-75.99-28.4-38,0-38,28.4-75.99,28.4-38,0-38-28.4-75.99-28.4-38,0-38,28.4-76,28.4-38,0-38-28.4-75.99-28.4-38,0-38,28.4-76,28.4-38,0-38-28.4-75.99-28.4-38,0-38,28.4-75.99,28.4-38,0-38-28.4-76-28.4-37.99,0-37.99,28.4-75.99,28.4s-38-28.4-75.99-28.4c-38,0-38,28.4-76,28.4-38,0-38-28.4-75.99-28.4-38,0-38,28.4-75.99,28.4s-38-28.4-75.99-28.4c-38,0-38,28.4-75.99,28.4-38,0-38-28.4-76-28.4-38,0-38,28.4-76,28.4-38,0-38-28.4-76-28.4s-38,28.4-76,28.4c-38,0-38-28.4-76-28.4-38,0-38,28.4-76,28.4s-38-28.4-76-28.4c-38,0-38,28.4-76,28.4-38,0-38-28.4-76-28.4-38,0-38,28.4-76.01,28.4-38,0-38-28.4-76.01-28.4"/>
        <path class="cls-1" d="M1865.24,826.35c-38,0-38-28.4-75.99-28.4-37.99,0-37.99,28.4-75.99,28.4-38,0-38-28.4-75.99-28.4-38,0-38,28.4-75.99,28.4s-38-28.4-75.99-28.4c-38,0-38,28.4-76,28.4-38,0-38-28.4-76-28.4-38,0-38,28.4-75.99,28.4-38,0-38-28.4-75.99-28.4-38,0-38,28.4-75.99,28.4-38,0-38-28.4-75.99-28.4s-38,28.4-76,28.4-38-28.4-75.99-28.4c-38,0-38,28.4-76,28.4-38,0-38-28.4-75.99-28.4-38,0-38,28.4-75.99,28.4-38,0-38-28.4-76-28.4-37.99,0-37.99,28.4-75.99,28.4s-38-28.4-75.99-28.4c-38,0-38,28.4-76,28.4-38,0-38-28.4-75.99-28.4-38,0-38,28.4-75.99,28.4s-38-28.4-75.99-28.4c-38,0-38,28.4-75.99,28.4-38,0-38-28.4-76-28.4s-38,28.4-76,28.4c-38,0-38-28.4-76-28.4-38,0-38,28.4-76,28.4-38,0-38-28.4-76-28.4-38,0-38,28.4-76,28.4-38,0-38-28.4-76-28.4-38,0-38,28.4-76,28.4-38,0-38-28.4-76-28.4-38,0-38,28.4-76.01,28.4-38,0-38-28.4-76.01-28.4"/>
        <path class="cls-1" d="M1865.24,880.31c-38,0-38-28.4-75.99-28.4-37.99,0-37.99,28.4-75.99,28.4-38,0-38-28.4-75.99-28.4-38,0-38,28.4-75.99,28.4-38,0-38-28.4-75.99-28.4-38,0-38,28.4-76,28.4-38,0-38-28.4-76-28.4-38,0-38,28.4-75.99,28.4-38,0-38-28.4-75.99-28.4-38,0-38,28.4-75.99,28.4-38,0-38-28.4-75.99-28.4-38,0-38,28.4-76,28.4s-38-28.4-75.99-28.4c-38,0-38,28.4-76,28.4-38,0-38-28.4-75.99-28.4-38,0-38,28.4-75.99,28.4-38,0-38-28.4-76-28.4-37.99,0-37.99,28.4-75.99,28.4-38,0-38-28.4-75.99-28.4-38,0-38,28.4-76,28.4-38,0-38-28.4-75.99-28.4-38,0-38,28.4-75.99,28.4-38,0-38-28.4-75.99-28.4-38,0-38,28.4-75.99,28.4-38,0-38-28.4-76-28.4-38,0-38,28.4-76,28.4-38,0-38-28.4-76-28.4-38,0-38,28.4-76,28.4-38,0-38-28.4-76-28.4-38,0-38,28.4-76,28.4-38,0-38-28.4-76-28.4-38,0-38,28.4-76,28.4-38,0-38-28.4-76-28.4-38,0-38,28.4-76.01,28.4-38,0-38-28.4-76.01-28.4"/>
        <path class="cls-1" d="M1865.24,934.27c-38,0-38-28.4-75.99-28.4-37.99,0-37.99,28.4-75.99,28.4-38,0-38-28.4-75.99-28.4-38,0-38,28.4-75.99,28.4-38,0-38-28.4-75.99-28.4-38,0-38,28.4-76,28.4-38,0-38-28.4-76-28.4-38,0-38,28.4-75.99,28.4-38,0-38-28.4-75.99-28.4-38,0-38,28.4-75.99,28.4-38,0-38-28.4-75.99-28.4-38,0-38,28.4-76,28.4-38,0-38-28.4-75.99-28.4-38,0-38,28.4-76,28.4-38,0-38-28.4-75.99-28.4-38,0-38,28.4-75.99,28.4-38,0-38-28.4-76-28.4-37.99,0-37.99,28.4-75.99,28.4-38,0-38-28.4-75.99-28.4-38,0-38,28.4-76,28.4-38,0-38-28.4-75.99-28.4-38,0-38,28.4-75.99,28.4-38,0-38-28.4-75.99-28.4-38,0-38,28.4-75.99,28.4-38,0-38-28.4-76-28.4-38,0-38,28.4-76,28.4-38,0-38-28.4-76-28.4-38,0-38,28.4-76,28.4-38,0-38-28.4-76-28.4-38,0-38,28.4-76,28.4-38,0-38-28.4-76-28.4-38,0-38,28.4-76,28.4-38,0-38-28.4-76-28.4-38,0-38,28.4-76.01,28.4-38,0-38-28.4-76.01-28.4"/>
        <path class="cls-1" d="M1865.24,988.23c-38,0-38-28.4-75.99-28.4-37.99,0-37.99,28.4-75.99,28.4-38,0-38-28.4-75.99-28.4-38,0-38,28.4-75.99,28.4-38,0-38-28.4-75.99-28.4-38,0-38,28.4-76,28.4-38,0-38-28.4-76-28.4-38,0-38,28.4-75.99,28.4-38,0-38-28.4-75.99-28.4-38,0-38,28.4-75.99,28.4-38,0-38-28.4-75.99-28.4-38,0-38,28.4-76,28.4-38,0-38-28.4-75.99-28.4-38,0-38,28.4-76,28.4-38,0-38-28.4-75.99-28.4-38,0-38,28.4-75.99,28.4-38,0-38-28.4-76-28.4-37.99,0-37.99,28.4-75.99,28.4-38,0-38-28.4-75.99-28.4-38,0-38,28.4-76,28.4-38,0-38-28.4-75.99-28.4-38,0-38,28.4-75.99,28.4-38,0-38-28.4-75.99-28.4-38,0-38,28.4-75.99,28.4-38,0-38-28.4-76-28.4-38,0-38,28.4-76,28.4-38,0-38-28.4-76-28.4-38,0-38,28.4-76,28.4-38,0-38-28.4-76-28.4-38,0-38,28.4-76,28.4-38,0-38-28.4-76-28.4-38,0-38,28.4-76,28.4-38,0-38-28.4-76-28.4-38,0-38,28.4-76.01,28.4-38,0-38-28.4-76.01-28.4"/>
        <path class="cls-1" d="M1865.24,1042.19c-38,0-38-28.4-75.99-28.4-37.99,0-37.99,28.4-75.99,28.4-38,0-38-28.4-75.99-28.4-38,0-38,28.4-75.99,28.4-38,0-38-28.4-75.99-28.4-38,0-38,28.4-76,28.4-38,0-38-28.4-76-28.4-38,0-38,28.4-75.99,28.4-38,0-38-28.4-75.99-28.4-38,0-38,28.4-75.99,28.4-38,0-38-28.4-75.99-28.4-38,0-38,28.4-76,28.4s-38-28.4-75.99-28.4c-38,0-38,28.4-76,28.4-38,0-38-28.4-75.99-28.4-38,0-38,28.4-75.99,28.4-38,0-38-28.4-76-28.4-37.99,0-37.99,28.4-75.99,28.4-38,0-38-28.4-75.99-28.4-38,0-38,28.4-76,28.4-38,0-38-28.4-75.99-28.4-38,0-38,28.4-75.99,28.4-38,0-38-28.4-75.99-28.4-38,0-38,28.4-75.99,28.4-38,0-38-28.4-76-28.4-38,0-38,28.4-76,28.4-38,0-38-28.4-76-28.4-38,0-38,28.4-76,28.4-38,0-38-28.4-76-28.4-38,0-38,28.4-76,28.4-38,0-38-28.4-76-28.4-38,0-38,28.4-76,28.4-38,0-38-28.4-76-28.4-38,0-38,28.4-76.01,28.4-38,0-38-28.4-76.01-28.4"/>
        <path class="cls-1" d="M1865.24,1096.14c-38,0-38-28.4-75.99-28.4-37.99,0-37.99,28.4-75.99,28.4-38,0-38-28.4-75.99-28.4-38,0-38,28.4-75.99,28.4-38,0-38-28.4-75.99-28.4-38,0-38,28.4-76,28.4-38,0-38-28.4-76-28.4-38,0-38,28.4-75.99,28.4-38,0-38-28.4-75.99-28.4-38,0-38,28.4-75.99,28.4-38,0-38-28.4-75.99-28.4-38,0-38,28.4-76,28.4-38,0-38-28.4-75.99-28.4-38,0-38,28.4-76,28.4-38,0-38-28.4-75.99-28.4-38,0-38,28.4-75.99,28.4-38,0-38-28.4-76-28.4-37.99,0-37.99,28.4-75.99,28.4-38,0-38-28.4-75.99-28.4-38,0-38,28.4-76,28.4-38,0-38-28.4-75.99-28.4-38,0-38,28.4-75.99,28.4-38,0-38-28.4-75.99-28.4-38,0-38,28.4-75.99,28.4-38,0-38-28.4-76-28.4-38,0-38,28.4-76,28.4-38,0-38-28.4-76-28.4-38,0-38,28.4-76,28.4-38,0-38-28.4-76-28.4-38,0-38,28.4-76,28.4-38,0-38-28.4-76-28.4-38,0-38,28.4-76,28.4-38,0-38-28.4-76-28.4-38,0-38,28.4-76.01,28.4-38,0-38-28.4-76.01-28.4"/>
        <path class="cls-1" d="M1865.24,1150.1c-38,0-38-28.4-75.99-28.4-37.99,0-37.99,28.4-75.99,28.4-38,0-38-28.4-75.99-28.4-38,0-38,28.4-75.99,28.4-38,0-38-28.4-75.99-28.4-38,0-38,28.4-76,28.4-38,0-38-28.4-76-28.4-38,0-38,28.4-75.99,28.4-38,0-38-28.4-75.99-28.4-38,0-38,28.4-75.99,28.4-38,0-38-28.4-75.99-28.4-38,0-38,28.4-76,28.4-38,0-38-28.4-75.99-28.4-38,0-38,28.4-76,28.4-38,0-38-28.4-75.99-28.4-38,0-38,28.4-75.99,28.4-38,0-38-28.4-76-28.4-37.99,0-37.99,28.4-75.99,28.4-38,0-38-28.4-75.99-28.4-38,0-38,28.4-76,28.4-38,0-38-28.4-75.99-28.4-38,0-38,28.4-75.99,28.4-38,0-38-28.4-75.99-28.4-38,0-38,28.4-75.99,28.4-38,0-38-28.4-76-28.4-38,0-38,28.4-76,28.4-38,0-38-28.4-76-28.4-38,0-38,28.4-76,28.4-38,0-38-28.4-76-28.4-38,0-38,28.4-76,28.4-38,0-38-28.4-76-28.4-38,0-38,28.4-76,28.4-38,0-38-28.4-76-28.4-38,0-38,28.4-76.01,28.4-38,0-38-28.4-76.01-28.4"/>
        <path class="cls-1" d="M1865.24,1204.06c-38,0-38-28.4-75.99-28.4-37.99,0-37.99,28.4-75.99,28.4-38,0-38-28.4-75.99-28.4-38,0-38,28.4-75.99,28.4-38,0-38-28.4-75.99-28.4-38,0-38,28.4-76,28.4-38,0-38-28.4-76-28.4-38,0-38,28.4-75.99,28.4-38,0-38-28.4-75.99-28.4-38,0-38,28.4-75.99,28.4-38,0-38-28.4-75.99-28.4-38,0-38,28.4-76,28.4-38,0-38-28.4-75.99-28.4-38,0-38,28.4-76,28.4-38,0-38-28.4-75.99-28.4-38,0-38,28.4-75.99,28.4-38,0-38-28.4-76-28.4-37.99,0-37.99,28.4-75.99,28.4-38,0-38-28.4-75.99-28.4-38,0-38,28.4-76,28.4-38,0-38-28.4-75.99-28.4-38,0-38,28.4-75.99,28.4-38,0-38-28.4-75.99-28.4-38,0-38,28.4-75.99,28.4-38,0-38-28.4-76-28.4-38,0-38,28.4-76,28.4-38,0-38-28.4-76-28.4-38,0-38,28.4-76,28.4-38,0-38-28.4-76-28.4-38,0-38,28.4-76,28.4-38,0-38-28.4-76-28.4-38,0-38,28.4-76,28.4-38,0-38-28.4-76-28.4-38,0-38,28.4-76.01,28.4-38,0-38-28.4-76.01-28.4"/>
        <path class="cls-1" d="M1865.24,1258.02c-38,0-38-28.4-75.99-28.4-37.99,0-37.99,28.4-75.99,28.4-38,0-38-28.4-75.99-28.4-38,0-38,28.4-75.99,28.4-38,0-38-28.4-75.99-28.4-38,0-38,28.4-76,28.4-38,0-38-28.4-76-28.4-38,0-38,28.4-75.99,28.4-38,0-38-28.4-75.99-28.4-38,0-38,28.4-75.99,28.4-38,0-38-28.4-75.99-28.4-38,0-38,28.4-76,28.4-38,0-38-28.4-75.99-28.4-38,0-38,28.4-76,28.4-38,0-38-28.4-75.99-28.4-38,0-38,28.4-75.99,28.4-38,0-38-28.4-76-28.4-37.99,0-37.99,28.4-75.99,28.4-38,0-38-28.4-75.99-28.4-38,0-38,28.4-76,28.4-38,0-38-28.4-75.99-28.4-38,0-38,28.4-75.99,28.4-38,0-38-28.4-75.99-28.4-38,0-38,28.4-75.99,28.4-38,0-38-28.4-76-28.4-38,0-38,28.4-76,28.4-38,0-38-28.4-76-28.4-38,0-38,28.4-76,28.4-38,0-38-28.4-76-28.4-38,0-38,28.4-76,28.4-38,0-38-28.4-76-28.4-38,0-38,28.4-76,28.4-38,0-38-28.4-76-28.4-38,0-38,28.4-76.01,28.4-38,0-38-28.4-76.01-28.4"/>
        <path class="cls-1" d="M1865.24,1311.98c-38,0-38-28.4-75.99-28.4-37.99,0-37.99,28.4-75.99,28.4-38,0-38-28.4-75.99-28.4-38,0-38,28.4-75.99,28.4-38,0-38-28.4-75.99-28.4-38,0-38,28.4-76,28.4-38,0-38-28.4-76-28.4-38,0-38,28.4-75.99,28.4-38,0-38-28.4-75.99-28.4-38,0-38,28.4-75.99,28.4-38,0-38-28.4-75.99-28.4-38,0-38,28.4-76,28.4-38,0-38-28.4-75.99-28.4-38,0-38,28.4-76,28.4-38,0-38-28.4-75.99-28.4-38,0-38,28.4-75.99,28.4-38,0-38-28.4-76-28.4-37.99,0-37.99,28.4-75.99,28.4-38,0-38-28.4-75.99-28.4-38,0-38,28.4-76,28.4-38,0-38-28.4-75.99-28.4-38,0-38,28.4-75.99,28.4-38,0-38-28.4-75.99-28.4-38,0-38,28.4-75.99,28.4-38,0-38-28.4-76-28.4-38,0-38,28.4-76,28.4-38,0-38-28.4-76-28.4-38,0-38,28.4-76,28.4-38,0-38-28.4-76-28.4-38,0-38,28.4-76,28.4-38,0-38-28.4-76-28.4-38,0-38,28.4-76,28.4-38,0-38-28.4-76-28.4-38,0-38,28.4-76.01,28.4-38,0-38-28.4-76.01-28.4"/>
      </g>
    </g>
  </g>
  <g id="Base_Terreno" data-name="Base Terreno">
    <path class="cls-7" d="M1488.47,422.69s-17.21-2.02-33.07,0-24.97,4.39-24.97,4.39l-.7-2.41,3.4-1.13-1.35-4.22-15.02,3.88,1.05,4.34,5.23-1.18.63,2.74s-33.07,5.29-52.19,13.95l-1.91-4.61,7.09-2.36-4.72-10.57-27,12.04,4.05,8.44,12.49-4.95.79,2.02s-30.54,8.83-42.18,16.42-47.75,37.46-72.55,65.97c-24.8,28.52-31.38,28.52-31.38,28.52,0,0-33.92-7.93-48.93-1.69s-31.05,15.52-35.6,19.4c-4.56,3.88-25.31,31.38-28.85,30.2s-18.9-17.21-18.9-17.21c0,0,10.12,23.12,9.79,23.96s-1.35,27.33-5.57,28.18-11.81,2.36-11.81,2.36l-6.41,47.41s-16.2,40.5-16.87,46.06-.84,18.39-.84,18.39l-31.38,49.61-3.71,37.8-7.26,3.54-24.8,13.16-18.05,4.22-37.8,23.12s2.87,16.03,2.02,16.03-28.35,4.89-28.35,4.89l-31.72-16.37s-23.28-.17-27.17-.51c-3.88-.34-32.06-4.89-32.06-4.89l-12.32,7.76-60.91-4.39-8.27,5.4s-35.43-.34-44.55,1.86c-9.11,2.19-28.01,12.49-28.01,12.49l-1.69,8.1,6.41,6.07-9.79,8.1s2.53,12.65,2.36,14.51c0,0-70.36,1.01-88.75,5.91-18.39,4.89-43.03,24.8-54.67,38.13s-3.88,24.97-3.88,24.97l15.52,18.56s-5.91,5.91-9.62,7.09-13.16,5.23-13.16,5.23l-10.18,26.6-11.25,13.05-6.3,22.95h-26.55l-2.7,12.15,6.75,9.9-90.44,79.64-36,14.4-49.04,37.8s-69.74.45-96.74,18c-27,17.55-85.94,64.34-85.94,64.34l-13.95,22.05-25.65,20.25s-51.74-21.15-77.39-20.7c-25.65.45-59.84,10.8-68.84,22.5s-9,26.55-9,26.55l-98.09,54.89s-37.35-27.9-76.49-4.5c-39.15,23.4-25.2,68.84-25.2,68.84,0,0-45.45-6.75-61.64-5.4-16.2,1.35-91.34-15.3-118.79-14.85s-85.04-39.6-85.04-39.6c0,0-81.44-42.75-135.89-40.95-54.44,1.8-71.99,20.7-71.99,20.7l-30.93,23.4-4.17-.45V-95.99H1488.47V422.69Z"/>
    <path class="cls-7" d="M1837.72,606.18l-201.85-116.44-12.66-33.41-76.8-21.2s-.33-6.62-7.28-8.28-11.26-5.63-11.26-5.63v-1.66l19.53,3.31,2.32-11.92-45.02-8.28-2.32,13.24,18.87,2.65-.66,4.63-32.11-.51V-36.76h349.25v642.94Z"/>
  </g>
  <g id="Verde">
    <path class="cls-16" d="M1269.24,414.71l-32.85-12.15-6.3-13.05-20.25,11.25-23.4-26.55,29.25-17.1,19.35-44.55,86.84-73.34,19.8-33.3-12.6-19.8,27-20.25,17.1-38.25-7.2-16.2-16.65-2.25-2.26-52.64,13.96-8.1,38.25,52.64,87.74,4.05v-12.15l-21.6-30.15-21.6-69.29-36-60.29,36.27-29.25h-509.13l-2.96,12.82-20.25,13.31-57.37-11.29s-194.38,124.19-197.75,125.54-48.59,8.77-48.59,8.77l-10.12,27.67-21.6,8.77-53.99-8.77-22.95,35.77,41.85,76.27s-96.51,192.35-107.31,197.75c-10.8,5.4-50.62,13.5-50.62,13.5l-41.17-68.84-67.49-35.1-22.27,9.45-12.82,60.07,65.47,62.09,71.54,61.42-2.02,29.02-44.55,36.45-47.92,12.15-130.94-16.2-57.37,16.2-83.02,13.25-24.3-69.94s4.05-97.19,8.1-99.89c4.05-2.7,64.79-32.4,64.79-32.4l-41.85-64.79-31.05,1.35v37.8l-41.85,13.5v-41.85l18.9-83.69L-13.58,26.85l-148.48,90.44,17.55,28.35-33.75,71.54-56.69-51.29-220.03-56.69-87.74,68.84L-810.89-33.05v703.56l1,157.75,196.97,41.02,102.59,161.87-82.34,124.19-79.2,79.64,34.66,103.94,59.39,91.79,1.07,35.2c5.6,2.7,8.83,4.4,8.83,4.4,0,0,2.78,1.94,7.42,4.95h267.22c3.96-5.08,9.18-9.85,16.03-13.95,39.15-23.4,76.49,4.5,76.49,4.5l98.09-54.89s0-14.85,9-26.55c9-11.7,43.2-22.05,68.84-22.5,25.65-.45,77.39,20.7,77.39,20.7l25.65-20.25,13.95-22.05s58.94-46.8,85.94-64.34c27-17.55,96.74-18,96.74-18l49.04-37.8,36-14.4,90.44-79.64-6.75-9.9,2.7-12.15h26.55l6.3-22.95,11.25-13.05,10.18-26.6s9.45-4.05,13.16-5.23,9.62-7.09,9.62-7.09l-15.52-18.56s-7.76-11.64,3.88-24.97c11.64-13.33,36.28-33.24,54.67-38.13,18.39-4.89,88.75-5.91,88.75-5.91.17-1.86-2.36-14.51-2.36-14.51l9.79-8.1-6.41-6.07,1.69-8.1s18.9-10.29,28.01-12.49c9.11-2.19,44.55-1.86,44.55-1.86l8.27-5.4,60.91,4.39,12.32-7.76s28.18,4.56,32.06,4.89c3.88.34,27.17.51,27.17.51l31.72,16.37s27.5-4.89,28.35-4.89-2.02-16.03-2.02-16.03l37.8-23.12,18.05-4.22,24.8-13.16,7.26-3.54,3.71-37.8,31.38-49.61s.17-12.82.84-18.39,16.87-46.06,16.87-46.06l6.41-47.41s7.59-1.52,11.81-2.36c4.22-.84,5.23-27.33,5.57-28.18s-9.79-23.96-9.79-23.96c0,0,15.35,16.03,18.9,17.21,3.54,1.18,24.3-26.32,28.85-30.2,4.56-3.88,20.59-13.16,35.6-19.4,15.02-6.24,48.93,1.69,48.93,1.69,0,0,6.58,0,31.38-28.52,11.62-13.36,25.72-27.01,38.62-38.53l17.28-34.86-34.2-37.35Z"/>
    <g>
      <g>
        <path class="cls-16" d="M919.62,246.9l50.45-50.45c7.89-7.89,20.69-7.89,28.59,0l49.4,49.4"/>
        <path class="cls-6" d="M919.62,246.9l50.45-50.45c7.89-7.89,20.69-7.89,28.59,0l49.4,49.4"/>
      </g>
      <g>
        <path class="cls-16" d="M837.35,263.95l50.45-50.45c7.89-7.89,20.69-7.89,28.59,0l49.4,49.4"/>
        <path class="cls-12" d="M837.35,263.95l50.45-50.45c7.89-7.89,20.69-7.89,28.59,0l49.4,49.4"/>
      </g>
    </g>
    <g>
      <g>
        <path class="cls-16" d="M629.82,411.48l50.45-50.45c7.89-7.89,20.69-7.89,28.59,0l49.4,49.4"/>
        <path class="cls-15" d="M629.82,411.48l50.45-50.45c7.89-7.89,20.69-7.89,28.59,0l49.4,49.4"/>
      </g>
      <g>
        <path class="cls-16" d="M547.55,428.53l50.45-50.45c7.89-7.89,20.69-7.89,28.59,0l49.4,49.4"/>
        <path class="cls-17" d="M547.55,428.53l50.45-50.45c7.89-7.89,20.69-7.89,28.59,0l49.4,49.4"/>
      </g>
      <g>
        <line class="cls-2" x1="658.66" y1="336.72" x2="658.66" y2="346.95"/>
        <polyline class="cls-2" points="651.89 359.31 651.89 348.01 665.44 348.01 665.44 359.31"/>
        <path class="cls-2" d="M673.82,363.83c-3.72-4.16-9.13-6.78-15.16-6.78-11.23,0-20.33,9.1-20.33,20.33v4.52"/>
      </g>
    </g>
    <g>
      <g>
        <path class="cls-16" d="M443.66,638.85l50.45-50.45c7.89-7.89,20.69-7.89,28.59,0l49.4,49.4"/>
        <path class="cls-4" d="M443.66,638.85l50.45-50.45c7.89-7.89,20.69-7.89,28.59,0l49.4,49.4"/>
      </g>
      <g>
        <path class="cls-16" d="M361.4,655.9l50.45-50.45c7.89-7.89,20.69-7.89,28.59,0l49.4,49.4"/>
        <path class="cls-3" d="M361.4,655.9l50.45-50.45c7.89-7.89,20.69-7.89,28.59,0l49.4,49.4"/>
      </g>
      <g>
        <line class="cls-2" x1="472.51" y1="564.09" x2="472.51" y2="574.33"/>
        <polyline class="cls-2" points="465.73 586.68 465.73 575.39 479.29 575.39 479.29 586.68"/>
        <path class="cls-2" d="M487.66,591.2c-3.72-4.16-9.13-6.78-15.16-6.78-11.23,0-20.33,9.1-20.33,20.33v4.52"/>
      </g>
    </g>
    <g>
      <g>
        <path class="cls-16" d="M144.77,737.79l50.45-50.45c7.89-7.89,20.69-7.89,28.59,0l49.4,49.4"/>
        <path class="cls-5" d="M144.77,737.79l50.45-50.45c7.89-7.89,20.69-7.89,28.59,0l49.4,49.4"/>
      </g>
      <g>
        <path class="cls-16" d="M62.51,754.84l50.45-50.45c7.89-7.89,20.69-7.89,28.59,0l49.4,49.4"/>
        <path class="cls-13" d="M62.51,754.84l50.45-50.45c7.89-7.89,20.69-7.89,28.59,0l49.4,49.4"/>
      </g>
    </g>
    <g>
      <g>
        <path class="cls-16" d="M190.06,992.79l50.45-50.45c7.89-7.89,20.69-7.89,28.59,0l49.4,49.4"/>
        <path class="cls-14" d="M190.06,992.79l50.45-50.45c7.89-7.89,20.69-7.89,28.59,0l49.4,49.4"/>
      </g>
      <g>
        <path class="cls-16" d="M107.79,1009.84l50.45-50.45c7.89-7.89,20.69-7.89,28.59,0l49.4,49.4"/>
        <path class="cls-9" d="M107.79,1009.84l50.45-50.45c7.89-7.89,20.69-7.89,28.59,0l49.4,49.4"/>
      </g>
      <g>
        <line class="cls-2" x1="218.9" y1="918.03" x2="218.9" y2="928.27"/>
        <polyline class="cls-2" points="212.13 940.62 212.13 929.32 225.68 929.32 225.68 940.62"/>
        <path class="cls-2" d="M234.06,945.14c-3.72-4.16-9.13-6.78-15.16-6.78-11.23,0-20.33,9.1-20.33,20.33v4.52"/>
      </g>
    </g>
    <path class="cls-8" d="M1221.6,551.09s-12.38-7.92-23.18-7.92-29.49,4.5-29.49,4.5v3.99s8.4-3.09,20.29-1.57c0,0,22.36,1.69,26.91,3.88,0,0,4.08-1.04,5.46-2.88Z"/>
    <path class="cls-8" d="M929.13,882.49l-58.04,4.56,31.72,16.37,28.35-4.89s-.39-10.8-2.02-16.03Z"/>
    <path class="cls-8" d="M603.81,943.36l-4.77-6.48-46.57,3.24-17.55,16.56-3.3,10.38s11.5-9.7,24.39-15.66c12.88-5.97,33.77-7.08,33.77-7.08l14.03-.96Z"/>
    <polygon class="cls-8" points="656.12 912.86 652.85 927.57 662.53 918.93 656.12 912.86"/>
    <path class="cls-8" d="M665.88,900.58s12.49-14.09,28.38-16.41c15.89-2.32,44.38.85,44.38.85l-8.13,6.11s-36.91-.5-42.21.82c-5.3,1.33-22.42,8.63-22.42,8.63Z"/>
    <path class="cls-8" d="M751.48,885.81l18.05-5.56,35.72,5.56-5.71,3.6s-43.96-3.44-48.06-3.6Z"/>
  </g>
</svg>