<?xml version="1.0" encoding="UTF-8"?>
<svg id="Camada_3" data-name="Camada 3" xmlns="http://www.w3.org/2000/svg" xmlns:xlink="http://www.w3.org/1999/xlink" viewBox="0 0 380 194">
  <defs>
    <style>
      .cls-1, .cls-2 {
        fill: #fd0;
      }

      .cls-3, .cls-4, .cls-5 {
        fill: #fff;
      }

      .cls-4 {
        stroke-width: 2.57px;
      }

      .cls-4, .cls-2 {
        stroke: #1a171b;
        stroke-miterlimit: 10;
      }

      .cls-6, .cls-7, .cls-8 {
        fill: none;
      }

      .cls-2 {
        stroke-width: .32px;
      }

      .cls-7, .cls-5 {
        stroke: #9b9c9e;
        stroke-width: .43px;
      }

      .cls-7, .cls-5, .cls-8 {
        stroke-linecap: round;
        stroke-linejoin: round;
      }

      .cls-9 {
        fill: #1a171b;
      }

      .cls-8 {
        stroke: #fff;
        stroke-width: .81px;
      }

      .cls-10 {
        fill: #e9e9db;
      }

      .cls-11 {
        clip-path: url(#clippath);
      }
    </style>
    <clipPath id="clippath">
      <path class="cls-6" d="M-43.35,108.43l-76.3-1.74c-2.51-.06-3.71-2.18-2.68-4.75l18.56-46.5c1.02-2.56,3.88-4.6,6.39-4.56l76.38,1.3c2.55.04,3.79,2.17,2.76,4.75l-18.64,46.91c-1.03,2.59-3.93,4.64-6.48,4.58Z"/>
    </clipPath>
  </defs>
  <rect class="cls-1" width="380" height="194"/>
  <circle class="cls-3" cx="65.98" cy="83.07" r="28.45"/>
  <circle class="cls-3" cx="314.75" cy="149.04" r="28.45"/>
  <g>
    <rect class="cls-4" x="70.33" y="75.96" width="241.73" height="97.97" rx="11.91" ry="11.91"/>
    <g>
      <circle class="cls-2" cx="95.8" cy="96.49" r="7.25"/>
      <g>
        <g>
          <path class="cls-3" d="M99.59,96.45s0,0,0-.01c0,0,0,0,0,0,0,0,0,0,0,.01Z"/>
          <path class="cls-3" d="M100.55,96.01c-.03-.22-.1-.43-.21-.63-.21-.39-.56-.69-.97-.84-.21-.08-.42-.12-.64-.12-.51,0-1.01.22-1.35.59-.57-.63-1.53-.77-2.26-.35-.19.11-.36.26-.5.43-.35-.38-.84-.62-1.35-.67-.46-.04-.92.08-1.3.33-.37.24-.65.6-.8,1.01-.16.43-.17.9-.04,1.34.13.42.4.79.75,1.05.36.27.81.41,1.26.4.16,0,.32-.02.47-.06.05-.01.09-.03.13-.04-.06.02-.12.03-.18.03-.27,0-.48-.22-.48-.48,0-.24.17-.44.4-.48-.06,0-.12.02-.18.03-.24.04-.49.02-.71-.09-.4-.21-.64-.65-.59-1.1.05-.45.38-.83.81-.94.24-.06.5-.05.72.05.24.11.44.31.58.53.03.06.06.12.09.18.02.06.04.12.07.18.06.12.17.2.3.23.25.07.5-.08.58-.33.02-.07.02-.14.04-.2.03-.12.08-.23.15-.33.14-.19.36-.32.6-.35.46-.05.89.28.96.73.02.12.04.23.12.32.09.1.21.16.34.17.14,0,.27-.04.36-.14.09-.09.13-.2.14-.32.05-.46.49-.81.95-.77.46.04.81.45.79.9,0,.05,0,.1,0,.15,0-.27.22-.48.49-.48s.49.22.49.49c0,0,0,0,0,0,0-.02,0-.04,0-.06,0-.13,0-.25-.01-.38Z"/>
        </g>
        <path class="cls-9" d="M100.56,96.44c0,.27-.22.49-.49.49s-.49-.22-.49-.49.22-.49.49-.49.49.22.49.49Z"/>
        <path class="cls-9" d="M94.04,98c0,.27-.22.48-.48.48s-.48-.22-.48-.48.22-.48.48-.48.48.22.48.48Z"/>
      </g>
    </g>
    <g>
      <path class="cls-9" d="M117.77,96.54c-.05.47.09.69.44.69.47,0,.66-.51.66-1.3,0-1.74-1.35-2.85-2.89-2.85s-3.09,1.16-3.09,3.1,1.47,3.01,3.03,3.01c.58,0,1.12-.17,1.55-.44l.98.66c-.59.56-1.5.96-2.47.96-2.23,0-4.36-1.6-4.36-4.19s2.13-4.29,4.36-4.29,4.16,1.6,4.16,4.05c0,1.59-.94,2.42-2.05,2.42-.44,0-.84-.14-1.1-.42-.28.21-.66.34-1.11.34-1.22,0-2.11-.94-2.11-2.11s.89-2.11,2.11-2.11c.53,0,.96.18,1.28.49l.17-.24h.66l-.21,2.23ZM116.88,96.17c0-.58-.41-1.03-1.01-1.03s-1.01.45-1.01,1.03.41,1.03,1.01,1.03,1.01-.45,1.01-1.03Z"/>
      <path class="cls-9" d="M128.13,98.98c.08.08.08.17,0,.25-.73.73-1.74,1.2-2.89,1.2-2.37,0-4.26-1.88-4.26-4.26s1.89-4.28,4.26-4.28c1.15,0,2.15.46,2.89,1.2.08.08.08.17,0,.25l-.78.84c-.07.08-.17.08-.25.01-.5-.44-1.11-.71-1.87-.71-1.44,0-2.58,1.15-2.58,2.69s1.14,2.68,2.58,2.68c.76,0,1.37-.27,1.87-.71.08-.07.18-.07.25.01l.78.84Z"/>
      <path class="cls-9" d="M137.86,92.16v7.93c0,.11-.07.18-.18.18h-1.27c-.11,0-.18-.07-.18-.18v-4.71l-1.92,4.75c-.04.09-.12.14-.21.14h-1.15c-.09,0-.18-.05-.21-.14l-1.92-4.75v4.71c0,.11-.07.18-.18.18h-1.27c-.11,0-.18-.07-.18-.18v-7.93c0-.11.07-.18.18-.18h1.46c.09,0,.18.04.21.12l2.49,6.31,2.48-6.31c.04-.08.12-.12.21-.12h1.46c.11,0,.18.07.18.18Z"/>
      <path class="cls-9" d="M144.13,97.95h-3.72c.15.77.75,1.21,1.66,1.21.46,0,.83-.12,1.23-.4.11-.07.18-.07.26.01l.52.51c.08.08.08.17-.01.26-.56.56-1.31.89-2.16.89-1.81,0-3.05-1.34-3.05-3.04s1.24-3.04,2.92-3.04,2.76,1.34,2.76,2.91c0,.46-.06.7-.41.7ZM140.39,96.93h2.77c-.11-.82-.66-1.27-1.36-1.27s-1.28.45-1.41,1.27Z"/>
      <path class="cls-9" d="M148.77,94.64v.92c0,.11-.07.18-.18.18h-.83v4.35c0,.11-.07.18-.18.18h-1.21c-.11,0-.18-.07-.18-.18v-4.35h-.83c-.11,0-.18-.07-.18-.18v-.92c0-.11.07-.18.18-.18h.83v-1.6c0-.11.07-.18.18-.18h1.21c.11,0,.18.07.18.18v1.6h.83c.11,0,.18.07.18.18Z"/>
      <path class="cls-9" d="M153.48,94.85l-.35.88c-.05.13-.14.15-.26.12-.12-.04-.26-.08-.49-.08-.73,0-1.21.54-1.21,1.26v3.08c0,.11-.07.18-.18.18h-1.21c-.11,0-.18-.07-.18-.18v-5.45c0-.11.07-.18.18-.18h1.15c.11,0,.17.07.18.18l.05.64c.31-.56.78-.95,1.48-.95.33,0,.62.13.78.27.09.07.09.15.06.24Z"/>
      <path class="cls-9" d="M153.85,97.38c0-1.71,1.34-3.04,3.01-3.04s3.01,1.34,3.01,3.04-1.34,3.04-3.01,3.04-3.01-1.34-3.01-3.04ZM158.36,97.38c0-.93-.67-1.6-1.5-1.6s-1.5.66-1.5,1.6.66,1.6,1.5,1.6,1.5-.66,1.5-1.6Z"/>
      <path class="cls-9" d="M166.8,97.38c0,1.69-1.18,3.04-2.81,3.04-.71,0-1.27-.3-1.68-.73v2.65c0,.11-.07.18-.18.18h-1.21c-.11,0-.18-.07-.18-.18v-7.7c0-.11.07-.18.18-.18h1.09c.11,0,.17.07.18.18l.04.54c.44-.5,1.03-.85,1.76-.85,1.62,0,2.81,1.35,2.81,3.04ZM165.3,97.37c0-.92-.63-1.61-1.49-1.61s-1.48.73-1.48,1.61.63,1.63,1.48,1.63,1.49-.7,1.49-1.63Z"/>
      <path class="cls-9" d="M167.51,97.38c0-1.71,1.34-3.04,3.01-3.04s3.01,1.34,3.01,3.04-1.34,3.04-3.01,3.04-3.01-1.34-3.01-3.04ZM172.02,97.38c0-.93-.67-1.6-1.5-1.6s-1.5.66-1.5,1.6.66,1.6,1.5,1.6,1.5-.66,1.5-1.6Z"/>
      <path class="cls-9" d="M174.59,91.62h1.21c.11,0,.18.07.18.18v8.29c0,.11-.07.18-.18.18h-1.21c-.11,0-.18-.07-.18-.18v-8.29c0-.11.07-.18.18-.18Z"/>
      <path class="cls-9" d="M176.99,92.5c0-.47.38-.86.86-.86s.85.39.85.86-.38.86-.85.86-.86-.39-.86-.86ZM177.25,94.47h1.21c.11,0,.18.07.18.18v5.45c0,.11-.07.18-.18.18h-1.21c-.11,0-.18-.07-.18-.18v-5.45c0-.11.07-.18.18-.18Z"/>
      <path class="cls-9" d="M183.05,94.64v.92c0,.11-.07.18-.18.18h-.83v4.35c0,.11-.07.18-.18.18h-1.21c-.11,0-.18-.07-.18-.18v-4.35h-.83c-.11,0-.18-.07-.18-.18v-.92c0-.11.07-.18.18-.18h.83v-1.6c0-.11.07-.18.18-.18h1.21c.11,0,.18.07.18.18v1.6h.83c.11,0,.18.07.18.18Z"/>
      <path class="cls-9" d="M189.77,94.64v5.45c0,.11-.07.18-.18.18h-1.09c-.11,0-.17-.07-.18-.18l-.05-.5c-.41.49-.99.83-1.75.83-1.62,0-2.81-1.35-2.81-3.04s1.18-3.04,2.81-3.04c.73,0,1.33.36,1.76.85l.04-.54c.01-.11.07-.18.18-.18h1.09c.11,0,.18.07.18.18ZM188.19,97.37c0-.88-.63-1.61-1.48-1.61s-1.49.69-1.49,1.61.63,1.63,1.49,1.63,1.48-.76,1.48-1.63Z"/>
      <path class="cls-9" d="M196.32,96.79v3.3c0,.11-.07.18-.18.18h-1.21c-.11,0-.18-.07-.18-.18v-3.02c0-.96-.52-1.29-1.09-1.29-.88,0-1.28.86-1.28,1.14v3.17c0,.11-.07.18-.18.18h-1.21c-.11,0-.18-.07-.18-.18v-5.45c0-.11.07-.18.18-.18h1.16c.11,0,.17.07.18.18l.05.76h0c.38-.6.99-1.07,1.84-1.07,1.18,0,2.1.9,2.1,2.45Z"/>
      <path class="cls-9" d="M203.26,94.64v5.45c0,.11-.07.18-.18.18h-1.09c-.11,0-.17-.07-.18-.18l-.05-.5c-.41.49-.99.83-1.75.83-1.62,0-2.81-1.35-2.81-3.04s1.18-3.04,2.81-3.04c.73,0,1.33.36,1.76.85l.04-.54c.01-.11.07-.18.18-.18h1.09c.11,0,.18.07.18.18ZM201.69,97.37c0-.88-.63-1.61-1.48-1.61s-1.49.69-1.49,1.61.63,1.63,1.49,1.63,1.48-.76,1.48-1.63Z"/>
      <path class="cls-9" d="M210.3,100.45v.92c0,.11-.07.18-.18.18h-5.57c-.11,0-.18-.07-.18-.18v-.92c0-.11.07-.18.18-.18h5.57c.11,0,.18.07.18.18Z"/>
    </g>
    <g>
      <rect class="cls-6" x="89.62" y="113.75" width="211.71" height="38.11"/>
      <path class="cls-9" d="M95.66,120.73h-1.06c-.08,0-.13-.03-.16-.12l-.39-1.16h-2.49l-.39,1.16c-.03.09-.09.12-.16.12h-1.06c-.1,0-.15-.07-.11-.16l2.32-6.42c.03-.08.09-.12.16-.12h.96c.08,0,.15.04.18.12l2.32,6.42c.04.1,0,.16-.11.16ZM93.68,118.35l-.88-2.61-.88,2.61h1.76Z"/>
      <path class="cls-9" d="M101.16,116.19v6.22c0,.09-.06.14-.14.14h-.98c-.09,0-.14-.06-.14-.14v-2.14c-.33.35-.78.59-1.36.59-1.31,0-2.27-1.09-2.27-2.46s.96-2.46,2.27-2.46c.59,0,1.07.29,1.43.69l.03-.44c0-.09.06-.14.14-.14h.88c.09,0,.14.06.14.14ZM99.89,118.39c0-.71-.51-1.3-1.2-1.3s-1.21.56-1.21,1.3.51,1.32,1.21,1.32,1.2-.61,1.2-1.32Z"/>
      <path class="cls-9" d="M106.41,116.19v4.4c0,.09-.06.14-.14.14h-.94c-.09,0-.13-.06-.14-.14l-.04-.53c-.33.46-.8.79-1.4.79-1.05,0-1.78-.73-1.78-1.98v-2.69c0-.09.06-.14.14-.14h.98c.09,0,.14.06.14.14v2.46c0,.78.45,1.04.9,1.04.68,0,1.01-.57,1.01-.91v-2.59c0-.09.06-.14.14-.14h.98c.09,0,.14.06.14.14Z"/>
      <path class="cls-9" d="M107.22,114.45c0-.38.31-.7.7-.7s.69.32.69.7-.31.7-.69.7-.7-.32-.7-.7ZM107.43,116.04h.98c.09,0,.14.06.14.14v4.4c0,.09-.06.14-.14.14h-.98c-.09,0-.14-.06-.14-.14v-4.4c0-.09.06-.14.14-.14Z"/>
      <path class="cls-9" d="M115.52,119.6c.08-.08.14-.07.21,0l.24.22c.06.06.07.13,0,.2-.44.51-1.06.83-1.82.83-1.35,0-2.35-1.08-2.35-2.46s1-2.46,2.35-2.46c.74,0,1.35.33,1.79.83.06.07.05.14,0,.2l-.24.22c-.07.07-.13.07-.21,0-.28-.25-.59-.6-1.33-.6-.98,0-1.66.78-1.66,1.81s.69,1.81,1.66,1.81c.76,0,1.09-.33,1.36-.6Z"/>
      <path class="cls-9" d="M116.63,118.4c0-1.39,1.03-2.46,2.37-2.46s2.37,1.07,2.37,2.46-1.03,2.46-2.37,2.46-2.37-1.07-2.37-2.46ZM120.69,118.4c0-1.05-.74-1.81-1.68-1.81s-1.68.76-1.68,1.81.74,1.81,1.68,1.81,1.68-.76,1.68-1.81Z"/>
      <path class="cls-9" d="M126.14,117.8v2.78c0,.09-.06.14-.14.14h-.43c-.09,0-.14-.06-.14-.14v-2.74c0-.83-.41-1.27-1.08-1.27-.93,0-1.44.92-1.44,1.11v2.9c0,.09-.06.14-.14.14h-.43c-.09,0-.14-.06-.14-.14v-4.4c0-.09.06-.14.14-.14h.39c.09,0,.13.06.14.14l.04.66c.34-.51.87-.91,1.59-.91.99,0,1.65.61,1.65,1.87Z"/>
      <path class="cls-9" d="M129.24,116.19v.33c0,.09-.06.14-.14.14h-.67v3.93c0,.09-.06.14-.14.14h-.43c-.09,0-.14-.06-.14-.14v-3.93h-.67c-.09,0-.14-.06-.14-.14v-.33c0-.09.06-.14.14-.14h.67v-1.29c0-.09.06-.14.14-.14h.43c.09,0,.14.06.14.14v1.29h.67c.09,0,.14.06.14.14Z"/>
      <path class="cls-9" d="M134.53,116.19v4.4c0,.09-.06.14-.14.14h-.39c-.09,0-.13-.06-.14-.14l-.04-.57c-.37.5-.93.83-1.66.83-1.34,0-2.3-1.08-2.3-2.45s.96-2.45,2.3-2.45c.73,0,1.29.33,1.66.84l.04-.6c0-.09.06-.14.14-.14h.39c.09,0,.14.06.14.14ZM133.87,118.39c0-.98-.7-1.79-1.66-1.79s-1.66.77-1.66,1.79.71,1.81,1.66,1.81,1.66-.82,1.66-1.81Z"/>
      <path class="cls-9" d="M142.67,117.8v2.78c0,.09-.06.14-.14.14h-.43c-.09,0-.14-.06-.14-.14v-2.74c0-.83-.41-1.27-1.08-1.27-1.02,0-1.44.81-1.44,1.25v2.75c0,.09-.06.14-.14.14h-.43c-.09,0-.14-.06-.14-.14v-2.74c0-.83-.41-1.27-1.08-1.27-.93,0-1.44.92-1.44,1.11v2.9c0,.09-.06.14-.14.14h-.43c-.09,0-.14-.06-.14-.14v-4.4c0-.09.06-.14.14-.14h.39c.09,0,.13.06.14.14l.04.66c.34-.51.87-.91,1.59-.91s1.24.32,1.49.96c.33-.54.89-.96,1.73-.96,1,0,1.66.61,1.66,1.87Z"/>
      <path class="cls-9" d="M143.48,118.4c0-1.39,1.03-2.46,2.37-2.46s2.37,1.07,2.37,2.46-1.03,2.46-2.37,2.46-2.37-1.07-2.37-2.46ZM147.53,118.4c0-1.05-.74-1.81-1.68-1.81s-1.68.76-1.68,1.81.74,1.81,1.68,1.81,1.68-.76,1.68-1.81Z"/>
      <path class="cls-9" d="M152.24,119.54c0,.79-.8,1.31-1.62,1.31s-1.41-.39-1.74-.78c-.06-.07-.06-.12,0-.18l.21-.26c.07-.09.11-.07.2,0,.24.22.73.58,1.32.58.55,0,.94-.25.94-.69,0-1.12-2.57-.75-2.57-2.31,0-.76.67-1.28,1.51-1.28.5,0,1.11.25,1.5.71.06.07.04.13,0,.2l-.16.21c-.06.08-.13.06-.21,0-.37-.33-.67-.5-1.12-.5-.34,0-.82.16-.82.67,0,1.06,2.58.66,2.58,2.32Z"/>
      <path class="cls-9" d="M157.64,116.19v.33c0,.09-.06.14-.14.14h-.67v3.93c0,.09-.06.14-.14.14h-.43c-.09,0-.14-.06-.14-.14v-3.93h-.67c-.09,0-.14-.06-.14-.14v-.33c0-.09.06-.14.14-.14h.67v-1.29c0-.09.06-.14.14-.14h.43c.09,0,.14.06.14.14v1.29h.67c.09,0,.14.06.14.14Z"/>
      <path class="cls-9" d="M162.3,116.19v4.4c0,.09-.06.14-.14.14h-.39c-.09,0-.13-.06-.14-.14l-.04-.57c-.33.48-.82.84-1.5.84-1.07,0-1.73-.63-1.73-1.88v-2.78c0-.09.06-.14.14-.14h.43c.09,0,.14.06.14.14v2.74c0,.84.42,1.3,1.12,1.3.9,0,1.4-.86,1.4-1.16v-2.88c0-.09.06-.14.14-.14h.43c.09,0,.14.06.14.14Z"/>
      <path class="cls-9" d="M167.78,113.89v6.7c0,.09-.06.14-.14.14h-.39c-.09,0-.13-.06-.14-.14l-.04-.57c-.37.5-.93.83-1.66.83-1.34,0-2.3-1.08-2.3-2.45s.96-2.45,2.3-2.45c.73,0,1.29.33,1.66.84v-2.9c0-.09.06-.14.14-.14h.43c.09,0,.14.06.14.14ZM167.12,118.39c0-.98-.7-1.79-1.66-1.79s-1.66.77-1.66,1.79.71,1.81,1.66,1.81,1.66-.82,1.66-1.81Z"/>
      <path class="cls-9" d="M168.59,118.4c0-1.39,1.03-2.46,2.37-2.46s2.37,1.07,2.37,2.46-1.03,2.46-2.37,2.46-2.37-1.07-2.37-2.46ZM172.65,118.4c0-1.05-.74-1.81-1.68-1.81s-1.68.76-1.68,1.81.74,1.81,1.68,1.81,1.68-.76,1.68-1.81Z"/>
      <path class="cls-9" d="M179.84,119.54c0,.79-.8,1.31-1.62,1.31s-1.41-.39-1.74-.78c-.06-.07-.06-.12,0-.18l.21-.26c.07-.09.11-.07.2,0,.24.22.73.58,1.32.58.55,0,.94-.25.94-.69,0-1.12-2.57-.75-2.57-2.31,0-.76.67-1.28,1.51-1.28.5,0,1.11.25,1.5.71.06.07.04.13,0,.2l-.16.21c-.06.08-.13.06-.21,0-.37-.33-.67-.5-1.12-.5-.34,0-.82.16-.82.67,0,1.06,2.58.66,2.58,2.32Z"/>
      <path class="cls-9" d="M180.46,118.4c0-1.39,1.03-2.46,2.37-2.46s2.37,1.07,2.37,2.46-1.03,2.46-2.37,2.46-2.37-1.07-2.37-2.46ZM184.51,118.4c0-1.05-.74-1.81-1.68-1.81s-1.68.76-1.68,1.81.74,1.81,1.68,1.81,1.68-.76,1.68-1.81Z"/>
      <path class="cls-9" d="M190.68,118.4c0,1.37-.96,2.45-2.3,2.45-.73,0-1.28-.33-1.66-.83l-.04.57c0,.09-.06.14-.14.14h-.39c-.09,0-.14-.06-.14-.14v-6.7c0-.09.06-.14.14-.14h.43c.09,0,.14.06.14.14v2.9c.36-.51.93-.84,1.66-.84,1.34,0,2.3,1.08,2.3,2.45ZM189.99,118.39c0-1.02-.71-1.79-1.67-1.79s-1.65.81-1.65,1.79.7,1.81,1.65,1.81,1.67-.77,1.67-1.81Z"/>
      <path class="cls-9" d="M193.95,116.24l-.15.33c-.04.08-.09.09-.17.07-.09-.02-.18-.05-.37-.05-.58,0-1.04.44-1.04,1.04v2.95c0,.09-.06.14-.14.14h-.43c-.09,0-.14-.06-.14-.14v-4.4c0-.09.06-.14.14-.14h.38c.09,0,.13.06.14.14l.04.41c.26-.39.65-.66,1.16-.66.23,0,.43.06.56.15.06.04.07.08.03.15Z"/>
      <path class="cls-9" d="M198.84,118.21c0,.33-.04.48-.28.48h-3.51c.1.89.75,1.54,1.74,1.54.58,0,.98-.21,1.28-.47.07-.06.12-.09.2-.02l.18.17c.08.08.09.14,0,.22-.44.46-1.05.72-1.75.72-1.4,0-2.37-1.08-2.37-2.46s.95-2.46,2.3-2.46,2.2,1.08,2.2,2.28ZM195.04,118.14h3.17c-.04-.88-.68-1.57-1.57-1.57s-1.5.66-1.6,1.57Z"/>
      <path class="cls-9" d="M206.66,116.19v4.4c0,.09-.06.14-.14.14h-.39c-.09,0-.13-.06-.14-.14l-.04-.57c-.37.5-.93.83-1.66.83-1.34,0-2.3-1.08-2.3-2.45s.96-2.45,2.3-2.45c.73,0,1.29.33,1.66.84l.04-.6c0-.09.06-.14.14-.14h.39c.09,0,.14.06.14.14ZM206,118.39c0-.98-.7-1.79-1.66-1.79s-1.66.77-1.66,1.79.71,1.81,1.66,1.81,1.66-.82,1.66-1.81Z"/>
      <path class="cls-9" d="M214.05,117.8v2.78c0,.09-.06.14-.14.14h-.43c-.09,0-.14-.06-.14-.14v-2.74c0-.83-.41-1.27-1.08-1.27-.93,0-1.44.92-1.44,1.11v2.9c0,.09-.06.14-.14.14h-.43c-.09,0-.14-.06-.14-.14v-4.4c0-.09.06-.14.14-.14h.39c.09,0,.13.06.14.14l.04.66c.34-.51.87-.91,1.59-.91.99,0,1.65.61,1.65,1.87Z"/>
      <path class="cls-9" d="M214.86,118.4c0-1.39,1.03-2.46,2.37-2.46s2.37,1.07,2.37,2.46-1.03,2.46-2.37,2.46-2.37-1.07-2.37-2.46ZM218.92,118.4c0-1.05-.74-1.81-1.68-1.81s-1.68.76-1.68,1.81.74,1.81,1.68,1.81,1.68-.76,1.68-1.81Z"/>
      <path class="cls-9" d="M223.62,119.54c0,.79-.8,1.31-1.62,1.31s-1.41-.39-1.74-.78c-.06-.07-.06-.12,0-.18l.21-.26c.07-.09.11-.07.2,0,.24.22.73.58,1.32.58.55,0,.94-.25.94-.69,0-1.12-2.57-.75-2.57-2.31,0-.76.67-1.28,1.51-1.28.5,0,1.11.25,1.5.71.06.07.04.13,0,.2l-.16.21c-.06.08-.13.06-.21,0-.37-.33-.67-.5-1.12-.5-.34,0-.82.16-.82.67,0,1.06,2.58.66,2.58,2.32Z"/>
      <path class="cls-9" d="M227.59,119.54c0,.79-.8,1.31-1.62,1.31s-1.41-.39-1.74-.78c-.06-.07-.06-.12,0-.18l.21-.26c.07-.09.11-.07.2,0,.24.22.73.58,1.32.58.56,0,.94-.25.94-.69,0-1.12-2.57-.75-2.57-2.31,0-.76.67-1.28,1.51-1.28.5,0,1.11.25,1.5.71.06.07.04.13,0,.2l-.16.21c-.06.08-.13.06-.21,0-.37-.33-.67-.5-1.12-.5-.34,0-.82.16-.82.67,0,1.06,2.58.66,2.58,2.32Z"/>
      <path class="cls-9" d="M232.88,116.19v4.4c0,.09-.06.14-.14.14h-.39c-.09,0-.13-.06-.14-.14l-.04-.57c-.37.5-.93.83-1.66.83-1.34,0-2.3-1.08-2.3-2.45s.96-2.45,2.3-2.45c.73,0,1.29.33,1.66.84l.04-.6c0-.09.06-.14.14-.14h.39c.09,0,.14.06.14.14ZM232.22,118.39c0-.98-.7-1.79-1.66-1.79s-1.66.77-1.66,1.79.71,1.81,1.66,1.81,1.66-.82,1.66-1.81Z"/>
      <path class="cls-9" d="M238.77,116.24l-.15.33c-.04.08-.09.09-.17.07-.09-.02-.18-.05-.37-.05-.58,0-1.04.44-1.04,1.04v2.95c0,.09-.06.14-.14.14h-.43c-.09,0-.14-.06-.14-.14v-4.4c0-.09.06-.14.14-.14h.38c.09,0,.13.06.14.14l.04.41c.26-.39.65-.66,1.16-.66.23,0,.43.06.56.15.06.04.07.08.03.15Z"/>
      <path class="cls-9" d="M243.67,118.21c0,.33-.04.48-.28.48h-3.51c.1.89.75,1.54,1.74,1.54.58,0,.98-.21,1.28-.47.07-.06.12-.09.2-.02l.18.17c.08.08.09.14,0,.22-.44.46-1.05.72-1.75.72-1.4,0-2.37-1.08-2.37-2.46s.95-2.46,2.3-2.46,2.2,1.08,2.2,2.28ZM239.87,118.14h3.17c-.04-.88-.68-1.57-1.57-1.57s-1.5.66-1.6,1.57Z"/>
      <path class="cls-9" d="M249,113.89v6.7c0,.09-.06.14-.14.14h-.39c-.09,0-.13-.06-.14-.14l-.04-.57c-.37.5-.93.83-1.66.83-1.34,0-2.3-1.08-2.3-2.45s.96-2.45,2.3-2.45c.73,0,1.29.33,1.66.84v-2.9c0-.09.06-.14.14-.14h.43c.09,0,.14.06.14.14ZM248.34,118.39c0-.98-.7-1.79-1.66-1.79s-1.66.77-1.66,1.79.71,1.81,1.66,1.81,1.66-.82,1.66-1.81Z"/>
      <path class="cls-9" d="M254.31,118.21c0,.33-.04.48-.28.48h-3.51c.1.89.75,1.54,1.74,1.54.58,0,.98-.21,1.28-.47.07-.06.12-.09.2-.02l.18.17c.08.08.09.14,0,.22-.44.46-1.05.72-1.75.72-1.4,0-2.37-1.08-2.37-2.46s.95-2.46,2.3-2.46,2.2,1.08,2.2,2.28ZM250.51,118.14h3.17c-.04-.88-.68-1.57-1.57-1.57s-1.5.66-1.6,1.57Z"/>
      <path class="cls-9" d="M255.9,120.49c0,.51-.25.89-.44,1.13-.02.02-.04.03-.07.03h-.11s-.06-.03-.04-.07c.11-.22.18-.44.18-.73-.26,0-.46-.2-.46-.46s.2-.46.46-.46.47.2.47.55Z"/>
      <path class="cls-9" d="M94.27,141.95c0,1.03-.98,1.85-2.18,1.85-.93,0-1.66-.45-2.1-1.01-.05-.08-.04-.13.03-.19l.28-.27c.07-.06.13-.05.2.02.38.41.88.77,1.58.77.88,0,1.45-.54,1.45-1.2,0-1.62-3.43-1.15-3.43-3.31,0-.99.83-1.7,1.93-1.7.72,0,1.43.34,1.89.9.06.07.06.12,0,.2l-.24.25c-.07.07-.13.08-.2,0-.43-.43-.86-.68-1.44-.68-.69,0-1.22.37-1.22,1.03,0,1.58,3.45,1.07,3.45,3.34Z"/>
      <path class="cls-9" d="M99.43,141.16c0,.33-.04.48-.28.48h-3.51c.1.89.75,1.54,1.74,1.54.58,0,.98-.21,1.28-.47.07-.06.12-.09.2-.02l.18.17c.08.08.09.14,0,.22-.44.46-1.05.72-1.75.72-1.4,0-2.37-1.08-2.37-2.46s.95-2.46,2.3-2.46,2.2,1.08,2.2,2.28ZM95.63,141.08h3.17c-.04-.88-.68-1.57-1.57-1.57s-1.5.66-1.6,1.57Z"/>
      <path class="cls-9" d="M104.76,139.13v4.45c0,1.45-1.29,1.99-2.37,1.99-.73,0-1.35-.18-1.79-.46-.08-.05-.09-.12-.05-.2l.13-.25c.04-.08.11-.1.19-.06.39.19.82.33,1.46.33.82,0,1.72-.36,1.72-1.34v-.77c-.36.52-.94.86-1.67.86-1.34,0-2.3-1.08-2.3-2.4s.96-2.4,2.3-2.4c.73,0,1.29.33,1.66.84l.04-.6c0-.09.06-.14.14-.14h.39c.09,0,.14.06.14.14ZM104.1,141.28c0-.93-.7-1.74-1.66-1.74s-1.66.76-1.66,1.74.71,1.76,1.66,1.76,1.66-.82,1.66-1.76Z"/>
      <path class="cls-9" d="M109.62,139.13v4.4c0,.09-.06.14-.14.14h-.39c-.09,0-.13-.06-.14-.14l-.04-.57c-.33.48-.82.84-1.5.84-1.07,0-1.73-.63-1.73-1.88v-2.78c0-.09.06-.14.14-.14h.43c.09,0,.14.06.14.14v2.74c0,.84.42,1.3,1.12,1.3.9,0,1.4-.86,1.4-1.16v-2.88c0-.09.06-.14.14-.14h.43c.09,0,.14.06.14.14Z"/>
      <path class="cls-9" d="M114.93,141.16c0,.33-.04.48-.28.48h-3.51c.1.89.75,1.54,1.74,1.54.58,0,.98-.21,1.28-.47.07-.06.12-.09.2-.02l.18.17c.08.08.09.14,0,.22-.44.46-1.05.72-1.75.72-1.4,0-2.37-1.08-2.37-2.46s.95-2.46,2.3-2.46,2.2,1.08,2.2,2.28ZM111.13,141.08h3.17c-.04-.88-.68-1.57-1.57-1.57s-1.5.66-1.6,1.57Z"/>
      <path class="cls-9" d="M118.56,140.8v.33c0,.09-.06.14-.14.14h-2.58c-.09,0-.14-.06-.14-.14v-.33c0-.09.06-.14.14-.14h2.58c.09,0,.14.06.14.14Z"/>
      <path class="cls-9" d="M123.42,140.75v2.78c0,.09-.06.14-.14.14h-.43c-.09,0-.14-.06-.14-.14v-2.74c0-.83-.41-1.27-1.08-1.27-.93,0-1.44.92-1.44,1.11v2.9c0,.09-.06.14-.14.14h-.43c-.09,0-.14-.06-.14-.14v-4.4c0-.09.06-.14.14-.14h.39c.09,0,.13.06.14.14l.04.66c.34-.51.87-.91,1.59-.91.99,0,1.65.61,1.65,1.87Z"/>
      <path class="cls-9" d="M124.22,141.34c0-1.39,1.03-2.46,2.37-2.46s2.37,1.07,2.37,2.46-1.03,2.46-2.37,2.46-2.37-1.07-2.37-2.46ZM128.28,141.34c0-1.05-.74-1.81-1.68-1.81s-1.68.76-1.68,1.81.74,1.81,1.68,1.81,1.68-.76,1.68-1.81Z"/>
      <path class="cls-9" d="M132.98,142.49c0,.79-.8,1.31-1.62,1.31s-1.41-.39-1.74-.78c-.06-.07-.06-.12,0-.18l.21-.26c.07-.09.11-.07.2,0,.24.22.73.58,1.32.58.55,0,.94-.25.94-.69,0-1.12-2.57-.75-2.57-2.31,0-.76.67-1.28,1.51-1.28.5,0,1.11.25,1.5.71.06.07.04.13,0,.2l-.16.21c-.06.08-.13.06-.21,0-.37-.33-.67-.5-1.12-.5-.34,0-.82.16-.82.67,0,1.06,2.58.66,2.58,2.32Z"/>
      <path class="cls-9" d="M133.89,143.34c0-.26.2-.46.46-.46s.46.2.46.46-.2.46-.46.46-.46-.2-.46-.46ZM134.56,141.71c0,.1-.07.14-.15.14h-.11c-.09,0-.15-.05-.15-.14l-.22-4.35c0-.26.2-.46.43-.46s.44.2.43.46l-.22,4.35Z"/>
    </g>
    <g>
      <path class="cls-5" d="M95.67,155.13h-2.49c-1.85,0-3.37,1.52-3.37,3.37h0c0,1.85,1.52,3.37,3.37,3.37h2.16v2.18l1.99-1.77c1.08-.96,1.7-2.34,1.7-3.78h0c0-1.85-1.52-3.37-3.37-3.37Z"/>
      <g>
        <path class="cls-5" d="M131.45,162.64h-7.93c-.45,0-.82-.32-.82-.71v-5.38"/>
        <path class="cls-5" d="M124.3,156.54h6.33c.45,0,.82.32.82.71v4.12"/>
        <polyline class="cls-7" points="123.72 158.1 122.7 156.32 121.68 158.1"/>
        <polyline class="cls-7" points="130.42 159.74 131.45 161.52 132.47 159.74"/>
      </g>
      <path class="cls-1" d="M162.64,159.58l.73-1.05c1-1.44-.03-3.41-1.78-3.41h0c-1.2,0-2.17.97-2.17,2.17,0-1.26-1.08-2.28-2.37-2.16-1.66.15-2.5,2.09-1.55,3.45l3.73,5.36c.09.13.29.13.38,0l3.04-4.37Z"/>
      <polygon class="cls-5" points="192.63 165.14 189.52 161.77 186.4 165.14 186.4 155.13 192.63 155.13 192.63 165.14"/>
    </g>
  </g>
  <g>
    <path d="M48.07,32.16c0,1.94-1.84,3.48-4.1,3.48-1.75,0-3.13-.85-3.94-1.91-.09-.14-.07-.25.05-.36l.52-.5c.13-.11.25-.09.38.04.72.77,1.66,1.44,2.97,1.44,1.66,0,2.74-1.01,2.74-2.25,0-3.04-6.45-2.16-6.45-6.23,0-1.85,1.57-3.21,3.64-3.21,1.35,0,2.68.65,3.57,1.69.11.13.11.23-.02.38l-.45.47c-.13.13-.25.14-.38.02-.81-.81-1.62-1.28-2.72-1.28-1.3,0-2.3.7-2.3,1.95,0,2.97,6.5,2.02,6.5,6.28Z"/>
    <path d="M49.4,23.61c0-.49.38-.86.86-.86s.86.38.86.86-.38.86-.86.86-.86-.38-.86-.86ZM49.86,26.58h.81c.16,0,.27.11.27.27v8.28c0,.16-.11.27-.27.27h-.81c-.16,0-.27-.11-.27-.27v-8.28c0-.16.11-.27.27-.27Z"/>
    <path d="M61.24,26.85v8.37c0,2.74-2.43,3.75-4.47,3.75-1.37,0-2.54-.34-3.37-.86-.14-.09-.16-.23-.09-.38l.25-.47c.07-.14.22-.18.36-.11.74.36,1.55.63,2.75.63,1.55,0,3.24-.68,3.24-2.52v-1.44c-.68.97-1.76,1.62-3.15,1.62-2.52,0-4.32-2.04-4.32-4.52s1.8-4.52,4.32-4.52c1.37,0,2.43.63,3.11,1.58l.07-1.13c.02-.16.11-.27.27-.27h.74c.16,0,.27.11.27.27ZM60,30.9c0-1.75-1.31-3.28-3.11-3.28s-3.13,1.44-3.13,3.28,1.33,3.31,3.13,3.31,3.11-1.55,3.11-3.31Z"/>
    <path d="M71.56,26.85v8.28c0,.16-.11.27-.27.27h-.74c-.16,0-.25-.11-.27-.27l-.07-1.08c-.7.94-1.75,1.57-3.11,1.57-2.52,0-4.32-2.03-4.32-4.61s1.8-4.61,4.32-4.61c1.37,0,2.43.63,3.11,1.58l.07-1.13c.02-.16.11-.27.27-.27h.74c.16,0,.27.11.27.27ZM70.31,30.99c0-1.84-1.31-3.37-3.11-3.37s-3.13,1.44-3.13,3.37,1.33,3.4,3.13,3.4,3.11-1.55,3.11-3.4Z"/>
    <path d="M86.55,26.85v8.28c0,.16-.11.27-.27.27h-.74c-.16,0-.25-.11-.27-.27l-.07-1.08c-.7.94-1.75,1.57-3.11,1.57-2.52,0-4.32-2.03-4.32-4.61s1.8-4.61,4.32-4.61c1.37,0,2.43.63,3.11,1.58l.07-1.13c.02-.16.11-.27.27-.27h.74c.16,0,.27.11.27.27ZM85.31,30.99c0-1.84-1.31-3.37-3.11-3.37s-3.13,1.44-3.13,3.37,1.33,3.4,3.13,3.4,3.11-1.55,3.11-3.4Z"/>
    <path d="M94.38,33.17c0,1.49-1.51,2.47-3.04,2.47s-2.65-.74-3.28-1.48c-.11-.13-.11-.23-.02-.34l.4-.49c.13-.16.22-.13.38.02.45.41,1.37,1.1,2.48,1.1,1.04,0,1.76-.47,1.76-1.3,0-2.11-4.84-1.4-4.84-4.36,0-1.42,1.26-2.41,2.84-2.41.94,0,2.09.47,2.83,1.33.11.13.07.25-.02.38l-.31.4c-.11.14-.25.11-.4-.02-.7-.61-1.26-.94-2.11-.94-.65,0-1.55.31-1.55,1.26,0,2,4.86,1.24,4.86,4.38Z"/>
    <path d="M107.93,29.89v5.24c0,.16-.11.27-.27.27h-.81c-.16,0-.27-.11-.27-.27v-5.15c0-1.57-.77-2.39-2.03-2.39-1.75,0-2.7,1.73-2.7,2.09v5.46c0,.16-.11.27-.27.27h-.81c-.16,0-.27-.11-.27-.27v-8.28c0-.16.11-.27.27-.27h.74c.16,0,.25.11.27.27l.07,1.24c.65-.95,1.64-1.71,2.99-1.71,1.85,0,3.1,1.15,3.1,3.51Z"/>
    <path d="M109.46,31.01c0-2.61,1.94-4.63,4.47-4.63s4.47,2.02,4.47,4.63-1.94,4.63-4.47,4.63-4.47-2.02-4.47-4.63ZM117.09,31.01c0-1.98-1.39-3.4-3.17-3.4s-3.17,1.42-3.17,3.4,1.39,3.4,3.17,3.4,3.17-1.42,3.17-3.4Z"/>
    <path d="M126.6,26.58h.83c.2,0,.29.11.22.31l-3.29,8.3c-.05.14-.18.22-.32.22h-.9c-.14,0-.27-.07-.32-.22l-3.29-8.3c-.07-.2.02-.31.22-.31h.83c.14,0,.27.07.32.22l2.7,7.08,2.7-7.08c.05-.14.18-.22.32-.22Z"/>
    <path d="M128.83,23.61c0-.49.38-.86.86-.86s.86.38.86.86-.38.86-.86.86-.86-.38-.86-.86ZM129.3,26.58h.81c.16,0,.27.11.27.27v8.28c0,.16-.11.27-.27.27h-.81c-.16,0-.27-.11-.27-.27v-8.28c0-.16.11-.27.27-.27Z"/>
    <path d="M140.67,22.53v12.6c0,.16-.11.27-.27.27h-.74c-.16,0-.25-.11-.27-.27l-.07-1.08c-.7.94-1.75,1.57-3.11,1.57-2.52,0-4.32-2.03-4.32-4.61s1.8-4.61,4.32-4.61c1.37,0,2.43.63,3.11,1.58v-5.46c0-.16.11-.27.27-.27h.81c.16,0,.27.11.27.27ZM139.43,30.99c0-1.84-1.31-3.37-3.11-3.37s-3.13,1.44-3.13,3.37,1.33,3.4,3.13,3.4,3.11-1.55,3.11-3.4Z"/>
    <path d="M150.99,26.85v8.28c0,.16-.11.27-.27.27h-.74c-.16,0-.25-.11-.27-.27l-.07-1.08c-.7.94-1.75,1.57-3.11,1.57-2.52,0-4.32-2.03-4.32-4.61s1.8-4.61,4.32-4.61c1.37,0,2.43.63,3.11,1.58l.07-1.13c.02-.16.11-.27.27-.27h.74c.16,0,.27.11.27.27ZM149.75,30.99c0-1.84-1.31-3.37-3.11-3.37s-3.13,1.44-3.13,3.37,1.33,3.4,3.13,3.4,3.11-1.55,3.11-3.4Z"/>
    <path d="M161.3,22.53v12.6c0,.16-.11.27-.27.27h-.74c-.16,0-.25-.11-.27-.27l-.07-1.08c-.7.94-1.75,1.57-3.11,1.57-2.52,0-4.32-2.03-4.32-4.61s1.8-4.61,4.32-4.61c1.37,0,2.43.63,3.11,1.58v-5.46c0-.16.11-.27.27-.27h.81c.16,0,.27.11.27.27ZM160.06,30.99c0-1.84-1.31-3.37-3.11-3.37s-3.13,1.44-3.13,3.37,1.33,3.4,3.13,3.4,3.11-1.55,3.11-3.4Z"/>
    <path d="M171.29,30.67c0,.61-.07.9-.52.9h-6.61c.2,1.67,1.4,2.9,3.28,2.9,1.1,0,1.84-.4,2.41-.88.13-.11.23-.16.38-.04l.34.32c.14.14.16.27.02.41-.83.86-1.98,1.35-3.29,1.35-2.63,0-4.47-2.04-4.47-4.63s1.78-4.63,4.32-4.63,4.14,2.03,4.14,4.29ZM164.14,30.52h5.96c-.07-1.66-1.28-2.95-2.95-2.95s-2.83,1.24-3.01,2.95Z"/>
    <path d="M178.85,33.17c0,1.49-1.51,2.47-3.04,2.47s-2.65-.74-3.28-1.48c-.11-.13-.11-.23-.02-.34l.4-.49c.13-.16.22-.13.38.02.45.41,1.37,1.1,2.48,1.1,1.04,0,1.76-.47,1.76-1.3,0-2.11-4.84-1.4-4.84-4.36,0-1.42,1.26-2.41,2.84-2.41.94,0,2.09.47,2.83,1.33.11.13.07.25-.02.38l-.31.4c-.11.14-.25.11-.4-.02-.7-.61-1.26-.94-2.11-.94-.65,0-1.55.31-1.55,1.26,0,2,4.86,1.24,4.86,4.38Z"/>
    <path d="M193.23,30.11v5.02c0,.16-.11.27-.27.27h-1.84c-.16,0-.27-.11-.27-.27v-4.59c0-1.46-.79-1.96-1.66-1.96-1.33,0-1.94,1.31-1.94,1.73v4.83c0,.16-.11.27-.27.27h-1.84c-.16,0-.27-.11-.27-.27v-8.28c0-.16.11-.27.27-.27h1.76c.16,0,.25.11.27.27l.07,1.15v.02c.58-.94,1.51-1.64,2.79-1.64,1.8,0,3.19,1.37,3.19,3.73Z"/>
    <path d="M194.38,31.01c0-2.59,2.03-4.63,4.57-4.63s4.57,2.03,4.57,4.63-2.03,4.63-4.57,4.63-4.57-2.04-4.57-4.63ZM201.24,31.01c0-1.42-1.03-2.43-2.29-2.43s-2.29,1.01-2.29,2.43,1.01,2.43,2.29,2.43,2.29-1.01,2.29-2.43Z"/>
    <path d="M217.52,30.11v5.02c0,.16-.11.27-.27.27h-1.84c-.16,0-.27-.11-.27-.27v-4.59c0-1.46-.79-1.96-1.66-1.96-1.33,0-1.94,1.31-1.94,1.73v4.83c0,.16-.11.27-.27.27h-1.84c-.16,0-.27-.11-.27-.27v-8.28c0-.16.11-.27.27-.27h1.76c.16,0,.25.11.27.27l.07,1.15v.02c.58-.94,1.51-1.64,2.79-1.64,1.8,0,3.19,1.37,3.19,3.73Z"/>
    <path d="M218.66,31.01c0-2.59,2.03-4.63,4.57-4.63s4.57,2.03,4.57,4.63-2.03,4.63-4.57,4.63-4.57-2.04-4.57-4.63ZM225.52,31.01c0-1.42-1.03-2.43-2.29-2.43s-2.29,1.01-2.29,2.43,1.01,2.43,2.29,2.43,2.29-1.01,2.29-2.43Z"/>
    <path d="M235.41,32.94c0,1.71-1.75,2.7-3.37,2.7-1.51,0-2.74-.74-3.37-1.48-.11-.13-.07-.25,0-.36l.7-.99c.11-.14.23-.11.4.02.72.47,1.49.81,2.2.81.58,0,1.13-.18,1.13-.74,0-1.4-4.27-.86-4.27-3.83,0-1.69,1.48-2.68,3.06-2.68,1.13,0,2.29.47,3.02,1.33.11.13.07.27-.02.38l-.68.9c-.11.14-.23.11-.4-.02-.68-.45-1.1-.68-1.73-.68-.56,0-.97.31-.97.76,0,1.44,4.29.65,4.29,3.89Z"/>
    <path d="M242.91,32.94c0,1.71-1.75,2.7-3.37,2.7-1.51,0-2.74-.74-3.37-1.48-.11-.13-.07-.25,0-.36l.7-.99c.11-.14.23-.11.4.02.72.47,1.49.81,2.2.81.58,0,1.13-.18,1.13-.74,0-1.4-4.27-.86-4.27-3.83,0-1.69,1.48-2.68,3.06-2.68,1.13,0,2.29.47,3.02,1.33.11.13.07.27-.02.38l-.68.9c-.11.14-.23.11-.4-.02-.68-.45-1.1-.68-1.73-.68-.56,0-.97.31-.97.76,0,1.44,4.29.65,4.29,3.89Z"/>
    <path d="M243.7,31.01c0-2.59,2.03-4.63,4.57-4.63s4.57,2.03,4.57,4.63-2.03,4.63-4.57,4.63-4.57-2.04-4.57-4.63ZM250.56,31.01c0-1.42-1.03-2.43-2.29-2.43s-2.29,1.01-2.29,2.43,1.01,2.43,2.29,2.43,2.29-1.01,2.29-2.43Z"/>
    <path d="M263.56,26.85v1.4c0,.16-.11.27-.27.27h-1.26v6.61c0,.16-.11.27-.27.27h-1.84c-.16,0-.27-.11-.27-.27v-6.61h-1.26c-.16,0-.27-.11-.27-.27v-1.4c0-.16.11-.27.27-.27h1.26v-2.43c0-.16.11-.27.27-.27h1.84c.16,0,.27.11.27.27v2.43h1.26c.16,0,.27.11.27.27Z"/>
    <path d="M279.47,26.89l-3.08,8.3c-.05.14-.18.22-.32.22h-1.78c-.14,0-.27-.07-.32-.22l-2.11-5.51-2.11,5.51c-.05.14-.18.22-.32.22h-1.8c-.14,0-.27-.07-.32-.22l-3.08-8.3c-.07-.2.02-.31.22-.31h1.8c.14,0,.27.07.32.22l2.03,5.85,2.09-5.85c.04-.09.09-.16.18-.18.04-.02.09-.04.14-.04h1.69c.05,0,.11.02.14.04.09.02.14.09.18.18l2.11,5.85,2-5.85c.05-.14.18-.22.32-.22h1.8c.2,0,.29.11.22.31Z"/>
    <path d="M280.4,23.59c0-.72.58-1.31,1.31-1.31s1.3.59,1.3,1.31-.58,1.31-1.3,1.31-1.31-.59-1.31-1.31ZM280.8,26.58h1.84c.16,0,.27.11.27.27v8.28c0,.16-.11.27-.27.27h-1.84c-.16,0-.27-.11-.27-.27v-8.28c0-.16.11-.27.27-.27Z"/>
    <path d="M289.42,26.85v1.4c0,.16-.11.27-.27.27h-1.26v6.61c0,.16-.11.27-.27.27h-1.84c-.16,0-.27-.11-.27-.27v-6.61h-1.26c-.16,0-.27-.11-.27-.27v-1.4c0-.16.11-.27.27-.27h1.26v-2.43c0-.16.11-.27.27-.27h1.84c.16,0,.27.11.27.27v2.43h1.26c.16,0,.27.11.27.27Z"/>
    <path d="M295.58,26.85v1.4c0,.16-.11.27-.27.27h-1.26v6.61c0,.16-.11.27-.27.27h-1.84c-.16,0-.27-.11-.27-.27v-6.61h-1.26c-.16,0-.27-.11-.27-.27v-1.4c0-.16.11-.27.27-.27h1.26v-2.43c0-.16.11-.27.27-.27h1.84c.16,0,.27.11.27.27v2.43h1.26c.16,0,.27.11.27.27Z"/>
    <path d="M304.4,31.87h-5.65c.23,1.17,1.13,1.84,2.52,1.84.7,0,1.26-.18,1.87-.61.16-.11.27-.11.4.02l.79.77c.13.13.13.25-.02.4-.85.85-2,1.35-3.28,1.35-2.75,0-4.65-2.04-4.65-4.63s1.89-4.63,4.45-4.63,4.2,2.03,4.2,4.43c0,.7-.09,1.06-.63,1.06ZM298.71,30.33h4.21c-.16-1.24-1.01-1.93-2.07-1.93s-1.94.68-2.14,1.93Z"/>
    <path d="M312.07,27.16l-.54,1.33c-.07.2-.22.23-.4.18-.18-.05-.4-.13-.74-.13-1.12,0-1.84.83-1.84,1.91v4.68c0,.16-.11.27-.27.27h-1.84c-.16,0-.27-.11-.27-.27v-8.28c0-.16.11-.27.27-.27h1.75c.16,0,.25.11.27.27l.07.97c.47-.85,1.19-1.44,2.25-1.44.5,0,.94.2,1.19.41.14.11.14.23.09.36Z"/>
    <path d="M324.96,22.3l-5.91,15.23c-.05.14-.18.22-.32.22h-1.93c-.2,0-.29-.11-.22-.31l5.91-15.23c.05-.14.18-.22.32-.22h1.93c.2,0,.29.11.22.31Z"/>
    <path d="M339.91,35.4h-2.03c-.14,0-.25-.05-.32-.18l-2.48-4.11-2.48,4.11c-.07.13-.18.18-.32.18h-2.03c-.22,0-.29-.13-.18-.32l3.71-6.12-3.53-5.83c-.11-.2-.04-.32.18-.32h2.03c.14,0,.25.05.32.18l2.3,3.8,2.3-3.8c.07-.13.18-.18.32-.18h2.03c.22,0,.29.13.18.32l-3.53,5.83,3.71,6.12c.11.2.04.32-.18.32Z"/>
  </g>
  <g>
    <g>
      <path d="M159.84,56.03c-.08.75.27.91.66.91.62,0,.95-.58.95-1.83,0-2.38-1.76-3.65-3.7-3.65-1.81,0-3.79,1.27-3.79,3.78s1.98,3.76,3.79,3.76c.76,0,1.45-.21,2.02-.59l.62.5c-.76.59-1.62.93-2.64.93-2.38,0-4.68-1.76-4.68-4.59s2.3-4.62,4.68-4.62,4.59,1.76,4.59,4.49c0,1.93-1.03,2.64-1.97,2.64-.54,0-.98-.23-1.18-.71-.4.4-.95.64-1.61.64-1.39,0-2.38-1.07-2.38-2.38s.99-2.38,2.38-2.38c.76,0,1.38.32,1.79.84l.18-.59h.58l-.28,2.86ZM159.15,55.31c0-.88-.64-1.59-1.58-1.59s-1.56.72-1.56,1.59.59,1.59,1.56,1.59,1.58-.72,1.58-1.59Z"/>
      <path d="M170.94,58.41c.09.09.08.19-.01.27-.82.71-1.84,1.22-3.04,1.22-2.55,0-4.53-2.06-4.53-4.63s1.98-4.64,4.53-4.64c1.2,0,2.21.51,3.04,1.22.09.08.1.18.01.27l-.4.4c-.09.09-.18.08-.27,0-.66-.55-1.43-.91-2.38-.91-1.93,0-3.51,1.57-3.51,3.67s1.58,3.65,3.51,3.65c.95,0,1.72-.36,2.38-.91.09-.08.18-.09.27,0l.4.4Z"/>
      <path d="M181.27,50.93v8.62c0,.12-.08.19-.19.19h-.62c-.12,0-.19-.08-.19-.19v-7l-3,7.05c-.04.1-.12.14-.22.14h-.63c-.1,0-.18-.04-.22-.14l-2.97-6.98v6.93c0,.12-.08.19-.19.19h-.62c-.12,0-.19-.08-.19-.19v-8.62c0-.12.08-.19.19-.19h.82c.1,0,.19.04.23.13l3.27,7.76,3.25-7.76c.04-.09.13-.13.23-.13h.85c.12,0,.19.08.19.19Z"/>
      <path d="M188.54,56.35c0,.44-.05.64-.37.64h-4.72c.14,1.2,1,2.07,2.34,2.07.78,0,1.31-.28,1.72-.63.09-.08.17-.12.27-.03l.24.23c.1.1.12.19.01.3-.59.62-1.42.96-2.35.96-1.88,0-3.19-1.45-3.19-3.31s1.27-3.31,3.09-3.31,2.96,1.45,2.96,3.06ZM183.43,56.25h4.26c-.05-1.18-.91-2.11-2.11-2.11s-2.02.89-2.15,2.11Z"/>
      <path d="M192.53,53.63v.44c0,.12-.08.19-.19.19h-.9v5.29c0,.12-.08.19-.19.19h-.58c-.12,0-.19-.08-.19-.19v-5.29h-.9c-.12,0-.19-.08-.19-.19v-.44c0-.12.08-.19.19-.19h.9v-1.74c0-.12.08-.19.19-.19h.58c.12,0,.19.08.19.19v1.74h.9c.12,0,.19.08.19.19Z"/>
      <path d="M196.86,53.7l-.21.45c-.05.1-.12.12-.23.09-.12-.03-.24-.06-.5-.06-.78,0-1.4.59-1.4,1.4v3.96c0,.12-.08.19-.19.19h-.58c-.12,0-.19-.08-.19-.19v-5.92c0-.12.08-.19.19-.19h.51c.12,0,.18.08.19.19l.05.55c.35-.53.87-.89,1.56-.89.31,0,.58.08.76.21.08.05.09.1.04.21Z"/>
      <path d="M197.4,56.6c0-1.87,1.39-3.31,3.19-3.31s3.19,1.44,3.19,3.31-1.39,3.31-3.19,3.31-3.19-1.44-3.19-3.31ZM202.86,56.6c0-1.42-.99-2.43-2.26-2.43s-2.26,1.02-2.26,2.43.99,2.43,2.26,2.43,2.26-1.02,2.26-2.43Z"/>
      <path d="M211.16,56.6c0,1.84-1.29,3.29-3.09,3.29-.98,0-1.72-.45-2.23-1.12v3.22c0,.12-.08.19-.19.19h-.58c-.12,0-.19-.08-.19-.19v-8.36c0-.12.08-.19.19-.19h.53c.12,0,.18.08.19.19l.05.81c.49-.68,1.25-1.13,2.23-1.13,1.8,0,3.09,1.45,3.09,3.29ZM210.23,56.59c0-1.38-.95-2.41-2.24-2.41s-2.23,1.09-2.23,2.41.94,2.43,2.23,2.43,2.24-1.04,2.24-2.43Z"/>
      <path d="M212.06,56.6c0-1.87,1.39-3.31,3.19-3.31s3.19,1.44,3.19,3.31-1.39,3.31-3.19,3.31-3.19-1.44-3.19-3.31ZM217.51,56.6c0-1.42-.99-2.43-2.26-2.43s-2.26,1.02-2.26,2.43.99,2.43,2.26,2.43,2.26-1.02,2.26-2.43Z"/>
      <path d="M219.73,50.35h.58c.12,0,.19.08.19.19v9c0,.12-.08.19-.19.19h-.58c-.12,0-.19-.08-.19-.19v-9c0-.12.08-.19.19-.19Z"/>
      <path d="M221.64,51.31c0-.35.27-.62.62-.62s.62.27.62.62-.27.62-.62.62-.62-.27-.62-.62ZM221.98,53.43h.58c.12,0,.19.08.19.19v5.92c0,.12-.08.19-.19.19h-.58c-.12,0-.19-.08-.19-.19v-5.92c0-.12.08-.19.19-.19Z"/>
      <path d="M226.92,53.63v.44c0,.12-.08.19-.19.19h-.9v5.29c0,.12-.08.19-.19.19h-.58c-.12,0-.19-.08-.19-.19v-5.29h-.9c-.12,0-.19-.08-.19-.19v-.44c0-.12.08-.19.19-.19h.9v-1.74c0-.12.08-.19.19-.19h.58c.12,0,.19.08.19.19v1.74h.9c.12,0,.19.08.19.19Z"/>
      <path d="M234.03,53.63v5.92c0,.12-.08.19-.19.19h-.53c-.12,0-.18-.08-.19-.19l-.05-.77c-.5.67-1.25,1.12-2.23,1.12-1.8,0-3.09-1.45-3.09-3.29s1.29-3.29,3.09-3.29c.98,0,1.74.45,2.23,1.13l.05-.81c.01-.12.08-.19.19-.19h.53c.12,0,.19.08.19.19ZM233.14,56.59c0-1.31-.94-2.41-2.23-2.41s-2.24,1.03-2.24,2.41.95,2.43,2.24,2.43,2.23-1.11,2.23-2.43Z"/>
      <path d="M240.63,55.8v3.74c0,.12-.08.19-.19.19h-.58c-.12,0-.19-.08-.19-.19v-3.68c0-1.12-.55-1.71-1.45-1.71-1.25,0-1.93,1.24-1.93,1.49v3.9c0,.12-.08.19-.19.19h-.58c-.12,0-.19-.08-.19-.19v-5.92c0-.12.08-.19.19-.19h.53c.12,0,.18.08.19.19l.05.89c.46-.68,1.17-1.22,2.14-1.22,1.32,0,2.21.82,2.21,2.51Z"/>
      <path d="M248,53.63v5.92c0,.12-.08.19-.19.19h-.53c-.12,0-.18-.08-.19-.19l-.05-.77c-.5.67-1.25,1.12-2.23,1.12-1.8,0-3.09-1.45-3.09-3.29s1.29-3.29,3.09-3.29c.98,0,1.74.45,2.23,1.13l.05-.81c.01-.12.08-.19.19-.19h.53c.12,0,.19.08.19.19ZM247.11,56.59c0-1.31-.94-2.41-2.23-2.41s-2.24,1.03-2.24,2.41.95,2.43,2.24,2.43,2.23-1.11,2.23-2.43Z"/>
      <path d="M255.72,59.93v.45c0,.12-.08.19-.19.19h-6.05c-.12,0-.19-.08-.19-.19v-.45c0-.12.08-.19.19-.19h6.05c.12,0,.19.08.19.19Z"/>
    </g>
    <path d="M123.63,60.49c2.13.21,4.03-.33,5.73-1.62v-.02c-.05,0-.1-.01-.15-.02-.83-.05-1.57-.34-2.22-.86-.58-.47-.99-1.06-1.24-1.76,0-.02-.01-.03-.02-.05,0,0,0,0,0-.02.58.1,1.16.09,1.73-.08-.04-.01-.08-.02-.12-.03-1.4-.33-2.57-1.45-2.9-2.96-.06-.25-.09-.51-.09-.76v-.1c.56.3,1.13.46,1.75.48,0-.03-.02-.04-.04-.05-.27-.19-.52-.41-.74-.67-.46-.54-.75-1.15-.88-1.84-.07-.37-.08-.74-.04-1.11.06-.53.22-1.03.48-1.49,0-.01.02-.03.03-.05,1,1.22,2.2,2.19,3.6,2.9,1.4.71,2.88,1.1,4.46,1.18,0-.04,0-.07-.01-.1-.06-.29-.09-.58-.08-.88.04-1.5.9-2.81,2.25-3.46.34-.16.69-.26,1.05-.32.29-.05.57-.06.86-.04.48.03.94.15,1.38.35.43.2.81.46,1.13.8.05.05.1.07.17.05.67-.14,1.3-.36,1.91-.67.14-.07.27-.15.41-.22.01,0,.02-.01.05-.02-.15.46-.37.86-.66,1.22-.29.36-.63.66-1.03.91.09.03.62-.07,1.11-.2.37-.1.72-.23,1.08-.36-.01.02-.03.04-.04.07-.43.62-.94,1.17-1.52,1.64-.1.08-.21.16-.31.24-.04.03-.05.05-.05.1.02.39.01.77-.02,1.16-.19,2.43-1.05,4.6-2.59,6.49-1.4,1.72-3.18,2.89-5.32,3.49-.4.12-.81.21-1.23.27-.26.04-.52.07-.79.1-.25.02-.5.03-.75.05-.33.03-.65,0-.98,0-.27,0-.53-.04-.8-.07-.48-.05-.95-.15-1.41-.26-1.11-.29-2.15-.73-3.13-1.34-.01,0-.03-.02-.04-.03,0,0,0,0-.01-.02"/>
  </g>
  <g class="cls-11">
    <g>
      <polygon class="cls-10" points="-172.55 121.66 -172.02 121.67 -171.63 121.21 -168.42 120.06 -165.79 120.46 -161.68 118.96 -160.69 118.9 -158.12 119.58 -153.3 118.61 -153.06 118.98 -152.67 118.63 -149 119.21 -146.99 119.98 -146.47 118.41 -147.01 115.53 -146.1 115.68 -146.07 118.51 -146.91 120.62 -146.16 119.87 -139.54 120.46 -135.73 120.85 -131.5 123.85 -129.96 129.34 -129.61 129.26 -129.39 129.01 -129.49 128.69 -129.84 128.64 -130.03 128.12 -129.82 127.91 -130.13 126.9 -128.13 125.86 -127.82 126.55 -125.98 125.63 -123.68 127.44 -123.14 127.05 -119.66 130.88 -119.32 130.4 -122.22 127.35 -120.79 125.57 -116.42 130.34 -117.77 131.59 -118.85 131.2 -118.99 131.56 -117.28 132.25 -114.73 131.88 -112.01 130.92 -110.49 133.19 -109.05 133.05 -108.78 132.59 -107.51 132.6 -107.77 133.26 -103.25 132.28 -103.13 131.96 -104.22 132.06 -103.9 130.31 -101.5 130.03 -101.51 131.49 -102.53 131.87 -102.63 132.19 -92.74 130.38 -92.58 129.98 -93.96 130.18 -93.91 128.94 -90.73 128.29 -90.87 129.53 -91.82 129.8 -91.84 130.21 -74.53 126.84 -54.34 122.93 -54.37 123.27 -53.92 123.15 -54.23 124.52 -37.54 121.27 -37.22 120.46 -35.86 119.93 -28.52 118.34 -28.25 117.65 -34.03 118.42 -34.19 117.86 -48.75 120.57 -48.61 118.85 -36.45 116.6 -31.09 117.42 -30.82 116.73 -32.98 116.27 -32.47 115.73 -30.48 116.1 -27.36 115.4 -27.24 114.53 -15.65 112.41 -13.16 114.25 -9.89 113.51 -9.9 113.93 -2.21 112.1 33.7 21.53 -131.58 19.25 -172.55 121.66"/>
      <path class="cls-8" d="M21.81,20.8s-9.46,3.14-11.22,3.89-11.44,3.04-13.25,3.27c-1.81.23-7.82-.11-9.77-.14s-6.85-.44-11.55,1.2c-4.7,1.64-10.5,6.87-11.87,8.41s-4.83,6.67-6.26,7.54-7.48,2.9-8.3,3.55-4.54,3.42-4.54,3.42"/>
    </g>
  </g>
</svg>