<?xml version="1.0" encoding="UTF-8"?>
<svg id="Camada_3" data-name="Camada 3" xmlns="http://www.w3.org/2000/svg" xmlns:xlink="http://www.w3.org/1999/xlink" viewBox="0 0 380 194">
  <defs>
    <style>
      .cls-1, .cls-2, .cls-3 {
        fill: #fff;
      }

      .cls-1, .cls-4, .cls-5, .cls-3, .cls-6, .cls-7, .cls-8 {
        stroke: #000;
      }

      .cls-1, .cls-4, .cls-5, .cls-7 {
        stroke-miterlimit: 10;
      }

      .cls-1, .cls-5 {
        stroke-width: 1.47px;
      }

      .cls-9, .cls-5, .cls-6, .cls-7 {
        fill: #fd0;
      }

      .cls-10 {
        fill: #1a161a;
      }

      .cls-11, .cls-4, .cls-12, .cls-8 {
        fill: none;
      }

      .cls-4, .cls-12, .cls-3, .cls-6, .cls-8 {
        stroke-linecap: round;
      }

      .cls-4, .cls-3, .cls-6, .cls-8 {
        stroke-width: 1.42px;
      }

      .cls-13 {
        fill: #1d1c1a;
      }

      .cls-14 {
        fill: #ffdb07;
      }

      .cls-12 {
        stroke: #9b9c9e;
        stroke-width: .24px;
      }

      .cls-12, .cls-3, .cls-6, .cls-8 {
        stroke-linejoin: round;
      }

      .cls-7 {
        stroke-width: .18px;
      }

      .cls-15 {
        clip-path: url(#clippath);
      }
    </style>
    <clipPath id="clippath">
      <rect class="cls-11" x="31.65" y="48.44" width="91.56" height="92.94" rx="6.21" ry="6.21"/>
    </clipPath>
  </defs>
  <rect class="cls-9" width="380" height="194"/>
  <circle class="cls-2" cx="30.96" cy="35.03" r="28.45"/>
  <circle class="cls-2" cx="371.84" cy="180.62" r="28.45"/>
  <g>
    <rect class="cls-1" x="20.4" y="26.76" width="114.06" height="140.07" rx="6.65" ry="6.65"/>
    <rect class="cls-5" x="30.96" y="48.44" width="92.94" height="92.94" rx="6.26" ry="6.26"/>
    <g>
      <circle class="cls-7" cx="34.99" cy="38.85" r="4.03"/>
      <g>
        <g>
          <polygon class="cls-2" points="37.1 38.83 37.1 38.83 37.1 38.83 37.1 38.83"/>
          <path class="cls-2" d="M37.63,38.59c-.02-.12-.06-.24-.11-.35-.12-.21-.31-.38-.54-.47-.11-.04-.24-.06-.36-.06-.28,0-.56.12-.75.33-.32-.35-.85-.43-1.26-.19-.11.06-.2.14-.28.24-.19-.21-.47-.35-.75-.37-.25-.02-.51.04-.72.18-.2.13-.36.33-.45.56-.09.24-.1.5-.02.74.07.23.22.44.41.58.2.15.45.23.7.22.09,0,.18-.01.26-.03.03,0,.05-.01.07-.02-.03.01-.06.02-.1.02-.15,0-.27-.12-.27-.27,0-.13.1-.24.22-.26-.03,0-.07.01-.1.02-.13.02-.27,0-.39-.05-.22-.12-.36-.36-.33-.61.03-.25.21-.46.45-.52.13-.04.28-.03.4.03.13.06.25.17.32.3.02.03.03.06.05.1.01.03.02.07.04.1.04.06.1.11.17.13.14.04.28-.05.32-.18.01-.04.01-.08.02-.11.01-.07.04-.13.08-.18.08-.11.2-.18.34-.19.25-.03.49.15.53.41.01.07.02.13.07.18.05.06.12.09.19.1.08,0,.15-.02.2-.08.05-.05.07-.11.08-.18.03-.26.27-.45.53-.43.25.02.45.25.44.5,0,.03,0,.06,0,.08,0-.15.12-.27.27-.27s.27.12.27.27c0,0,0,0,0,0,0-.01,0-.02,0-.03,0-.07,0-.14,0-.21Z"/>
        </g>
        <path d="M37.64,38.83c0,.15-.12.27-.27.27s-.27-.12-.27-.27.12-.27.27-.27.27.12.27.27Z"/>
        <path d="M34.01,39.7c0,.15-.12.27-.27.27s-.27-.12-.27-.27.12-.27.27-.27.27.12.27.27Z"/>
      </g>
    </g>
    <g>
      <path d="M47.2,38.88c-.03.26.05.38.24.38.26,0,.37-.28.37-.72,0-.97-.75-1.58-1.6-1.58s-1.72.64-1.72,1.72.82,1.67,1.68,1.67c.32,0,.62-.09.86-.24l.55.37c-.33.31-.84.53-1.37.53-1.24,0-2.42-.89-2.42-2.33s1.18-2.38,2.42-2.38,2.31.89,2.31,2.25c0,.88-.52,1.34-1.14,1.34-.24,0-.47-.08-.61-.23-.16.12-.37.19-.62.19-.68,0-1.17-.52-1.17-1.17s.49-1.17,1.17-1.17c.3,0,.53.1.71.27l.09-.13h.37l-.12,1.24ZM46.71,38.68c0-.32-.23-.57-.56-.57s-.56.25-.56.57.23.57.56.57.56-.25.56-.57Z"/>
      <path d="M51.31,39.95c.05-.05.1-.05.14,0l.4.38s.05.09,0,.14c-.3.35-.75.57-1.26.57-.93,0-1.64-.74-1.64-1.69s.72-1.69,1.64-1.69c.5,0,.94.22,1.24.57.04.05.03.1,0,.14l-.4.39s-.09.04-.15,0c-.18-.16-.38-.29-.67-.29-.49,0-.83.38-.83.89s.34.89.83.89c.31,0,.51-.12.69-.29Z"/>
      <path d="M55.61,37.83v3.03c0,.06-.04.1-.1.1h-.6c-.06,0-.09-.04-.1-.1l-.03-.28c-.23.27-.55.46-.97.46-.9,0-1.56-.75-1.56-1.69s.66-1.69,1.56-1.69c.41,0,.74.2.98.47l.02-.3c0-.06.04-.1.1-.1h.6c.06,0,.1.04.1.1ZM54.74,39.34c0-.49-.35-.89-.82-.89s-.83.38-.83.89.35.91.83.91.82-.42.82-.91Z"/>
      <path d="M58.36,37.94l-.2.49c-.03.07-.08.09-.14.07-.07-.02-.15-.05-.27-.05-.41,0-.67.3-.67.7v1.71c0,.06-.04.1-.1.1h-.67c-.06,0-.1-.04-.1-.1v-3.03c0-.06.04-.1.1-.1h.64c.06,0,.09.04.1.1l.03.36c.17-.31.43-.53.82-.53.18,0,.34.07.43.15.05.04.05.09.03.13Z"/>
      <path d="M60.81,37.94l-.2.49c-.03.07-.08.09-.14.07-.07-.02-.15-.05-.27-.05-.41,0-.67.3-.67.7v1.71c0,.06-.04.1-.1.1h-.67c-.06,0-.1-.04-.1-.1v-3.03c0-.06.04-.1.1-.1h.64c.06,0,.09.04.1.1l.03.36c.17-.31.43-.53.82-.53.18,0,.34.07.43.15.05.04.05.09.03.13Z"/>
      <path d="M61.08,36.64c0-.26.21-.48.48-.48s.47.22.47.48-.21.48-.47.48-.48-.22-.48-.48ZM61.23,37.73h.67c.06,0,.1.04.1.1v3.03c0,.06-.04.1-.1.1h-.67c-.06,0-.1-.04-.1-.1v-3.03c0-.06.04-.1.1-.1Z"/>
      <path d="M64.95,40.05c0,.62-.64.99-1.23.99-.55,0-1-.27-1.23-.54-.04-.05-.03-.09,0-.13l.26-.36c.04-.05.09-.04.14,0,.26.17.55.3.8.3.21,0,.41-.07.41-.27,0-.51-1.56-.32-1.56-1.4,0-.62.54-.98,1.12-.98.41,0,.84.17,1.1.49.04.05.03.1,0,.14l-.25.33c-.04.05-.09.04-.15,0-.25-.17-.4-.25-.63-.25-.2,0-.35.11-.35.28,0,.53,1.57.24,1.57,1.42Z"/>
      <path d="M70.64,39.02v1.83c0,.06-.04.1-.1.1h-.67c-.06,0-.1-.04-.1-.1v-1.68c0-.53-.29-.72-.6-.72-.49,0-.71.39-.71.62v1.78c0,.06-.04.1-.1.1h-.67c-.06,0-.1-.04-.1-.1v-1.68c0-.53-.29-.72-.6-.72-.49,0-.71.48-.71.63v1.76c0,.06-.04.1-.1.1h-.67c-.06,0-.1-.04-.1-.1v-3.03c0-.06.04-.1.1-.1h.64c.06,0,.09.04.1.1l.03.42h0c.21-.33.55-.59,1.02-.59.43,0,.79.21.99.6.23-.35.61-.6,1.14-.6.7,0,1.21.5,1.21,1.36Z"/>
      <path d="M74.07,39.67h-2.06c.09.43.41.67.92.67.26,0,.46-.07.68-.22.06-.04.1-.04.14,0l.29.28s.05.09,0,.14c-.31.31-.73.49-1.2.49-1.01,0-1.7-.74-1.7-1.69s.69-1.69,1.62-1.69,1.53.74,1.53,1.62c0,.26-.03.39-.23.39ZM71.99,39.1h1.54c-.06-.45-.37-.7-.76-.7s-.71.25-.78.7Z"/>
      <path d="M76.65,37.83v.51c0,.06-.04.1-.1.1h-.46v2.41c0,.06-.04.1-.1.1h-.67c-.06,0-.1-.04-.1-.1v-2.41h-.46c-.06,0-.1-.04-.1-.1v-.51c0-.06.04-.1.1-.1h.46v-.89c0-.06.04-.1.1-.1h.67c.06,0,.1.04.1.1v.89h.46c.06,0,.1.04.1.1Z"/>
      <path d="M79.27,37.94l-.2.49c-.03.07-.08.09-.14.07-.07-.02-.15-.05-.27-.05-.41,0-.67.3-.67.7v1.71c0,.06-.04.1-.1.1h-.67c-.06,0-.1-.04-.1-.1v-3.03c0-.06.04-.1.1-.1h.64c.06,0,.09.04.1.1l.03.36c.17-.31.43-.53.82-.53.18,0,.34.07.43.15.05.04.05.09.03.13Z"/>
      <path d="M79.47,39.35c0-.95.74-1.69,1.67-1.69s1.67.74,1.67,1.69-.74,1.69-1.67,1.69-1.67-.74-1.67-1.69ZM81.98,39.35c0-.52-.38-.89-.84-.89s-.83.37-.83.89.37.89.83.89.84-.37.84-.89Z"/>
      <path d="M86.67,39.35c0,.94-.66,1.69-1.56,1.69-.39,0-.7-.17-.93-.41v1.47c0,.06-.04.1-.1.1h-.67c-.06,0-.1-.04-.1-.1v-4.28c0-.06.04-.1.1-.1h.6c.06,0,.09.04.1.1l.02.3c.24-.28.57-.47.98-.47.9,0,1.56.75,1.56,1.69ZM85.83,39.34c0-.51-.35-.89-.83-.89s-.82.41-.82.89.35.91.82.91.83-.39.83-.91Z"/>
      <path d="M87.07,39.35c0-.95.74-1.69,1.67-1.69s1.67.74,1.67,1.69-.74,1.69-1.67,1.69-1.67-.74-1.67-1.69ZM89.57,39.35c0-.52-.38-.89-.84-.89s-.83.37-.83.89.37.89.83.89.84-.37.84-.89Z"/>
      <path d="M91,36.15h.67c.06,0,.1.04.1.1v4.6c0,.06-.04.1-.1.1h-.67c-.06,0-.1-.04-.1-.1v-4.6c0-.06.04-.1.1-.1Z"/>
      <path d="M92.34,36.64c0-.26.21-.48.48-.48s.47.22.47.48-.21.48-.47.48-.48-.22-.48-.48ZM92.48,37.73h.67c.06,0,.1.04.1.1v3.03c0,.06-.04.1-.1.1h-.67c-.06,0-.1-.04-.1-.1v-3.03c0-.06.04-.1.1-.1Z"/>
      <path d="M95.71,37.83v.51c0,.06-.04.1-.1.1h-.46v2.41c0,.06-.04.1-.1.1h-.67c-.06,0-.1-.04-.1-.1v-2.41h-.46c-.06,0-.1-.04-.1-.1v-.51c0-.06.04-.1.1-.1h.46v-.89c0-.06.04-.1.1-.1h.67c.06,0,.1.04.1.1v.89h.46c.06,0,.1.04.1.1Z"/>
      <path d="M99.44,37.83v3.03c0,.06-.04.1-.1.1h-.6c-.06,0-.09-.04-.1-.1l-.03-.28c-.23.27-.55.46-.97.46-.9,0-1.56-.75-1.56-1.69s.66-1.69,1.56-1.69c.41,0,.74.2.98.47l.02-.3c0-.06.04-.1.1-.1h.6c.06,0,.1.04.1.1ZM98.56,39.34c0-.49-.35-.89-.82-.89s-.83.38-.83.89.35.91.83.91.82-.42.82-.91Z"/>
      <path d="M103.08,39.02v1.83c0,.06-.04.1-.1.1h-.67c-.06,0-.1-.04-.1-.1v-1.68c0-.53-.29-.72-.6-.72-.49,0-.71.48-.71.63v1.76c0,.06-.04.1-.1.1h-.67c-.06,0-.1-.04-.1-.1v-3.03c0-.06.04-.1.1-.1h.64c.06,0,.09.04.1.1l.03.42h0c.21-.33.55-.59,1.02-.59.66,0,1.16.5,1.16,1.36Z"/>
      <path d="M106.94,37.83v3.03c0,.06-.04.1-.1.1h-.6c-.06,0-.09-.04-.1-.1l-.03-.28c-.23.27-.55.46-.97.46-.9,0-1.56-.75-1.56-1.69s.66-1.69,1.56-1.69c.41,0,.74.2.98.47l.02-.3c0-.06.04-.1.1-.1h.6c.06,0,.1.04.1.1ZM106.07,39.34c0-.49-.35-.89-.82-.89s-.83.38-.83.89.35.91.83.91.82-.42.82-.91Z"/>
    </g>
    <path class="cls-9" d="M37.99,151.91l.68-.98c.93-1.34-.03-3.18-1.66-3.18h0c-1.12,0-2.02.91-2.02,2.02,0-1.18-1.01-2.12-2.21-2.01-1.54.14-2.33,1.94-1.44,3.21l3.47,4.99c.09.12.27.12.35,0l2.83-4.07Z"/>
    <g class="cls-15">
      <g>
        <g>
          <g>
            <g>
              <path class="cls-6" d="M65.76,76.55l-1.86-8.09h-11.25v-.71h-10.34v.71h-16.88v-.71h-10.34v.71H5.72l-1.38,8.09.05,4.54,4.68.66h9.43c-.05-.21-.09-.43-.09-.66,0-1.45,1.18-2.63,2.63-2.63s2.63,1.18,2.63,2.63c0,.23-.03.45-.09.66h25.23c-.05-.21-.09-.43-.09-.66,0-1.45,1.18-2.63,2.63-2.63s2.63,1.18,2.63,2.63c0,.23-.03.45-.09.66h11.85v-5.21h0Z"/>
              <path class="cls-3" d="M21.04,78.47c-1.45,0-2.63,1.18-2.63,2.63,0,.23.03.45.09.66.29,1.13,1.32,1.97,2.55,1.97s2.25-.84,2.55-1.97c.05-.21.09-.43.09-.66,0-1.45-1.18-2.63-2.63-2.63h0Z"/>
              <path class="cls-3" d="M51.36,78.47c-1.45,0-2.63,1.18-2.63,2.63,0,.23.03.45.09.66.29,1.13,1.32,1.97,2.55,1.97s2.25-.84,2.55-1.97c.05-.21.09-.43.09-.66,0-1.45-1.18-2.63-2.63-2.63h0Z"/>
            </g>
            <circle cx="51.36" cy="81.1" r=".9"/>
            <circle cx="21.04" cy="81.1" r=".9"/>
            <rect class="cls-3" x="16.3" y="71.18" width="12.82" height="5.89"/>
            <rect class="cls-3" x="34.96" y="71.18" width="21.26" height="5.89"/>
            <path class="cls-8" d="M64.63,71.18h1.27c.49,0,.93.31,1.09.78l.88,2.6"/>
            <polygon class="cls-3" points="64.52 71.18 62.02 71.18 62.02 77.07 65.76 78.01 65.76 76.47 64.52 71.18 64.63 71.18 64.52 71.18"/>
            <rect class="cls-3" x="10.45" y="71.18" width="5.84" height="10.58"/>
            <line class="cls-8" x1="13.39" y1="73.85" x2="13.39" y2="81.76"/>
            <rect class="cls-3" x="29.12" y="71.18" width="5.84" height="10.58"/>
            <line class="cls-8" x1="32.05" y1="73.85" x2="32.05" y2="81.76"/>
            <rect class="cls-3" x="56.22" y="71.18" width="5.8" height="10.58"/>
            <line class="cls-8" x1="59.11" y1="73.85" x2="59.11" y2="81.76"/>
            <g>
              <path class="cls-2" d="M54.12,71.92h-18.2v4.61h3.29c.23.46.57.86.99,1.17.57.42,1.26.65,1.97.65.02,0,.04,0,.06,0,.27,0,.53-.04.76-.09.1-.02.18-.05.26-.09h0c.43-.18.71-.6.71-1.07,0-.21-.06-.4-.15-.57h10.33v-4.61Z"/>
              <path class="cls-14" d="M52.32,74.38c-.04-.3-.14-.59-.28-.86-.29-.52-.76-.94-1.32-1.15-.28-.11-.58-.16-.88-.16-.7,0-1.37.3-1.84.81-.78-.85-2.08-1.05-3.08-.48-.26.15-.49.35-.69.58-.48-.52-1.14-.85-1.84-.91-.62-.05-1.25.11-1.77.45-.5.33-.89.81-1.1,1.37-.22.58-.23,1.23-.05,1.82.18.57.54,1.07,1.02,1.42.5.37,1.11.56,1.72.55.22,0,.43-.03.64-.08.06-.02.12-.04.18-.06-.08.03-.16.05-.25.05-.36,0-.66-.29-.66-.66,0-.33.24-.6.55-.65-.08.01-.16.03-.25.05-.33.06-.67.02-.96-.13-.55-.28-.87-.89-.81-1.5.07-.61.51-1.13,1.1-1.29.32-.09.68-.06.98.07.33.14.6.42.79.73.05.08.09.16.12.24.03.08.05.17.09.25.09.16.24.27.41.32.34.09.68-.11.79-.44.03-.09.03-.18.05-.28.03-.16.1-.32.2-.45.19-.26.5-.44.82-.48.62-.07,1.21.38,1.3,1,.03.16.05.31.16.44.12.14.29.22.47.23.18,0,.37-.06.5-.19.12-.12.17-.27.19-.44.07-.63.66-1.1,1.29-1.05.62.05,1.1.61,1.07,1.23,0,.07,0,.14,0,.21,0-.36.3-.66.66-.66s.66.3.66.66c0,0,0,0,0,0,0-.03,0-.05,0-.08,0-.17,0-.34-.02-.51"/>
              <path class="cls-13" d="M52.33,74.97c0,.36-.3.66-.66.66s-.66-.3-.66-.66.3-.66.66-.66.66.3.66.66"/>
              <path class="cls-13" d="M43.45,77.1c0,.36-.29.66-.66.66s-.66-.29-.66-.66.29-.66.66-.66.66.29.66.66"/>
            </g>
          </g>
          <line class="cls-4" x1="-19.41" y1="83.73" x2="222.52" y2="83.73"/>
          <rect class="cls-2" x="87.74" y="65.84" width="27.33" height="15.23"/>
          <polyline class="cls-4" points="87.74 63.41 87.74 83.65 85.3 83.65 85.3 63.41"/>
          <line class="cls-4" x1="96.85" y1="63.41" x2="96.85" y2="83.54"/>
          <line class="cls-4" x1="105.96" y1="63.41" x2="105.96" y2="83.54"/>
          <polyline class="cls-4" points="117.43 63.41 117.43 83.65 115.07 83.65 115.07 63.41"/>
          <path class="cls-4" d="M84.69,63.41h33.36c0-1.35-1.13-2.44-2.53-2.44h-28.3c-1.4,0-2.53,1.09-2.53,2.44h0Z"/>
          <path class="cls-10" d="M94.07,80.06h14.6c.79,0,1.43.64,1.43,1.43h-17.46c0-.79.64-1.43,1.43-1.43Z"/>
        </g>
        <rect class="cls-2" x="36.71" y="90.65" width="81.73" height="38.19" rx="4.87" ry="4.87"/>
      </g>
    </g>
    <path class="cls-12" d="M54.94,147.83h-2.28c-1.7,0-3.09,1.39-3.09,3.09h0c0,1.7,1.39,3.09,3.09,3.09h1.98v2l1.82-1.62c.99-.88,1.56-2.14,1.56-3.47h0c0-1.7-1.39-3.09-3.09-3.09Z"/>
    <g>
      <polygon class="cls-12" points="76.75 147.82 68.57 151.78 71.98 152.59 72.79 156 76.75 147.82"/>
      <line class="cls-12" x1="76.75" y1="147.82" x2="71.92" y2="152.66"/>
    </g>
  </g>
  <g>
    <path d="M177.01,163h-13.11c-2.36,0-4.27-1.91-4.27-4.27v-13.11c0-2.36,1.91-4.27,4.27-4.27h13.11c2.36,0,4.27,1.91,4.27,4.27v13.11c0,2.36-1.91,4.27-4.27,4.27M170.45,147.85c-2.39,0-4.33,1.94-4.33,4.33s1.94,4.33,4.33,4.33,4.33-1.94,4.33-4.33-1.94-4.33-4.33-4.33M177.48,144.01c-.75,0-1.35.61-1.35,1.35s.6,1.35,1.35,1.35,1.35-.61,1.35-1.35-.6-1.35-1.35-1.35"/>
    <g>
      <path d="M200.32,152.94c-.09.85.31,1.04.75,1.04.7,0,1.09-.66,1.09-2.08,0-2.72-2.01-4.17-4.23-4.17-2.07,0-4.33,1.45-4.33,4.32s2.26,4.29,4.33,4.29c.87,0,1.66-.23,2.3-.67l.7.57c-.87.67-1.85,1.06-3.01,1.06-2.72,0-5.34-2.01-5.34-5.24s2.63-5.27,5.34-5.27,5.24,2.01,5.24,5.12c0,2.2-1.17,3.01-2.25,3.01-.62,0-1.12-.26-1.35-.81-.46.46-1.09.73-1.83.73-1.58,0-2.72-1.22-2.72-2.72s1.13-2.72,2.72-2.72c.87,0,1.57.37,2.04.96l.21-.68h.66l-.32,3.26ZM199.54,152.11c0-1-.73-1.82-1.81-1.82s-1.78.82-1.78,1.82.68,1.82,1.78,1.82,1.81-.82,1.81-1.82Z"/>
      <path d="M209.97,155.43c.12-.12.22-.1.32,0l.37.34c.09.09.1.21.01.31-.67.78-1.63,1.28-2.79,1.28-2.07,0-3.61-1.66-3.61-3.77s1.54-3.77,3.61-3.77c1.13,0,2.07.5,2.74,1.28.09.1.07.22-.01.31l-.37.34c-.1.1-.21.1-.32,0-.43-.38-.91-.92-2.04-.92-1.5,0-2.55,1.19-2.55,2.77s1.06,2.77,2.55,2.77c1.16,0,1.67-.51,2.08-.92Z"/>
      <path d="M218.64,150.19v6.75c0,.13-.09.22-.22.22h-.6c-.13,0-.21-.09-.22-.22l-.06-.88c-.57.76-1.42,1.28-2.54,1.28-2.06,0-3.52-1.66-3.52-3.76s1.47-3.76,3.52-3.76c1.12,0,1.98.51,2.54,1.29l.06-.92c.01-.13.09-.22.22-.22h.6c.13,0,.22.09.22.22ZM217.63,153.57c0-1.5-1.07-2.75-2.54-2.75s-2.55,1.17-2.55,2.75,1.09,2.77,2.55,2.77,2.54-1.26,2.54-2.77Z"/>
      <path d="M223.89,150.28l-.23.51c-.06.12-.13.13-.26.1-.13-.03-.28-.07-.57-.07-.9,0-1.6.68-1.6,1.6v4.52c0,.13-.09.22-.22.22h-.66c-.13,0-.22-.09-.22-.22v-6.75c0-.13.09-.22.22-.22h.59c.13,0,.21.09.22.22l.06.63c.4-.6,1-1.01,1.78-1.01.35,0,.66.09.87.24.09.06.1.12.04.23Z"/>
      <path d="M228.5,150.28l-.23.51c-.06.12-.13.13-.26.1-.13-.03-.28-.07-.57-.07-.9,0-1.6.68-1.6,1.6v4.52c0,.13-.09.22-.22.22h-.66c-.13,0-.22-.09-.22-.22v-6.75c0-.13.09-.22.22-.22h.59c.13,0,.21.09.22.22l.06.63c.4-.6,1-1.01,1.78-1.01.35,0,.66.09.87.24.09.06.1.12.04.23Z"/>
      <path d="M229.18,147.55c0-.4.31-.71.7-.71s.7.31.7.71-.31.7-.7.7-.7-.31-.7-.7ZM229.56,149.97h.66c.13,0,.22.09.22.22v6.75c0,.13-.09.22-.22.22h-.66c-.13,0-.22-.09-.22-.22v-6.75c0-.13.09-.22.22-.22Z"/>
      <path d="M236.81,155.34c0,1.22-1.23,2.01-2.48,2.01s-2.16-.6-2.67-1.2c-.09-.1-.09-.19-.01-.28l.32-.4c.1-.13.18-.1.31.01.37.34,1.12.9,2.03.9.85,0,1.44-.38,1.44-1.06,0-1.72-3.95-1.14-3.95-3.55,0-1.16,1.03-1.97,2.32-1.97.76,0,1.7.38,2.3,1.09.09.1.06.21-.01.31l-.25.32c-.09.12-.21.09-.32-.01-.57-.5-1.03-.76-1.72-.76-.53,0-1.26.25-1.26,1.03,0,1.63,3.96,1.01,3.96,3.57Z"/>
      <path d="M249.01,152.67v4.27c0,.13-.09.22-.22.22h-.66c-.13,0-.22-.09-.22-.22v-4.2c0-1.28-.63-1.95-1.66-1.95-1.57,0-2.2,1.25-2.2,1.92v4.23c0,.13-.09.22-.22.22h-.66c-.13,0-.22-.09-.22-.22v-4.2c0-1.28-.63-1.95-1.66-1.95-1.42,0-2.2,1.41-2.2,1.7v4.45c0,.13-.09.22-.22.22h-.66c-.13,0-.22-.09-.22-.22v-6.75c0-.13.09-.22.22-.22h.6c.13,0,.21.09.22.22l.06,1.01c.53-.78,1.34-1.39,2.44-1.39s1.91.48,2.29,1.47c.5-.82,1.37-1.47,2.66-1.47,1.53,0,2.54.94,2.54,2.86Z"/>
      <path d="M257.16,153.3c0,.5-.06.73-.43.73h-5.39c.16,1.37,1.15,2.36,2.67,2.36.9,0,1.5-.32,1.97-.72.1-.09.19-.13.31-.03l.28.26c.12.12.13.22.01.34-.68.71-1.61,1.1-2.69,1.1-2.14,0-3.64-1.66-3.64-3.77s1.45-3.77,3.52-3.77,3.38,1.66,3.38,3.49ZM251.33,153.19h4.86c-.06-1.35-1.04-2.41-2.41-2.41s-2.3,1.01-2.45,2.41Z"/>
      <path d="M261.57,150.19v.5c0,.13-.09.22-.22.22h-1.03v6.03c0,.13-.09.22-.22.22h-.66c-.13,0-.22-.09-.22-.22v-6.03h-1.03c-.13,0-.22-.09-.22-.22v-.5c0-.13.09-.22.22-.22h1.03v-1.98c0-.13.09-.22.22-.22h.66c.13,0,.22.09.22.22v1.98h1.03c.13,0,.22.09.22.22Z"/>
      <path d="M266.52,150.28l-.23.51c-.06.12-.13.13-.26.1s-.28-.07-.57-.07c-.9,0-1.6.68-1.6,1.6v4.52c0,.13-.09.22-.22.22h-.66c-.13,0-.22-.09-.22-.22v-6.75c0-.13.09-.22.22-.22h.59c.13,0,.21.09.22.22l.06.63c.4-.6,1-1.01,1.78-1.01.35,0,.66.09.87.24.09.06.1.12.04.23Z"/>
      <path d="M266.69,153.58c0-2.13,1.59-3.77,3.64-3.77s3.64,1.64,3.64,3.77-1.59,3.77-3.64,3.77-3.64-1.64-3.64-3.77ZM272.92,153.58c0-1.61-1.13-2.77-2.58-2.77s-2.58,1.16-2.58,2.77,1.13,2.77,2.58,2.77,2.58-1.16,2.58-2.77Z"/>
      <path d="M282.39,153.58c0,2.1-1.47,3.76-3.52,3.76-1.12,0-1.97-.51-2.54-1.28v3.67c0,.13-.09.22-.22.22h-.66c-.13,0-.22-.09-.22-.22v-9.54c0-.13.09-.22.22-.22h.6c.13,0,.21.09.22.22l.06.92c.56-.78,1.42-1.29,2.54-1.29,2.05,0,3.52,1.66,3.52,3.76ZM281.33,153.57c0-1.57-1.09-2.75-2.55-2.75s-2.54,1.25-2.54,2.75,1.07,2.77,2.54,2.77,2.55-1.19,2.55-2.77Z"/>
      <path d="M283.36,153.58c0-2.13,1.59-3.77,3.64-3.77s3.64,1.64,3.64,3.77-1.59,3.77-3.64,3.77-3.64-1.64-3.64-3.77ZM289.58,153.58c0-1.61-1.13-2.77-2.58-2.77s-2.58,1.16-2.58,2.77,1.13,2.77,2.58,2.77,2.58-1.16,2.58-2.77Z"/>
      <path d="M292.11,146.45h.66c.13,0,.22.09.22.22v10.28c0,.13-.09.22-.22.22h-.66c-.13,0-.22-.09-.22-.22v-10.28c0-.13.09-.22.22-.22Z"/>
      <path d="M294.37,147.55c0-.4.31-.71.7-.71s.7.31.7.71-.31.7-.7.7-.7-.31-.7-.7ZM294.75,149.97h.66c.13,0,.22.09.22.22v6.75c0,.13-.09.22-.22.22h-.66c-.13,0-.22-.09-.22-.22v-6.75c0-.13.09-.22.22-.22Z"/>
      <path d="M300.39,150.19v.5c0,.13-.09.22-.22.22h-1.03v6.03c0,.13-.09.22-.22.22h-.66c-.13,0-.22-.09-.22-.22v-6.03h-1.03c-.13,0-.22-.09-.22-.22v-.5c0-.13.09-.22.22-.22h1.03v-1.98c0-.13.09-.22.22-.22h.66c.13,0,.22.09.22.22v1.98h1.03c.13,0,.22.09.22.22Z"/>
      <path d="M308.38,150.19v6.75c0,.13-.09.22-.22.22h-.6c-.13,0-.21-.09-.22-.22l-.06-.88c-.57.76-1.42,1.28-2.54,1.28-2.06,0-3.52-1.66-3.52-3.76s1.47-3.76,3.52-3.76c1.12,0,1.98.51,2.54,1.29l.06-.92c.01-.13.09-.22.22-.22h.6c.13,0,.22.09.22.22ZM307.37,153.57c0-1.5-1.07-2.75-2.54-2.75s-2.55,1.17-2.55,2.75,1.09,2.77,2.55,2.77,2.54-1.26,2.54-2.77Z"/>
      <path d="M315.91,152.67v4.27c0,.13-.09.22-.22.22h-.66c-.13,0-.22-.09-.22-.22v-4.2c0-1.28-.63-1.95-1.66-1.95-1.42,0-2.2,1.41-2.2,1.7v4.45c0,.13-.09.22-.22.22h-.66c-.13,0-.22-.09-.22-.22v-6.75c0-.13.09-.22.22-.22h.6c.13,0,.21.09.22.22l.06,1.01c.53-.78,1.34-1.39,2.44-1.39,1.51,0,2.52.94,2.52,2.86Z"/>
      <path d="M324.33,150.19v6.75c0,.13-.09.22-.22.22h-.6c-.13,0-.21-.09-.22-.22l-.06-.88c-.57.76-1.42,1.28-2.54,1.28-2.06,0-3.52-1.66-3.52-3.76s1.47-3.76,3.52-3.76c1.12,0,1.98.51,2.54,1.29l.06-.92c.01-.13.09-.22.22-.22h.6c.13,0,.22.09.22.22ZM323.31,153.57c0-1.5-1.07-2.75-2.54-2.75s-2.55,1.17-2.55,2.75,1.09,2.77,2.55,2.77,2.54-1.26,2.54-2.77Z"/>
    </g>
  </g>
  <g>
    <path d="M170.3,99.85h-.86c-.14,0-.25-.05-.31-.22l-.99-2.75h-5.65l-.99,2.75c-.05.16-.16.22-.31.22h-.86c-.2,0-.29-.13-.22-.31l4.43-12.08c.05-.14.18-.22.32-.22h.9c.14,0,.27.07.32.22l4.43,12.08c.07.18-.02.31-.22.31ZM167.71,95.64l-2.39-6.68-2.4,6.68h4.79Z"/>
    <path d="M178.62,97.72c.14-.14.27-.13.4,0l.45.41c.11.11.13.25.02.38-.83.95-2,1.57-3.42,1.57-2.54,0-4.43-2.04-4.43-4.63s1.89-4.63,4.43-4.63c1.39,0,2.54.61,3.37,1.57.11.13.09.27-.02.38l-.45.41c-.13.13-.25.13-.4,0-.52-.47-1.12-1.13-2.5-1.13-1.84,0-3.13,1.46-3.13,3.4s1.3,3.4,3.13,3.4c1.42,0,2.05-.63,2.56-1.13Z"/>
    <path d="M180.72,95.45c0-2.61,1.94-4.63,4.47-4.63s4.47,2.02,4.47,4.63-1.94,4.63-4.47,4.63-4.47-2.02-4.47-4.63ZM188.35,95.45c0-1.98-1.39-3.4-3.17-3.4s-3.17,1.42-3.17,3.4,1.39,3.4,3.17,3.4,3.17-1.42,3.17-3.4Z"/>
    <path d="M204.7,94.34v5.24c0,.16-.11.27-.27.27h-.81c-.16,0-.27-.11-.27-.27v-5.15c0-1.57-.77-2.39-2.03-2.39-1.93,0-2.7,1.53-2.7,2.36v5.19c0,.16-.11.27-.27.27h-.81c-.16,0-.27-.11-.27-.27v-5.15c0-1.57-.77-2.39-2.03-2.39-1.75,0-2.7,1.73-2.7,2.09v5.46c0,.16-.11.27-.27.27h-.81c-.16,0-.27-.11-.27-.27v-8.28c0-.16.11-.27.27-.27h.74c.16,0,.25.11.27.27l.07,1.24c.65-.95,1.64-1.71,2.99-1.71s2.34.59,2.81,1.8c.61-1.01,1.67-1.8,3.26-1.8,1.87,0,3.12,1.15,3.12,3.51Z"/>
    <path d="M215.28,95.45c0,2.58-1.8,4.61-4.32,4.61-1.37,0-2.41-.63-3.12-1.57v4.5c0,.16-.11.27-.27.27h-.81c-.16,0-.27-.11-.27-.27v-11.7c0-.16.11-.27.27-.27h.74c.16,0,.25.11.27.27l.07,1.13c.68-.95,1.75-1.58,3.12-1.58,2.52,0,4.32,2.04,4.32,4.61ZM213.99,95.44c0-1.93-1.33-3.37-3.13-3.37s-3.11,1.53-3.11,3.37,1.31,3.4,3.11,3.4,3.13-1.46,3.13-3.4Z"/>
    <path d="M225.33,91.3v8.28c0,.16-.11.27-.27.27h-.74c-.16,0-.25-.11-.27-.27l-.07-1.08c-.7.94-1.75,1.57-3.11,1.57-2.52,0-4.32-2.03-4.32-4.61s1.8-4.61,4.32-4.61c1.37,0,2.43.63,3.11,1.58l.07-1.13c.02-.16.11-.27.27-.27h.74c.16,0,.27.11.27.27ZM224.08,95.44c0-1.84-1.31-3.37-3.11-3.37s-3.13,1.44-3.13,3.37,1.33,3.4,3.13,3.4,3.11-1.55,3.11-3.4Z"/>
    <path d="M234.56,94.34v5.24c0,.16-.11.27-.27.27h-.81c-.16,0-.27-.11-.27-.27v-5.15c0-1.57-.77-2.39-2.03-2.39-1.75,0-2.7,1.73-2.7,2.09v5.46c0,.16-.11.27-.27.27h-.81c-.16,0-.27-.11-.27-.27v-8.28c0-.16.11-.27.27-.27h.74c.16,0,.25.11.27.27l.07,1.24c.65-.95,1.64-1.71,2.99-1.71,1.85,0,3.1,1.15,3.1,3.51Z"/>
    <path d="M243.79,94.34v5.24c0,.16-.11.27-.27.27h-.81c-.16,0-.27-.11-.27-.27v-5.15c0-1.57-.77-2.39-2.03-2.39-1.75,0-2.7,1.73-2.7,2.09v5.46c0,.16-.11.27-.27.27h-.81c-.16,0-.27-.11-.27-.27v-12.6c0-.16.11-.27.27-.27h.81c.16,0,.27.11.27.27v5.56c.65-.95,1.64-1.71,2.99-1.71,1.85,0,3.1,1.15,3.1,3.51Z"/>
    <path d="M253.78,95.11c0,.61-.07.9-.52.9h-6.61c.2,1.67,1.4,2.9,3.28,2.9,1.1,0,1.84-.4,2.41-.88.13-.11.23-.16.38-.04l.34.32c.14.14.16.27.02.41-.83.86-1.98,1.35-3.29,1.35-2.63,0-4.47-2.04-4.47-4.63s1.78-4.63,4.32-4.63,4.14,2.03,4.14,4.29ZM246.63,94.97h5.96c-.07-1.66-1.28-2.95-2.95-2.95s-2.83,1.24-3.01,2.95Z"/>
    <path d="M260.62,94.45v.63c0,.16-.11.27-.27.27h-4.86c-.16,0-.27-.11-.27-.27v-.63c0-.16.11-.27.27-.27h4.86c.16,0,.27.11.27.27Z"/>
    <path d="M269.77,94.34v5.24c0,.16-.11.27-.27.27h-.81c-.16,0-.27-.11-.27-.27v-5.15c0-1.57-.77-2.39-2.03-2.39-1.75,0-2.7,1.73-2.7,2.09v5.46c0,.16-.11.27-.27.27h-.81c-.16,0-.27-.11-.27-.27v-8.28c0-.16.11-.27.27-.27h.74c.16,0,.25.11.27.27l.07,1.24c.65-.95,1.64-1.71,2.99-1.71,1.85,0,3.1,1.15,3.1,3.51Z"/>
    <path d="M271.29,95.45c0-2.61,1.94-4.63,4.47-4.63s4.47,2.02,4.47,4.63-1.94,4.63-4.47,4.63-4.47-2.02-4.47-4.63ZM278.93,95.45c0-1.98-1.39-3.4-3.17-3.4s-3.17,1.42-3.17,3.4,1.39,3.4,3.17,3.4,3.17-1.42,3.17-3.4Z"/>
    <path d="M287.78,97.62c0,1.49-1.51,2.47-3.04,2.47s-2.65-.74-3.28-1.48c-.11-.13-.11-.23-.02-.34l.4-.49c.13-.16.22-.13.38.02.45.41,1.37,1.1,2.48,1.1,1.04,0,1.76-.47,1.76-1.3,0-2.11-4.84-1.4-4.84-4.36,0-1.42,1.26-2.41,2.84-2.41.94,0,2.09.47,2.83,1.33.11.13.07.25-.02.38l-.31.4c-.11.14-.25.11-.4-.02-.7-.61-1.26-.94-2.11-.94-.65,0-1.55.31-1.55,1.26,0,2,4.86,1.24,4.86,4.38Z"/>
    <path d="M168.79,116.15v5.02c0,.16-.11.27-.27.27h-1.84c-.16,0-.27-.11-.27-.27v-4.59c0-1.46-.79-1.96-1.66-1.96-1.33,0-1.94,1.31-1.94,1.73v4.83c0,.16-.11.27-.27.27h-1.84c-.16,0-.27-.11-.27-.27v-8.28c0-.16.11-.27.27-.27h1.76c.16,0,.25.11.27.27l.07,1.15v.02c.58-.94,1.51-1.64,2.79-1.64,1.8,0,3.19,1.37,3.19,3.73Z"/>
    <path d="M169.94,117.05c0-2.59,2.03-4.63,4.57-4.63s4.57,2.03,4.57,4.63-2.03,4.63-4.57,4.63-4.57-2.04-4.57-4.63ZM176.8,117.05c0-1.42-1.03-2.43-2.29-2.43s-2.29,1.01-2.29,2.43,1.01,2.43,2.29,2.43,2.29-1.01,2.29-2.43Z"/>
    <path d="M193.07,116.15v5.02c0,.16-.11.27-.27.27h-1.84c-.16,0-.27-.11-.27-.27v-4.59c0-1.46-.79-1.96-1.66-1.96-1.33,0-1.94,1.31-1.94,1.73v4.83c0,.16-.11.27-.27.27h-1.84c-.16,0-.27-.11-.27-.27v-8.28c0-.16.11-.27.27-.27h1.76c.16,0,.25.11.27.27l.07,1.15v.02c.58-.94,1.51-1.64,2.79-1.64,1.8,0,3.19,1.37,3.19,3.73Z"/>
    <path d="M194.22,117.05c0-2.59,2.03-4.63,4.57-4.63s4.57,2.03,4.57,4.63-2.03,4.63-4.57,4.63-4.57-2.04-4.57-4.63ZM201.08,117.05c0-1.42-1.03-2.43-2.29-2.43s-2.29,1.01-2.29,2.43,1.01,2.43,2.29,2.43,2.29-1.01,2.29-2.43Z"/>
    <path d="M210.96,118.98c0,1.71-1.75,2.7-3.37,2.7-1.51,0-2.74-.74-3.37-1.48-.11-.13-.07-.25,0-.36l.7-.99c.11-.14.23-.11.4.02.72.47,1.49.81,2.2.81.58,0,1.13-.18,1.13-.74,0-1.4-4.27-.86-4.27-3.83,0-1.69,1.48-2.68,3.06-2.68,1.13,0,2.29.47,3.02,1.33.11.13.07.27-.02.38l-.68.9c-.11.14-.23.11-.4-.02-.68-.45-1.1-.68-1.73-.68-.56,0-.97.31-.97.76,0,1.44,4.29.65,4.29,3.89Z"/>
    <path d="M218.47,118.98c0,1.71-1.75,2.7-3.37,2.7-1.51,0-2.74-.74-3.37-1.48-.11-.13-.07-.25,0-.36l.7-.99c.11-.14.23-.11.4.02.72.47,1.49.81,2.2.81.58,0,1.13-.18,1.13-.74,0-1.4-4.27-.86-4.27-3.83,0-1.69,1.48-2.68,3.06-2.68,1.13,0,2.29.47,3.02,1.33.11.13.07.27-.02.38l-.68.9c-.11.14-.23.11-.4-.02-.68-.45-1.1-.68-1.73-.68-.56,0-.97.31-.97.76,0,1.44,4.29.65,4.29,3.89Z"/>
    <path d="M219.26,117.05c0-2.59,2.03-4.63,4.57-4.63s4.57,2.03,4.57,4.63-2.03,4.63-4.57,4.63-4.57-2.04-4.57-4.63ZM226.12,117.05c0-1.42-1.03-2.43-2.29-2.43s-2.29,1.01-2.29,2.43,1.01,2.43,2.29,2.43,2.29-1.01,2.29-2.43Z"/>
    <path d="M233.94,109.64c0-.72.58-1.31,1.31-1.31s1.3.59,1.3,1.31-.58,1.31-1.3,1.31-1.31-.59-1.31-1.31ZM234.34,112.63h1.84c.16,0,.27.11.27.27v8.28c0,.16-.11.27-.27.27h-1.84c-.16,0-.27-.11-.27-.27v-8.28c0-.16.11-.27.27-.27Z"/>
    <path d="M246.24,116.15v5.02c0,.16-.11.27-.27.27h-1.84c-.16,0-.27-.11-.27-.27v-4.59c0-1.46-.79-1.96-1.66-1.96-1.33,0-1.94,1.31-1.94,1.73v4.83c0,.16-.11.27-.27.27h-1.84c-.16,0-.27-.11-.27-.27v-8.28c0-.16.11-.27.27-.27h1.76c.16,0,.25.11.27.27l.07,1.15v.02c.58-.94,1.51-1.64,2.79-1.64,1.8,0,3.19,1.37,3.19,3.73Z"/>
    <path d="M254.11,118.98c0,1.71-1.75,2.7-3.37,2.7-1.51,0-2.74-.74-3.37-1.48-.11-.13-.07-.25,0-.36l.7-.99c.11-.14.23-.11.4.02.72.47,1.49.81,2.2.81.58,0,1.13-.18,1.13-.74,0-1.4-4.27-.86-4.27-3.83,0-1.69,1.48-2.68,3.06-2.68,1.13,0,2.29.47,3.02,1.33.11.13.07.27-.02.38l-.68.9c-.11.14-.23.11-.4-.02-.68-.45-1.1-.68-1.73-.68-.56,0-.97.31-.97.76,0,1.44,4.29.65,4.29,3.89Z"/>
    <path d="M260.24,112.89v1.4c0,.16-.11.27-.27.27h-1.26v6.61c0,.16-.11.27-.27.27h-1.84c-.16,0-.27-.11-.27-.27v-6.61h-1.26c-.16,0-.27-.11-.27-.27v-1.4c0-.16.11-.27.27-.27h1.26v-2.43c0-.16.11-.27.27-.27h1.84c.16,0,.27.11.27.27v2.43h1.26c.16,0,.27.11.27.27Z"/>
    <path d="M270.25,112.89v8.28c0,.16-.11.27-.27.27h-1.66c-.16,0-.25-.11-.27-.27l-.07-.76c-.63.74-1.51,1.26-2.66,1.26-2.47,0-4.27-2.05-4.27-4.63s1.8-4.63,4.27-4.63c1.12,0,2.02.54,2.68,1.3l.05-.83c.02-.16.11-.27.27-.27h1.66c.16,0,.27.11.27.27ZM267.86,117.04c0-1.33-.95-2.45-2.25-2.45s-2.27,1.04-2.27,2.45.95,2.48,2.27,2.48,2.25-1.15,2.25-2.48Z"/>
    <path d="M280.6,112.89v8.46c0,2.81-2.61,3.66-4.63,3.66-1.51,0-2.88-.45-3.8-1.08-.13-.09-.14-.22-.07-.36l.59-1.08c.09-.14.2-.2.36-.11.81.45,1.64.67,2.72.67s2.63-.41,2.63-1.87v-.97c-.65.76-1.55,1.3-2.74,1.3-2.47,0-4.27-2.05-4.27-4.54s1.8-4.54,4.27-4.54c1.12,0,2.03.52,2.68,1.26l.05-.79c.02-.16.11-.27.27-.27h1.66c.16,0,.27.11.27.27ZM278.21,116.95c0-1.24-.95-2.36-2.25-2.36s-2.27,1.04-2.27,2.36.95,2.39,2.27,2.39,2.25-1.15,2.25-2.39Z"/>
    <path d="M287.91,113.2l-.54,1.33c-.07.2-.22.23-.4.18-.18-.05-.4-.13-.74-.13-1.12,0-1.84.83-1.84,1.91v4.68c0,.16-.11.27-.27.27h-1.84c-.16,0-.27-.11-.27-.27v-8.28c0-.16.11-.27.27-.27h1.75c.16,0,.25.11.27.27l.07.97c.47-.85,1.19-1.44,2.25-1.44.5,0,.94.2,1.19.41.14.11.14.23.09.36Z"/>
    <path d="M297.47,112.89v8.28c0,.16-.11.27-.27.27h-1.66c-.16,0-.25-.11-.27-.27l-.07-.76c-.63.74-1.51,1.26-2.66,1.26-2.47,0-4.27-2.05-4.27-4.63s1.8-4.63,4.27-4.63c1.12,0,2.02.54,2.68,1.3l.05-.83c.02-.16.11-.27.27-.27h1.66c.16,0,.27.11.27.27ZM295.07,117.04c0-1.33-.95-2.45-2.25-2.45s-2.27,1.04-2.27,2.45.95,2.48,2.27,2.48,2.25-1.15,2.25-2.48Z"/>
    <path d="M313.2,116.15v5.02c0,.16-.11.27-.27.27h-1.84c-.16,0-.27-.11-.27-.27v-4.59c0-1.46-.79-1.96-1.64-1.96-1.33,0-1.94,1.06-1.94,1.69v4.86c0,.16-.11.27-.27.27h-1.84c-.16,0-.27-.11-.27-.27v-4.59c0-1.46-.79-1.96-1.66-1.96-1.33,0-1.94,1.31-1.94,1.73v4.83c0,.16-.11.27-.27.27h-1.84c-.16,0-.27-.11-.27-.27v-8.28c0-.16.11-.27.27-.27h1.76c.16,0,.25.11.27.27l.07,1.15v.02c.58-.94,1.51-1.64,2.79-1.64,1.17,0,2.16.58,2.72,1.64.63-.96,1.67-1.64,3.11-1.64,1.93,0,3.31,1.37,3.31,3.73Z"/>
  </g>
</svg>