<svg width="150" height="75" viewBox="0 0 150 75" fill="none" xmlns="http://www.w3.org/2000/svg">
<path fill-rule="evenodd" clip-rule="evenodd" d="M65.5527 37.3105L65.0445 38.576C64.9767 38.764 64.8412 38.7982 64.6718 38.7471C64.5027 38.6959 64.2994 38.6275 63.9777 38.6275C62.9274 38.6275 62.2498 39.414 62.2498 40.4404V44.887C62.2498 45.0408 62.1485 45.1434 61.9959 45.1434H60.2683C60.116 45.1434 60.0143 45.0408 60.0143 44.887V37.0198C60.0143 36.8657 60.116 36.7634 60.2683 36.7634H61.9113C62.0636 36.7634 62.1485 36.8657 62.1653 37.0198L62.233 37.9432C62.6735 37.1394 63.3508 36.5751 64.3501 36.5751C64.8244 36.5751 65.231 36.7634 65.4678 36.9683C65.6033 37.071 65.6033 37.1906 65.5527 37.3105" fill="white"/>
<path fill-rule="evenodd" clip-rule="evenodd" d="M73.6421 37.3105L73.1339 38.576C73.0661 38.764 72.9306 38.7982 72.7612 38.7471C72.5921 38.6959 72.3889 38.6275 72.0672 38.6275C71.0168 38.6275 70.3392 39.414 70.3392 40.4404V44.887C70.3392 45.0408 70.2379 45.1434 70.0853 45.1434H68.3577C68.2054 45.1434 68.1038 45.0408 68.1038 44.887V37.0198C68.1038 36.8657 68.2054 36.7634 68.3577 36.7634H70.0008C70.153 36.7634 70.2379 36.8657 70.2547 37.0198L70.3225 37.9432C70.7629 37.1394 71.4402 36.5751 72.4395 36.5751C72.9138 36.5751 73.3204 36.7634 73.5572 36.9683C73.6928 37.071 73.6928 37.1906 73.6421 37.3105" fill="white"/>
<path fill-rule="evenodd" clip-rule="evenodd" d="M54.6355 40.952C54.6355 39.6865 53.7379 38.6263 52.5185 38.6263C51.282 38.6263 50.3843 39.6181 50.3843 40.952C50.3843 42.3033 51.282 43.3124 52.5185 43.3124C53.7379 43.3124 54.6355 42.2175 54.6355 40.952M56.8881 37.0186V44.8858C56.8881 45.0396 56.7865 45.1422 56.6342 45.1422H55.0756C54.9234 45.1422 54.8388 45.0396 54.8217 44.8858L54.754 44.1673C54.1612 44.8685 53.3313 45.3644 52.2474 45.3644C49.9271 45.3644 48.2334 43.415 48.2334 40.969C48.2334 38.5233 49.9271 36.5739 52.2474 36.5739C53.2974 36.5739 54.1441 37.087 54.7711 37.8052L54.8217 37.0186C54.8388 36.8645 54.9234 36.7622 55.0756 36.7622H56.6342C56.7865 36.7622 56.8881 36.8645 56.8881 37.0186" fill="white"/>
<path fill-rule="evenodd" clip-rule="evenodd" d="M76.5532 36.7632H78.2808C78.4331 36.7632 78.5347 36.8658 78.5347 37.02V44.8868C78.5347 45.0409 78.4331 45.1435 78.2808 45.1435H76.5532C76.4009 45.1435 76.2989 45.0409 76.2989 44.8868V37.02C76.2989 36.8658 76.4009 36.7632 76.5532 36.7632" fill="white"/>
<path fill-rule="evenodd" clip-rule="evenodd" d="M87.5709 42.799C87.5709 44.424 85.9278 45.3646 84.4039 45.3646C82.9809 45.3646 81.8293 44.6631 81.2365 43.9619C81.1349 43.8424 81.1688 43.7224 81.2365 43.6198L81.897 42.6791C81.9987 42.5426 82.1174 42.5768 82.2697 42.6964C82.947 43.1412 83.6756 43.466 84.3361 43.466C84.8779 43.466 85.4028 43.295 85.4028 42.7648C85.4028 41.4309 81.3888 41.9441 81.3888 39.1221C81.3888 37.5144 82.7779 36.5737 84.2683 36.5737C85.3354 36.5737 86.4193 37.0185 87.1137 37.8396C87.2153 37.9592 87.1814 38.096 87.0966 38.1987L86.4532 39.0536C86.3515 39.1905 86.2328 39.1563 86.0805 39.0363C85.4367 38.6089 85.0473 38.3867 84.4545 38.3867C83.9295 38.3867 83.5401 38.6773 83.5401 39.1051C83.5401 40.4729 87.5709 39.7206 87.5709 42.799" fill="white"/>
<path fill-rule="evenodd" clip-rule="evenodd" d="M44.2966 42.5263C44.4321 42.4067 44.5509 42.4067 44.6693 42.5263L45.7022 43.5181C45.8035 43.6204 45.8206 43.7572 45.7193 43.8768C44.9403 44.7833 43.7887 45.3645 42.4681 45.3645C40.0806 45.3645 38.235 43.4324 38.235 40.9705C38.235 38.5085 40.0806 36.576 42.4681 36.576C43.7549 36.576 44.8894 37.1573 45.6683 38.0638C45.7696 38.1834 45.7528 38.3205 45.6512 38.4228L44.6183 39.4316C44.4999 39.5512 44.3815 39.5342 44.246 39.4147C43.772 38.9872 43.2805 38.6623 42.5187 38.6623C41.2658 38.6623 40.3852 39.6538 40.3852 40.9705C40.3852 42.2868 41.2658 43.2786 42.5187 43.2786C43.3147 43.2786 43.8223 42.9538 44.2966 42.5263" fill="white"/>
<path fill-rule="evenodd" clip-rule="evenodd" d="M49.1201 53.3779V57.1952C49.1201 57.3183 49.039 57.4005 48.9168 57.4005H47.5349C47.4127 57.4005 47.3316 57.3183 47.3316 57.1952V53.7062C47.3316 52.598 46.7355 52.2147 46.0986 52.2147C45.0958 52.2147 44.6352 53.0223 44.6352 53.501V57.1952C44.6352 57.3183 44.5541 57.4005 44.4319 57.4005H43.05C42.9281 57.4005 42.8467 57.3183 42.8467 57.1952V53.7062C42.8467 52.598 42.2505 52.2147 41.6003 52.2147C40.5975 52.2147 40.1365 53.2138 40.1365 53.5283V57.1952C40.1365 57.3183 40.0554 57.4005 39.9336 57.4005H38.5513C38.4295 57.4005 38.348 57.3183 38.348 57.1952V50.9012C38.348 50.7781 38.4295 50.6962 38.5513 50.6962H39.8792C40.0013 50.6962 40.0688 50.7781 40.0825 50.9012L40.1365 51.7769V51.7907C40.5701 51.0791 41.2748 50.5459 42.2368 50.5459C43.1177 50.5459 43.8628 50.9838 44.283 51.7907C44.757 51.0657 45.5431 50.5459 46.627 50.5459C48.0767 50.5459 49.1201 51.5854 49.1201 53.3779" fill="white"/>
<path fill-rule="evenodd" clip-rule="evenodd" d="M52.8701 53.5421H56.0406C55.9187 52.598 55.2818 52.0782 54.4824 52.0782C53.6696 52.0782 53.019 52.598 52.8701 53.5421M57.1518 54.7188H52.8972C53.0734 55.6083 53.7507 56.1143 54.7942 56.1143C55.3226 56.1143 55.7425 55.9774 56.2035 55.6491C56.3253 55.5672 56.4068 55.5672 56.5012 55.6629L57.0977 56.2511C57.1925 56.3468 57.1925 56.4429 57.084 56.5521C56.4471 57.1952 55.5799 57.5785 54.6179 57.5785C52.545 57.5785 51.122 56.0324 51.122 54.0618C51.122 52.0917 52.545 50.5459 54.469 50.5459C56.3931 50.5459 57.6261 52.0917 57.6261 53.9115C57.6261 54.4451 57.5584 54.7188 57.1518 54.7188" fill="white"/>
<path fill-rule="evenodd" clip-rule="evenodd" d="M63.0122 50.9013V51.9684C63.0122 52.0918 62.9308 52.1737 62.809 52.1737H61.8606V57.1953C61.8606 57.3184 61.7792 57.4003 61.6573 57.4003H60.2751C60.1532 57.4003 60.0718 57.3184 60.0718 57.1953V52.1737H59.1235C59.0016 52.1737 58.9202 52.0918 58.9202 51.9684V50.9013C58.9202 50.7782 59.0016 50.696 59.1235 50.696H60.0718V48.8489C60.0718 48.7258 60.1532 48.6439 60.2751 48.6439H61.6573C61.7792 48.6439 61.8606 48.7258 61.8606 48.8489V50.696H62.809C62.9308 50.696 63.0122 50.7782 63.0122 50.9013" fill="white"/>
<path fill-rule="evenodd" clip-rule="evenodd" d="M70.2971 51.134L69.8905 52.1465C69.8364 52.2972 69.728 52.3245 69.5924 52.2834C69.4569 52.2422 69.2944 52.1876 69.037 52.1876C68.1968 52.1876 67.6547 52.8169 67.6547 53.6377V57.1955C67.6547 57.3185 67.5736 57.4004 67.4518 57.4004H66.0695C65.9477 57.4004 65.8662 57.3185 65.8662 57.1955V50.9014C65.8662 50.7784 65.9477 50.6961 66.0695 50.6961H67.384C67.5058 50.6961 67.5736 50.7784 67.587 50.9014L67.6414 51.6402C67.9935 50.9971 68.5356 50.5458 69.3351 50.5458C69.7143 50.5458 70.0394 50.6961 70.2293 50.8603C70.3378 50.9425 70.3378 51.0382 70.2971 51.134" fill="white"/>
<path fill-rule="evenodd" clip-rule="evenodd" d="M76.7869 54.062C76.7869 52.981 76.0145 52.2148 75.0662 52.2148C74.1041 52.2148 73.3454 52.981 73.3454 54.062C73.3454 55.1429 74.1041 55.9091 75.0662 55.9091C76.0145 55.9091 76.7869 55.1429 76.7869 54.062M71.6243 54.0619C71.6243 52.0918 73.1558 50.5457 75.0662 50.5457C76.9765 50.5457 78.5076 52.0918 78.5076 54.0619C78.5076 56.0321 76.9765 57.5782 75.0662 57.5782C73.1558 57.5782 71.6243 56.0321 71.6243 54.0619" fill="white"/>
<path fill-rule="evenodd" clip-rule="evenodd" d="M85.919 54.0483C85.919 52.9812 85.201 52.1874 84.2116 52.1874C83.2362 52.1874 82.5179 53.0358 82.5179 54.0483C82.5179 55.0606 83.2362 55.9363 84.2116 55.9363C85.201 55.9363 85.919 55.1293 85.919 54.0483M87.6397 54.0618C87.6397 56.0185 86.2848 57.5781 84.4285 57.5781C83.6154 57.5781 82.9785 57.2363 82.5045 56.7301V59.7947C82.5045 59.9177 82.4231 60 82.3012 60H80.9193C80.7971 60 80.716 59.9177 80.716 59.7947V50.9011C80.716 50.7781 80.7971 50.6962 80.9193 50.6962H82.1657C82.2875 50.6962 82.3553 50.7781 82.369 50.9011L82.4097 51.5308C82.9111 50.9561 83.5884 50.5455 84.4285 50.5455C86.2848 50.5455 87.6397 52.1055 87.6397 54.0618" fill="white"/>
<path fill-rule="evenodd" clip-rule="evenodd" d="M94.7395 54.062C94.7395 52.981 93.9671 52.2148 93.0188 52.2148C92.0568 52.2148 91.298 52.981 91.298 54.062C91.298 55.1429 92.0568 55.9091 93.0188 55.9091C93.9671 55.9091 94.7395 55.1429 94.7395 54.062M89.577 54.0619C89.577 52.0918 91.1085 50.5457 93.0188 50.5457C94.9291 50.5457 96.4603 52.0918 96.4603 54.0619C96.4603 56.0321 94.9291 57.5782 93.0188 57.5782C91.1085 57.5782 89.577 56.0321 89.577 54.0619" fill="white"/>
<path fill-rule="evenodd" clip-rule="evenodd" d="M98.8716 47.4124H100.254C100.376 47.4124 100.457 47.4943 100.457 47.6176V57.1954C100.457 57.3185 100.376 57.4004 100.254 57.4004H98.8716C98.7497 57.4004 98.6683 57.3185 98.6683 57.1954V47.6176C98.6683 47.4943 98.7497 47.4124 98.8716 47.4124" fill="white"/>
<path fill-rule="evenodd" clip-rule="evenodd" d="M103.112 50.6962H104.494C104.616 50.6962 104.698 50.7781 104.698 50.9014V57.1952C104.698 57.3185 104.616 57.4005 104.494 57.4005H103.112C102.991 57.4005 102.909 57.3185 102.909 57.1952V50.9014C102.909 50.7781 102.991 50.6962 103.112 50.6962M102.814 48.425C102.814 47.8776 103.248 47.4263 103.803 47.4263C104.345 47.4263 104.779 47.8776 104.779 48.425C104.779 48.9721 104.345 49.4237 103.803 49.4237C103.248 49.4237 102.814 48.9721 102.814 48.425" fill="white"/>
<path fill-rule="evenodd" clip-rule="evenodd" d="M110.944 50.9013V51.9684C110.944 52.0918 110.862 52.1737 110.741 52.1737H109.792V57.1953C109.792 57.3184 109.711 57.4003 109.589 57.4003H108.207C108.085 57.4003 108.003 57.3184 108.003 57.1953V52.1737H107.055C106.933 52.1737 106.852 52.0918 106.852 51.9684V50.9013C106.852 50.7782 106.933 50.696 107.055 50.696H108.003V48.8489C108.003 48.7258 108.085 48.6439 108.207 48.6439H109.589C109.711 48.6439 109.792 48.7258 109.792 48.8489V50.696H110.741C110.862 50.696 110.944 50.7782 110.944 50.9013" fill="white"/>
<path fill-rule="evenodd" clip-rule="evenodd" d="M117.868 54.0483C117.868 53.0358 117.15 52.1874 116.174 52.1874C115.185 52.1874 114.466 52.9812 114.466 54.0483C114.466 55.1293 115.185 55.9363 116.174 55.9363C117.15 55.9363 117.868 55.0606 117.868 54.0483M119.67 50.9011V57.1952C119.67 57.3182 119.588 57.4005 119.466 57.4005H118.22C118.098 57.4005 118.03 57.3182 118.016 57.1952L117.962 56.6205C117.488 57.1814 116.824 57.5781 115.957 57.5781C114.101 57.5781 112.746 56.0185 112.746 54.0618C112.746 52.1055 114.101 50.5455 115.957 50.5455C116.797 50.5455 117.475 50.9561 117.976 51.5308L118.016 50.9011C118.03 50.7781 118.098 50.6962 118.22 50.6962H119.466C119.588 50.6962 119.67 50.7781 119.67 50.9011" fill="white"/>
<path fill-rule="evenodd" clip-rule="evenodd" d="M128.368 53.3779V57.1952C128.368 57.3183 128.287 57.4005 128.165 57.4005H126.783C126.661 57.4005 126.58 57.3183 126.58 57.1952V53.7062C126.58 52.598 125.983 52.2147 125.333 52.2147C124.33 52.2147 123.869 53.2138 123.869 53.5283V57.1952C123.869 57.3183 123.788 57.4005 123.667 57.4005H122.284C122.162 57.4005 122.081 57.3183 122.081 57.1952V50.9012C122.081 50.7781 122.162 50.6962 122.284 50.6962H123.612C123.734 50.6962 123.802 50.7781 123.815 50.9012L123.869 51.7769V51.7907C124.303 51.0791 125.008 50.5459 125.97 50.5459C127.325 50.5459 128.368 51.5854 128.368 53.3779" fill="white"/>
<path fill-rule="evenodd" clip-rule="evenodd" d="M135.698 54.0483C135.698 53.0358 134.98 52.1874 134.004 52.1874C133.015 52.1874 132.297 52.9812 132.297 54.0483C132.297 55.1293 133.015 55.9363 134.004 55.9363C134.98 55.9363 135.698 55.0606 135.698 54.0483M137.5 50.9011V57.1952C137.5 57.3182 137.419 57.4005 137.297 57.4005H136.05C135.928 57.4005 135.861 57.3182 135.847 57.1952L135.793 56.6205C135.318 57.1814 134.654 57.5781 133.788 57.5781C131.931 57.5781 130.576 56.0185 130.576 54.0618C130.576 52.1055 131.931 50.5455 133.788 50.5455C134.627 50.5455 135.305 50.9561 135.806 51.5308L135.847 50.9011C135.861 50.7781 135.928 50.6962 136.05 50.6962H137.297C137.419 50.6962 137.5 50.7781 137.5 50.9011" fill="white"/>
<path fill-rule="evenodd" clip-rule="evenodd" d="M80.8208 26.5141C80.609 24.9196 80.1059 23.3683 79.3441 21.9559C77.8383 19.1632 75.3414 16.9626 72.393 15.8439C70.9201 15.2848 69.3492 15 67.7756 15C64.1124 15 60.5624 16.5831 58.0846 19.3063C53.9823 14.7671 47.1164 13.6996 41.8474 16.7766C40.4717 17.5801 39.2427 18.6359 38.2352 19.8765C35.7307 17.1094 32.2331 15.3521 28.5291 15.0491C25.2591 14.7812 21.9483 15.6317 19.2064 17.4509C16.5804 19.1933 14.5315 21.7734 13.4305 24.7464C12.2861 27.8373 12.1947 31.2931 13.1707 34.4424C14.1068 37.4618 16.0065 40.14 18.5236 42.0214C21.1348 43.9732 24.3505 45.01 27.5982 44.9512C28.7345 44.9308 29.8895 44.8113 30.9915 44.5303C31.3262 44.4446 31.6465 44.343 31.9487 44.2106C31.549 44.3734 31.1126 44.464 30.6554 44.464C28.744 44.464 27.1944 42.8992 27.1944 40.9691C27.1944 39.2357 28.4449 37.7973 30.0846 37.5226C29.653 37.5807 29.2252 37.6871 28.767 37.7718C27.05 38.0883 25.2492 37.8989 23.6988 37.0889C20.8104 35.5794 19.0934 32.3524 19.4531 29.0866C19.8087 25.8568 22.1643 23.0928 25.2707 22.2482C26.9788 21.7838 28.8269 21.9147 30.4473 22.6349C32.1814 23.4056 33.6297 24.8633 34.5931 26.4958C34.8347 26.9053 35.0425 27.3352 35.2115 27.7803C35.3789 28.2216 35.4781 28.6837 35.705 29.1001C36.1606 29.9347 36.9525 30.5588 37.8662 30.7983C39.6719 31.271 41.4604 30.1911 42.0158 28.4314C42.1691 27.9458 42.189 27.4513 42.292 26.9554C42.472 26.0894 42.8368 25.2659 43.3556 24.5526C44.3772 23.1481 45.9672 22.2164 47.6811 22.0167C50.9689 21.6334 54.0497 24.0186 54.5528 27.3214C54.6852 28.1888 54.8153 28.9594 55.3967 29.6589C56.0087 30.395 56.9125 30.8501 57.8632 30.8992C58.8331 30.9489 59.7941 30.5781 60.4816 29.8849C61.1182 29.2425 61.3957 28.4459 61.4988 27.5636C61.8896 24.2091 64.9947 21.7115 68.3123 21.9973C71.5994 22.2807 74.0912 25.2275 73.9605 28.5527C73.9454 28.9383 73.9259 29.3009 73.9362 29.6568C73.9403 27.7191 75.4971 26.1495 77.417 26.1495C79.3397 26.1495 80.8978 27.7233 80.8978 29.6644C80.8978 29.6696 80.8975 29.6744 80.8975 29.6793C80.9091 29.5379 80.9177 29.3952 80.9235 29.2511C80.9591 28.3377 80.9413 27.4209 80.8208 26.5141" fill="#FFDD00"/>
<path fill-rule="evenodd" clip-rule="evenodd" d="M80.898 29.6644C80.898 31.6059 79.3395 33.1797 77.4172 33.1797C75.4945 33.1797 73.936 31.6059 73.936 29.6644C73.936 27.7233 75.4945 26.1495 77.4172 26.1495C79.3395 26.1495 80.898 27.7233 80.898 29.6644" fill="white"/>
<path fill-rule="evenodd" clip-rule="evenodd" d="M34.1162 40.9691C34.1162 42.8992 32.5669 44.464 30.6552 44.464C28.7439 44.464 27.1946 42.8992 27.1946 40.9691C27.1946 39.039 28.7439 37.4742 30.6552 37.4742C32.5669 37.4742 34.1162 39.039 34.1162 40.9691" fill="white"/>
</svg>
