<?xml version="1.0" encoding="UTF-8"?>
<svg id="Camada_1" data-name="Camada 1" xmlns="http://www.w3.org/2000/svg" viewBox="0 0 1155.5 619.5">
  <defs>
    <style>
      .cls-1, .cls-2 {
        fill: #fd0;
      }

      .cls-3 {
        fill: none;
        stroke: #fdb71a;
        stroke-linecap: round;
        stroke-linejoin: round;
        stroke-width: 8px;
      }

      .cls-4 {
        fill: #fdb71a;
      }

      .cls-5, .cls-2 {
        opacity: .2;
      }
    </style>
  </defs>
  <rect class="cls-2" x="21.45" y="17.25" width="1121.4" height="585" rx="80.1" ry="80.1"/>
  <g>
    <path class="cls-4" d="M440.05,91.15v96h-17.39v-79.08h-.56l-22.45,14.34v-15.94l23.86-15.33h16.55Z"/>
    <path class="cls-4" d="M467.99,187.15l40.83-80.81v-.66h-47.39v-14.53h65.39v14.86l-40.78,81.14h-18.05Z"/>
    <path class="cls-4" d="M574.91,187.15v-72h16.22v12.23h.84c1.5-4.12,3.98-7.35,7.45-9.68s7.61-3.49,12.42-3.49,8.99,1.18,12.35,3.54,5.73,5.57,7.1,9.63h.75c1.59-4,4.29-7.2,8.09-9.59s8.3-3.59,13.52-3.59c6.62,0,12.03,2.09,16.22,6.28s6.28,10.3,6.28,18.33v48.33h-17.02v-45.7c0-4.47-1.19-7.74-3.56-9.82s-5.28-3.12-8.72-3.12c-4.09,0-7.29,1.27-9.59,3.82s-3.45,5.85-3.45,9.91v44.91h-16.64v-46.41c0-3.72-1.12-6.69-3.35-8.91s-5.15-3.33-8.74-3.33c-2.44,0-4.66.62-6.66,1.85s-3.59,2.97-4.78,5.2-1.78,4.84-1.78,7.8v43.78h-16.97Z"/>
    <path class="cls-4" d="M701.94,104.93c-2.69,0-5-.9-6.94-2.7-1.94-1.8-2.91-3.96-2.91-6.49s.97-4.74,2.91-6.54c1.94-1.8,4.25-2.7,6.94-2.7s5.04.9,6.96,2.7,2.88,3.98,2.88,6.54-.96,4.7-2.88,6.49-4.24,2.7-6.96,2.7ZM693.41,187.15v-72h16.97v72h-16.97Z"/>
    <path class="cls-4" d="M744.78,91.15v96h-16.97v-96h16.97Z"/>
    <path class="cls-4" d="M779.19,144.96v42.19h-16.97v-96h16.59v36.23h.84c1.69-4.06,4.3-7.27,7.85-9.63s8.07-3.54,13.57-3.54c5,0,9.36,1.05,13.08,3.14s6.6,5.16,8.65,9.19,3.07,8.95,3.07,14.77v45.84h-16.97v-43.22c0-4.84-1.24-8.62-3.73-11.32s-5.96-4.05-10.43-4.05c-3,0-5.68.65-8.04,1.95s-4.2,3.16-5.53,5.6-1.99,5.39-1.99,8.86Z"/>
    <path class="cls-4" d="M874.53,188.56c-7.03,0-13.12-1.55-18.28-4.64s-9.15-7.42-11.98-12.98c-2.83-5.56-4.24-12.06-4.24-19.5s1.41-13.95,4.24-19.55c2.83-5.59,6.82-9.94,11.98-13.03s11.25-4.64,18.28-4.64,13.12,1.55,18.28,4.64,9.15,7.44,11.98,13.03c2.83,5.59,4.24,12.11,4.24,19.55s-1.41,13.94-4.24,19.5c-2.83,5.56-6.82,9.89-11.98,12.98s-11.25,4.64-18.28,4.64ZM860.75,106.39l-10.27-.23c0-5.56,1.44-9.92,4.31-13.08,2.88-3.16,6.42-4.73,10.64-4.73,2.03,0,3.8.34,5.3,1.01s2.88,1.45,4.15,2.32,2.51,1.65,3.73,2.32,2.56,1.01,4.03,1.01c1.78,0,3.19-.67,4.24-2.02,1.05-1.34,1.59-3.06,1.62-5.16l10.08.42c-.03,5.59-1.48,9.93-4.36,13.01-2.88,3.08-6.41,4.63-10.59,4.66-2.25.03-4.14-.3-5.67-.98-1.53-.69-2.87-1.47-4.01-2.34-1.14-.88-2.29-1.65-3.45-2.32-1.16-.67-2.52-1.01-4.08-1.01-1.66,0-3.02.66-4.08,1.97-1.06,1.31-1.59,3.03-1.59,5.16ZM874.63,174.96c3.81,0,7-1.05,9.56-3.16,2.56-2.11,4.48-4.95,5.74-8.51s1.9-7.53,1.9-11.91-.63-8.4-1.9-11.98-3.18-6.43-5.74-8.55c-2.56-2.12-5.75-3.19-9.56-3.19s-7.15,1.06-9.73,3.19-4.5,4.98-5.77,8.55-1.9,7.57-1.9,11.98.63,8.34,1.9,11.91,3.19,6.4,5.77,8.51,5.82,3.16,9.73,3.16Z"/>
    <path class="cls-4" d="M955.25,188.56c-7.22,0-13.45-1.51-18.68-4.52-5.23-3.02-9.26-7.3-12.07-12.84s-4.22-12.09-4.22-19.62,1.41-13.91,4.24-19.52c2.83-5.61,6.79-9.98,11.88-13.12,5.09-3.14,11.08-4.71,17.95-4.71,4.44,0,8.63.71,12.59,2.13,3.95,1.42,7.45,3.62,10.5,6.59s5.44,6.74,7.2,11.32c1.75,4.58,2.62,10.02,2.62,16.34v5.2h-59.02v-11.44h42.75c-.03-3.25-.73-6.15-2.11-8.7-1.38-2.55-3.29-4.55-5.74-6.02-2.45-1.47-5.3-2.2-8.55-2.2-3.47,0-6.52.84-9.14,2.51s-4.66,3.86-6.12,6.56-2.2,5.66-2.23,8.88v9.98c0,4.19.77,7.77,2.3,10.76,1.53,2.98,3.67,5.27,6.42,6.84,2.75,1.58,5.97,2.37,9.66,2.37,2.47,0,4.7-.35,6.7-1.05,2-.7,3.73-1.74,5.2-3.12,1.47-1.38,2.58-3.08,3.33-5.11l15.84,1.78c-1,4.19-2.9,7.84-5.7,10.95-2.8,3.11-6.37,5.52-10.71,7.22-4.34,1.7-9.31,2.55-14.91,2.55Z"/>
    <path class="cls-4" d="M1058.51,134.18l-15.47,1.69c-.44-1.56-1.2-3.03-2.27-4.41s-2.52-2.48-4.34-3.33-4.03-1.27-6.66-1.27c-3.53,0-6.49.77-8.88,2.3s-3.57,3.52-3.54,5.95c-.03,2.09.74,3.8,2.32,5.11s4.2,2.39,7.85,3.23l12.28,2.62c6.81,1.47,11.88,3.8,15.21,6.98s5.01,7.36,5.04,12.52c-.03,4.53-1.35,8.52-3.96,11.98s-6.23,6.15-10.85,8.09-9.94,2.91-15.94,2.91c-8.81,0-15.91-1.85-21.28-5.55s-8.58-8.87-9.61-15.49l16.55-1.59c.75,3.25,2.34,5.7,4.78,7.36s5.61,2.48,9.52,2.48,7.27-.83,9.73-2.48,3.68-3.7,3.68-6.14c0-2.06-.79-3.77-2.37-5.11s-4.02-2.38-7.34-3.09l-12.28-2.58c-6.91-1.44-12.02-3.87-15.33-7.29s-4.95-7.76-4.92-13.01c-.03-4.44,1.18-8.29,3.63-11.55s5.88-5.8,10.27-7.59,9.46-2.7,15.21-2.7c8.44,0,15.09,1.8,19.95,5.39s7.87,8.45,9.02,14.58Z"/>
  </g>
  <g>
    <path class="cls-4" d="M551.26,249.41v-21.75h4.33v2.66h.2c.19-.43.47-.86.84-1.3.37-.44.85-.81,1.44-1.11s1.33-.45,2.22-.45c1.15,0,2.22.3,3.19.9.98.6,1.75,1.5,2.34,2.71.58,1.21.88,2.71.88,4.53s-.28,3.25-.85,4.46-1.33,2.13-2.31,2.75c-.97.62-2.06.93-3.26.93-.85,0-1.57-.14-2.17-.42s-1.08-.64-1.46-1.07-.67-.86-.87-1.3h-.13v8.46h-4.39ZM555.56,235.57c0,.94.13,1.76.39,2.46.26.7.64,1.25,1.13,1.63s1.09.58,1.8.58,1.32-.2,1.81-.59c.49-.39.87-.94,1.13-1.65.26-.7.39-1.52.39-2.44s-.13-1.72-.38-2.41c-.25-.69-.63-1.24-1.12-1.63-.49-.39-1.1-.59-1.82-.59s-1.32.19-1.81.57c-.49.38-.87.91-1.13,1.61-.26.69-.39,1.51-.39,2.45Z"/>
    <path class="cls-4" d="M574.12,243.78c-1.01,0-1.91-.18-2.7-.53-.79-.35-1.41-.88-1.87-1.58-.46-.7-.68-1.57-.68-2.61,0-.88.16-1.62.48-2.21.32-.6.76-1.08,1.32-1.44.56-.36,1.19-.64,1.9-.82.71-.19,1.46-.32,2.24-.39.92-.1,1.66-.19,2.22-.27s.97-.21,1.23-.39c.25-.17.38-.43.38-.76v-.06c0-.65-.2-1.16-.61-1.51-.41-.36-.99-.54-1.74-.54-.79,0-1.42.17-1.88.52-.47.35-.78.78-.93,1.3l-4.06-.33c.21-.96.61-1.79,1.22-2.5.6-.7,1.38-1.25,2.34-1.63.96-.38,2.07-.57,3.33-.57.88,0,1.72.1,2.53.31s1.53.52,2.15.96c.63.43,1.12.99,1.49,1.66.36.68.55,1.49.55,2.43v10.67h-4.16v-2.19h-.12c-.25.49-.59.93-1.02,1.3s-.94.67-1.53.88c-.6.21-1.29.31-2.07.31ZM575.37,240.75c.65,0,1.21-.13,1.71-.39.5-.26.88-.61,1.16-1.04s.42-.94.42-1.49v-1.68c-.14.09-.32.17-.56.24-.24.07-.5.14-.8.2-.29.06-.59.11-.88.15s-.56.08-.8.12c-.52.08-.96.2-1.35.36-.38.17-.68.39-.9.67-.21.28-.32.62-.32,1.03,0,.6.22,1.05.65,1.37s.99.47,1.66.47Z"/>
    <path class="cls-4" d="M599.59,232.17l-4.02.25c-.07-.34-.22-.65-.44-.93s-.52-.5-.89-.67c-.37-.17-.8-.25-1.31-.25-.68,0-1.25.14-1.72.43-.47.28-.7.66-.7,1.14,0,.38.15.7.45.96.3.26.82.47,1.55.63l2.86.58c1.54.32,2.68.82,3.44,1.52.75.7,1.13,1.62,1.13,2.76,0,1.04-.3,1.95-.91,2.73-.61.78-1.44,1.39-2.49,1.83-1.05.44-2.27.65-3.64.65-2.09,0-3.76-.44-5-1.31-1.24-.88-1.97-2.07-2.18-3.58l4.32-.23c.13.64.45,1.12.95,1.46.5.33,1.14.5,1.93.5s1.39-.15,1.86-.45c.47-.3.71-.68.72-1.16,0-.4-.18-.73-.5-.98-.33-.26-.84-.46-1.52-.59l-2.74-.55c-1.54-.31-2.69-.84-3.44-1.61-.75-.76-1.13-1.73-1.13-2.91,0-1.02.28-1.89.83-2.63s1.33-1.3,2.34-1.7,2.18-.6,3.54-.6c2,0,3.57.42,4.72,1.27,1.15.84,1.82,2,2.01,3.45Z"/>
    <path class="cls-4" d="M615.88,232.17l-4.02.25c-.07-.34-.22-.65-.44-.93s-.52-.5-.89-.67c-.37-.17-.81-.25-1.31-.25-.68,0-1.25.14-1.72.43-.47.28-.7.66-.7,1.14,0,.38.15.7.45.96.3.26.82.47,1.56.63l2.86.58c1.54.32,2.69.82,3.44,1.52s1.13,1.62,1.13,2.76c0,1.04-.3,1.95-.91,2.73-.61.78-1.44,1.39-2.49,1.83-1.05.44-2.27.65-3.64.65-2.09,0-3.76-.44-5-1.31-1.24-.88-1.96-2.07-2.18-3.58l4.31-.23c.13.64.45,1.12.95,1.46.5.33,1.14.5,1.93.5s1.39-.15,1.86-.45.71-.68.71-1.16c0-.4-.17-.73-.5-.98-.33-.26-.84-.46-1.52-.59l-2.74-.55c-1.54-.31-2.69-.84-3.45-1.61-.75-.76-1.13-1.73-1.13-2.91,0-1.02.28-1.89.83-2.63.55-.73,1.33-1.3,2.34-1.7s2.19-.6,3.54-.6c2,0,3.57.42,4.72,1.27,1.15.84,1.82,2,2.01,3.45Z"/>
    <path class="cls-4" d="M623.53,243.78c-1.01,0-1.91-.18-2.7-.53s-1.41-.88-1.87-1.58c-.46-.7-.68-1.57-.68-2.61,0-.88.16-1.62.48-2.21.32-.6.76-1.08,1.32-1.44.56-.36,1.19-.64,1.9-.82s1.46-.32,2.24-.39c.92-.1,1.66-.19,2.22-.27.56-.09.97-.21,1.23-.39.25-.17.38-.43.38-.76v-.06c0-.65-.21-1.16-.61-1.51-.41-.36-.99-.54-1.74-.54-.79,0-1.42.17-1.88.52-.47.35-.78.78-.93,1.3l-4.06-.33c.21-.96.61-1.79,1.21-2.5.6-.7,1.38-1.25,2.34-1.63.96-.38,2.07-.57,3.33-.57.88,0,1.72.1,2.53.31s1.52.52,2.15.96,1.12.99,1.49,1.66c.36.68.55,1.49.55,2.43v10.67h-4.16v-2.19h-.12c-.25.49-.59.93-1.02,1.3s-.94.67-1.53.88c-.6.21-1.29.31-2.07.31ZM624.78,240.75c.65,0,1.22-.13,1.71-.39.5-.26.88-.61,1.16-1.04.28-.44.42-.94.42-1.49v-1.68c-.14.09-.32.17-.56.24-.24.07-.5.14-.8.2-.29.06-.59.11-.89.15s-.56.08-.8.12c-.52.08-.96.2-1.35.36-.38.17-.68.39-.9.67-.21.28-.32.62-.32,1.03,0,.6.22,1.05.65,1.37.44.31.99.47,1.66.47Z"/>
    <path class="cls-4" d="M642.97,249.74c-1.42,0-2.64-.19-3.65-.58-1.01-.39-1.82-.92-2.42-1.58-.6-.67-.98-1.41-1.16-2.25l4.06-.55c.12.32.32.61.59.89.27.27.62.5,1.07.66.44.17.98.25,1.62.25.95,0,1.74-.23,2.36-.7.62-.46.93-1.24.93-2.32v-2.89h-.19c-.19.44-.48.85-.87,1.25-.38.39-.88.71-1.48.96-.6.25-1.33.37-2.16.37-1.19,0-2.27-.28-3.24-.83-.97-.55-1.74-1.4-2.32-2.54-.57-1.14-.86-2.59-.86-4.34s.29-3.29.88-4.49c.58-1.2,1.36-2.1,2.33-2.7.97-.6,2.04-.9,3.2-.9.89,0,1.63.15,2.22.45s1.08.67,1.45,1.11c.37.44.65.88.85,1.3h.16v-2.66h4.36v15.97c0,1.35-.33,2.47-.99,3.38s-1.57,1.59-2.73,2.04c-1.16.46-2.5.69-4.01.69ZM643.06,239.96c.71,0,1.31-.18,1.8-.53.49-.35.87-.86,1.13-1.52.26-.66.4-1.46.4-2.38s-.13-1.73-.39-2.42c-.26-.68-.64-1.21-1.13-1.59-.49-.38-1.1-.57-1.8-.57s-1.33.19-1.82.58-.87.92-1.12,1.61-.38,1.48-.38,2.38.13,1.7.39,2.36c.26.66.63,1.17,1.12,1.53.49.36,1.1.54,1.82.54Z"/>
    <path class="cls-4" d="M661.41,243.79c-1.63,0-3.03-.33-4.2-.99-1.17-.66-2.07-1.6-2.7-2.82s-.95-2.66-.95-4.33.32-3.05.95-4.28c.63-1.23,1.52-2.19,2.67-2.87,1.15-.69,2.5-1.03,4.05-1.03,1.04,0,2.02.17,2.92.5s1.69.83,2.37,1.5,1.2,1.5,1.58,2.51.57,2.18.57,3.53v1.21h-13.36v-2.72h9.23c0-.63-.14-1.19-.41-1.68-.27-.49-.65-.87-1.14-1.15-.48-.28-1.05-.42-1.68-.42s-1.25.15-1.77.46-.91.71-1.2,1.23-.44,1.08-.44,1.7v2.58c0,.78.15,1.46.44,2.03.29.57.71,1.01,1.24,1.32.54.31,1.17.46,1.9.46.49,0,.93-.07,1.34-.21.4-.14.75-.34,1.04-.62.29-.27.51-.61.66-1.01l4.06.27c-.21.97-.63,1.82-1.26,2.55s-1.45,1.29-2.45,1.69c-1,.4-2.15.6-3.46.6Z"/>
    <path class="cls-4" d="M673.74,225.62c-.65,0-1.21-.22-1.67-.65-.46-.44-.7-.96-.7-1.57s.23-1.12.7-1.56c.46-.44,1.02-.65,1.67-.65s1.21.22,1.67.65c.46.44.7.96.7,1.56s-.23,1.13-.7,1.57c-.46.44-1.02.65-1.67.65ZM671.54,243.48v-15.82h4.39v15.82h-4.39Z"/>
    <path class="cls-4" d="M679.42,243.48v-15.82h4.25v2.76h.16c.29-.98.77-1.72,1.45-2.23.68-.5,1.46-.76,2.35-.76.22,0,.46.01.71.04.25.03.48.07.67.11v3.89c-.21-.06-.49-.12-.85-.17-.37-.05-.7-.07-1-.07-.64,0-1.22.14-1.72.42-.5.28-.9.66-1.19,1.16-.29.5-.44,1.06-.44,1.71v8.95h-4.39Z"/>
    <path class="cls-4" d="M697.68,243.79c-1.6,0-2.98-.34-4.15-1.02-1.16-.68-2.06-1.64-2.69-2.86-.63-1.22-.95-2.65-.95-4.27s.32-3.06.95-4.29,1.53-2.18,2.69-2.86c1.16-.68,2.55-1.03,4.15-1.03s2.98.34,4.14,1.03c1.16.68,2.06,1.64,2.69,2.86.63,1.23.95,2.66.95,4.29s-.32,3.04-.95,4.27c-.63,1.23-1.53,2.18-2.69,2.86-1.16.68-2.54,1.02-4.14,1.02ZM697.7,240.39c.73,0,1.34-.21,1.82-.62.49-.42.86-.98,1.11-1.7.25-.72.38-1.54.38-2.46s-.13-1.74-.38-2.46c-.25-.72-.62-1.29-1.11-1.71s-1.09-.63-1.82-.63-1.35.21-1.85.63c-.5.42-.87.99-1.12,1.71-.25.72-.38,1.54-.38,2.46s.13,1.74.38,2.46.62,1.29,1.12,1.7c.5.42,1.11.62,1.85.62Z"/>
    <path class="cls-4" d="M721.49,232.17l-4.02.25c-.07-.34-.22-.65-.44-.93s-.52-.5-.89-.67c-.37-.17-.81-.25-1.31-.25-.68,0-1.25.14-1.72.43-.47.28-.7.66-.7,1.14,0,.38.15.7.45.96.3.26.82.47,1.56.63l2.86.58c1.54.32,2.69.82,3.44,1.52s1.13,1.62,1.13,2.76c0,1.04-.3,1.95-.91,2.73-.61.78-1.44,1.39-2.49,1.83-1.05.44-2.27.65-3.64.65-2.09,0-3.76-.44-5-1.31-1.24-.88-1.96-2.07-2.18-3.58l4.31-.23c.13.64.45,1.12.95,1.46.5.33,1.14.5,1.93.5s1.39-.15,1.86-.45.71-.68.71-1.16c0-.4-.17-.73-.5-.98-.33-.26-.84-.46-1.52-.59l-2.74-.55c-1.54-.31-2.69-.84-3.45-1.61-.75-.76-1.13-1.73-1.13-2.91,0-1.02.28-1.89.83-2.63.55-.73,1.33-1.3,2.34-1.7s2.19-.6,3.54-.6c2,0,3.57.42,4.72,1.27,1.15.84,1.82,2,2.01,3.45Z"/>
    <path class="cls-4" d="M739.76,227.66v3.3h-9.53v-3.3h9.53ZM732.4,223.87h4.39v14.75c0,.4.06.72.19.94.12.22.3.38.52.47.22.09.48.13.78.13.21,0,.41-.02.62-.06.21-.04.36-.07.47-.09l.69,3.26c-.22.07-.53.15-.93.24-.4.09-.88.15-1.45.17-1.06.04-1.98-.1-2.78-.42s-1.41-.82-1.85-1.5-.66-1.54-.65-2.57v-15.32Z"/>
    <path class="cls-4" d="M742.61,243.48v-15.82h4.25v2.76h.16c.29-.98.77-1.72,1.45-2.23.68-.5,1.46-.76,2.35-.76.22,0,.46.01.71.04.25.03.48.07.67.11v3.89c-.21-.06-.49-.12-.85-.17-.37-.05-.7-.07-1-.07-.64,0-1.22.14-1.72.42-.5.28-.9.66-1.19,1.16-.29.5-.44,1.06-.44,1.71v8.95h-4.39Z"/>
    <path class="cls-4" d="M758.54,243.78c-1.01,0-1.91-.18-2.7-.53-.79-.35-1.41-.88-1.87-1.58-.46-.7-.68-1.57-.68-2.61,0-.88.16-1.62.48-2.21.32-.6.76-1.08,1.32-1.44.56-.36,1.19-.64,1.9-.82.71-.19,1.46-.32,2.24-.39.92-.1,1.66-.19,2.22-.27s.97-.21,1.23-.39c.25-.17.38-.43.38-.76v-.06c0-.65-.2-1.16-.61-1.51-.41-.36-.99-.54-1.74-.54-.79,0-1.42.17-1.88.52-.47.35-.78.78-.93,1.3l-4.06-.33c.21-.96.61-1.79,1.22-2.5.6-.7,1.38-1.25,2.34-1.63.96-.38,2.07-.57,3.33-.57.88,0,1.72.1,2.53.31s1.53.52,2.15.96c.63.43,1.12.99,1.49,1.66.36.68.55,1.49.55,2.43v10.67h-4.16v-2.19h-.12c-.25.49-.59.93-1.02,1.3s-.94.67-1.53.88c-.6.21-1.29.31-2.07.31ZM759.79,240.75c.65,0,1.21-.13,1.71-.39.5-.26.88-.61,1.16-1.04s.42-.94.42-1.49v-1.68c-.14.09-.32.17-.56.24-.24.07-.5.14-.8.2-.29.06-.59.11-.88.15s-.56.08-.8.12c-.52.08-.96.2-1.35.36-.38.17-.68.39-.9.67-.21.28-.32.62-.32,1.03,0,.6.22,1.05.65,1.37s.99.47,1.66.47Z"/>
    <path class="cls-4" d="M775.24,234.34v9.14h-4.39v-15.82h4.18v2.79h.19c.35-.92.94-1.65,1.76-2.19s1.82-.81,3-.81c1.1,0,2.06.24,2.87.72.82.48,1.45,1.17,1.91,2.05.45.89.68,1.95.68,3.18v10.07h-4.39v-9.29c0-.97-.24-1.72-.74-2.27-.5-.55-1.19-.82-2.07-.82-.59,0-1.11.13-1.56.38s-.8.62-1.05,1.11c-.25.48-.38,1.07-.39,1.75Z"/>
    <path class="cls-4" d="M802.04,232.17l-4.02.25c-.07-.34-.22-.65-.44-.93s-.52-.5-.89-.67c-.37-.17-.81-.25-1.31-.25-.68,0-1.25.14-1.72.43-.47.28-.7.66-.7,1.14,0,.38.15.7.45.96.3.26.82.47,1.55.63l2.86.58c1.54.32,2.68.82,3.44,1.52.76.7,1.13,1.62,1.13,2.76,0,1.04-.3,1.95-.91,2.73-.61.78-1.44,1.39-2.49,1.83-1.05.44-2.27.65-3.64.65-2.09,0-3.76-.44-5-1.31-1.24-.88-1.97-2.07-2.18-3.58l4.32-.23c.13.64.45,1.12.95,1.46.5.33,1.14.5,1.93.5s1.39-.15,1.86-.45c.47-.3.71-.68.71-1.16,0-.4-.17-.73-.5-.98-.33-.26-.84-.46-1.52-.59l-2.74-.55c-1.54-.31-2.69-.84-3.45-1.61-.75-.76-1.13-1.73-1.13-2.91,0-1.02.28-1.89.83-2.63s1.33-1.3,2.34-1.7,2.19-.6,3.54-.6c2,0,3.57.42,4.72,1.27,1.15.84,1.82,2,2.01,3.45Z"/>
    <path class="cls-4" d="M805.17,249.41v-21.75h4.33v2.66h.2c.19-.43.47-.86.84-1.3.37-.44.85-.81,1.44-1.11s1.33-.45,2.22-.45c1.15,0,2.22.3,3.19.9s1.75,1.5,2.34,2.71c.58,1.21.88,2.71.88,4.53s-.28,3.25-.85,4.46-1.33,2.13-2.31,2.75c-.97.62-2.06.93-3.26.93-.85,0-1.57-.14-2.17-.42s-1.08-.64-1.46-1.07c-.38-.43-.67-.86-.87-1.3h-.13v8.46h-4.39ZM809.47,235.57c0,.94.13,1.76.39,2.46.26.7.64,1.25,1.13,1.63.49.39,1.09.58,1.8.58s1.32-.2,1.81-.59c.49-.39.87-.94,1.13-1.65.26-.7.39-1.52.39-2.44s-.13-1.72-.38-2.41c-.25-.69-.63-1.24-1.12-1.63-.5-.39-1.1-.59-1.82-.59s-1.32.19-1.81.57c-.49.38-.87.91-1.13,1.61-.26.69-.39,1.51-.39,2.45Z"/>
    <path class="cls-4" d="M830.66,243.79c-1.6,0-2.98-.34-4.15-1.02-1.16-.68-2.06-1.64-2.69-2.86-.63-1.22-.95-2.65-.95-4.27s.32-3.06.95-4.29c.63-1.23,1.53-2.18,2.69-2.86,1.16-.68,2.54-1.03,4.15-1.03s2.98.34,4.15,1.03c1.16.68,2.06,1.64,2.69,2.86s.95,2.66.95,4.29-.32,3.04-.95,4.27c-.63,1.23-1.53,2.18-2.69,2.86-1.16.68-2.55,1.02-4.15,1.02ZM830.68,240.39c.73,0,1.33-.21,1.82-.62.49-.42.86-.98,1.11-1.7s.38-1.54.38-2.46-.13-1.74-.38-2.46c-.25-.72-.62-1.29-1.11-1.71-.49-.42-1.09-.63-1.82-.63s-1.35.21-1.85.63c-.5.42-.87.99-1.12,1.71-.25.72-.38,1.54-.38,2.46s.13,1.74.38,2.46c.25.72.62,1.29,1.12,1.7.5.42,1.11.62,1.85.62Z"/>
    <path class="cls-4" d="M841.31,243.48v-15.82h4.25v2.76h.16c.29-.98.77-1.72,1.45-2.23.68-.5,1.46-.76,2.35-.76.22,0,.46.01.71.04.25.03.48.07.67.11v3.89c-.21-.06-.49-.12-.85-.17-.36-.05-.7-.07-1-.07-.65,0-1.22.14-1.73.42-.5.28-.9.66-1.19,1.16-.29.5-.44,1.06-.44,1.71v8.95h-4.39Z"/>
    <path class="cls-4" d="M862.37,227.66v3.3h-9.53v-3.3h9.53ZM855.01,223.87h4.39v14.75c0,.4.06.72.19.94.12.22.3.38.52.47.22.09.48.13.78.13.21,0,.41-.02.62-.06.21-.04.36-.07.47-.09l.69,3.26c-.22.07-.53.15-.93.24-.4.09-.88.15-1.45.17-1.06.04-1.98-.1-2.78-.42s-1.41-.82-1.85-1.5-.66-1.54-.65-2.57v-15.32Z"/>
    <path class="cls-4" d="M869.73,243.78c-1.01,0-1.91-.18-2.7-.53-.79-.35-1.41-.88-1.87-1.58-.46-.7-.68-1.57-.68-2.61,0-.88.16-1.62.48-2.21.32-.6.76-1.08,1.32-1.44.56-.36,1.19-.64,1.9-.82.71-.19,1.46-.32,2.24-.39.92-.1,1.66-.19,2.22-.27s.97-.21,1.23-.39c.25-.17.38-.43.38-.76v-.06c0-.65-.2-1.16-.61-1.51-.41-.36-.99-.54-1.74-.54-.79,0-1.42.17-1.88.52-.47.35-.78.78-.93,1.3l-4.06-.33c.21-.96.61-1.79,1.22-2.5.6-.7,1.38-1.25,2.34-1.63.96-.38,2.07-.57,3.33-.57.88,0,1.72.1,2.53.31s1.53.52,2.15.96c.63.43,1.12.99,1.49,1.66.36.68.55,1.49.55,2.43v10.67h-4.16v-2.19h-.12c-.25.49-.59.93-1.02,1.3s-.94.67-1.53.88c-.6.21-1.29.31-2.07.31ZM870.99,240.75c.65,0,1.21-.13,1.71-.39.5-.26.88-.61,1.16-1.04s.42-.94.42-1.49v-1.68c-.14.09-.32.17-.56.24-.24.07-.5.14-.8.2-.29.06-.59.11-.88.15s-.56.08-.8.12c-.52.08-.96.2-1.35.36-.38.17-.68.39-.9.67-.21.28-.32.62-.32,1.03,0,.6.22,1.05.65,1.37s.99.47,1.66.47Z"/>
    <path class="cls-4" d="M887.88,243.74c-1.2,0-2.29-.31-3.26-.93-.97-.62-1.74-1.54-2.31-2.75s-.85-2.7-.85-4.46.29-3.32.88-4.53c.58-1.2,1.36-2.11,2.33-2.71.97-.6,2.04-.9,3.2-.9.89,0,1.62.15,2.22.45s1.07.67,1.44,1.11c.37.44.65.88.84,1.3h.13v-7.93h4.38v21.09h-4.33v-2.53h-.19c-.21.44-.5.87-.87,1.3s-.86.78-1.45,1.07-1.32.42-2.17.42ZM889.27,240.25c.71,0,1.31-.19,1.8-.58.49-.39.87-.93,1.13-1.63.26-.7.4-1.52.4-2.46s-.13-1.76-.39-2.45c-.26-.69-.64-1.23-1.13-1.61-.49-.38-1.1-.57-1.8-.57s-1.33.2-1.82.59c-.49.39-.87.93-1.12,1.63-.25.69-.38,1.5-.38,2.41s.13,1.73.39,2.44c.26.7.63,1.25,1.12,1.65.49.4,1.1.59,1.82.59Z"/>
    <path class="cls-4" d="M907.62,243.79c-1.6,0-2.98-.34-4.15-1.02-1.16-.68-2.06-1.64-2.69-2.86-.63-1.22-.95-2.65-.95-4.27s.31-3.06.95-4.29c.63-1.23,1.53-2.18,2.69-2.86,1.16-.68,2.55-1.03,4.15-1.03s2.98.34,4.14,1.03c1.16.68,2.06,1.64,2.69,2.86.63,1.23.95,2.66.95,4.29s-.32,3.04-.95,4.27c-.63,1.23-1.53,2.18-2.69,2.86-1.16.68-2.54,1.02-4.14,1.02ZM907.64,240.39c.73,0,1.33-.21,1.82-.62.49-.42.86-.98,1.11-1.7s.38-1.54.38-2.46-.12-1.74-.38-2.46c-.25-.72-.62-1.29-1.11-1.71-.49-.42-1.1-.63-1.82-.63s-1.35.21-1.85.63-.87.99-1.12,1.71c-.25.72-.38,1.54-.38,2.46s.12,1.74.38,2.46c.25.72.62,1.29,1.12,1.7.5.42,1.11.62,1.85.62Z"/>
    <path class="cls-4" d="M931.43,232.17l-4.02.25c-.07-.34-.22-.65-.44-.93s-.52-.5-.89-.67c-.37-.17-.8-.25-1.31-.25-.68,0-1.25.14-1.72.43-.47.28-.7.66-.7,1.14,0,.38.15.7.45.96s.82.47,1.56.63l2.86.58c1.54.32,2.68.82,3.44,1.52.75.7,1.13,1.62,1.13,2.76,0,1.04-.3,1.95-.91,2.73-.61.78-1.44,1.39-2.49,1.83-1.05.44-2.27.65-3.64.65-2.09,0-3.76-.44-5-1.31-1.24-.88-1.96-2.07-2.18-3.58l4.31-.23c.13.64.45,1.12.95,1.46.5.33,1.14.5,1.93.5s1.39-.15,1.86-.45.71-.68.72-1.16c0-.4-.17-.73-.5-.98-.33-.26-.84-.46-1.52-.59l-2.74-.55c-1.54-.31-2.69-.84-3.44-1.61-.75-.76-1.13-1.73-1.13-2.91,0-1.02.28-1.89.83-2.63.55-.73,1.33-1.3,2.34-1.7s2.18-.6,3.54-.6c2,0,3.57.42,4.72,1.27,1.15.84,1.82,2,2.01,3.45Z"/>
    <path class="cls-4" d="M945.67,234.34v9.14h-4.39v-15.82h4.18v2.79h.19c.35-.92.94-1.65,1.76-2.19.82-.54,1.82-.81,3-.81,1.1,0,2.06.24,2.87.72.82.48,1.45,1.17,1.9,2.05.45.89.68,1.95.68,3.18v10.07h-4.39v-9.29c0-.97-.24-1.72-.74-2.27s-1.19-.82-2.07-.82c-.59,0-1.11.13-1.56.38-.45.25-.8.62-1.05,1.11-.25.48-.38,1.07-.39,1.75Z"/>
    <path class="cls-4" d="M969.46,236.75v-9.08h4.39v15.82h-4.21v-2.87h-.17c-.36.93-.95,1.67-1.78,2.23-.83.56-1.83.84-3.02.84-1.06,0-1.99-.24-2.79-.72s-1.43-1.16-1.88-2.05c-.45-.89-.68-1.95-.68-3.18v-10.07h4.39v9.29c0,.93.26,1.67.75,2.21.49.54,1.16.81,1.99.81.53,0,1.02-.12,1.48-.37.46-.24.83-.61,1.12-1.09.28-.48.42-1.08.42-1.78Z"/>
    <path class="cls-4" d="M977.35,243.48v-15.82h4.18v2.79h.19c.33-.93.88-1.66,1.65-2.19.77-.54,1.69-.8,2.76-.8s2.01.27,2.77.81c.76.54,1.27,1.27,1.52,2.19h.16c.32-.91.91-1.63,1.76-2.18.85-.55,1.85-.82,3.01-.82,1.48,0,2.68.47,3.6,1.41.92.94,1.38,2.26,1.38,3.98v10.64h-4.38v-9.77c0-.88-.23-1.54-.7-1.98s-1.05-.66-1.75-.66c-.8,0-1.42.25-1.86.76s-.67,1.17-.67,1.99v9.66h-4.25v-9.87c0-.78-.22-1.39-.66-1.85s-1.03-.69-1.75-.69c-.49,0-.92.12-1.31.37-.39.24-.7.58-.92,1.02-.23.44-.34.95-.34,1.53v9.5h-4.39Z"/>
    <path class="cls-4" d="M1010.52,243.48v-15.82h4.18v2.79h.19c.33-.93.88-1.66,1.65-2.19.77-.54,1.69-.8,2.76-.8s2.01.27,2.77.81,1.27,1.27,1.52,2.19h.17c.32-.91.91-1.63,1.76-2.18s1.85-.82,3.01-.82c1.48,0,2.68.47,3.6,1.41.92.94,1.38,2.26,1.38,3.98v10.64h-4.38v-9.77c0-.88-.23-1.54-.7-1.98-.47-.44-1.05-.66-1.75-.66-.8,0-1.42.25-1.86.76-.45.5-.67,1.17-.67,1.99v9.66h-4.25v-9.87c0-.78-.22-1.39-.66-1.85s-1.02-.69-1.75-.69c-.49,0-.93.12-1.31.37-.39.24-.7.58-.92,1.02-.23.44-.34.95-.34,1.53v9.5h-4.39Z"/>
    <path class="cls-4" d="M1044.17,243.79c-1.63,0-3.03-.33-4.2-.99-1.17-.66-2.07-1.6-2.7-2.82-.63-1.22-.95-2.66-.95-4.33s.31-3.05.95-4.28c.63-1.23,1.52-2.19,2.67-2.87s2.5-1.03,4.05-1.03c1.04,0,2.02.17,2.92.5.9.33,1.69.83,2.37,1.5.68.67,1.2,1.5,1.58,2.51.38,1.01.57,2.18.57,3.53v1.21h-13.36v-2.72h9.23c0-.63-.14-1.19-.41-1.68s-.65-.87-1.14-1.15-1.04-.42-1.68-.42-1.26.15-1.77.46c-.51.31-.91.71-1.2,1.23-.29.51-.44,1.08-.44,1.7v2.58c0,.78.15,1.46.44,2.03.29.57.71,1.01,1.24,1.32.54.31,1.17.46,1.91.46.49,0,.93-.07,1.34-.21.4-.14.75-.34,1.04-.62.29-.27.51-.61.66-1.01l4.06.27c-.21.97-.63,1.82-1.26,2.55-.64.72-1.45,1.29-2.45,1.69-1,.4-2.15.6-3.46.6ZM1045.97,225.77l-2.07-2.51-2.07,2.51h-3.74v-.14l4.17-4.53h3.26l4.18,4.53v.14h-3.74Z"/>
    <path class="cls-4" d="M1067.46,232.17l-4.02.25c-.07-.34-.22-.65-.44-.93s-.52-.5-.89-.67c-.37-.17-.8-.25-1.31-.25-.68,0-1.25.14-1.72.43-.47.28-.7.66-.7,1.14,0,.38.15.7.45.96s.82.47,1.56.63l2.86.58c1.54.32,2.68.82,3.44,1.52.75.7,1.13,1.62,1.13,2.76,0,1.04-.3,1.95-.91,2.73-.61.78-1.44,1.39-2.49,1.83-1.05.44-2.27.65-3.64.65-2.09,0-3.76-.44-5-1.31-1.24-.88-1.96-2.07-2.18-3.58l4.31-.23c.13.64.45,1.12.95,1.46.5.33,1.14.5,1.93.5s1.39-.15,1.86-.45.71-.68.72-1.16c0-.4-.17-.73-.5-.98-.33-.26-.84-.46-1.52-.59l-2.74-.55c-1.54-.31-2.69-.84-3.44-1.61-.75-.76-1.13-1.73-1.13-2.91,0-1.02.28-1.89.83-2.63.55-.73,1.33-1.3,2.34-1.7s2.18-.6,3.54-.6c2,0,3.57.42,4.72,1.27,1.15.84,1.82,2,2.01,3.45Z"/>
    <path class="cls-4" d="M847.76,278.61c-1.43,0-2.68-.34-3.75-1.02s-1.91-1.63-2.51-2.85c-.6-1.22-.9-2.65-.9-4.28s.3-3.09.9-4.31,1.44-2.18,2.51-2.86,2.33-1.02,3.75-1.02,2.68.34,3.75,1.02c1.07.68,1.91,1.63,2.51,2.86.6,1.23.9,2.67.9,4.31s-.3,3.06-.9,4.28c-.6,1.22-1.44,2.17-2.51,2.85-1.08.68-2.33,1.02-3.75,1.02ZM847.76,276.43c1.08,0,1.98-.28,2.68-.83.7-.56,1.22-1.29,1.55-2.19s.5-1.89.5-2.95-.17-2.04-.5-2.96-.86-1.65-1.55-2.21c-.7-.56-1.59-.84-2.68-.84s-1.98.28-2.68.84c-.7.56-1.22,1.3-1.55,2.21-.34.91-.5,1.9-.5,2.96s.17,2.04.5,2.95c.34.91.85,1.64,1.55,2.19.7.56,1.59.83,2.68.83Z"/>
    <path class="cls-4" d="M868.6,271.81v-9.35h2.43v15.82h-2.43v-2.68h-.17c-.37.8-.95,1.49-1.73,2.04-.78.56-1.77.84-2.97.84-.99,0-1.87-.22-2.64-.65-.77-.44-1.37-1.09-1.81-1.98-.44-.88-.66-2-.66-3.34v-10.05h2.43v9.89c0,1.15.32,2.07.97,2.76s1.48,1.03,2.49,1.03c.6,0,1.22-.16,1.85-.46.63-.31,1.16-.78,1.59-1.42.43-.64.64-1.45.64-2.44Z"/>
    <path class="cls-4" d="M882.36,262.46v2.06h-8.2v-2.06h8.2ZM876.55,258.67h2.43v15.08c0,.69.1,1.2.3,1.54.2.34.46.57.78.68.32.11.66.17,1.01.17.27,0,.49-.02.66-.05.17-.03.31-.06.41-.08l.49,2.18c-.17.06-.4.12-.69.19-.3.06-.67.1-1.12.1-.69,0-1.36-.15-2.01-.44-.66-.29-1.2-.74-1.63-1.35-.43-.6-.64-1.37-.64-2.29v-15.74Z"/>
    <path class="cls-4" d="M895.99,271.81v-9.35h2.43v15.82h-2.43v-2.68h-.16c-.37.8-.95,1.49-1.73,2.04-.78.56-1.77.84-2.97.84-.99,0-1.87-.22-2.64-.65-.77-.44-1.37-1.09-1.81-1.98-.44-.88-.66-2-.66-3.34v-10.05h2.43v9.89c0,1.15.32,2.07.97,2.76.65.69,1.48,1.03,2.49,1.03.6,0,1.22-.16,1.85-.46s1.16-.78,1.59-1.42.64-1.45.64-2.44Z"/>
    <path class="cls-4" d="M903.2,278.28v-21.09h2.43v7.79h.21c.18-.27.43-.63.75-1.06.32-.43.78-.81,1.38-1.15.6-.34,1.42-.51,2.45-.51,1.33,0,2.51.33,3.52,1,1.02.67,1.81,1.61,2.38,2.83.57,1.22.86,2.66.86,4.33s-.29,3.13-.86,4.35c-.57,1.23-1.36,2.17-2.37,2.84-1.01.67-2.17,1-3.49,1-1.02,0-1.83-.17-2.44-.51-.61-.34-1.08-.73-1.41-1.16-.33-.44-.58-.8-.76-1.09h-.29v2.43h-2.35ZM905.59,270.37c0,1.19.17,2.25.52,3.16.35.91.86,1.62,1.54,2.13.67.51,1.5.77,2.47.77s1.87-.27,2.55-.81c.68-.54,1.2-1.27,1.54-2.18.35-.92.52-1.94.52-3.06s-.17-2.12-.51-3.01c-.34-.9-.85-1.61-1.53-2.13-.68-.53-1.54-.79-2.57-.79s-1.82.25-2.49.75c-.67.5-1.18,1.19-1.52,2.08-.34.89-.51,1.92-.51,3.1Z"/>
    <path class="cls-4" d="M920.87,278.28v-15.82h2.35v2.39h.17c.29-.78.81-1.42,1.57-1.91.75-.49,1.61-.73,2.55-.73.18,0,.4,0,.67.01s.47.02.61.03v2.47c-.08-.02-.27-.05-.56-.1-.29-.04-.6-.07-.92-.07-.77,0-1.45.16-2.05.48-.6.32-1.07.76-1.42,1.32s-.52,1.2-.52,1.91v10.01h-2.43Z"/>
    <path class="cls-4" d="M937.6,278.61c-1.43,0-2.68-.34-3.75-1.02-1.08-.68-1.91-1.63-2.51-2.85-.6-1.22-.9-2.65-.9-4.28s.3-3.09.9-4.31c.6-1.23,1.44-2.18,2.51-2.86,1.07-.68,2.33-1.02,3.75-1.02s2.68.34,3.75,1.02c1.07.68,1.91,1.63,2.51,2.86s.9,2.67.9,4.31-.3,3.06-.9,4.28c-.6,1.22-1.44,2.17-2.51,2.85-1.08.68-2.33,1.02-3.75,1.02ZM937.6,276.43c1.08,0,1.98-.28,2.68-.83.7-.56,1.22-1.29,1.56-2.19.34-.91.5-1.89.5-2.95s-.17-2.04-.5-2.96c-.34-.91-.86-1.65-1.56-2.21-.7-.56-1.59-.84-2.68-.84s-1.98.28-2.68.84c-.7.56-1.22,1.3-1.56,2.21s-.5,1.9-.5,2.96.17,2.04.5,2.95.85,1.64,1.56,2.19c.7.56,1.59.83,2.68.83Z"/>
    <path class="cls-4" d="M962.6,278.61c-1.32,0-2.48-.33-3.49-1-1.01-.67-1.8-1.62-2.37-2.84-.57-1.23-.86-2.68-.86-4.35s.29-3.1.86-4.33c.57-1.22,1.36-2.17,2.38-2.83,1.02-.67,2.19-1,3.52-1,1.03,0,1.84.17,2.45.51.6.34,1.06.72,1.38,1.15.32.43.57.78.75,1.06h.21v-7.79h2.43v21.09h-2.35v-2.43h-.29c-.18.29-.43.65-.76,1.09-.33.44-.8.82-1.41,1.16-.61.34-1.42.51-2.44.51ZM962.93,276.43c.98,0,1.8-.26,2.47-.77.67-.51,1.18-1.22,1.54-2.13.35-.91.52-1.96.52-3.16s-.17-2.22-.51-3.1c-.34-.89-.85-1.58-1.52-2.08-.67-.5-1.5-.75-2.49-.75s-1.89.26-2.57.79c-.68.52-1.19,1.24-1.53,2.13-.34.9-.51,1.9-.51,3.01s.17,2.15.52,3.06c.35.92.86,1.64,1.54,2.18s1.53.81,2.55.81Z"/>
    <path class="cls-4" d="M981.26,278.61c-1.52,0-2.84-.34-3.94-1.01-1.1-.68-1.95-1.62-2.54-2.84s-.89-2.64-.89-4.26.3-3.05.89-4.29c.59-1.24,1.42-2.21,2.49-2.9,1.07-.7,2.32-1.05,3.74-1.05.82,0,1.64.14,2.44.41.8.27,1.53.72,2.19,1.33s1.18,1.43,1.58,2.44c.39,1.01.59,2.25.59,3.73v1.03h-12.19v-2.1h9.72c0-.89-.18-1.69-.53-2.39s-.85-1.25-1.5-1.66c-.65-.41-1.41-.61-2.29-.61-.97,0-1.8.24-2.51.72-.7.48-1.24,1.1-1.62,1.86-.38.76-.57,1.58-.57,2.45v1.4c0,1.2.21,2.21.62,3.03.42.83.99,1.46,1.73,1.88.74.43,1.6.64,2.59.64.64,0,1.22-.09,1.73-.27.52-.18.97-.46,1.34-.82.38-.37.67-.83.88-1.38l2.35.66c-.25.8-.66,1.5-1.25,2.1-.58.6-1.3,1.07-2.16,1.4s-1.82.5-2.89.5Z"/>
    <path class="cls-4" d="M999.63,278.28v-1.85l6.96-7.62c.82-.89,1.49-1.67,2.02-2.33.53-.66.92-1.29,1.18-1.88s.39-1.2.39-1.85c0-.74-.18-1.38-.53-1.93-.35-.54-.84-.96-1.45-1.26s-1.3-.44-2.06-.44c-.81,0-1.52.17-2.12.5-.6.33-1.06.8-1.39,1.4-.33.6-.49,1.3-.49,2.1h-2.43c0-1.24.28-2.32.85-3.25s1.35-1.66,2.33-2.18,2.09-.78,3.32-.78,2.33.26,3.29.78c.95.52,1.7,1.23,2.24,2.11.54.89.81,1.87.81,2.96,0,.78-.14,1.53-.42,2.27-.28.74-.76,1.56-1.44,2.46-.68.9-1.63,2-2.84,3.3l-4.74,5.07v.17h9.8v2.27h-13.31Z"/>
    <path class="cls-4" d="M1024.06,278.57c-1.55,0-2.87-.42-3.96-1.27s-1.93-2.08-2.5-3.7c-.58-1.62-.87-3.57-.87-5.87s.29-4.23.87-5.84,1.42-2.85,2.51-3.71c1.09-.86,2.41-1.28,3.95-1.28s2.85.43,3.95,1.28c1.1.85,1.93,2.09,2.51,3.71.58,1.62.87,3.56.87,5.84s-.29,4.25-.87,5.87c-.58,1.62-1.41,2.85-2.5,3.7s-2.41,1.27-3.96,1.27ZM1024.06,276.3c1.54,0,2.73-.74,3.58-2.22.85-1.48,1.28-3.6,1.28-6.34,0-1.83-.2-3.38-.58-4.67-.39-1.28-.94-2.26-1.67-2.93-.72-.67-1.6-1.01-2.61-1.01-1.52,0-2.71.75-3.57,2.25-.86,1.5-1.29,3.62-1.29,6.36,0,1.83.19,3.38.58,4.66s.94,2.25,1.66,2.91c.72.67,1.6,1,2.62,1Z"/>
    <path class="cls-4" d="M1035.31,278.28v-1.85l6.96-7.62c.82-.89,1.49-1.67,2.02-2.33.53-.66.92-1.29,1.18-1.88.26-.59.39-1.2.39-1.85,0-.74-.18-1.38-.53-1.93-.35-.54-.84-.96-1.45-1.26-.61-.29-1.3-.44-2.06-.44-.81,0-1.52.17-2.12.5-.6.33-1.06.8-1.39,1.4-.33.6-.49,1.3-.49,2.1h-2.43c0-1.24.29-2.32.86-3.25.57-.93,1.35-1.66,2.33-2.18.98-.52,2.09-.78,3.32-.78s2.33.26,3.29.78c.96.52,1.7,1.23,2.25,2.11.54.89.81,1.87.81,2.96,0,.78-.14,1.53-.42,2.27-.28.74-.76,1.56-1.44,2.46-.68.9-1.63,2-2.84,3.3l-4.74,5.07v.17h9.8v2.27h-13.3Z"/>
    <path class="cls-4" d="M1051.91,273.96v-2.1l9.27-14.67h1.52v3.25h-1.03l-7,11.08v.17h12.48v2.27h-15.24ZM1061.84,278.28v-21.09h2.43v21.09h-2.43Z"/>
  </g>
  <g>
    <g>
      <path class="cls-4" d="M120.2,201c-18.32,0-33.23-14.91-33.23-33.23s14.91-33.23,33.23-33.23,33.23,14.91,33.23,33.23-14.91,33.23-33.23,33.23ZM120.2,141.1c-14.71,0-26.67,11.96-26.67,26.67s11.96,26.67,26.67,26.67,26.67-11.96,26.67-26.67-11.96-26.67-26.67-26.67Z"/>
      <path class="cls-4" d="M103.22,179.54c-4.8,0-9.43-1-13.76-2.98-1.65-.75-2.38-2.7-1.62-4.34.75-1.65,2.7-2.38,4.34-1.62,3.48,1.58,7.19,2.39,11.04,2.39,14.71,0,26.67-11.96,26.67-26.67,0-1.53-.13-3.06-.39-4.55-.31-1.78.89-3.48,2.68-3.79,1.79-.31,3.48.89,3.79,2.68.32,1.86.48,3.76.48,5.66,0,18.32-14.91,33.23-33.23,33.23Z"/>
      <path class="cls-4" d="M148.62,179.54c-9.68,0-18.86-4.21-25.19-11.55-1.18-1.37-1.03-3.44.34-4.62,1.37-1.18,3.44-1.03,4.62.35,5.08,5.89,12.45,9.28,20.22,9.28,1.81,0,3.28,1.47,3.28,3.28s-1.47,3.28-3.28,3.28Z"/>
    </g>
    <path class="cls-4" d="M78.49,281.76c-1.81,0-3.28-1.47-3.28-3.28v-51.58c0-11.31,9.2-20.51,20.51-20.51h48.97c1.81,0,3.28,1.47,3.28,3.28s-1.47,3.28-3.28,3.28h-48.97c-7.69,0-13.95,6.26-13.95,13.95v51.58c0,1.81-1.47,3.28-3.28,3.28Z"/>
    <path class="cls-4" d="M95.42,281.76c-1.81,0-3.28-1.47-3.28-3.28v-30.55c0-1.81,1.47-3.28,3.28-3.28s3.28,1.47,3.28,3.28v30.55c0,1.81-1.47,3.28-3.28,3.28Z"/>
    <path class="cls-4" d="M144.98,281.76c-1.81,0-3.28-1.47-3.28-3.28v-45.71c0-1.81,1.47-3.28,3.28-3.28h3.3c24.71,0,44.81-20.1,44.81-44.81v-46.86c0-1.81,1.47-3.28,3.28-3.28s3.28,1.47,3.28,3.28v46.86c0,28.33-23.04,51.37-51.37,51.37h-.02v42.43c0,1.81-1.47,3.28-3.28,3.28Z"/>
    <path class="cls-4" d="M151.84,212.95h-27.71c-1.81,0-3.28-1.47-3.28-3.28s1.47-3.28,3.28-3.28h27.71c13,0,23.58-10.58,23.58-23.58v-44.98c0-1.81,1.47-3.28,3.28-3.28s3.28,1.47,3.28,3.28v44.98c0,16.62-13.52,30.14-30.14,30.14Z"/>
    <path class="cls-4" d="M200.79,135.87c-1.15,0-2.27-.61-2.87-1.69-.88-1.58-.31-3.58,1.28-4.46,7.39-4.1,11.98-11.88,11.98-20.32v-1.49c0-12.8-10.42-23.22-23.22-23.22s-23.22,10.42-23.22,23.22v1.49c0,7.72,3.82,14.92,10.23,19.25,1.5,1.01,1.89,3.05.88,4.55-1.01,1.5-3.05,1.9-4.55.88-8.21-5.55-13.12-14.78-13.12-24.68v-1.49c0-16.42,13.36-29.78,29.78-29.78s29.78,13.36,29.78,29.78v1.49c0,10.82-5.88,20.81-15.36,26.06-.5.28-1.05.41-1.59.41Z"/>
    <path class="cls-4" d="M200.79,139.17h-27.97c-1.81,0-3.28-1.47-3.28-3.28v-1.58c0-9.52,7.75-17.26,17.27-17.26s17.26,7.75,17.26,17.26v1.58c0,1.81-1.47,3.28-3.28,3.28ZM176.23,132.61h21.14c-.82-5.1-5.25-9-10.57-9s-9.75,3.91-10.57,9Z"/>
    <path class="cls-4" d="M187.96,84.69c-1.81,0-3.28-1.47-3.28-3.28v-28.6c0-1.81,1.47-3.28,3.28-3.28s3.28,1.47,3.28,3.28v28.6c0,1.81-1.47,3.28-3.28,3.28Z"/>
  </g>
  <g>
    <g>
      <path class="cls-4" d="M193.63,303.98c-18.32,0-33.23-14.91-33.23-33.23s14.91-33.23,33.23-33.23,33.23,14.91,33.23,33.23-14.91,33.23-33.23,33.23ZM193.63,244.08c-14.71,0-26.67,11.96-26.67,26.67s11.96,26.67,26.67,26.67,26.67-11.96,26.67-26.67-11.96-26.67-26.67-26.67Z"/>
      <path class="cls-4" d="M176.65,282.51c-4.8,0-9.43-1-13.76-2.98-1.65-.75-2.38-2.7-1.62-4.34.75-1.65,2.7-2.38,4.34-1.62,3.47,1.58,7.19,2.39,11.04,2.39,14.71,0,26.67-11.96,26.67-26.67,0-1.53-.13-3.06-.39-4.55-.31-1.79.89-3.48,2.68-3.79,1.78-.31,3.48.89,3.79,2.68.32,1.86.48,3.76.48,5.66,0,18.32-14.91,33.23-33.23,33.23Z"/>
      <path class="cls-4" d="M222.05,282.51c-9.68,0-18.86-4.21-25.19-11.55-1.18-1.37-1.03-3.44.34-4.62,1.37-1.18,3.44-1.03,4.62.35,5.08,5.89,12.45,9.28,20.22,9.28,1.81,0,3.28,1.47,3.28,3.28s-1.47,3.28-3.28,3.28Z"/>
    </g>
    <path class="cls-4" d="M151.92,384.74c-1.81,0-3.28-1.47-3.28-3.28v-51.58c0-11.31,9.2-20.51,20.51-20.51h48.97c1.81,0,3.28,1.47,3.28,3.28s-1.47,3.28-3.28,3.28h-48.97c-7.69,0-13.95,6.26-13.95,13.95v51.58c0,1.81-1.47,3.28-3.28,3.28Z"/>
    <path class="cls-4" d="M168.85,384.74c-1.81,0-3.28-1.47-3.28-3.28v-30.55c0-1.81,1.47-3.28,3.28-3.28s3.28,1.47,3.28,3.28v30.55c0,1.81-1.47,3.28-3.28,3.28Z"/>
    <path class="cls-4" d="M218.41,384.74c-1.81,0-3.28-1.47-3.28-3.28v-45.71c0-1.81,1.47-3.28,3.28-3.28h3.3c24.71,0,44.81-20.1,44.81-44.81v-46.86c0-1.81,1.47-3.28,3.28-3.28s3.28,1.47,3.28,3.28v46.86c0,28.33-23.04,51.37-51.37,51.37h-.02v42.43c0,1.81-1.47,3.28-3.28,3.28Z"/>
    <path class="cls-4" d="M225.27,315.92h-27.71c-1.81,0-3.28-1.47-3.28-3.28s1.47-3.28,3.28-3.28h27.71c13,0,23.58-10.58,23.58-23.58v-44.98c0-1.81,1.47-3.28,3.28-3.28s3.28,1.47,3.28,3.28v44.98c0,16.62-13.52,30.14-30.14,30.14Z"/>
    <path class="cls-4" d="M274.22,238.84c-1.15,0-2.27-.61-2.87-1.69-.88-1.58-.31-3.58,1.28-4.46,7.39-4.1,11.98-11.88,11.98-20.32v-1.49c0-12.8-10.42-23.22-23.22-23.22s-23.22,10.42-23.22,23.22v1.49c0,7.72,3.82,14.92,10.23,19.25,1.5,1.02,1.89,3.05.88,4.55-1.01,1.5-3.05,1.89-4.55.88-8.21-5.55-13.11-14.78-13.11-24.68v-1.49c0-16.42,13.36-29.78,29.78-29.78s29.78,13.36,29.78,29.78v1.49c0,10.82-5.88,20.81-15.36,26.06-.5.28-1.05.41-1.59.41Z"/>
    <path class="cls-4" d="M274.22,242.15h-27.97c-1.81,0-3.28-1.47-3.28-3.28v-1.58c0-9.52,7.74-17.26,17.26-17.26s17.27,7.75,17.27,17.26v1.58c0,1.81-1.47,3.28-3.28,3.28ZM249.66,235.59h21.14c-.82-5.1-5.25-9-10.57-9s-9.75,3.91-10.57,9Z"/>
    <path class="cls-4" d="M261.39,187.66c-1.81,0-3.28-1.47-3.28-3.28v-28.6c0-1.81,1.47-3.28,3.28-3.28s3.28,1.47,3.28,3.28v28.6c0,1.81-1.47,3.28-3.28,3.28Z"/>
  </g>
  <g>
    <path class="cls-2" d="M52.11,420.8c-.2.04-.4.09-.6.14.2-.05.4-.09.6-.14Z"/>
    <path class="cls-2" d="M62.02,419.3c-.16.01-.33.03-.49.05.16-.02.33-.04.49-.05Z"/>
    <path class="cls-2" d="M58.99,419.64c-.3.04-.61.08-.91.12.3-.04.61-.08.91-.12Z"/>
    <path class="cls-2" d="M1116.93,325.29c-.23.03-.46.07-.69.11.23-.04.46-.08.69-.11Z"/>
    <path class="cls-2" d="M1099.34,329.58c-.25.08-.49.16-.74.24.24-.08.49-.16.74-.24Z"/>
    <path class="cls-2" d="M55.78,420.11c-.25.04-.49.08-.74.12.24-.04.49-.08.74-.12Z"/>
    <path class="cls-2" d="M1109.07,326.81c-.29.07-.58.14-.86.21.29-.07.58-.14.86-.21Z"/>
    <path class="cls-2" d="M1114.96,325.6c-.26.05-.53.1-.79.14.26-.05.53-.1.79-.14Z"/>
    <path class="cls-2" d="M65.84,419.05c-.27.01-.54.02-.81.04.27-.02.54-.02.81-.04Z"/>
    <path class="cls-2" d="M78.98,419.38c-.29-.03-.58-.05-.86-.08.29.03.58.05.86.08Z"/>
    <path class="cls-2" d="M1105.17,327.82c-.28.08-.56.16-.84.24.28-.08.56-.16.84-.24Z"/>
    <path class="cls-2" d="M75.88,419.13c-.28-.02-.56-.04-.84-.05.28.02.56.04.84.05Z"/>
    <path class="cls-2" d="M1112.99,325.97c-.28.05-.56.11-.83.17.28-.06.55-.11.83-.17Z"/>
    <path class="cls-2" d="M1097.33,330.26c-.2.07-.4.14-.6.21.2-.07.4-.14.6-.21Z"/>
    <path class="cls-2" d="M72.05,418.96c-.1,0-.2,0-.3,0,.1,0,.2,0,.3,0Z"/>
    <path class="cls-2" d="M1111.03,326.37c-.28.06-.57.13-.85.19.28-.06.57-.13.85-.19Z"/>
    <path class="cls-2" d="M1123.61,324.57c-.26.02-.51.03-.77.05.26-.02.51-.03.77-.05Z"/>
    <path class="cls-2" d="M33.87,427.52c-.22.12-.43.25-.64.37.21-.12.43-.25.64-.37Z"/>
    <path class="cls-2" d="M36.87,425.96c-.16.08-.32.15-.48.23.16-.08.32-.15.48-.23Z"/>
    <path class="cls-2" d="M1103.22,328.37c-.27.08-.55.16-.82.24.27-.08.55-.16.82-.24Z"/>
    <path class="cls-2" d="M68.12,418.97c.3,0,.61-.01.91-.02-.3,0-.61.01-.91.02Z"/>
    <path class="cls-2" d="M1107.11,327.3c-.29.07-.57.15-.85.22.28-.08.57-.15.85-.22Z"/>
    <path class="cls-2" d="M1125.63,324.47c-.27,0-.55.02-.82.03.27-.01.55-.02.82-.03Z"/>
    <path class="cls-2" d="M49.18,421.5c-.29.08-.59.15-.88.23.29-.08.59-.16.88-.23Z"/>
    <path class="cls-2" d="M46.03,422.38c-.21.06-.42.12-.63.19.21-.07.42-.12.63-.19Z"/>
    <path class="cls-2" d="M39.87,424.61c-.27.11-.55.23-.82.35.27-.12.54-.23.82-.35Z"/>
    <path class="cls-2" d="M1101.29,328.96c-.27.08-.53.17-.8.25.27-.08.53-.17.8-.25Z"/>
    <path class="cls-2" d="M1118.91,325.01c-.07,0-.14.02-.2.03.07,0,.14-.02.2-.03Z"/>
    <path class="cls-2" d="M42.63,423.52c-.22.08-.44.17-.65.25.22-.08.43-.17.65-.25Z"/>
    <path class="cls-2" d="M1121.52,324.73c-.22.02-.43.04-.65.06.22-.02.43-.04.65-.06Z"/>
    <g class="cls-5">
      <path class="cls-1" d="M1106.26,327.52c-.36.1-.73.2-1.09.3.36-.1.73-.2,1.09-.3Z"/>
    </g>
    <path class="cls-2" d="M1106.26,327.52c-.36.1-.73.2-1.09.3.36-.1.73-.2,1.09-.3Z"/>
    <g class="cls-5">
      <path class="cls-1" d="M1108.21,327.02c-.36.09-.73.18-1.09.27.36-.09.73-.18,1.09-.27Z"/>
    </g>
    <path class="cls-2" d="M1108.21,327.02c-.36.09-.73.18-1.09.27.36-.09.73-.18,1.09-.27Z"/>
    <g class="cls-5">
      <path class="cls-1" d="M1110.17,326.56c-.37.08-.74.17-1.1.25.37-.09.73-.17,1.1-.25Z"/>
    </g>
    <path class="cls-2" d="M1110.17,326.56c-.37.08-.74.17-1.1.25.37-.09.73-.17,1.1-.25Z"/>
    <g class="cls-5">
      <path class="cls-1" d="M1122.84,324.62c-.44.03-.88.07-1.32.11.44-.04.88-.08,1.32-.11Z"/>
    </g>
    <path class="cls-2" d="M1122.84,324.62c-.44.03-.88.07-1.32.11.44-.04.88-.08,1.32-.11Z"/>
    <g class="cls-5">
      <path class="cls-1" d="M1112.16,326.13c-.38.08-.76.15-1.13.24.38-.08.76-.16,1.13-.24Z"/>
    </g>
    <path class="cls-2" d="M1112.16,326.13c-.38.08-.76.15-1.13.24.38-.08.76-.16,1.13-.24Z"/>
    <g class="cls-5">
      <path class="cls-1" d="M1120.87,324.79c-.65.07-1.31.14-1.97.22.66-.08,1.31-.16,1.97-.22Z"/>
    </g>
    <path class="cls-2" d="M1120.87,324.79c-.65.07-1.31.14-1.97.22.66-.08,1.31-.16,1.97-.22Z"/>
    <g class="cls-5">
      <path class="cls-1" d="M1126.77,324.44c-.38,0-.76.02-1.14.03.38-.01.76-.03,1.14-.03Z"/>
    </g>
    <path class="cls-2" d="M1126.77,324.44c-.38,0-.76.02-1.14.03.38-.01.76-.03,1.14-.03Z"/>
    <g class="cls-5">
      <path class="cls-1" d="M1124.81,324.5c-.4.02-.8.04-1.2.07.4-.03.8-.05,1.2-.07Z"/>
    </g>
    <path class="cls-2" d="M1124.81,324.5c-.4.02-.8.04-1.2.07.4-.03.8-.05,1.2-.07Z"/>
    <g class="cls-5">
      <path class="cls-1" d="M1114.17,325.75c-.39.07-.78.14-1.18.22.39-.08.78-.15,1.18-.22Z"/>
    </g>
    <path class="cls-2" d="M1114.17,325.75c-.39.07-.78.14-1.18.22.39-.08.78-.15,1.18-.22Z"/>
    <g class="cls-5">
      <path class="cls-1" d="M1116.24,325.4c-.43.07-.85.13-1.28.21.43-.07.85-.14,1.28-.21Z"/>
    </g>
    <path class="cls-2" d="M1116.24,325.4c-.43.07-.85.13-1.28.21.43-.07.85-.14,1.28-.21Z"/>
    <g class="cls-5">
      <path class="cls-1" d="M1118.7,325.04c-.59.08-1.18.16-1.77.24.59-.09,1.18-.17,1.77-.24Z"/>
    </g>
    <path class="cls-2" d="M1118.7,325.04c-.59.08-1.18.16-1.77.24.59-.09,1.18-.17,1.77-.24Z"/>
    <g class="cls-5">
      <path class="cls-1" d="M1096.73,330.47c-.62.22-1.24.44-1.85.67.61-.23,1.23-.45,1.85-.67Z"/>
    </g>
    <path class="cls-2" d="M1096.73,330.47c-.62.22-1.24.44-1.85.67.61-.23,1.23-.45,1.85-.67Z"/>
    <g class="cls-5">
      <path class="cls-1" d="M41.98,423.77c-.71.27-1.41.55-2.11.84.7-.29,1.4-.57,2.11-.84Z"/>
    </g>
    <path class="cls-2" d="M41.98,423.77c-.71.27-1.41.55-2.11.84.7-.29,1.4-.57,2.11-.84Z"/>
    <g class="cls-5">
      <path class="cls-1" d="M45.41,422.57c-.93.3-1.86.61-2.77.94.91-.33,1.84-.65,2.77-.94Z"/>
    </g>
    <path class="cls-2" d="M45.41,422.57c-.93.3-1.86.61-2.77.94.91-.33,1.84-.65,2.77-.94Z"/>
    <g class="cls-5">
      <path class="cls-1" d="M48.3,421.73c-.76.21-1.51.42-2.26.65.75-.23,1.5-.45,2.26-.65Z"/>
    </g>
    <path class="cls-2" d="M48.3,421.73c-.76.21-1.51.42-2.26.65.75-.23,1.5-.45,2.26-.65Z"/>
    <g class="cls-5">
      <path class="cls-1" d="M51.51,420.94c-.78.17-1.56.36-2.34.56.77-.2,1.55-.39,2.34-.56Z"/>
    </g>
    <path class="cls-2" d="M51.51,420.94c-.78.17-1.56.36-2.34.56.77-.2,1.55-.39,2.34-.56Z"/>
    <g class="cls-5">
      <path class="cls-1" d="M39.05,424.95c-.74.32-1.46.65-2.18,1,.72-.35,1.44-.68,2.18-1Z"/>
    </g>
    <path class="cls-2" d="M39.05,424.95c-.74.32-1.46.65-2.18,1,.72-.35,1.44-.68,2.18-1Z"/>
    <g class="cls-5">
      <path class="cls-1" d="M55.05,420.23c-.98.17-1.96.36-2.93.57.97-.21,1.95-.4,2.93-.57Z"/>
    </g>
    <path class="cls-2" d="M55.05,420.23c-.98.17-1.96.36-2.93.57.97-.21,1.95-.4,2.93-.57Z"/>
    <g class="cls-5">
      <path class="cls-1" d="M101.55,602.25h961.2c44.24,0,80.1-35.86,80.1-80.1v-195.79c-5.17-1.46-10.59-2.03-16.08-1.93-.38,0-.76.02-1.14.03-.27,0-.55.02-.82.03-.4.02-.8.04-1.2.07-.26.02-.51.03-.77.05-.44.03-.88.07-1.32.11-.22.02-.43.04-.65.06-.65.07-1.31.14-1.97.22-.07,0-.14.02-.2.03-.59.08-1.18.16-1.77.24-.23.03-.46.07-.69.11-.43.07-.85.13-1.28.21-.26.05-.53.1-.79.14-.39.07-.78.14-1.18.22-.28.05-.56.11-.83.17-.38.08-.76.15-1.13.24-.28.06-.57.13-.85.19-.37.08-.74.17-1.1.25-.29.07-.58.14-.86.21-.36.09-.73.18-1.09.27-.29.07-.57.15-.85.22-.36.1-.73.2-1.09.3-.28.08-.56.16-.84.24-.37.1-.73.21-1.1.32-.27.08-.55.16-.82.24-.37.11-.74.23-1.11.34-.27.08-.53.17-.8.25-.39.12-.77.25-1.15.38-.25.08-.49.16-.74.24-.43.14-.85.29-1.27.44-.2.07-.4.14-.6.21-.62.22-1.24.44-1.85.67-18.84,6.95-36.97,16.97-56.94,18.99-35.97,3.63-69.91-19.25-106.07-19.55-35.15-.29-66.5,20.45-99.72,31.93-42.42,14.67-89.97,14.01-131.97-1.82-27.5-10.36-53.22-27.12-82.44-30.18-73.95-7.75-131.96,72.71-206.27,75.35-28.27,1.01-55.87-9.6-84.16-9.74-58.51-.29-111.27,43.74-169.65,39.8-25.8-1.74-50.11-12.84-75.75-16.22-.97-.13-1.95-.24-2.93-.33-.29-.03-.58-.05-.86-.08-.74-.07-1.49-.12-2.24-.17-.28-.02-.56-.04-.84-.05-.99-.05-1.99-.1-2.99-.12-.1,0-.2,0-.3,0-.9-.02-1.81-.02-2.72,0-.3,0-.61.01-.91.02-.76.02-1.52.04-2.29.08-.27.01-.54.02-.81.04-1,.06-2.01.13-3.01.22-.16.01-.33.03-.49.05-.85.08-1.69.18-2.53.28-.3.04-.61.08-.91.12-.77.11-1.54.22-2.3.35-.25.04-.49.08-.74.12-.98.17-1.96.36-2.93.57-.2.04-.4.09-.6.14-.78.17-1.56.36-2.34.56-.29.08-.59.15-.88.23-.76.21-1.51.42-2.26.65-.21.06-.42.12-.63.19-.93.3-1.86.61-2.77.94-.22.08-.44.17-.65.25-.71.27-1.41.55-2.11.84-.27.11-.55.23-.82.35-.74.32-1.46.65-2.18,1-.16.08-.32.15-.48.23-.86.43-1.7.87-2.53,1.34-.22.12-.43.25-.64.37-.63.36-1.25.74-1.86,1.13-3.7,2.36-7.06,5.14-9.91,8.41v84.72c0,44.24,35.86,80.1,80.1,80.1Z"/>
    </g>
    <path class="cls-2" d="M101.55,602.25h961.2c44.24,0,80.1-35.86,80.1-80.1v-195.79c-5.17-1.46-10.59-2.03-16.08-1.93-.38,0-.76.02-1.14.03-.27,0-.55.02-.82.03-.4.02-.8.04-1.2.07-.26.02-.51.03-.77.05-.44.03-.88.07-1.32.11-.22.02-.43.04-.65.06-.65.07-1.31.14-1.97.22-.07,0-.14.02-.2.03-.59.08-1.18.16-1.77.24-.23.03-.46.07-.69.11-.43.07-.85.13-1.28.21-.26.05-.53.1-.79.14-.39.07-.78.14-1.18.22-.28.05-.56.11-.83.17-.38.08-.76.15-1.13.24-.28.06-.57.13-.85.19-.37.08-.74.17-1.1.25-.29.07-.58.14-.86.21-.36.09-.73.18-1.09.27-.29.07-.57.15-.85.22-.36.1-.73.2-1.09.3-.28.08-.56.16-.84.24-.37.1-.73.21-1.1.32-.27.08-.55.16-.82.24-.37.11-.74.23-1.11.34-.27.08-.53.17-.8.25-.39.12-.77.25-1.15.38-.25.08-.49.16-.74.24-.43.14-.85.29-1.27.44-.2.07-.4.14-.6.21-.62.22-1.24.44-1.85.67-18.84,6.95-36.97,16.97-56.94,18.99-35.97,3.63-69.91-19.25-106.07-19.55-35.15-.29-66.5,20.45-99.72,31.93-42.42,14.67-89.97,14.01-131.97-1.82-27.5-10.36-53.22-27.12-82.44-30.18-73.95-7.75-131.96,72.71-206.27,75.35-28.27,1.01-55.87-9.6-84.16-9.74-58.51-.29-111.27,43.74-169.65,39.8-25.8-1.74-50.11-12.84-75.75-16.22-.97-.13-1.95-.24-2.93-.33-.29-.03-.58-.05-.86-.08-.74-.07-1.49-.12-2.24-.17-.28-.02-.56-.04-.84-.05-.99-.05-1.99-.1-2.99-.12-.1,0-.2,0-.3,0-.9-.02-1.81-.02-2.72,0-.3,0-.61.01-.91.02-.76.02-1.52.04-2.29.08-.27.01-.54.02-.81.04-1,.06-2.01.13-3.01.22-.16.01-.33.03-.49.05-.85.08-1.69.18-2.53.28-.3.04-.61.08-.91.12-.77.11-1.54.22-2.3.35-.25.04-.49.08-.74.12-.98.17-1.96.36-2.93.57-.2.04-.4.09-.6.14-.78.17-1.56.36-2.34.56-.29.08-.59.15-.88.23-.76.21-1.51.42-2.26.65-.21.06-.42.12-.63.19-.93.3-1.86.61-2.77.94-.22.08-.44.17-.65.25-.71.27-1.41.55-2.11.84-.27.11-.55.23-.82.35-.74.32-1.46.65-2.18,1-.16.08-.32.15-.48.23-.86.43-1.7.87-2.53,1.34-.22.12-.43.25-.64.37-.63.36-1.25.74-1.86,1.13-3.7,2.36-7.06,5.14-9.91,8.41v84.72c0,44.24,35.86,80.1,80.1,80.1Z"/>
    <g class="cls-5">
      <path class="cls-1" d="M1104.32,328.05c-.37.1-.73.21-1.1.32.37-.11.73-.21,1.1-.32Z"/>
    </g>
    <path class="cls-2" d="M1104.32,328.05c-.37.1-.73.21-1.1.32.37-.11.73-.21,1.1-.32Z"/>
    <g class="cls-5">
      <path class="cls-1" d="M36.39,426.18c-.86.43-1.7.87-2.53,1.34.83-.46,1.67-.91,2.53-1.34Z"/>
    </g>
    <path class="cls-2" d="M36.39,426.18c-.86.43-1.7.87-2.53,1.34.83-.46,1.67-.91,2.53-1.34Z"/>
    <g class="cls-5">
      <path class="cls-1" d="M33.22,427.89c-.63.36-1.25.74-1.86,1.13.61-.39,1.23-.76,1.86-1.13Z"/>
    </g>
    <path class="cls-2" d="M33.22,427.89c-.63.36-1.25.74-1.86,1.13.61-.39,1.23-.76,1.86-1.13Z"/>
    <g class="cls-5">
      <path class="cls-1" d="M69.03,418.95c.91-.01,1.81,0,2.72,0-.9-.02-1.81-.02-2.72,0Z"/>
    </g>
    <path class="cls-2" d="M69.03,418.95c.91-.01,1.81,0,2.72,0-.9-.02-1.81-.02-2.72,0Z"/>
    <g class="cls-5">
      <path class="cls-1" d="M1098.6,329.83c-.43.14-.85.29-1.27.44.42-.15.85-.29,1.27-.44Z"/>
    </g>
    <path class="cls-2" d="M1098.6,329.83c-.43.14-.85.29-1.27.44.42-.15.85-.29,1.27-.44Z"/>
    <g class="cls-5">
      <path class="cls-1" d="M81.91,419.71c-.97-.13-1.95-.24-2.93-.33.98.1,1.96.2,2.93.33Z"/>
    </g>
    <path class="cls-2" d="M81.91,419.71c-.97-.13-1.95-.24-2.93-.33.98.1,1.96.2,2.93.33Z"/>
    <g class="cls-5">
      <path class="cls-1" d="M78.12,419.3c-.74-.07-1.49-.12-2.24-.17.75.05,1.49.1,2.24.17Z"/>
    </g>
    <path class="cls-2" d="M78.12,419.3c-.74-.07-1.49-.12-2.24-.17.75.05,1.49.1,2.24.17Z"/>
    <g class="cls-5">
      <path class="cls-1" d="M1100.49,329.21c-.39.12-.77.25-1.15.38.38-.13.77-.25,1.15-.38Z"/>
    </g>
    <path class="cls-2" d="M1100.49,329.21c-.39.12-.77.25-1.15.38.38-.13.77-.25,1.15-.38Z"/>
    <g class="cls-5">
      <path class="cls-1" d="M1102.4,328.61c-.37.11-.74.23-1.11.34.37-.12.74-.23,1.11-.34Z"/>
    </g>
    <path class="cls-2" d="M1102.4,328.61c-.37.11-.74.23-1.11.34.37-.12.74-.23,1.11-.34Z"/>
    <g class="cls-5">
      <path class="cls-1" d="M75.04,419.08c-.99-.05-1.99-.1-2.99-.12,1,.02,2,.06,2.99.12Z"/>
    </g>
    <path class="cls-2" d="M75.04,419.08c-.99-.05-1.99-.1-2.99-.12,1,.02,2,.06,2.99.12Z"/>
    <g class="cls-5">
      <path class="cls-1" d="M65.02,419.08c-1,.06-2.01.13-3.01.22,1-.09,2-.16,3.01-.22Z"/>
    </g>
    <path class="cls-2" d="M65.02,419.08c-1,.06-2.01.13-3.01.22,1-.09,2-.16,3.01-.22Z"/>
    <g class="cls-5">
      <path class="cls-1" d="M61.53,419.35c-.85.08-1.69.18-2.53.28.84-.11,1.69-.2,2.53-.28Z"/>
    </g>
    <path class="cls-2" d="M61.53,419.35c-.85.08-1.69.18-2.53.28.84-.11,1.69-.2,2.53-.28Z"/>
    <g class="cls-5">
      <path class="cls-1" d="M58.09,419.76c-.77.11-1.54.22-2.3.35.76-.13,1.53-.24,2.3-.35Z"/>
    </g>
    <path class="cls-2" d="M58.09,419.76c-.77.11-1.54.22-2.3.35.76-.13,1.53-.24,2.3-.35Z"/>
    <g class="cls-5">
      <path class="cls-1" d="M68.12,418.97c-.76.02-1.52.04-2.29.08.76-.04,1.52-.06,2.29-.08Z"/>
    </g>
    <path class="cls-2" d="M68.12,418.97c-.76.02-1.52.04-2.29.08.76-.04,1.52-.06,2.29-.08Z"/>
  </g>
  <path class="cls-3" d="M1127.06,324.43c-10.83.16-21.98,2.95-32.18,6.71-18.84,6.95-36.97,16.97-56.94,18.99-35.97,3.63-69.91-19.25-106.07-19.55-35.15-.29-66.5,20.45-99.72,31.93-42.42,14.67-89.97,14.01-131.97-1.82-27.5-10.36-53.22-27.12-82.44-30.18-73.95-7.75-131.96,72.71-206.27,75.35-28.27,1.01-55.87-9.6-84.16-9.74-58.51-.29-111.27,43.74-169.65,39.8-25.8-1.74-50.11-12.84-75.75-16.22-17.29-2.28-36.81.37-50.97,9.56"/>
</svg>