<svg width="24" height="24" viewBox="0 0 24 24" fill="none" xmlns="http://www.w3.org/2000/svg">
<g clip-path="url(#clip0_257_8776)">
<path d="M12.0038 24.0075C18.6332 24.0075 24.0075 18.6332 24.0075 12.0038C24.0075 5.37427 18.6332 0 12.0038 0C5.37427 0 0 5.37427 0 12.0038C0 18.6332 5.37427 24.0075 12.0038 24.0075Z" fill="#FFDD00"/>
<path d="M19.5202 6.36642V6.01315C19.5202 5.51707 19.3173 5.04353 18.9715 4.69026L17.7163 3.43501C17.2427 2.96148 16.4836 2.96148 16.01 3.43501L13.8904 5.54713C13.2966 5.35171 12.6577 5.23896 11.9962 5.23896C11.3348 5.23896 10.7034 5.35171 10.1096 5.54713L7.98998 3.43501C7.51644 2.96148 6.74976 2.96148 6.28374 3.43501L5.0285 4.69026C4.67522 5.04353 4.4798 5.51707 4.4798 6.01315V6.36642C4.4798 7.92984 5.0285 9.44817 6.01315 10.6583C5.99812 10.8537 5.98309 11.0417 5.98309 11.2446V19.8133C5.98309 20.4823 6.52427 21.016 7.18572 21.016H16.7992C17.4682 21.016 18.0019 20.4748 18.0019 19.8133V11.2446C18.0019 11.0492 17.9944 10.8537 17.9718 10.6658C18.9565 9.45568 19.5127 7.92984 19.5127 6.36642H19.5202ZM17.7914 9.65111C17.611 8.98966 17.3179 8.37331 16.9345 7.8171L18.7686 5.98309V6.35891C18.7686 7.52396 18.4228 8.66646 17.7914 9.64359V9.65111ZM6.20858 9.65111C5.58471 8.67397 5.23896 7.53899 5.23896 6.37394V5.99812L7.06545 7.82461C6.68211 8.37331 6.38897 8.98966 6.20858 9.65111Z" fill="black"/>
<path d="M15.747 14.2587C15.747 14.2587 15.762 14.2963 15.762 14.3263V18.7009C15.762 18.7009 15.762 18.7535 15.747 18.7686H8.25307C8.25307 18.7686 8.23803 18.731 8.23803 18.7009V14.3263C8.23803 14.3263 8.23803 14.2737 8.25307 14.2587H15.747ZM15.7921 13.507H8.20045C7.80208 13.507 7.48639 13.8754 7.48639 14.3263V18.7009C7.48639 19.1519 7.8096 19.5202 8.20045 19.5202H15.7921C16.1904 19.5202 16.5061 19.1519 16.5061 18.7009V14.3263C16.5061 13.8754 16.1829 13.507 15.7921 13.507Z" fill="#FFDD00"/>
<path d="M9.74884 15.762H10.5005V16.8894C10.5005 17.0999 10.3351 17.2653 10.1247 17.2653C9.9142 17.2653 9.74884 17.0999 9.74884 16.8894V15.762Z" fill="#FFDD00"/>
<path d="M16.5136 15.762H7.4939V16.5136H16.5136V15.762Z" fill="#FFDD00"/>
<path fill-rule="evenodd" clip-rule="evenodd" d="M12.0038 7.99389C10.2054 7.99389 8.74554 9.45372 8.74554 11.2521V11.6279C8.74554 11.9041 8.52169 12.1279 8.24554 12.1279C7.9694 12.1279 7.74554 11.9041 7.74554 11.6279V11.2521C7.74554 8.90143 9.65309 6.99389 12.0038 6.99389C14.3544 6.99389 16.262 8.90143 16.262 11.2521V11.6279C16.262 11.9041 16.0381 12.1279 15.762 12.1279C15.4858 12.1279 15.262 11.9041 15.262 11.6279V11.2521C15.262 9.45372 13.8022 7.99389 12.0038 7.99389Z" fill="#FFDD00"/>
</g>
<defs>
<clipPath id="clip0_257_8776">
<rect width="24" height="24" fill="white"/>
</clipPath>
</defs>
</svg>
