<svg width="24" height="24" viewBox="0 0 24 24" fill="none" xmlns="http://www.w3.org/2000/svg">
<g clip-path="url(#clip0_1161_10166)">
<path d="M12 24C5.3775 24 0 18.6375 0 12C0 5.3775 5.3775 0 12 0C18.6375 0 24 5.3775 24 12C24 18.6375 18.6375 24 12 24Z" fill="black"/>
<path d="M12 3.6075C7.36498 3.6075 3.60748 7.3725 3.60748 12C3.60748 16.6275 7.37248 20.3925 12 20.3925C16.6275 20.3925 20.3925 16.6275 20.3925 12C20.3925 7.3725 16.6275 3.6075 12 3.6075ZM12 18.4875C8.40748 18.4875 5.51248 15.5775 5.51248 12C5.51248 8.4225 8.42248 5.5125 12 5.5125C15.5775 5.5125 18.4875 8.4225 18.4875 12C18.4875 15.5775 15.5925 18.4875 12 18.4875Z" fill="#FFDD00"/>
<path d="M16.635 7.38C16.29 7.035 16.29 6.4575 16.635 6.1125C16.98 5.7675 17.5575 5.7675 17.9025 6.1125C18.2475 6.4575 18.2475 7.035 17.9025 7.38C17.5575 7.725 16.98 7.725 16.635 7.38Z" fill="black"/>
<path d="M7.36499 17.9025C7.01999 18.2475 6.4425 18.2475 6.0975 17.9025C5.7525 17.5575 5.7525 16.98 6.0975 16.635C6.4425 16.29 7.01999 16.29 7.36499 16.635C7.70999 16.98 7.70999 17.5575 7.36499 17.9025Z" fill="black"/>
</g>
<defs>
<clipPath id="clip0_1161_10166">
<rect width="24" height="24" fill="white"/>
</clipPath>
</defs>
</svg>
