<svg width="24" height="24" viewBox="0 0 24 24" fill="none" xmlns="http://www.w3.org/2000/svg">
<g clip-path="url(#clip0_87_141)">
<path d="M12.0038 24.0075C18.6332 24.0075 24.0075 18.6332 24.0075 12.0038C24.0075 5.37427 18.6332 0 12.0038 0C5.37427 0 0 5.37427 0 12.0038C0 18.6332 5.37427 24.0075 12.0038 24.0075Z" fill="#FFDD00"/>
<path d="M4.4873 16.5136C4.0739 16.5136 3.73566 16.1754 3.73566 15.762V8.99718C3.73566 8.58378 4.0739 8.24554 4.4873 8.24554C4.90071 8.24554 5.23895 8.58378 5.23895 8.99718V15.762C5.23895 16.1754 4.90071 16.5136 4.4873 16.5136Z" fill="black"/>
<path d="M4.48727 14.2587L5.83271 16.7541C6.3288 17.6787 5.60722 18.7686 4.48727 18.7686C3.37483 18.7686 2.64574 17.6787 3.14183 16.7541L4.48727 14.2587Z" fill="black"/>
<path d="M6.9151 10.5005V16.9345C6.9151 17.7238 9.19258 18.3627 12.0037 18.3627C14.8149 18.3627 17.0924 17.7238 17.0924 16.9345V10.5005" fill="black"/>
<path d="M12.0037 13.507C11.891 13.507 11.7707 13.477 11.6655 13.4244L3.39741 9.29032C3.14185 9.16254 2.98401 8.89947 2.98401 8.62136C2.98401 8.34325 3.14185 8.07266 3.39741 7.9524L11.6655 3.81835C11.7707 3.76574 11.8835 3.73567 12.0037 3.73567C12.124 3.73567 12.2367 3.76574 12.342 3.81835L20.6101 7.9524C20.8656 8.08018 21.0235 8.34325 21.0235 8.62136C21.0235 8.89947 20.8656 9.17006 20.6101 9.29032L12.342 13.4244C12.2367 13.477 12.124 13.507 12.0037 13.507Z" fill="black"/>
<path d="M12.0037 4.48732L20.2718 8.62136L12.0037 12.7554L3.73565 8.62136L12.0037 4.48732ZM12.0037 2.98403C11.7707 2.98403 11.5452 3.03664 11.3348 3.14187L3.06669 7.27592C2.55557 7.53148 2.23236 8.05011 2.23236 8.62136C2.23236 9.19261 2.55557 9.71124 3.06669 9.9668L11.3348 14.1008C11.5452 14.2061 11.7782 14.2587 12.0037 14.2587C12.2292 14.2587 12.4622 14.2061 12.6727 14.1008L20.9408 9.9668C21.4519 9.71124 21.7751 9.19261 21.7751 8.62136C21.7751 8.05011 21.4519 7.53148 20.9408 7.27592L12.6727 3.14187C12.4622 3.03664 12.2292 2.98403 12.0037 2.98403Z" fill="#FFDD00"/>
</g>
<defs>
<clipPath id="clip0_87_141">
<rect width="24" height="24" fill="white"/>
</clipPath>
</defs>
</svg>
