<svg width="185" height="217" viewBox="0 0 185 217" fill="none" xmlns="http://www.w3.org/2000/svg">
<g clip-path="url(#clip0_700_11885)">
<path d="M35.9123 0H149.088C168.904 0 185 16.0816 185 35.8806V201.46C185 210.033 178.027 217 169.446 217H15.5537C6.97299 217 0 210.042 0 201.46V35.8806C0 16.0816 16.0957 0 35.9123 0Z" fill="#FFDD00"/>
<path d="M175.813 164.653V35.8813C175.813 21.1582 163.824 9.17969 149.088 9.17969H35.9122C21.1761 9.17969 9.18701 21.1582 9.18701 35.8813V164.653H175.813Z" stroke="black" stroke-width="4" stroke-linecap="round" stroke-linejoin="round"/>
<path opacity="0.05" d="M71.8612 156.851C67.0472 156.851 63.1519 152.949 63.1519 148.149V101.125L71.8612 105.265V136.547C71.8612 143.495 74.6357 150.15 79.5783 155.042L92.1371 167.489L71.8612 156.86V156.851Z" fill="black"/>
<path opacity="0.05" d="M103.823 196.807L111.109 181.02" stroke="black" stroke-width="4" stroke-linecap="round" stroke-linejoin="round"/>
<path d="M63.1519 127.617V146.635C63.1519 150.656 65.4486 154.318 69.0592 156.071L105.128 173.915C107.626 175.145 108.655 178.165 107.434 180.662L103.897 187.941L100.966 193.962C99.7348 196.496 96.6755 197.533 94.1582 196.285L63.1519 180.901L53.8546 176.385C44.2908 171.74 38.209 162.047 38.209 151.418V141.091V105.807C38.209 98.9232 43.7947 93.3516 50.6758 93.3516C57.5661 93.3516 63.1427 98.9324 63.1427 105.807" fill="#FFDD00"/>
<path opacity="0.5" d="M67.5249 159.355L99.2203 174.969C102.482 176.575 103.805 180.55 102.142 183.781L98.3751 191.142" stroke="white" stroke-width="4" stroke-linecap="round" stroke-linejoin="round"/>
<path d="M154.848 142.156C167.326 129.689 171.439 113.585 164.034 106.186C156.628 98.7873 140.51 102.896 128.031 115.364C115.553 127.831 111.441 143.935 118.846 151.334C126.251 158.733 142.37 154.624 154.848 142.156Z" stroke="black" stroke-width="4" stroke-miterlimit="10" stroke-linecap="round"/>
<path d="M145.87 133.185C149.992 129.066 151.351 123.745 148.904 121.3C146.457 118.856 141.131 120.213 137.009 124.331C132.887 128.45 131.528 133.771 133.975 136.216C136.422 138.66 141.748 137.303 145.87 133.185Z" fill="black"/>
<path d="M167.434 119.639L141.435 128.753L137.181 108.055" stroke="black" stroke-width="4" stroke-miterlimit="10" stroke-linecap="round"/>
<path d="M141.435 128.754L170.218 159.357" stroke="black" stroke-width="4" stroke-miterlimit="10" stroke-linecap="round"/>
<path d="M122.207 153.656L141.435 128.754" stroke="black" stroke-width="4" stroke-miterlimit="10" stroke-linecap="round"/>
<path d="M92.1369 167.479V115.251C92.1369 108.605 89.1787 102.657 84.5024 98.6367" stroke="black" stroke-width="4" stroke-linecap="round" stroke-linejoin="round"/>
<path d="M103.897 187.929L98.7334 198.54L63.1519 180.889L53.8546 176.373C44.2908 171.728 38.209 162.035 38.209 151.406V141.08V105.796C38.209 98.9115 43.7947 93.3398 50.6758 93.3398C57.5661 93.3398 63.1427 98.9207 63.1427 105.796" stroke="black" stroke-width="4" stroke-linecap="round" stroke-linejoin="round"/>
<path d="M63.1519 127.613V146.632C63.1519 150.652 65.4486 154.315 69.0591 156.068L109.629 176.142" stroke="black" stroke-width="4" stroke-linecap="round" stroke-linejoin="round"/>
<path d="M40.4048 43.1602V56.7634C40.4048 71.6609 52.495 83.7312 67.3964 83.7312C82.307 83.7312 94.388 71.6517 94.388 56.7634V43.1602" stroke="black" stroke-width="4" stroke-miterlimit="10" stroke-linecap="round"/>
<path d="M82.0405 90.0642V79.6094" stroke="black" stroke-width="4" stroke-linecap="round" stroke-linejoin="round"/>
<path d="M46.7256 93.9943L49.151 83.4844L86.8731 92.5073L81.6456 106.111C80.9842 107.845 78.9814 108.644 77.3002 107.845L62.0037 100.585" stroke="black" stroke-width="4" stroke-linecap="round" stroke-linejoin="round"/>
<path d="M103.897 187.929L98.7334 198.54L63.1519 180.889L53.8546 176.373C44.2908 171.728 38.209 162.035 38.209 151.406V141.08V105.796C38.209 98.9115 43.7947 93.3398 50.6758 93.3398C57.5661 93.3398 63.1427 98.9207 63.1427 105.796" stroke="black" stroke-width="4" stroke-linecap="round" stroke-linejoin="round"/>
<path d="M63.1519 127.613V146.632C63.1519 150.652 65.4486 154.315 69.0591 156.068L109.629 176.142L107.434 180.659" stroke="black" stroke-width="4" stroke-linecap="round" stroke-linejoin="round"/>
<path d="M64.4932 151.766L58.0347 158.218" stroke="black" stroke-width="4" stroke-linecap="round" stroke-linejoin="round"/>
<path d="M54.7552 63.4466C51.016 63.4466 47.9751 60.4175 47.9751 56.6725C47.9751 52.9275 51.0068 49.8984 54.7552 49.8984" stroke="black" stroke-width="4" stroke-linecap="round" stroke-linejoin="round"/>
<path d="M58.0348 42.4628H95.7293V37.5062C95.7293 24.6189 85.2744 14.1641 72.3666 14.1641H61.3513C49.7848 14.1641 40.4048 23.5358 40.4048 35.0921V42.4628H58.0348Z" fill="black" stroke="black" stroke-width="4" stroke-linecap="round" stroke-linejoin="round"/>
<path d="M95.7295 42.4609H118.431" stroke="black" stroke-width="4" stroke-linecap="round" stroke-linejoin="round"/>
<path d="M85.3203 29.3534C85.256 28.8669 85.0998 28.3896 84.861 27.949C84.3924 27.0953 83.6207 26.4161 82.702 26.0673C82.2427 25.8929 81.7558 25.8103 81.2688 25.8103C80.1296 25.8103 79.0272 26.2968 78.2555 27.1321C76.9785 25.7369 74.8471 25.4064 73.2118 26.3519C72.78 26.5997 72.4033 26.9209 72.091 27.3065C71.3101 26.4528 70.226 25.9204 69.0776 25.8195C68.0578 25.7369 67.0381 26.0031 66.1837 26.5538C65.366 27.0862 64.7321 27.8847 64.3922 28.7935C64.0339 29.7389 64.0063 30.8037 64.3095 31.7766C64.6035 32.7037 65.1915 33.5298 65.9724 34.1081C66.7808 34.7047 67.7822 35.026 68.7928 35.0076C69.1419 35.0076 69.5002 34.9617 69.8493 34.8791C69.9504 34.8516 70.0514 34.824 70.1433 34.7781C70.0147 34.824 69.8861 34.8516 69.7391 34.8516C69.1419 34.8516 68.6642 34.3743 68.6642 33.7776C68.6642 33.2453 69.05 32.8047 69.5645 32.7221C69.4267 32.7404 69.2981 32.7771 69.1511 32.7955C68.6182 32.8965 68.0578 32.8322 67.5801 32.5844C66.6798 32.1162 66.1469 31.1249 66.2572 30.1244C66.3674 29.1331 67.1024 28.2794 68.067 28.0224C68.5999 27.8756 69.1695 27.9215 69.6748 28.1417C70.2168 28.3804 70.667 28.8302 70.9609 29.3258C71.0344 29.4543 71.0987 29.5828 71.1539 29.7205C71.209 29.8582 71.2366 29.9959 71.3101 30.1244C71.4479 30.3814 71.6959 30.5742 71.9807 30.6476C72.5411 30.7945 73.0923 30.464 73.2669 29.9225C73.3128 29.7756 73.322 29.6196 73.3496 29.4727C73.4047 29.2065 73.5149 28.9495 73.6803 28.7384C74.0019 28.307 74.4888 28.0224 75.0216 27.9582C76.0414 27.8388 76.9969 28.5732 77.153 29.592C77.1898 29.8582 77.2357 30.0969 77.4195 30.308C77.6124 30.5375 77.888 30.6751 78.182 30.6935C78.4852 30.7119 78.7791 30.5925 78.9996 30.3814C79.2017 30.1887 79.2844 29.9408 79.312 29.6655C79.4314 28.6374 80.3961 27.8664 81.425 27.9582C82.4448 28.0408 83.2165 28.9495 83.1797 29.9684C83.1797 30.0877 83.1706 30.1978 83.1797 30.308C83.1797 29.7114 83.6667 29.234 84.2638 29.234C84.861 29.234 85.3479 29.7205 85.3479 30.3172C85.3479 30.2713 85.3479 30.2254 85.3479 30.1887C85.3571 29.9041 85.3479 29.6287 85.3203 29.3442V29.3534Z" fill="#FFDD00"/>
<path d="M85.3478 30.3175C85.3478 30.9141 84.8609 31.4006 84.2638 31.4006C83.6666 31.4006 83.1797 30.9141 83.1797 30.3175C83.1797 29.7209 83.6666 29.2344 84.2638 29.2344C84.8609 29.2344 85.3478 29.7209 85.3478 30.3175Z" fill="white"/>
<path d="M70.8138 33.7849C70.8138 34.3815 70.3361 34.8588 69.739 34.8588C69.1418 34.8588 68.6641 34.3815 68.6641 33.7849C68.6641 33.1882 69.1418 32.7109 69.739 32.7109C70.3361 32.7109 70.8138 33.1882 70.8138 33.7849Z" fill="white"/>
<path d="M142.684 208.15L122.215 208.536C121.095 208.554 119.983 208.27 119.009 207.701L108.582 201.615L105.963 200.091C104.365 199.155 102.858 198.09 101.453 196.906" stroke="black" stroke-width="4" stroke-miterlimit="10" stroke-linecap="round"/>
<path d="M128.895 200.167L143.998 208.979C146.13 210.227 148.877 209.502 150.126 207.373L156.428 196.588C157.678 194.458 156.952 191.714 154.821 190.465L134.609 178.67C132.478 177.422 129.731 178.147 128.481 180.277L122.05 191.282" stroke="black" stroke-width="4" stroke-miterlimit="10" stroke-linecap="round"/>
<path d="M120.599 200.497L134.296 198.625C134.296 198.625 136.529 198.561 136.171 195.963C136.005 194.779 135.142 192.925 132.817 192.998C130.493 193.072 126.561 193.852 123.823 192.484C121.085 191.116 117.907 190.116 115.022 190.658" stroke="black" stroke-width="4" stroke-miterlimit="10" stroke-linecap="round"/>
<path d="M125.614 184.737L109.638 177.898" stroke="black" stroke-width="4" stroke-miterlimit="10" stroke-linecap="round"/>
<path d="M82.0405 109.312L85.1641 115.885H92.1371" stroke="black" stroke-width="4" stroke-linecap="round" stroke-linejoin="round"/>
<path d="M92.1371 157.509L85.1641 150.432V115.883" stroke="black" stroke-width="4" stroke-linecap="round" stroke-linejoin="round"/>
<path opacity="0.06" d="M54.7549 44.764L94.3971 56.7517V43.6992L54.7549 44.764Z" fill="black"/>
<path d="M63.1519 107.585C64.1362 107.585 64.9342 106.788 64.9342 105.804C64.9342 104.821 64.1362 104.023 63.1519 104.023C62.1676 104.023 61.3696 104.821 61.3696 105.804C61.3696 106.788 62.1676 107.585 63.1519 107.585Z" fill="white"/>
<path d="M63.1519 129.397C64.1362 129.397 64.9342 128.6 64.9342 127.617C64.9342 126.633 64.1362 125.836 63.1519 125.836C62.1676 125.836 61.3696 126.633 61.3696 127.617C61.3696 128.6 62.1676 129.397 63.1519 129.397Z" fill="white"/>
<path d="M103.897 189.729C104.881 189.729 105.679 188.932 105.679 187.949C105.679 186.965 104.881 186.168 103.897 186.168C102.912 186.168 102.114 186.965 102.114 187.949C102.114 188.932 102.912 189.729 103.897 189.729Z" fill="white"/>
<path d="M107.461 182.44C108.445 182.44 109.243 181.643 109.243 180.66C109.243 179.676 108.445 178.879 107.461 178.879C106.477 178.879 105.679 179.676 105.679 180.66C105.679 181.643 106.477 182.44 107.461 182.44Z" fill="white"/>
<path opacity="0.5" d="M58.6318 104.668V141.127" stroke="white" stroke-width="4" stroke-linecap="round" stroke-linejoin="round"/>
<path opacity="0.5" d="M80.4144 95.8203L78.3657 102.044" stroke="white" stroke-width="4" stroke-linecap="round" stroke-linejoin="round"/>
<path opacity="0.5" d="M77.6401 77.6618C77.6401 77.6618 86.3862 72.1911 88.6462 65.9219" stroke="white" stroke-width="4" stroke-linecap="round" stroke-linejoin="round"/>
</g>
<defs>
<clipPath id="clip0_700_11885">
<rect width="185" height="217" fill="white"/>
</clipPath>
</defs>
</svg>
