<svg width="196" height="197" viewBox="0 0 196 197" fill="none" xmlns="http://www.w3.org/2000/svg">
<path d="M64.9 2.44C58.04 0.82 50.99 0 43.83 0C31.29 0 19.11 2.5 7.62 7.45C3.28 8.35 0 12.22 0 16.81V124.05C0 128.64 3.28 132.51 7.62 133.42C19.11 138.36 31.29 140.87 43.83 140.87C56.37 140.87 68.55 138.37 80.04 133.42C84.38 132.52 87.66 128.64 87.66 124.05V16.81C87.66 12.22 84.38 8.35 80.04 7.44" fill="#FFDD00"/>
<path d="M61.9698 11.5919C44.7098 7.68189 26.4898 9.42189 10.0898 16.8119H9.56982V124.052H10.0898C31.5498 133.722 56.1098 133.722 77.5698 124.052H78.0898V123.822V16.8119H77.5698C76.4598 16.3119 75.3398 15.8319 74.2098 15.3819" fill="#FFDD00"/>
<path d="M61.9698 11.5919C44.7098 7.68189 26.4898 9.42189 10.0898 16.8119H9.56982V124.052H10.0898C31.5498 133.722 56.1098 133.722 77.5698 124.052H78.0898V123.822V16.8119H77.5698C76.4598 16.3119 75.3398 15.8319 74.2098 15.3819" stroke="black" stroke-width="4" stroke-linecap="round" stroke-linejoin="round"/>
<path d="M63.2502 34.1992H24.4002C21.9647 34.1992 19.9902 36.1736 19.9902 38.6092V53.8492C19.9902 56.2848 21.9647 58.2592 24.4002 58.2592H63.2502C65.6858 58.2592 67.6602 56.2848 67.6602 53.8492V38.6092C67.6602 36.1736 65.6858 34.1992 63.2502 34.1992Z" fill="white" stroke="black" stroke-width="4" stroke-linecap="round" stroke-linejoin="round"/>
<path d="M43.8301 113.389C53.8872 113.389 62.0401 105.236 62.0401 95.1787C62.0401 85.1216 53.8872 76.9688 43.8301 76.9688C33.773 76.9688 25.6201 85.1216 25.6201 95.1787C25.6201 105.236 33.773 113.389 43.8301 113.389Z" stroke="black" stroke-width="4" stroke-linecap="round" stroke-linejoin="round"/>
<path d="M43.8301 103.18C48.2484 103.18 51.8301 99.598 51.8301 95.1797C51.8301 90.7614 48.2484 87.1797 43.8301 87.1797C39.4118 87.1797 35.8301 90.7614 35.8301 95.1797C35.8301 99.598 39.4118 103.18 43.8301 103.18Z" fill="black"/>
<g opacity="0.05">
<path d="M186.346 130.442L101.388 45.4828C97.8612 41.9564 92.1437 41.9564 88.6173 45.4828L41.9553 92.1448C38.4289 95.6712 38.4289 101.389 41.9553 104.915L126.914 189.874C130.441 193.4 136.158 193.4 139.685 189.874L186.346 143.212C189.873 139.686 189.873 133.968 186.346 130.442Z" fill="black"/>
<path d="M186.346 130.442L101.388 45.4828C97.8612 41.9564 92.1437 41.9564 88.6173 45.4828L41.9553 92.1448C38.4289 95.6712 38.4289 101.389 41.9553 104.915L126.914 189.874C130.441 193.4 136.158 193.4 139.685 189.874L186.346 143.212C189.873 139.686 189.873 133.968 186.346 130.442Z" fill="black"/>
<mask id="mask0_740_8075" style="mask-type:luminance" maskUnits="userSpaceOnUse" x="39" y="42" width="150" height="151">
<path d="M186.346 130.442L101.388 45.4828C97.8612 41.9564 92.1437 41.9564 88.6173 45.4828L41.9553 92.1448C38.4289 95.6712 38.4289 101.389 41.9553 104.915L126.914 189.874C130.441 193.4 136.158 193.4 139.685 189.874L186.346 143.212C189.873 139.686 189.873 133.968 186.346 130.442Z" fill="white"/>
</mask>
<g mask="url(#mask0_740_8075)">
<path d="M88.9241 66.2454L97.8266 75.1479L83.84 89.1344C81.8389 91.1355 78.5933 91.1285 76.5992 89.1344L71.3171 83.8523C69.316 81.8512 69.3231 78.6056 71.3171 76.6116L81.6833 66.2454C83.6844 64.2443 86.9301 64.2513 88.9241 66.2454Z" fill="black"/>
<path d="M123.21 149.88C131.042 149.88 137.39 143.531 137.39 135.7C137.39 127.868 131.042 121.52 123.21 121.52C115.379 121.52 109.03 127.868 109.03 135.7C109.03 143.531 115.379 149.88 123.21 149.88Z" fill="black"/>
<path d="M43.4702 73.9805L70.3102 100.82C75.1002 105.61 82.8602 105.61 87.6502 100.82L100.35 88.1205C103.24 85.2305 107.92 85.2305 110.8 88.1205L159.95 137.27C161.92 139.24 161.92 142.42 159.95 144.39L155.11 149.23C153.14 151.2 153.14 154.38 155.11 156.35L169.55 170.79" fill="black"/>
<path d="M94.3101 78.6806L102.28 70.7106C104.79 68.2006 108.85 68.2006 111.35 70.7106L189.81 149.171" fill="black"/>
</g>
<path d="M186.346 130.442L101.388 45.4828C97.8612 41.9564 92.1437 41.9564 88.6173 45.4828L41.9553 92.1448C38.4289 95.6712 38.4289 101.389 41.9553 104.915L126.914 189.874C130.441 193.4 136.158 193.4 139.685 189.874L186.346 143.212C189.873 139.686 189.873 133.968 186.346 130.442Z" fill="black"/>
</g>
<path d="M189.195 130.442L104.236 45.4828C100.709 41.9564 94.9918 41.9564 91.4654 45.4828L44.8034 92.1448C41.277 95.6712 41.277 101.389 44.8034 104.915L129.762 189.874C133.289 193.4 139.006 193.4 142.533 189.874L189.195 143.212C192.721 139.686 192.721 133.968 189.195 130.442Z" fill="#FFDD00"/>
<mask id="mask1_740_8075" style="mask-type:luminance" maskUnits="userSpaceOnUse" x="42" y="42" width="150" height="151">
<path d="M189.195 130.442L104.236 45.4828C100.709 41.9564 94.9918 41.9564 91.4654 45.4828L44.8034 92.1448C41.277 95.6712 41.277 101.389 44.8034 104.915L129.762 189.874C133.289 193.4 139.006 193.4 142.533 189.874L189.195 143.212C192.721 139.686 192.721 133.968 189.195 130.442Z" fill="white"/>
</mask>
<g mask="url(#mask1_740_8075)">
<path d="M91.7693 66.2454L100.672 75.1479L86.6852 89.1344C84.6841 91.1355 81.4385 91.1285 79.4444 89.1344L74.1624 83.8523C72.1612 81.8512 72.1683 78.6056 74.1624 76.6116L84.5285 66.2454C86.5296 64.2443 89.7753 64.2513 91.7693 66.2454Z" stroke="#FBBA1A" stroke-width="3.13" stroke-linecap="round" stroke-linejoin="round"/>
<path d="M126.06 149.883C133.891 149.883 140.24 143.535 140.24 135.703C140.24 127.872 133.891 121.523 126.06 121.523C118.228 121.523 111.88 127.872 111.88 135.703C111.88 143.535 118.228 149.883 126.06 149.883Z" stroke="white" stroke-width="3.13" stroke-linecap="round" stroke-linejoin="round"/>
<path d="M136.08 125.673L71.4502 61.043" stroke="white" stroke-width="3.13" stroke-linecap="round" stroke-linejoin="round"/>
<path d="M116.04 145.723L152 181.683" stroke="white" stroke-width="3.13" stroke-linecap="round" stroke-linejoin="round"/>
<path d="M53.3296 81L73.15 100.819C77.94 105.609 85.7 105.609 90.49 100.819L103.19 88.1191C106.08 85.2291 110.76 85.2291 113.64 88.1191L162.79 137.269C164.76 139.239 164.76 142.419 162.79 144.389L157.95 149.229C155.98 151.199 155.98 154.379 157.95 156.349L167.601 166" stroke="#FBBA1A" stroke-width="3.13" stroke-linecap="round" stroke-linejoin="round"/>
<path d="M116.61 91.093L98.5601 73.043" stroke="#FBBA1A" stroke-width="3.13" stroke-linecap="round" stroke-linejoin="round"/>
<path d="M97.1499 78.6806L105.12 70.7106C107.63 68.2006 111.69 68.2006 114.19 70.7106L188.979 145.5" stroke="#FBBA1A" stroke-width="3.13" stroke-linecap="round" stroke-linejoin="round"/>
<path d="M137.16 124.673C130.94 118.453 120.84 118.453 114.62 124.673C108.4 130.893 108.4 140.993 114.62 147.213C120.84 153.433 130.94 153.433 137.16 147.213C143.38 140.993 143.38 130.893 137.16 124.673ZM117.07 144.773C112.19 139.893 112.19 131.993 117.07 127.113C121.95 122.233 129.85 122.233 134.73 127.113C139.61 131.993 139.61 139.893 134.73 144.773C129.85 149.653 121.95 149.653 117.07 144.773Z" fill="white"/>
<path d="M140.3 145.983L139.48 145.163C139.4 145.083 139.3 145.093 139.21 145.163L139.12 145.253C138.99 144.673 138.7 144.133 138.25 143.683C136.98 142.413 134.91 142.413 133.63 143.683C132.35 144.953 132.36 147.023 133.63 148.303C134.08 148.753 134.63 149.043 135.2 149.173L135.11 149.263C135.04 149.353 135.03 149.453 135.11 149.533L135.93 150.353C136.01 150.433 136.12 150.433 136.2 150.353L140.3 146.253C140.38 146.173 140.38 146.063 140.3 145.983Z" fill="#1C1C1B"/>
<path d="M124.43 130.133L125.34 131.043C125.44 131.143 125.43 131.233 125.3 131.303L119.62 133.753C119.52 133.793 119.43 133.773 119.36 133.703L118.46 132.803C118.39 132.733 118.36 132.633 118.41 132.543L120.85 126.853C120.91 126.723 121.01 126.713 121.11 126.813L122.02 127.723C122.09 127.793 122.12 127.893 122.07 127.983L120.27 131.903L124.18 130.093C124.28 130.053 124.37 130.073 124.44 130.143L124.43 130.133Z" fill="#1C1C1B"/>
<path d="M126.97 137.862L124.2 135.092C123.74 135.782 123.86 136.552 124.54 137.232C124.88 137.572 125.25 137.762 125.76 137.852C125.89 137.882 125.95 137.932 125.95 138.052V138.822C125.95 138.942 125.9 139.012 125.76 139.012C124.93 139.012 124.12 138.692 123.49 138.072C122.14 136.722 122.21 134.802 123.49 133.522C124.77 132.242 126.69 132.182 127.94 133.432C129.19 134.682 129 136.482 127.83 137.662C127.49 138.002 127.27 138.142 127 137.872L126.97 137.862ZM124.94 134.312L127.01 136.382C127.54 135.692 127.46 134.942 126.94 134.422C126.42 133.902 125.65 133.802 124.95 134.312H124.94Z" fill="#1C1C1B"/>
<path d="M134.9 140.872L130.75 145.022C129.37 146.402 127.68 145.532 126.69 144.542C125.95 143.802 125.5 142.912 125.36 142.152C125.34 142.042 125.4 141.972 125.5 141.942L126.32 141.702C126.43 141.672 126.51 141.702 126.55 141.822C126.73 142.442 127.03 142.952 127.56 143.482C128.09 144.012 129.05 144.572 129.77 143.852L130.25 143.372C129.56 143.422 128.86 143.252 128.27 142.662C127.06 141.452 127.18 139.562 128.4 138.342C129.62 137.122 131.51 137.002 132.72 138.212C133.27 138.762 133.46 139.462 133.42 140.142L133.83 139.782C133.92 139.712 134.02 139.702 134.09 139.782L134.9 140.592C134.98 140.672 134.98 140.782 134.9 140.852V140.872ZM131.74 141.682C132.35 141.072 132.43 140.062 131.79 139.422C131.15 138.782 130.17 138.822 129.52 139.462C128.87 140.102 128.81 141.102 129.46 141.752C130.11 142.402 131.13 142.292 131.74 141.682Z" fill="#1C1C1B"/>
<path d="M143.57 152.72L141.11 155.18C141.03 155.26 140.92 155.26 140.85 155.18L139.95 154.28C139.87 154.2 139.87 154.09 139.95 154.02L142.2 151.77C142.91 151.06 142.77 150.42 142.35 150C141.7 149.35 140.75 149.69 140.55 149.89L138.18 152.26C138.1 152.34 137.99 152.34 137.92 152.26L137.02 151.36C136.94 151.28 136.94 151.17 137.02 151.1L141.08 147.04C141.16 146.96 141.27 146.96 141.34 147.04L142.21 147.91C142.29 147.99 142.28 148.09 142.21 148.17L141.68 148.77C142.42 148.6 143.22 148.72 143.85 149.34C144.73 150.22 144.74 151.57 143.59 152.73L143.57 152.72Z" fill="#1C1C1B"/>
<path d="M113.37 122.533L110.91 124.993C110.83 125.073 110.72 125.073 110.65 124.993L109.75 124.093C109.67 124.013 109.67 123.903 109.75 123.833L112 121.583C112.71 120.873 112.57 120.233 112.15 119.813C111.5 119.163 110.55 119.503 110.35 119.703L107.98 122.073C107.9 122.153 107.79 122.153 107.72 122.073L106.82 121.173C106.74 121.093 106.74 120.983 106.82 120.913L110.88 116.853C110.96 116.773 111.07 116.773 111.14 116.853L112.01 117.723C112.09 117.803 112.08 117.903 112.01 117.983L111.48 118.583C112.22 118.413 113.02 118.533 113.65 119.153C114.53 120.033 114.54 121.383 113.39 122.543L113.37 122.533Z" fill="#1C1C1B"/>
<path d="M148.35 154.313L147.66 155.003C147.58 155.083 147.47 155.083 147.4 155.003L146.78 154.383L143.54 157.623C143.46 157.703 143.35 157.703 143.28 157.623L142.38 156.723C142.3 156.643 142.3 156.533 142.38 156.463L145.62 153.223L145 152.603C144.92 152.523 144.92 152.413 145 152.343L145.69 151.653C145.77 151.573 145.88 151.573 145.95 151.653L146.57 152.273L147.76 151.083C147.84 151.003 147.95 151.003 148.02 151.083L148.92 151.983C149 152.063 149 152.173 148.92 152.243L147.73 153.433L148.35 154.053C148.43 154.133 148.43 154.243 148.35 154.313Z" fill="#1C1C1B"/>
<path d="M150.29 161.182L147.52 158.412C147.06 159.102 147.18 159.872 147.86 160.552C148.2 160.892 148.57 161.082 149.08 161.172C149.21 161.202 149.27 161.252 149.27 161.372V162.142C149.27 162.262 149.22 162.332 149.08 162.332C148.25 162.332 147.44 162.012 146.81 161.392C145.46 160.042 145.53 158.122 146.81 156.842C148.09 155.562 150.01 155.502 151.26 156.752C152.51 158.002 152.32 159.802 151.15 160.982C150.81 161.322 150.59 161.462 150.32 161.192L150.29 161.182ZM148.26 157.632L150.33 159.702C150.86 159.012 150.78 158.262 150.26 157.742C149.74 157.222 148.97 157.122 148.27 157.632H148.26Z" fill="#1C1C1B"/>
<path d="M120.24 125.85L119.42 125.03C119.34 124.95 119.24 124.96 119.15 125.03L119.06 125.12C118.93 124.54 118.64 124 118.19 123.55C116.92 122.28 114.85 122.28 113.57 123.55C112.29 124.82 112.3 126.89 113.57 128.17C114.02 128.62 114.57 128.91 115.14 129.04L115.05 129.13C114.98 129.22 114.97 129.32 115.05 129.4L115.87 130.22C115.95 130.3 116.06 130.3 116.14 130.22L120.24 126.12C120.32 126.04 120.32 125.93 120.24 125.85Z" fill="#1C1C1B"/>
<path d="M135.95 147.722C136.906 147.722 137.68 146.947 137.68 145.992C137.68 145.036 136.906 144.262 135.95 144.262C134.995 144.262 134.22 145.036 134.22 145.992C134.22 146.947 134.995 147.722 135.95 147.722Z" fill="white"/>
<path d="M115.88 127.593C116.835 127.593 117.61 126.818 117.61 125.863C117.61 124.907 116.835 124.133 115.88 124.133C114.924 124.133 114.15 124.907 114.15 125.863C114.15 126.818 114.924 127.593 115.88 127.593Z" fill="white"/>
<path d="M140.11 137.671C141.065 137.671 141.84 136.896 141.84 135.941C141.84 134.985 141.065 134.211 140.11 134.211C139.154 134.211 138.38 134.985 138.38 135.941C138.38 136.896 139.154 137.671 140.11 137.671Z" fill="#1C1C1B"/>
<path d="M111.68 137.671C112.636 137.671 113.41 136.896 113.41 135.941C113.41 134.985 112.636 134.211 111.68 134.211C110.725 134.211 109.95 134.985 109.95 135.941C109.95 136.896 110.725 137.671 111.68 137.671Z" fill="#1C1C1B"/>
</g>
</svg>
