<svg width="280" height="41" viewBox="0 0 280 41" fill="none" xmlns="http://www.w3.org/2000/svg">
<rect y="0.519531" width="280" height="40" rx="5" fill="#FFDD00"/>
<path d="M32.9599 20.4277H128.44" stroke="#1A171B" stroke-width="3" stroke-miterlimit="10" stroke-linecap="round"/>
<path d="M32.9599 21.9687C33.8104 21.9687 34.4999 21.2792 34.4999 20.4287C34.4999 19.5782 33.8104 18.8887 32.9599 18.8887C32.1094 18.8887 31.4199 19.5782 31.4199 20.4287C31.4199 21.2792 32.1094 21.9687 32.9599 21.9687Z" fill="white"/>
<path d="M79.8899 21.9687C80.7404 21.9687 81.4299 21.2792 81.4299 20.4287C81.4299 19.5782 80.7404 18.8887 79.8899 18.8887C79.0394 18.8887 78.3499 19.5782 78.3499 20.4287C78.3499 21.2792 79.0394 21.9687 79.8899 21.9687Z" fill="white"/>
<path d="M147.22 20.4297H246.83" stroke="#1A171B" stroke-width="3" stroke-miterlimit="10" stroke-linecap="round"/>
<path d="M199.82 21.9687C200.671 21.9687 201.36 21.2792 201.36 20.4287C201.36 19.5782 200.671 18.8887 199.82 18.8887C198.97 18.8887 198.28 19.5782 198.28 20.4287C198.28 21.2792 198.97 21.9687 199.82 21.9687Z" fill="white"/>
<path d="M246.83 21.9687C247.681 21.9687 248.37 21.2792 248.37 20.4287C248.37 19.5782 247.681 18.8887 246.83 18.8887C245.98 18.8887 245.29 19.5782 245.29 20.4287C245.29 21.2792 245.98 21.9687 246.83 21.9687Z" fill="white"/>
<path d="M139.9 7.51953C136.45 7.51953 133.2 8.85953 130.77 11.2995C128.33 13.7395 126.99 16.9795 126.99 20.4295C126.99 23.8795 128.33 27.1195 130.77 29.5595C133.21 31.9995 136.45 33.3395 139.9 33.3395C143.35 33.3395 146.59 31.9995 149.03 29.5595C151.47 27.1195 152.81 23.8795 152.81 20.4295C152.81 16.9795 151.47 13.7395 149.03 11.2995C146.59 8.85953 143.35 7.51953 139.9 7.51953Z" fill="white"/>
<path d="M134.39 19.1389H135.09V23.7089H134.39C133.39 23.7089 132.57 22.8989 132.57 21.8889V20.9489C132.57 19.9489 133.38 19.1289 134.39 19.1289V19.1389Z" stroke="black" stroke-linecap="round" stroke-linejoin="round"/>
<path d="M145.4 23.699H144.7V19.129H145.4C146.4 19.129 147.22 19.939 147.22 20.949V21.889C147.22 22.889 146.41 23.709 145.4 23.709V23.699Z" stroke="black" stroke-linecap="round" stroke-linejoin="round"/>
<path d="M145.96 23.25C145.96 25.11 144.45 26.62 142.59 26.62H140.94" stroke="black" stroke-miterlimit="10"/>
<path d="M139.9 28.0991C140.585 28.0991 141.14 27.544 141.14 26.8591C141.14 26.1743 140.585 25.6191 139.9 25.6191C139.215 25.6191 138.66 26.1743 138.66 26.8591C138.66 27.544 139.215 28.0991 139.9 28.0991Z" stroke="black" stroke-miterlimit="10"/>
<path d="M133.91 19.1398V18.7898C133.91 15.4598 136.61 12.7598 139.94 12.7598C143.27 12.7598 145.97 15.4598 145.97 18.7898V19.2498" stroke="black" stroke-miterlimit="10"/>
<path d="M249.36 7.51953C245.91 7.51953 242.67 8.85953 240.23 11.2995C237.79 13.7395 236.45 16.9795 236.45 20.4295C236.45 23.8795 237.79 27.1195 240.23 29.5595C242.67 31.9995 245.91 33.3395 249.36 33.3395C252.81 33.3395 256.05 31.9995 258.49 29.5595C260.93 27.1195 262.27 23.8795 262.27 20.4295C262.27 16.9795 260.93 13.7395 258.49 11.2995C256.05 8.85953 252.81 7.51953 249.36 7.51953Z" fill="#1A171B"/>
<path d="M248.09 14.5203C248.09 13.7203 248.73 13.0703 249.54 13.0703C250.35 13.0703 250.97 13.7303 250.97 14.5203C250.97 15.3103 250.33 15.9703 249.54 15.9703C248.75 15.9703 248.09 15.3103 248.09 14.5203ZM248.53 17.8303H250.56C250.74 17.8303 250.86 17.9503 250.86 18.1303V27.2803C250.86 27.4603 250.74 27.5803 250.56 27.5803H248.53C248.35 27.5803 248.23 27.4603 248.23 27.2803V18.1303C248.23 17.9503 248.35 17.8303 248.53 17.8303Z" fill="#FFDD00"/>
<path d="M30.44 7.99023C27.12 7.99023 23.99 9.28023 21.64 11.6302C19.29 13.9802 18 17.1102 18 20.4302C18 23.7502 19.29 26.8802 21.64 29.2302C23.99 31.5802 27.11 32.8702 30.44 32.8702C33.77 32.8702 36.89 31.5802 39.24 29.2302C41.59 26.8802 42.88 23.7602 42.88 20.4302C42.88 17.1002 41.59 13.9802 39.24 11.6302C36.89 9.28023 33.77 7.99023 30.44 7.99023Z" fill="#1A171B"/>
<path d="M34.87 17.3602C34.87 19.1602 33.91 20.1802 31.55 21.3502L31.42 23.0202C31.4 23.1902 31.3 23.3102 31.13 23.3102H29.62C29.45 23.3102 29.35 23.1902 29.33 23.0202L29.16 20.3202C29.14 20.1502 29.24 20.0502 29.41 19.9902C31.69 19.2802 32.23 18.5702 32.23 17.7102C32.23 16.7702 31.29 16.2702 30.41 16.2702C29.34 16.2702 28.53 16.7902 27.8 17.4202C27.59 17.6102 27.38 17.6302 27.21 17.4202L26.29 16.2902C26.14 16.1002 26.12 15.9102 26.27 15.7102C27.19 14.6002 28.72 13.7402 30.58 13.7402C32.82 13.7402 34.87 15.2002 34.87 17.3602ZM31.77 26.1602C31.77 26.9502 31.16 27.5602 30.39 27.5602C29.62 27.5602 28.99 26.9502 28.99 26.1602C28.99 25.3702 29.6 24.7802 30.39 24.7802C31.18 24.7802 31.77 25.3902 31.77 26.1602Z" fill="#FFDD00"/>
</svg>
