<svg width="280" height="37" viewBox="0 0 280 37" fill="none" xmlns="http://www.w3.org/2000/svg">
<path d="M33.19 6.10008C32.88 6.12008 32.57 6.15008 32.26 6.19008C32.02 6.16008 31.77 6.13008 31.52 6.11008C25.08 6.58008 20 11.9501 20 18.5101C20 25.0701 25.08 30.4401 31.52 30.9101C31.77 30.8901 32.02 30.8701 32.26 30.8301C32.57 30.8701 32.87 30.9001 33.19 30.9201C39.72 30.5401 44.89 25.1201 44.89 18.5001C44.89 11.8801 39.72 6.47008 33.19 6.08008V6.10008Z" fill="#FFDD00"/>
<path d="M31.5195 30.9196C31.8295 30.9396 32.1295 30.9596 32.4495 30.9596C32.6995 30.9596 32.9495 30.9596 33.1895 30.9396C32.8795 30.9196 32.5695 30.8896 32.2595 30.8496C32.0195 30.8796 31.7695 30.9096 31.5195 30.9296V30.9196Z" fill="#FFDD00"/>
<path d="M33.1895 6.10008C32.9395 6.09008 32.6995 6.08008 32.4495 6.08008C32.1395 6.08008 31.8295 6.10008 31.5195 6.12008C31.7695 6.14008 32.0195 6.16008 32.2595 6.20008C32.5695 6.16008 32.8695 6.13008 33.1895 6.11008V6.10008Z" fill="#FFDD00"/>
<path d="M27.8097 16.93C28.2736 16.93 28.6497 16.5539 28.6497 16.09C28.6497 15.6261 28.2736 15.25 27.8097 15.25C27.3458 15.25 26.9697 15.6261 26.9697 16.09C26.9697 16.5539 27.3458 16.93 27.8097 16.93Z" fill="black"/>
<path d="M37.08 16.93C37.5439 16.93 37.92 16.5539 37.92 16.09C37.92 15.6261 37.5439 15.25 37.08 15.25C36.6161 15.25 36.24 15.6261 36.24 16.09C36.24 16.5539 36.6161 16.93 37.08 16.93Z" fill="black"/>
<path d="M30.0703 22.8292C30.0703 21.5192 31.1303 20.4492 32.4503 20.4492C33.7703 20.4492 34.8303 21.5092 34.8303 22.8292" stroke="black" stroke-width="0.25" stroke-linecap="round" stroke-linejoin="round"/>
<path opacity="0.1" d="M25.57 20.1399C26.0947 20.1399 26.52 19.8668 26.52 19.5299C26.52 19.193 26.0947 18.9199 25.57 18.9199C25.0453 18.9199 24.62 19.193 24.62 19.5299C24.62 19.8668 25.0453 20.1399 25.57 20.1399Z" fill="#C61D23"/>
<path opacity="0.1" d="M39.32 20.1399C39.8447 20.1399 40.27 19.8668 40.27 19.5299C40.27 19.193 39.8447 18.9199 39.32 18.9199C38.7953 18.9199 38.37 19.193 38.37 19.5299C38.37 19.8668 38.7953 20.1399 39.32 20.1399Z" fill="#C61D23"/>
<path opacity="0.2" d="M38.1808 10.1786C38.2475 9.74747 37.5583 9.28287 36.6414 9.14093C35.7245 8.99898 34.9271 9.23344 34.8603 9.66461C34.7936 10.0958 35.4828 10.5604 36.3997 10.7023C37.3166 10.8443 38.114 10.6098 38.1808 10.1786Z" fill="white"/>
<path opacity="0.2" d="M37.6548 12.4327C38.0741 12.4141 38.4029 12.1484 38.3891 11.8395C38.3754 11.5305 38.0243 11.2952 37.605 11.3138C37.1856 11.3325 36.8569 11.5981 36.8706 11.9071C36.8844 12.2161 37.2355 12.4514 37.6548 12.4327Z" fill="white"/>
<path d="M86.2225 31.4294C89.6725 31.4294 92.9125 30.0894 95.3525 27.6494C97.7925 25.2094 99.1325 21.9694 99.1325 18.5194C99.1325 15.0694 97.7925 11.8294 95.3525 9.38937C92.9125 6.94937 89.6725 5.60938 86.2225 5.60938C82.7725 5.60938 79.5325 6.94937 77.0925 9.38937C74.6525 11.8294 73.3125 15.0694 73.3125 18.5194C73.3125 21.9694 74.6525 25.2094 77.0925 27.6494C79.5325 30.0894 82.7725 31.4294 86.2225 31.4294Z" fill="#1A171B"/>
<path d="M87.4925 24.4291C87.4925 25.2291 86.8525 25.8791 86.0425 25.8791C85.2325 25.8791 84.6125 25.2191 84.6125 24.4291C84.6125 23.6391 85.2525 22.9791 86.0425 22.9791C86.8325 22.9791 87.4925 23.6391 87.4925 24.4291ZM87.0525 21.1191H85.0225C84.8425 21.1191 84.7225 20.9991 84.7225 20.8191V11.6691C84.7225 11.4891 84.8425 11.3691 85.0225 11.3691H87.0525C87.2325 11.3691 87.3525 11.4891 87.3525 11.6691V20.8191C87.3525 20.9991 87.2325 21.1191 87.0525 21.1191Z" fill="#FFDD00"/>
<path d="M140.745 6.10008C140.435 6.12008 140.125 6.15008 139.815 6.19008C139.575 6.16008 139.325 6.13008 139.075 6.11008C132.635 6.58008 127.555 11.9501 127.555 18.5101C127.555 25.0701 132.635 30.4401 139.075 30.9101C139.325 30.8901 139.575 30.8701 139.815 30.8301C140.125 30.8701 140.425 30.9001 140.745 30.9201C147.275 30.5401 152.445 25.1201 152.445 18.5001C152.445 11.8801 147.275 6.47008 140.745 6.08008V6.10008Z" fill="#FFDD00"/>
<path d="M139.075 30.9196C139.385 30.9396 139.685 30.9596 140.005 30.9596C140.255 30.9596 140.505 30.9596 140.745 30.9396C140.435 30.9196 140.125 30.8896 139.815 30.8496C139.575 30.8796 139.325 30.9096 139.075 30.9296V30.9196Z" fill="#FFDD00"/>
<path d="M140.745 6.10008C140.495 6.09008 140.255 6.08008 140.005 6.08008C139.695 6.08008 139.385 6.10008 139.075 6.12008C139.325 6.14008 139.575 6.16008 139.815 6.20008C140.125 6.16008 140.425 6.13008 140.745 6.11008V6.10008Z" fill="#FFDD00"/>
<path d="M135.365 16.93C135.829 16.93 136.205 16.5539 136.205 16.09C136.205 15.6261 135.829 15.25 135.365 15.25C134.901 15.25 134.525 15.6261 134.525 16.09C134.525 16.5539 134.901 16.93 135.365 16.93Z" fill="black"/>
<path d="M144.645 16.93C145.109 16.93 145.485 16.5539 145.485 16.09C145.485 15.6261 145.109 15.25 144.645 15.25C144.181 15.25 143.805 15.6261 143.805 16.09C143.805 16.5539 144.181 16.93 144.645 16.93Z" fill="black"/>
<path d="M137.625 22.8292C137.625 21.5192 138.685 20.4492 140.005 20.4492C141.325 20.4492 142.385 21.5092 142.385 22.8292" stroke="black" stroke-width="0.25" stroke-linecap="round" stroke-linejoin="round"/>
<path opacity="0.1" d="M133.125 20.1399C133.65 20.1399 134.075 19.8668 134.075 19.5299C134.075 19.193 133.65 18.9199 133.125 18.9199C132.6 18.9199 132.175 19.193 132.175 19.5299C132.175 19.8668 132.6 20.1399 133.125 20.1399Z" fill="#C61D23"/>
<path opacity="0.1" d="M146.885 20.1399C147.41 20.1399 147.835 19.8668 147.835 19.5299C147.835 19.193 147.41 18.9199 146.885 18.9199C146.36 18.9199 145.935 19.193 145.935 19.5299C145.935 19.8668 146.36 20.1399 146.885 20.1399Z" fill="#C61D23"/>
<path opacity="0.2" d="M145.743 10.1728C145.81 9.74161 145.121 9.27701 144.204 9.13507C143.287 8.99312 142.49 9.22758 142.423 9.65874C142.356 10.0899 143.045 10.5545 143.962 10.6965C144.879 10.8384 145.677 10.6039 145.743 10.1728Z" fill="white"/>
<path opacity="0.2" d="M145.22 12.4366C145.64 12.418 145.968 12.1524 145.955 11.8434C145.941 11.5344 145.59 11.2991 145.17 11.3177C144.751 11.3364 144.422 11.602 144.436 11.911C144.45 12.22 144.801 12.4553 145.22 12.4366Z" fill="white"/>
<path d="M193.777 31.4294C197.227 31.4294 200.468 30.0894 202.908 27.6494C205.348 25.2094 206.688 21.9694 206.688 18.5194C206.688 15.0694 205.348 11.8294 202.908 9.38937C200.468 6.94937 197.227 5.60938 193.777 5.60938C190.327 5.60938 187.087 6.94937 184.647 9.38937C182.207 11.8294 180.867 15.0694 180.867 18.5194C180.867 21.9694 182.207 25.2094 184.647 27.6494C187.087 30.0894 190.327 31.4294 193.777 31.4294Z" fill="#1A171B"/>
<path d="M195.047 24.4291C195.047 25.2291 194.407 25.8791 193.597 25.8791C192.787 25.8791 192.167 25.2191 192.167 24.4291C192.167 23.6391 192.807 22.9791 193.597 22.9791C194.387 22.9791 195.047 23.6391 195.047 24.4291ZM194.617 21.1191H192.587C192.407 21.1191 192.287 20.9991 192.287 20.8191V11.6691C192.287 11.4891 192.407 11.3691 192.587 11.3691H194.617C194.797 11.3691 194.917 11.4891 194.917 11.6691V20.8191C194.917 20.9991 194.797 21.1191 194.617 21.1191Z" fill="#FFDD00"/>
<path d="M248.3 6.10008C247.99 6.12008 247.68 6.15008 247.37 6.19008C247.13 6.16008 246.88 6.13008 246.63 6.11008C240.19 6.58008 235.11 11.9501 235.11 18.5101C235.11 25.0701 240.19 30.4401 246.63 30.9101C246.88 30.8901 247.13 30.8701 247.37 30.8301C247.68 30.8701 247.98 30.9001 248.3 30.9201C254.83 30.5401 260 25.1201 260 18.5001C260 11.8801 254.83 6.47008 248.3 6.08008V6.10008Z" fill="#FFDD00"/>
<path d="M246.63 30.9196C246.94 30.9396 247.24 30.9596 247.56 30.9596C247.81 30.9596 248.06 30.9596 248.3 30.9396C247.99 30.9196 247.68 30.8896 247.37 30.8496C247.13 30.8796 246.88 30.9096 246.63 30.9296V30.9196Z" fill="#FFDD00"/>
<path d="M248.3 6.10008C248.05 6.09008 247.81 6.08008 247.56 6.08008C247.25 6.08008 246.94 6.10008 246.63 6.12008C246.88 6.14008 247.13 6.16008 247.37 6.20008C247.68 6.16008 247.98 6.13008 248.3 6.11008V6.10008Z" fill="#FFDD00"/>
<path d="M242.92 16.93C243.384 16.93 243.76 16.5539 243.76 16.09C243.76 15.6261 243.384 15.25 242.92 15.25C242.456 15.25 242.08 15.6261 242.08 16.09C242.08 16.5539 242.456 16.93 242.92 16.93Z" fill="black"/>
<path d="M252.19 16.93C252.654 16.93 253.03 16.5539 253.03 16.09C253.03 15.6261 252.654 15.25 252.19 15.25C251.726 15.25 251.35 15.6261 251.35 16.09C251.35 16.5539 251.726 16.93 252.19 16.93Z" fill="black"/>
<path d="M245.18 22.8292C245.18 21.5192 246.24 20.4492 247.56 20.4492C248.88 20.4492 249.94 21.5092 249.94 22.8292" stroke="black" stroke-width="0.25" stroke-linecap="round" stroke-linejoin="round"/>
<path opacity="0.1" d="M240.68 20.1399C241.205 20.1399 241.63 19.8668 241.63 19.5299C241.63 19.193 241.205 18.9199 240.68 18.9199C240.155 18.9199 239.73 19.193 239.73 19.5299C239.73 19.8668 240.155 20.1399 240.68 20.1399Z" fill="#C61D23"/>
<path opacity="0.1" d="M254.43 20.1399C254.955 20.1399 255.38 19.8668 255.38 19.5299C255.38 19.193 254.955 18.9199 254.43 18.9199C253.905 18.9199 253.48 19.193 253.48 19.5299C253.48 19.8668 253.905 20.1399 254.43 20.1399Z" fill="#C61D23"/>
<path opacity="0.2" d="M253.284 10.1767C253.35 9.74554 252.661 9.28093 251.744 9.13899C250.827 8.99704 250.03 9.23151 249.963 9.66268C249.896 10.0938 250.586 10.5584 251.502 10.7004C252.419 10.8423 253.217 10.6079 253.284 10.1767Z" fill="white"/>
<path opacity="0.2" d="M252.766 12.4405C253.185 12.4219 253.514 12.1563 253.5 11.8473C253.486 11.5383 253.135 11.303 252.716 11.3217C252.297 11.3403 251.968 11.6059 251.982 11.9149C251.995 12.2239 252.346 12.4592 252.766 12.4405Z" fill="white"/>
</svg>
