<?xml version="1.0" encoding="utf-8"?>
<!-- Generator: Adobe Illustrator 27.4.0, SVG Export Plug-In . SVG Version: 6.00 Build 0)  -->
<svg version="1.1" id="Layer_1" xmlns="http://www.w3.org/2000/svg" xmlns:xlink="http://www.w3.org/1999/xlink" x="0px" y="0px"
	 viewBox="0 0 181.9 173.3" style="enable-background:new 0 0 181.9 173.3;" xml:space="preserve">
<style type="text/css">
	.st0{fill:#FFFFFF;}
	.st1{fill:#ED1944;}
	.st2{fill:#FDDD00;}
	.st3{fill:#3D85C6;}
	.st4{fill:#FEDE00;}
	.st5{fill:#010101;}
</style>
<g>
	<g>
		<g>
			<g>
				<ellipse class="st0" cx="86.6" cy="86.7" rx="81.9" ry="82.3"/>
			</g>
		</g>
	</g>
	<g>
		<g>
			<g>
				<g>
					<path class="st1" d="M45.9,134.1l-4.9,4.2c11.4,9.9,26,16.1,41.9,16.8l0.6-6.3C69.3,148.2,56.2,142.8,45.9,134.1z"/>
				</g>
			</g>
		</g>
		<g>
			<g>
				<g>
					<path class="st2" d="M127.5,140.8c1.4-1.1,1.6-3.1,0.6-4.5c-1.1-1.4-3.1-1.6-4.5-0.6c-9.7,7.6-21.4,12-33.7,12.8
						c-2.1,0.1-4.3,0.2-6.4,0.1l-0.6,6.3c2.5,0.1,4.9,0.1,7.4-0.1C103.9,154,116.8,149.1,127.5,140.8z"/>
				</g>
			</g>
		</g>
		<g>
			<g>
				<g>
					<path class="st3" d="M24.2,91.2c-0.1-1.8-1.6-3.1-3.4-3c-1.8,0.1-3.1,1.6-3,3.4c1.3,18.7,10,35.2,23.1,46.7l4.9-4.2
						C33.6,123.7,25.3,108.5,24.2,91.2z"/>
				</g>
			</g>
		</g>
	</g>
	<g id="XMLID_00000106867762998954340500000016428996726724133527_">
		<g>
			<g>
				<g>
					<g>
						<path d="M119.5,116.4V75.6c0-1.3-1-2.3-2.3-2.3h-12.4v-6.7c0-0.9-0.5-1.7-1.4-2.1l-16.4-7.1v-2l12.9-1.8c1.1-0.2,2-1.1,2-2.3
							v-6.6c0-1.3-1-2.3-2.3-2.3H84.6c-1.3,0-2.3,1-2.3,2.3v12.8l-16.4,7.1c-0.8,0.4-1.4,1.2-1.4,2.1v6.7H52c-1.3,0-2.3,1-2.3,2.3
							v40.8h-3.4v4.6H52h65.2h5.6v-4.6H119.5z M86.9,47h10.3v2.3l-10.3,1.5V47z M84.6,61.5l15.5,6.7v48.3H94v-15.7
							c0-1.3-1-2.3-2.3-2.3H79.1c-1.3,0-2.3,1-2.3,2.3v15.7h-7.7V68.2L84.6,61.5z M81.4,103h8v12.9h-8V103z M54.3,77.9h10.2v38.5
							H54.3V77.9z M104.7,77.9h10.1v38.5h-10.1V77.9z"/>
					</g>
				</g>
			</g>
			<g>
				<g>
					<g>
						<rect x="57" y="81.9" width="4.6" height="12"/>
					</g>
				</g>
			</g>
			<g>
				<g>
					<g>
						<rect x="76.1" y="72.5" width="4.6" height="12"/>
					</g>
				</g>
			</g>
			<g>
				<g>
					<g>
						<rect x="88.6" y="72.5" width="4.6" height="12"/>
					</g>
				</g>
			</g>
			<g>
				<g>
					<g>
						<rect x="107.4" y="81.9" width="4.6" height="12"/>
					</g>
				</g>
			</g>
		</g>
	</g>
	<g>
		<g>
			<g>
				<g>
					<polygon class="st0" points="164.4,76.8 176.8,85.5 169.3,93.7 156.1,85.4 					"/>
				</g>
			</g>
		</g>
		<g>
			<g>
				<g>
					<g>
						<polygon class="st4" points="135.8,124.5 132.3,134.1 140,127.4 						"/>
					</g>
				</g>
			</g>
			<g>
				<g>
					<g>
						<polygon class="st2" points="159.2,87.7 140.5,115.1 146.1,118.9 165.4,92.7 						"/>
					</g>
				</g>
			</g>
			<g>
				<g>
					<g>
						<g>
							<g>
								<g>
									<path class="st5" d="M149.9,123.2c-0.3,0-0.6-0.1-0.9-0.3l-3.8-2.8c-0.3-0.2-0.5-0.6-0.6-0.9c-0.1-0.4,0-0.8,0.3-1.1
										l19.6-26.7c0.2-0.3,0.6-0.5,0.9-0.6c0.4-0.1,0.8,0,1.1,0.3l3.8,2.8c0.6,0.5,0.8,1.4,0.3,2L151,122.7
										c-0.2,0.3-0.6,0.5-0.9,0.6l0,0C150,123.2,149.9,123.2,149.9,123.2z M148.1,118.7l1.5,1.1l17.9-24.4l-1.5-1.1L148.1,118.7z"
										/>
								</g>
							</g>
						</g>
					</g>
					<g>
						<g>
							<g>
								<g>
									<path class="st5" d="M146,120.4c-0.3,0-0.6-0.1-0.9-0.3l-5.4-4c-0.3-0.2-0.5-0.6-0.6-0.9c-0.1-0.4,0-0.8,0.3-1.1l19.6-26.7
										c0.2-0.3,0.6-0.5,0.9-0.6c0.4-0.1,0.8,0,1.1,0.3l5.4,4c0.3,0.2,0.5,0.6,0.6,0.9c0.1,0.4,0,0.8-0.3,1.1l-19.6,26.7
										c-0.2,0.3-0.6,0.5-0.9,0.6l0,0C146.2,120.4,146.1,120.4,146,120.4z M142.7,114.7l3.1,2.3l17.9-24.4l-3.1-2.3L142.7,114.7z"
										/>
								</g>
							</g>
						</g>
					</g>
					<g>
						<g>
							<g>
								<g>
									<path class="st5" d="M140.6,116.5c-0.3,0-0.6-0.1-0.9-0.3l-3.8-2.8c-0.3-0.2-0.5-0.6-0.6-0.9c-0.1-0.4,0-0.8,0.3-1.1
										l19.6-26.7c0.2-0.3,0.6-0.5,0.9-0.6c0.4-0.1,0.8,0,1.1,0.3l3.8,2.8c0.3,0.2,0.5,0.6,0.6,0.9c0.1,0.4,0,0.8-0.3,1.1
										l-19.6,26.7c-0.2,0.3-0.6,0.5-0.9,0.6C140.8,116.4,140.7,116.5,140.6,116.5z M138.9,111.9l1.5,1.1l17.9-24.4l-1.5-1.1
										L138.9,111.9z"/>
								</g>
							</g>
						</g>
					</g>
					<g>
						<g>
							<g>
								<g>
									<path class="st5" d="M169.4,96.5c-0.3,0-0.6-0.1-0.9-0.3l-13-9.6c-0.3-0.2-0.5-0.6-0.6-0.9c-0.1-0.4,0-0.8,0.3-1.1l6.1-8.3
										c1-1.3,2.9-1.6,4.3-0.6l10.5,7.7c1.3,1,1.6,2.9,0.6,4.3l-6.1,8.3c-0.2,0.3-0.6,0.5-0.9,0.6
										C169.6,96.5,169.5,96.5,169.4,96.5z M158.5,85.2l10.7,7.9l5.2-7.1c0-0.1,0-0.2,0-0.2L163.9,78c0,0-0.2,0-0.2,0L158.5,85.2z
										"/>
								</g>
							</g>
						</g>
					</g>
					<g>
						<g>
							<g>
								<g>
									<path class="st5" d="M131.6,134.4c-0.3,0-0.6-0.1-0.9-0.3c-0.5-0.4-0.7-1-0.5-1.6l5.2-20.7c0.2-0.5,0.5-0.8,0.9-1
										c0.4-0.1,0.9-0.1,1.3,0.2l13,9.6c0.4,0.3,0.6,0.7,0.6,1.2c0,0.5-0.2,0.9-0.6,1.2l-18.3,11.1c-0.1,0.1-0.3,0.2-0.6,0.2l0,0
										C131.8,134.4,131.7,134.4,131.6,134.4z M131.9,133L131.9,133C131.9,133,131.9,133,131.9,133L131.9,133z M131.5,132.7
										C131.5,132.7,131.5,132.7,131.5,132.7L131.5,132.7z M137.7,114.6l-3.7,15.1l13.3-8L137.7,114.6z"/>
								</g>
							</g>
						</g>
					</g>
					<g>
						<g>
							<g>
								<g>
									<path class="st5" d="M131.6,134.4c-0.3,0-0.6-0.1-0.9-0.3c-0.5-0.4-0.7-1-0.5-1.6l3.1-9.8c0.1-0.4,0.4-0.7,0.7-0.8
										c0.4-0.2,0.7-0.2,1.1-0.1c1.2,0.4,2.4,1,3.4,1.7c1.1,0.8,2,1.7,2.7,2.8c0.5,0.7,0.3,1.6-0.4,2l-8.5,5.9
										c-0.2,0.1-0.4,0.2-0.6,0.2l0,0l0,0c0,0,0,0,0,0C131.8,134.4,131.7,134.4,131.6,134.4z M135.6,125l-1.4,4.3l3.7-2.6
										c-0.3-0.3-0.7-0.7-1.1-1C136.5,125.5,136.1,125.3,135.6,125z"/>
								</g>
							</g>
						</g>
					</g>
				</g>
			</g>
		</g>
	</g>
	<g>
		<g>
			<g>
				<g>
					<path d="M25.5,76.4c0.1-0.1,0.2-0.1,0.2,0c0.6,0.8,1,1.7,0.9,2.8c-0.2,2.2-2.3,3.8-4.6,3.5c-2.3-0.3-4-2.2-3.7-4.4
						c0.1-1.1,0.7-2,1.5-2.6c0.1-0.1,0.2-0.1,0.2,0l0.7,0.8c0.1,0.1,0.1,0.2,0,0.2c-0.5,0.4-0.8,1-0.9,1.7c-0.1,1.3,0.9,2.5,2.4,2.7
						c1.5,0.2,2.7-0.8,2.9-2.1c0.1-0.7-0.1-1.3-0.5-1.8c-0.1-0.1-0.1-0.2,0-0.2L25.5,76.4z"/>
				</g>
			</g>
		</g>
		<g>
			<g>
				<g>
					<path d="M22.9,69.7l4.9,1c0.1,0,0.1,0.1,0.1,0.2l-0.2,0.9c0,0.1-0.1,0.1-0.2,0.1L27.1,72c0.4,0.5,0.6,1,0.4,1.7
						c-0.3,1.4-1.7,2.2-3.3,1.8c-1.5-0.3-2.5-1.6-2.2-3c0.1-0.6,0.6-1.1,1.1-1.4L22.6,71c-0.1,0-0.1-0.1-0.1-0.2l0.2-0.9
						C22.7,69.7,22.8,69.7,22.9,69.7z M25.1,71.6c-0.8-0.2-1.6,0.2-1.7,1c-0.2,0.7,0.3,1.4,1.2,1.6c0.8,0.2,1.6-0.2,1.8-1
						C26.4,72.5,25.9,71.8,25.1,71.6z"/>
				</g>
			</g>
		</g>
		<g>
			<g>
				<g>
					<path d="M24.3,65.4l0.7,0.5c0.1,0.1,0.1,0.2,0,0.3c-0.1,0.1-0.1,0.2-0.2,0.4c-0.2,0.6,0.2,1.2,0.8,1.4l2.7,0.8
						c0.1,0,0.1,0.1,0.1,0.2l-0.3,1c0,0.1-0.1,0.1-0.2,0.1l-4.8-1.4c-0.1,0-0.1-0.1-0.1-0.2l0.3-1c0-0.1,0.1-0.1,0.2-0.1l0.6,0.1
						c-0.4-0.4-0.7-0.9-0.5-1.5c0.1-0.3,0.3-0.5,0.4-0.6C24.2,65.3,24.3,65.3,24.3,65.4z"/>
				</g>
			</g>
		</g>
		<g>
			<g>
				<g>
					<path d="M25.7,61.6l0.7,0.6c0.1,0.1,0.1,0.2,0,0.3c-0.1,0.1-0.1,0.2-0.2,0.4c-0.2,0.6,0.1,1.2,0.7,1.4l2.7,0.9
						c0.1,0,0.1,0.1,0.1,0.2l-0.4,1c0,0.1-0.1,0.1-0.2,0.1l-4.8-1.7c-0.1,0-0.1-0.1-0.1-0.2l0.3-1c0-0.1,0.1-0.1,0.2-0.1l0.6,0.2
						c-0.4-0.4-0.6-0.9-0.4-1.5c0.1-0.3,0.3-0.5,0.5-0.6C25.5,61.5,25.6,61.5,25.7,61.6z"/>
				</g>
			</g>
		</g>
		<g>
			<g>
				<g>
					<path d="M23.9,60.3c-0.4-0.2-0.6-0.6-0.5-1c0.2-0.4,0.6-0.6,1-0.4c0.4,0.2,0.6,0.6,0.5,1C24.7,60.3,24.3,60.5,23.9,60.3z
						 M25.6,60.8l0.4-1c0-0.1,0.1-0.1,0.2-0.1l4.7,1.9c0.1,0,0.1,0.1,0.1,0.2l-0.4,1c0,0.1-0.1,0.1-0.2,0.1L25.7,61
						C25.6,60.9,25.6,60.9,25.6,60.8z"/>
				</g>
			</g>
		</g>
		<g>
			<g>
				<g>
					<path d="M31.6,56.8c0.9,0.4,1.1,1.6,0.7,2.5c-0.4,0.8-1.1,1.3-1.6,1.4c-0.1,0-0.2,0-0.2-0.1L30,60c-0.1-0.1,0-0.2,0.1-0.2
						c0.4-0.3,0.8-0.6,1-1c0.1-0.3,0.2-0.6-0.1-0.8c-0.8-0.4-1.5,2-3.2,1.3c-0.9-0.4-1.1-1.5-0.7-2.3c0.3-0.6,0.8-1.1,1.5-1.3
						c0.1,0,0.2,0,0.2,0.1l0.3,0.6c0.1,0.1,0,0.2-0.1,0.2c-0.4,0.2-0.6,0.4-0.8,0.7c-0.1,0.3-0.1,0.6,0.2,0.7
						C29.2,58.5,29.8,56,31.6,56.8z"/>
				</g>
			</g>
		</g>
		<g>
			<g>
				<g>
					<path d="M32.3,44.1l6.2,4c0.1,0.1,0.1,0.1,0.1,0.2l-0.6,0.9c-0.1,0.1-0.1,0.1-0.2,0L34,46.9l2.8,3.8c0.1,0.1,0.1,0.2,0,0.2
						l-0.6,0.9c0,0.1-0.1,0.1-0.2,0.1l-4.6-1l3.7,2.4c0.1,0.1,0.1,0.1,0.1,0.2l-0.6,0.9c-0.1,0.1-0.1,0.1-0.2,0l-6.2-4
						C28,50.5,28,50.4,28,50.3l0.7-1.1c0-0.1,0.1-0.1,0.2-0.1l6.1,1.3l-3.7-5c0-0.1,0-0.1,0-0.2l0.7-1.1
						C32.1,44.1,32.2,44,32.3,44.1z"/>
				</g>
			</g>
		</g>
		<g>
			<g>
				<g>
					<path d="M40.3,42.7l-2.1,2.6c0.6,0.3,1.3,0.2,1.8-0.4c0.3-0.3,0.4-0.6,0.4-1.1c0-0.1,0-0.2,0.2-0.2l0.7-0.1
						c0.1,0,0.2,0,0.2,0.2c0.1,0.7-0.1,1.4-0.6,2c-1,1.2-2.7,1.3-3.9,0.3c-1.2-1-1.5-2.6-0.5-3.8c0.9-1.2,2.5-1.1,3.6-0.2
						C40.3,42.3,40.5,42.5,40.3,42.7z M37.5,44.7l1.6-1.9c-0.6-0.4-1.3-0.3-1.7,0.2C36.9,43.5,36.9,44.1,37.5,44.7z"/>
				</g>
			</g>
		</g>
		<g>
			<g>
				<g>
					<path d="M40.8,37.7l0.6,0.6c0.1,0.1,0.1,0.2,0,0.2L41,39l2.9,2.8c0.1,0.1,0.1,0.2,0,0.2l-0.7,0.8c-0.1,0.1-0.2,0.1-0.2,0L40,40
						l-0.5,0.5c-0.1,0.1-0.2,0.1-0.2,0L38.7,40c-0.1-0.1-0.1-0.2,0-0.2l0.5-0.5l-1.1-1C38,38.1,38,38,38.1,38l0.7-0.8
						c0.1-0.1,0.2-0.1,0.2,0l1.1,1l0.5-0.5C40.7,37.6,40.8,37.6,40.8,37.7z"/>
				</g>
			</g>
		</g>
		<g>
			<g>
				<g>
					<path d="M44.1,34.8l0.3,0.8c0.1,0.1,0,0.2-0.1,0.2c-0.1,0-0.2,0.1-0.4,0.2c-0.5,0.4-0.4,1.1,0,1.6l2,2.1c0.1,0.1,0.1,0.2,0,0.2
						l-0.8,0.7c-0.1,0.1-0.2,0.1-0.2,0L41.5,37c-0.1-0.1-0.1-0.2,0-0.2l0.7-0.7c0.1-0.1,0.2-0.1,0.2,0l0.4,0.4
						c-0.2-0.6-0.1-1.1,0.3-1.5c0.2-0.2,0.5-0.3,0.7-0.3C44,34.7,44.1,34.7,44.1,34.8z"/>
				</g>
			</g>
		</g>
		<g>
			<g>
				<g>
					<path d="M45.9,36.3c-1-1.2-0.9-2.9,0.3-3.9c1.1-0.9,2.9-0.7,3.8,0.5c1,1.2,0.9,2.9-0.3,3.9C48.6,37.7,46.9,37.5,45.9,36.3z
						 M49,33.8c-0.5-0.7-1.4-0.8-2-0.3c-0.6,0.5-0.6,1.3-0.1,2c0.5,0.7,1.4,0.8,2,0.3C49.5,35.3,49.6,34.4,49,33.8z"/>
				</g>
			</g>
		</g>
		<g>
			<g>
				<g>
					<path d="M55.2,29.5c0.9,1.3,0.7,2.9-0.5,3.7c-0.5,0.3-1.1,0.4-1.6,0.3l1.4,2c0.1,0.1,0,0.2,0,0.2l-0.9,0.6
						c-0.1,0.1-0.2,0-0.2,0l-4-5.9c-0.1-0.1,0-0.2,0-0.2l0.8-0.5c0.1-0.1,0.2,0,0.2,0l0.3,0.4c0.1-0.6,0.3-1.2,0.9-1.5
						C52.7,27.7,54.3,28.2,55.2,29.5z M54.1,30.2c-0.5-0.7-1.3-0.9-1.9-0.5c-0.6,0.4-0.7,1.3-0.3,2c0.5,0.7,1.3,1,1.9,0.5
						C54.4,31.8,54.5,30.9,54.1,30.2z"/>
				</g>
			</g>
		</g>
		<g>
			<g>
				<g>
					<path d="M55.7,29.1c-0.7-1.4-0.3-3,1-3.7c1.3-0.7,2.9-0.2,3.7,1.2c0.7,1.4,0.3,3-1,3.7C58.1,31.1,56.5,30.5,55.7,29.1z
						 M59.2,27.3c-0.4-0.8-1.2-1-1.9-0.7c-0.7,0.4-0.9,1.2-0.5,1.9c0.4,0.8,1.2,1,1.9,0.7C59.4,28.8,59.7,28,59.2,27.3z"/>
				</g>
			</g>
		</g>
		<g>
			<g>
				<g>
					<path d="M59.1,21.4l1-0.4c0.1,0,0.2,0,0.2,0.1l3.2,7c0,0.1,0,0.2-0.1,0.2l-1,0.4c-0.1,0-0.2,0-0.2-0.1l-3.2-7
						C59,21.5,59,21.5,59.1,21.4z"/>
				</g>
			</g>
		</g>
		<g>
			<g>
				<g>
					<path d="M61.5,21.2c-0.2-0.4,0-0.9,0.4-1c0.4-0.2,0.8,0,1,0.5c0.2,0.4,0,0.9-0.4,1C62.1,21.8,61.7,21.6,61.5,21.2z M62.4,22.8
						l1-0.4c0.1,0,0.2,0,0.2,0.1l1.9,4.7c0,0.1,0,0.2-0.1,0.2l-1,0.4c-0.1,0-0.2,0-0.2-0.1L62.3,23C62.3,23,62.3,22.9,62.4,22.8z"/>
				</g>
			</g>
		</g>
		<g>
			<g>
				<g>
					<path d="M67.4,21.1l0.3,0.8c0,0.1,0,0.2-0.1,0.2l-0.7,0.2l1.3,3.8c0,0.1,0,0.2-0.1,0.2l-1,0.4c-0.1,0-0.2,0-0.2-0.1l-1.3-3.8
						l-0.7,0.2c-0.1,0-0.2,0-0.2-0.1l-0.3-0.8c0-0.1,0-0.2,0.1-0.2l0.7-0.2l-0.5-1.4c0-0.1,0-0.2,0.1-0.2l1-0.4c0.1,0,0.2,0,0.2,0.1
						l0.5,1.4l0.7-0.2C67.3,21,67.3,21.1,67.4,21.1z"/>
				</g>
			</g>
		</g>
		<g>
			<g>
				<g>
					<path d="M73.3,19.5l1.3,4.9c0,0.1,0,0.2-0.1,0.2l-0.9,0.2c-0.1,0-0.2,0-0.2-0.1l-0.2-0.4c-0.2,0.5-0.7,1-1.3,1.1
						c-1.4,0.4-2.7-0.6-3.1-2.1c-0.4-1.5,0.3-3,1.7-3.4c0.6-0.2,1.2,0,1.7,0.4l-0.1-0.5c0-0.1,0-0.2,0.1-0.2l0.9-0.2
						C73.2,19.3,73.3,19.4,73.3,19.5z M72.6,22.3c-0.2-0.8-0.9-1.3-1.7-1.1c-0.7,0.2-1.1,1-0.9,1.8c0.2,0.8,0.9,1.3,1.7,1.1
						C72.5,23.9,72.8,23.1,72.6,22.3z"/>
				</g>
			</g>
		</g>
		<g>
			<g>
				<g>
					<path d="M79.6,20.4l0.5,3c0,0.1,0,0.2-0.1,0.2l-1.1,0.2c-0.1,0-0.2,0-0.2-0.1l-0.4-2.8c-0.1-0.9-0.6-1.1-1.1-1
						c-0.8,0.1-1,1-0.9,1.2l0.5,2.9c0,0.1,0,0.2-0.1,0.2l-1.1,0.2c-0.1,0-0.2,0-0.2-0.1l-0.8-5c0-0.1,0-0.2,0.1-0.2l1-0.2
						c0.1,0,0.2,0,0.2,0.1l0.2,0.7l0,0c0.2-0.6,0.7-1.1,1.4-1.2C78.5,18.3,79.4,19,79.6,20.4z"/>
				</g>
			</g>
		</g>
		<g>
			<g>
				<g>
					<path d="M85.7,18l0.3,5c0,0.1-0.1,0.2-0.1,0.2l-1,0.1c-0.1,0-0.2-0.1-0.2-0.2l-0.1-0.5c-0.3,0.5-0.8,0.8-1.5,0.9
						c-1.4,0.1-2.6-1.1-2.7-2.7c-0.1-1.6,0.9-2.9,2.3-3c0.6,0,1.2,0.3,1.6,0.7l0-0.5c0-0.1,0.1-0.2,0.1-0.2l1-0.1
						C85.6,17.8,85.7,17.9,85.7,18z M84.5,20.6c-0.1-0.8-0.6-1.5-1.4-1.4c-0.8,0-1.3,0.7-1.2,1.6c0.1,0.9,0.6,1.5,1.4,1.4
						C84,22.1,84.5,21.4,84.5,20.6z"/>
				</g>
			</g>
		</g>
		<g>
			<g>
				<g>
					<path d="M94.9,21c-0.1,1.6-1.3,2.7-2.7,2.6c-0.6-0.1-1.1-0.4-1.4-0.8l-0.2,2.5c0,0.1-0.1,0.2-0.2,0.2l-1.1-0.1
						c-0.1,0-0.2-0.1-0.1-0.2l0.6-7.1c0-0.1,0.1-0.2,0.2-0.2l1,0.1C91,18,91,18,91,18.1l0,0.5c0.4-0.4,1-0.7,1.6-0.7
						C94.1,18.1,95,19.4,94.9,21z M93.6,20.9c0.1-0.9-0.4-1.5-1.2-1.6c-0.8-0.1-1.4,0.6-1.4,1.4c-0.1,0.8,0.4,1.6,1.2,1.6
						C92.9,22.3,93.5,21.7,93.6,20.9z"/>
				</g>
			</g>
		</g>
		<g>
			<g>
				<g>
					<path d="M99.4,19.4L99,20.1c-0.1,0.1-0.1,0.1-0.2,0.1c-0.1,0-0.2-0.1-0.4-0.1c-0.6-0.1-1.1,0.3-1.2,1l-0.5,2.8
						c0,0.1-0.1,0.2-0.2,0.1l-1.1-0.2c-0.1,0-0.1-0.1-0.1-0.2l0.8-5c0-0.1,0.1-0.2,0.2-0.1l1,0.2c0.1,0,0.1,0.1,0.1,0.2l-0.1,0.6
						c0.4-0.5,0.8-0.8,1.4-0.7c0.3,0,0.5,0.2,0.6,0.4C99.5,19.2,99.5,19.3,99.4,19.4z"/>
				</g>
			</g>
		</g>
		<g>
			<g>
				<g>
					<path d="M99.4,21.7c0.4-1.5,1.8-2.4,3.3-2.1c1.4,0.4,2.3,1.8,1.9,3.4c-0.4,1.5-1.8,2.4-3.3,2.1C99.8,24.8,99,23.3,99.4,21.7z
						 M103.3,22.7c0.2-0.8-0.2-1.6-0.9-1.8c-0.7-0.2-1.4,0.3-1.7,1.1c-0.2,0.8,0.2,1.6,0.9,1.8C102.3,24,103,23.5,103.3,22.7z
						 M104.4,18l-0.9,1.2c-0.1,0.1-0.1,0.1-0.2,0.1l-0.9-0.2c-0.1,0-0.2-0.1-0.1-0.2l0.9-1.2c0.1-0.1,0.1-0.1,0.2-0.1l0.9,0.2
						C104.4,17.9,104.5,17.9,104.4,18z"/>
				</g>
			</g>
		</g>
		<g>
			<g>
				<g>
					<path d="M108.9,27.4l-1.1-0.4c-0.1,0-0.1-0.1-0.1-0.2l-0.4-1.8l-1.4,1.1c-0.1,0.1-0.1,0.1-0.2,0l-1.1-0.4c-0.1,0-0.1-0.1,0-0.2
						l2.4-1.8l-0.7-2.8c0-0.1,0-0.2,0.2-0.2l1.1,0.4c0.1,0,0.1,0.1,0.1,0.2l0.3,1.6l1.3-1c0.1-0.1,0.1-0.1,0.2,0l1.1,0.4
						c0.1,0,0.1,0.1,0,0.2l-2.3,1.8l0.7,3C109.1,27.4,109,27.4,108.9,27.4z"/>
				</g>
			</g>
		</g>
		<g>
			<g>
				<g>
					<path d="M111.8,22.8l1,0.4c0.1,0,0.1,0.1,0.1,0.2l-2,4.6c0,0.1-0.1,0.1-0.2,0.1l-1-0.4c-0.1,0-0.1-0.1-0.1-0.2l2-4.6
						C111.7,22.8,111.8,22.8,111.8,22.8z M112.3,21.1c0.2-0.4,0.6-0.6,1-0.4c0.4,0.2,0.6,0.6,0.4,1c-0.2,0.4-0.6,0.6-1,0.4
						C112.3,21.9,112.2,21.5,112.3,21.1z"/>
				</g>
			</g>
		</g>
		<g>
			<g>
				<g>
					<path d="M120.4,29.6l-1.5,2.7c0,0.1-0.1,0.1-0.2,0.1l-0.9-0.5c-0.1,0-0.1-0.1-0.1-0.2l1.3-2.5c0.4-0.8,0.2-1.3-0.3-1.5
						c-0.7-0.4-1.3,0-1.5,0.4l-1.4,2.6c0,0.1-0.1,0.1-0.2,0.1l-0.9-0.5c-0.1,0-0.1-0.1-0.1-0.2l1.3-2.5c0.4-0.8,0.2-1.3-0.3-1.5
						c-0.7-0.4-1.4,0.2-1.5,0.4l-1.4,2.6c0,0.1-0.1,0.1-0.2,0.1l-0.9-0.5c-0.1,0-0.1-0.1-0.1-0.2l2.4-4.4c0-0.1,0.1-0.1,0.2-0.1
						l0.9,0.5c0.1,0,0.1,0.1,0.1,0.2l-0.3,0.6l0,0c0.6-0.3,1.3-0.5,1.9-0.1c0.6,0.3,0.9,0.9,0.9,1.6c0.6-0.3,1.3-0.4,2.1,0
						C120.8,27.2,121.1,28.3,120.4,29.6z"/>
				</g>
			</g>
		</g>
		<g>
			<g>
				<g>
					<path d="M126.7,31.7l-3,4.1c-0.1,0.1-0.1,0.1-0.2,0l-0.8-0.6c-0.1-0.1-0.1-0.1,0-0.2l0.2-0.4c-0.6,0.2-1.2,0.1-1.7-0.3
						c-1.2-0.8-1.3-2.5-0.4-3.7c0.9-1.3,2.5-1.7,3.7-0.8c0.5,0.4,0.8,1,0.8,1.6l0.3-0.4c0.1-0.1,0.1-0.1,0.2,0l0.8,0.6
						C126.7,31.5,126.7,31.6,126.7,31.7z M124.1,32.9c0.5-0.7,0.4-1.5-0.2-2c-0.6-0.4-1.4-0.3-1.9,0.4c-0.5,0.7-0.4,1.6,0.2,2
						C122.7,33.8,123.6,33.6,124.1,32.9z"/>
				</g>
			</g>
		</g>
		<g>
			<g>
				<g>
					<path d="M135.3,35.9l-5.3,5.5c-0.1,0.1-0.2,0.1-0.2,0l-0.7-0.7c-0.1-0.1-0.1-0.1,0-0.2l0.3-0.4c-0.6,0.1-1.2-0.1-1.7-0.5
						c-1-1-0.9-2.6,0.2-3.8c1.1-1.1,2.7-1.3,3.7-0.3c0.4,0.4,0.6,1,0.6,1.5l2.1-2.2c0.1-0.1,0.2-0.1,0.2,0l0.8,0.7
						C135.4,35.8,135.4,35.9,135.3,35.9z M130.8,38.7c0.6-0.6,0.6-1.5,0.1-2c-0.6-0.5-1.4-0.5-2,0.2c-0.6,0.6-0.6,1.5-0.1,2
						C129.3,39.4,130.2,39.3,130.8,38.7z"/>
				</g>
			</g>
		</g>
		<g>
			<g>
				<g>
					<path d="M137.7,42.7l-3.8,3.3c-0.1,0.1-0.2,0.1-0.2,0l-0.6-0.7c-0.1-0.1,0-0.2,0-0.2l0.3-0.3c-0.6,0-1.2-0.2-1.6-0.7
						c-0.9-1.1-0.7-2.7,0.5-3.7c1.2-1,2.8-1,3.8,0c0.4,0.5,0.5,1.1,0.4,1.7l0.4-0.3c0.1-0.1,0.2-0.1,0.2,0l0.6,0.7
						C137.8,42.5,137.8,42.6,137.7,42.7z M134.9,43.2c0.6-0.5,0.8-1.4,0.3-2c-0.5-0.6-1.3-0.6-2,0c-0.7,0.6-0.8,1.4-0.3,2
						C133.4,43.8,134.3,43.8,134.9,43.2z"/>
				</g>
			</g>
		</g>
		<g>
			<g>
				<g>
					<path d="M137.7,48.8c-0.8,0.6-1.9,0.1-2.5-0.6c-0.5-0.7-0.6-1.6-0.4-2.1c0-0.1,0.1-0.1,0.2-0.1l0.7,0c0.1,0,0.1,0.1,0.1,0.2
						c0,0.5,0.1,1,0.4,1.3c0.2,0.3,0.5,0.5,0.8,0.3c0.7-0.5-1-2.3,0.4-3.4c0.8-0.6,1.8-0.3,2.4,0.5c0.4,0.5,0.6,1.2,0.4,1.9
						c0,0.1-0.1,0.1-0.2,0.1l-0.7,0c-0.1,0-0.1-0.1-0.1-0.2c0-0.5,0-0.8-0.3-1.1c-0.2-0.3-0.5-0.3-0.7-0.2
						C137.4,45.9,139.3,47.6,137.7,48.8z"/>
				</g>
			</g>
		</g>
		<g>
			<g>
				<g>
					<path d="M142.2,55.2l-1.6-2.9c-0.6,0.5-0.6,1.1-0.3,1.8c0.2,0.4,0.5,0.6,0.9,0.8c0.1,0,0.1,0.1,0.1,0.2l-0.2,0.6
						c0,0.1-0.1,0.1-0.2,0.1c-0.7-0.2-1.3-0.6-1.7-1.3c-0.8-1.4-0.3-3,1.1-3.7c1.4-0.8,3-0.4,3.7,0.9c0.7,1.3,0.1,2.7-1.1,3.5
						C142.6,55.4,142.4,55.4,142.2,55.2z M141.4,51.8l1.2,2.1c0.6-0.5,0.7-1.1,0.4-1.6C142.8,51.8,142.2,51.6,141.4,51.8z"/>
				</g>
			</g>
		</g>
		<g>
			<g>
				<g>
					<path d="M143.8,59.9c-0.9,0.4-1.9-0.2-2.3-1.1c-0.4-0.8-0.3-1.6,0-2.2c0-0.1,0.1-0.1,0.2-0.1l0.7,0.1c0.1,0,0.1,0.1,0.1,0.2
						c-0.1,0.5-0.1,1,0.1,1.4c0.1,0.3,0.4,0.6,0.7,0.4c0.8-0.4-0.6-2.5,1.1-3.2c0.9-0.4,1.8,0.1,2.2,0.9c0.3,0.6,0.3,1.3,0,1.9
						c0,0.1-0.1,0.1-0.2,0.1l-0.7-0.1c-0.1,0-0.1-0.1-0.1-0.2c0.1-0.5,0.1-0.8-0.1-1.1c-0.1-0.3-0.4-0.4-0.7-0.3
						C144.1,57,145.5,59,143.8,59.9z"/>
				</g>
			</g>
		</g>
		<g>
			<g>
				<g>
					<path d="M145.5,63.7c0.1,0.1,0.1,0.1,0.1,0.2l-0.4,0.8c0,0.1-0.1,0.1-0.2,0.1c-0.7-0.2-1.3-0.8-1.6-1.5
						c-0.5-1.4,0.2-2.9,1.7-3.5c1.5-0.6,3,0.1,3.6,1.4c0.3,0.7,0.2,1.5-0.2,2.2c0,0.1-0.1,0.1-0.2,0.1l-0.8-0.4
						c-0.1,0-0.1-0.1-0.1-0.2c0.2-0.4,0.2-0.7,0.1-1.2c-0.3-0.7-1.1-1-1.9-0.7c-0.8,0.3-1.2,1-0.9,1.8
						C144.8,63.4,145.1,63.6,145.5,63.7z"/>
				</g>
			</g>
		</g>
		<g>
			<g>
				<g>
					<path d="M146.9,64.8c1.5-0.4,3,0.4,3.5,1.8c0.4,1.4-0.4,2.9-2,3.3s-3-0.4-3.5-1.8C144.6,66.7,145.4,65.2,146.9,64.8z M148,68.6
						c0.8-0.2,1.3-1,1.1-1.7c-0.2-0.7-1-1.1-1.8-0.9c-0.8,0.2-1.3,1-1.1,1.7C146.5,68.5,147.2,68.9,148,68.6z"/>
				</g>
			</g>
		</g>
		<g>
			<g>
				<g>
					<path d="M153.8,69.7l0.2,1c0,0.1,0,0.2-0.1,0.2l-7.5,1.7c-0.1,0-0.2,0-0.2-0.1l-0.2-1c0-0.1,0-0.2,0.1-0.2l7.5-1.7
						C153.7,69.5,153.8,69.6,153.8,69.7z"/>
				</g>
			</g>
		</g>
		<g>
			<g>
				<g>
					<path d="M152.4,77.7l-5,0.8c-0.1,0-0.2,0-0.2-0.1l-0.2-1c0-0.1,0-0.2,0.1-0.2l0.4-0.1c-0.5-0.3-0.9-0.7-1-1.4
						c-0.2-1.4,0.8-2.7,2.4-2.9c1.5-0.2,3,0.6,3.2,2c0.1,0.6-0.1,1.2-0.5,1.7l0.5,0c0.1,0,0.2,0,0.2,0.1l0.2,1
						C152.6,77.6,152.5,77.7,152.4,77.7z M149.7,76.7c0.8-0.1,1.4-0.8,1.3-1.5c-0.1-0.8-0.8-1.2-1.7-1.1c-0.9,0.1-1.4,0.8-1.3,1.5
						C148.1,76.4,148.9,76.9,149.7,76.7z"/>
				</g>
			</g>
		</g>
		<g>
			<g>
				<g>
					<path d="M149.1,82.9c-1,0.1-1.7-0.9-1.8-1.8c-0.1-0.9,0.3-1.6,0.7-2c0.1-0.1,0.1-0.1,0.2,0l0.6,0.4c0.1,0.1,0.1,0.1,0,0.2
						c-0.2,0.4-0.4,0.9-0.4,1.3c0,0.3,0.2,0.6,0.5,0.6c0.9-0.1,0.3-2.5,2.1-2.7c1-0.1,1.7,0.7,1.8,1.6c0.1,0.7-0.2,1.4-0.7,1.8
						c-0.1,0.1-0.2,0.1-0.2,0l-0.6-0.4c-0.1-0.1-0.1-0.1,0-0.2c0.2-0.4,0.4-0.7,0.3-1c0-0.3-0.2-0.5-0.5-0.5
						C150.4,80.3,151.1,82.7,149.1,82.9z"/>
				</g>
			</g>
		</g>
	</g>
	<g>
		<g>
			<g>
				<circle cx="21.1" cy="91.6" r="3.4"/>
			</g>
		</g>
	</g>
	<g>
		<g>
			<g>
				<circle cx="43.9" cy="136.5" r="3.4"/>
			</g>
		</g>
	</g>
	<g>
		<g>
			<g>
				<circle cx="83.5" cy="152" r="3.4"/>
			</g>
		</g>
	</g>
	<g>
		<g>
			<g>
				<circle cx="125.5" cy="138.6" r="3.4"/>
			</g>
		</g>
	</g>
</g>
</svg>
