<?xml version="1.0" encoding="UTF-8"?>
<svg id="Camada_2" data-name="Camada 2" xmlns="http://www.w3.org/2000/svg" viewBox="0 0 1168.18 639.16">
  <defs>
    <style>
      .cls-1, .cls-2 {
        fill: #fd0;
      }

      .cls-3 {
        fill: #fdb71a;
      }

      .cls-4, .cls-2 {
        opacity: .2;
      }
    </style>
  </defs>
  <rect class="cls-2" x="16.18" y="25.39" width="1121.4" height="585" rx="80.1" ry="80.1"/>
  <g class="cls-4">
    <path class="cls-1" d="M1137.58,530.29V105.49c0-13.43-3.32-26.07-9.16-37.19-34.61,41.47-73.96,79.6-121.1,105.75-49.07,27.23-105.91,41.16-149.32,76.72-33.3,27.28-56.72,65.85-92.71,89.46-26.81,17.59-58.79,25.64-86.58,41.62-25.94,14.91-47.46,36.25-70.51,55.33-77.78,64.38-175.88,103.82-276.58,111.22-28.97,2.13-58.15,1.68-86.97,5.29-27.3,3.42-54.01,10.46-80.62,17.47-35.96,9.48-71.92,18.95-107.88,28.43,11.8,6.85,25.5,10.79,40.13,10.79h961.2c44.24,0,80.1-35.86,80.1-80.1Z"/>
    <path class="cls-2" d="M1137.58,530.29V105.49c0-13.43-3.32-26.07-9.16-37.19-34.61,41.47-73.96,79.6-121.1,105.75-49.07,27.23-105.91,41.16-149.32,76.72-33.3,27.28-56.72,65.85-92.71,89.46-26.81,17.59-58.79,25.64-86.58,41.62-25.94,14.91-47.46,36.25-70.51,55.33-77.78,64.38-175.88,103.82-276.58,111.22-28.97,2.13-58.15,1.68-86.97,5.29-27.3,3.42-54.01,10.46-80.62,17.47-35.96,9.48-71.92,18.95-107.88,28.43,11.8,6.85,25.5,10.79,40.13,10.79h961.2c44.24,0,80.1-35.86,80.1-80.1Z"/>
  </g>
  <g>
    <g class="cls-4">
      <path class="cls-1" d="M1137.58,530.29v-221.74c-51.25,21.62-112.28,16.2-167.41,29.72-60.28,14.78-112.38,52.06-160.36,91.43-14.6,11.97-29.25,24.39-46.61,31.83-23.71,10.16-51.01,10.36-73.95,22.14-16.02,8.23-28.8,21.55-43.88,31.4-18.96,12.38-41.03,18.94-62.76,25.34-29.19,8.6-58.64,17.25-88.98,19.69-30.76,2.47-61.94-1.51-92.44,3.17-32.35,4.97-62.49,19.47-94.49,26.32-33.13,7.09-67.41,5.83-101.12,9.13-18.36,1.79-37.07,5.21-54.3,11.69h906.19c44.24,0,80.1-35.86,80.1-80.1Z"/>
    </g>
    <path class="cls-2" d="M1137.58,530.29v-221.74c-51.25,21.62-112.28,16.2-167.41,29.72-60.28,14.78-112.38,52.06-160.36,91.43-14.6,11.97-29.25,24.39-46.61,31.83-23.71,10.16-51.01,10.36-73.95,22.14-16.02,8.23-28.8,21.55-43.88,31.4-18.96,12.38-41.03,18.94-62.76,25.34-29.19,8.6-58.64,17.25-88.98,19.69-30.76,2.47-61.94-1.51-92.44,3.17-32.35,4.97-62.49,19.47-94.49,26.32-33.13,7.09-67.41,5.83-101.12,9.13-18.36,1.79-37.07,5.21-54.3,11.69h906.19c44.24,0,80.1-35.86,80.1-80.1Z"/>
  </g>
  <g>
    <path class="cls-1" d="M1137.58,530.29v-97.87c-30.47-1.68-61.26,2.38-90.24,11.96-21.01,6.95-40.98,16.72-61.88,23.98-70.75,24.6-150.6,20.11-217.35,54.11-33.09,16.86-61.4,42.52-95.67,56.83-41.42,17.29-87.74,16.56-132.6,18.05-30.25,1-61.57,3.53-89.99,13.04h607.63c44.24,0,80.1-35.86,80.1-80.1Z"/>
    <path class="cls-2" d="M1137.58,530.29v-97.87c-30.47-1.68-61.26,2.38-90.24,11.96-21.01,6.95-40.98,16.72-61.88,23.98-70.75,24.6-150.6,20.11-217.35,54.11-33.09,16.86-61.4,42.52-95.67,56.83-41.42,17.29-87.74,16.56-132.6,18.05-30.25,1-61.57,3.53-89.99,13.04h607.63c44.24,0,80.1-35.86,80.1-80.1Z"/>
  </g>
  <g>
    <path class="cls-3" d="M126.33,229.64l40.83-80.81v-.66h-47.39v-14.53h65.39v14.86l-40.78,81.14h-18.05Z"/>
    <path class="cls-3" d="M233.72,231.46c-7.72,0-14.34-1.96-19.85-5.88s-9.75-9.59-12.7-17.02-4.43-16.37-4.43-26.84c.03-10.47,1.52-19.38,4.48-26.74s7.19-12.98,12.7-16.85,12.12-5.81,19.8-5.81,14.3,1.94,19.83,5.81,9.77,9.5,12.73,16.88,4.43,16.28,4.43,26.72-1.48,19.46-4.43,26.88-7.19,13.09-12.7,16.99-12.13,5.86-19.85,5.86ZM233.72,216.79c6,0,10.74-2.96,14.23-8.88s5.23-14.65,5.23-26.18c0-7.62-.8-14.03-2.39-19.22s-3.84-9.1-6.75-11.74-6.34-3.96-10.31-3.96c-5.97,0-10.69,2.96-14.16,8.88s-5.22,14.6-5.25,26.04c-.03,7.66.74,14.09,2.32,19.31s3.82,9.15,6.73,11.79,6.36,3.96,10.36,3.96Z"/>
    <path class="cls-3" d="M321.75,231.46c-7.72,0-14.34-1.96-19.85-5.88s-9.75-9.59-12.7-17.02-4.43-16.37-4.43-26.84c.03-10.47,1.52-19.38,4.48-26.74s7.19-12.98,12.7-16.85,12.12-5.81,19.8-5.81,14.3,1.94,19.83,5.81,9.77,9.5,12.73,16.88,4.43,16.28,4.43,26.72-1.48,19.46-4.43,26.88-7.19,13.09-12.7,16.99-12.13,5.86-19.85,5.86ZM321.75,216.79c6,0,10.74-2.96,14.23-8.88s5.23-14.65,5.23-26.18c0-7.62-.8-14.03-2.39-19.22s-3.84-9.1-6.75-11.74-6.34-3.96-10.31-3.96c-5.97,0-10.69,2.96-14.16,8.88s-5.22,14.6-5.25,26.04c-.03,7.66.74,14.09,2.32,19.31s3.82,9.15,6.73,11.79,6.36,3.96,10.36,3.96Z"/>
    <path class="cls-3" d="M442.54,231.46c-7.72,0-14.34-1.96-19.85-5.88s-9.75-9.59-12.7-17.02-4.43-16.37-4.43-26.84c.03-10.47,1.52-19.38,4.48-26.74s7.19-12.98,12.7-16.85,12.12-5.81,19.8-5.81,14.3,1.94,19.83,5.81,9.77,9.5,12.73,16.88,4.43,16.28,4.43,26.72-1.48,19.46-4.43,26.88-7.19,13.09-12.7,16.99-12.13,5.86-19.85,5.86ZM442.54,216.79c6,0,10.74-2.96,14.23-8.88s5.23-14.65,5.23-26.18c0-7.62-.8-14.03-2.39-19.22s-3.84-9.1-6.75-11.74-6.34-3.96-10.31-3.96c-5.97,0-10.69,2.96-14.16,8.88s-5.22,14.6-5.25,26.04c-.03,7.66.74,14.09,2.32,19.31s3.82,9.15,6.73,11.79,6.36,3.96,10.36,3.96Z"/>
    <path class="cls-3" d="M530.58,231.46c-7.72,0-14.34-1.96-19.85-5.88s-9.75-9.59-12.7-17.02-4.43-16.37-4.43-26.84c.03-10.47,1.52-19.38,4.48-26.74s7.19-12.98,12.7-16.85,12.12-5.81,19.8-5.81,14.3,1.94,19.83,5.81,9.77,9.5,12.73,16.88,4.43,16.28,4.43,26.72-1.48,19.46-4.43,26.88-7.19,13.09-12.7,16.99-12.13,5.86-19.85,5.86ZM530.58,216.79c6,0,10.74-2.96,14.23-8.88s5.23-14.65,5.23-26.18c0-7.62-.8-14.03-2.39-19.22s-3.84-9.1-6.75-11.74-6.34-3.96-10.31-3.96c-5.97,0-10.69,2.96-14.16,8.88s-5.22,14.6-5.25,26.04c-.03,7.66.74,14.09,2.32,19.31s3.82,9.15,6.73,11.79,6.36,3.96,10.36,3.96Z"/>
    <path class="cls-3" d="M618.61,231.46c-7.72,0-14.34-1.96-19.85-5.88-5.52-3.92-9.75-9.59-12.7-17.02s-4.43-16.37-4.43-26.84c.03-10.47,1.52-19.38,4.48-26.74s7.19-12.98,12.7-16.85c5.51-3.88,12.12-5.81,19.8-5.81s14.3,1.94,19.83,5.81,9.77,9.5,12.73,16.88,4.43,16.28,4.43,26.72-1.48,19.46-4.43,26.88-7.19,13.09-12.7,16.99c-5.52,3.91-12.13,5.86-19.85,5.86ZM618.61,216.79c6,0,10.74-2.96,14.23-8.88,3.48-5.92,5.23-14.65,5.23-26.18,0-7.62-.8-14.03-2.39-19.22s-3.84-9.1-6.75-11.74-6.34-3.96-10.31-3.96c-5.97,0-10.69,2.96-14.16,8.88s-5.22,14.6-5.25,26.04c-.03,7.66.74,14.09,2.32,19.31,1.58,5.22,3.82,9.15,6.73,11.79s6.36,3.96,10.36,3.96Z"/>
  </g>
  <g>
    <path class="cls-3" d="M119.52,291.9v-21.75h4.33v2.66h.2c.19-.43.47-.86.84-1.3.37-.44.85-.81,1.44-1.11s1.33-.45,2.22-.45c1.15,0,2.22.3,3.19.9s1.75,1.5,2.34,2.71c.58,1.21.88,2.71.88,4.53s-.28,3.25-.85,4.46-1.34,2.13-2.31,2.75c-.97.62-2.06.93-3.26.93-.85,0-1.57-.14-2.17-.42s-1.08-.64-1.46-1.07-.67-.86-.87-1.3h-.13v8.46h-4.39ZM123.81,278.06c0,.94.13,1.76.39,2.46.26.7.64,1.25,1.13,1.63.49.39,1.09.58,1.8.58s1.32-.2,1.81-.59c.49-.39.87-.94,1.13-1.65.26-.7.39-1.52.39-2.44s-.13-1.72-.38-2.41c-.25-.69-.63-1.24-1.12-1.63-.5-.39-1.1-.59-1.82-.59s-1.32.19-1.81.57c-.49.38-.87.91-1.13,1.61s-.39,1.51-.39,2.45Z"/>
    <path class="cls-3" d="M142.37,286.26c-1.01,0-1.91-.18-2.7-.53-.79-.35-1.41-.88-1.87-1.58-.46-.7-.69-1.57-.69-2.61,0-.88.16-1.62.48-2.21.32-.6.76-1.08,1.32-1.44.56-.36,1.19-.64,1.9-.82.71-.19,1.46-.32,2.24-.39.92-.1,1.66-.19,2.22-.27s.97-.21,1.23-.39.38-.43.38-.76v-.06c0-.65-.2-1.16-.61-1.51-.41-.36-.99-.54-1.73-.54-.79,0-1.42.17-1.88.52-.47.35-.78.78-.93,1.3l-4.06-.33c.21-.96.61-1.79,1.21-2.5.6-.7,1.38-1.25,2.34-1.63.96-.38,2.07-.57,3.33-.57.88,0,1.72.1,2.53.31s1.52.52,2.15.96c.63.43,1.12.99,1.49,1.66.36.68.54,1.49.54,2.43v10.67h-4.16v-2.19h-.12c-.25.49-.59.93-1.02,1.3s-.94.67-1.54.88c-.6.21-1.29.31-2.07.31ZM143.62,283.24c.65,0,1.22-.13,1.71-.39s.88-.61,1.16-1.04c.28-.44.42-.94.42-1.49v-1.68c-.14.09-.32.17-.56.24-.24.07-.5.14-.8.2s-.59.11-.89.15c-.3.04-.56.08-.8.12-.51.08-.96.2-1.35.36-.38.17-.68.39-.9.67-.21.28-.32.62-.32,1.03,0,.6.22,1.05.65,1.37s.99.47,1.66.47Z"/>
    <path class="cls-3" d="M167.85,274.66l-4.02.25c-.07-.34-.22-.65-.44-.93s-.52-.5-.89-.67c-.37-.17-.81-.25-1.31-.25-.68,0-1.25.14-1.72.43-.47.28-.7.66-.7,1.14,0,.38.15.7.45.96.3.26.82.47,1.56.63l2.86.58c1.54.32,2.69.82,3.44,1.52s1.13,1.62,1.13,2.76c0,1.04-.3,1.95-.91,2.73-.61.78-1.44,1.39-2.49,1.83-1.05.44-2.27.65-3.64.65-2.09,0-3.76-.44-5-1.31-1.24-.88-1.96-2.07-2.18-3.58l4.31-.23c.13.64.45,1.12.95,1.46.5.33,1.14.5,1.93.5s1.39-.15,1.86-.45.71-.68.71-1.16c0-.4-.17-.73-.5-.98-.33-.26-.84-.46-1.52-.59l-2.74-.55c-1.54-.31-2.69-.84-3.45-1.61-.75-.76-1.13-1.73-1.13-2.91,0-1.02.28-1.89.83-2.63.55-.73,1.33-1.3,2.34-1.7s2.19-.6,3.54-.6c2,0,3.57.42,4.72,1.27,1.15.84,1.82,2,2.01,3.45Z"/>
    <path class="cls-3" d="M184.14,274.66l-4.02.25c-.07-.34-.22-.65-.44-.93s-.52-.5-.89-.67c-.37-.17-.8-.25-1.31-.25-.68,0-1.25.14-1.72.43-.47.28-.7.66-.7,1.14,0,.38.15.7.45.96.3.26.82.47,1.55.63l2.86.58c1.54.32,2.68.82,3.44,1.52.75.7,1.13,1.62,1.13,2.76,0,1.04-.3,1.95-.91,2.73-.61.78-1.44,1.39-2.49,1.83-1.05.44-2.27.65-3.64.65-2.09,0-3.76-.44-5-1.31-1.24-.88-1.97-2.07-2.18-3.58l4.32-.23c.13.64.45,1.12.95,1.46.5.33,1.14.5,1.93.5s1.39-.15,1.86-.45c.47-.3.71-.68.72-1.16,0-.4-.18-.73-.5-.98-.33-.26-.84-.46-1.52-.59l-2.74-.55c-1.54-.31-2.69-.84-3.44-1.61-.75-.76-1.13-1.73-1.13-2.91,0-1.02.28-1.89.83-2.63s1.33-1.3,2.34-1.7,2.18-.6,3.54-.6c2,0,3.57.42,4.72,1.27,1.15.84,1.82,2,2.01,3.45Z"/>
    <path class="cls-3" d="M191.78,286.26c-1.01,0-1.91-.18-2.7-.53s-1.41-.88-1.87-1.58c-.46-.7-.68-1.57-.68-2.61,0-.88.16-1.62.48-2.21.32-.6.76-1.08,1.32-1.44.56-.36,1.19-.64,1.9-.82s1.46-.32,2.24-.39c.92-.1,1.66-.19,2.22-.27.56-.09.97-.21,1.22-.39s.38-.43.38-.76v-.06c0-.65-.2-1.16-.61-1.51-.41-.36-.99-.54-1.74-.54-.79,0-1.42.17-1.88.52-.47.35-.78.78-.93,1.3l-4.06-.33c.21-.96.61-1.79,1.22-2.5.6-.7,1.38-1.25,2.34-1.63.96-.38,2.07-.57,3.33-.57.88,0,1.72.1,2.53.31s1.52.52,2.15.96c.63.43,1.12.99,1.49,1.66.36.68.55,1.49.55,2.43v10.67h-4.16v-2.19h-.12c-.25.49-.59.93-1.02,1.3s-.94.67-1.53.88c-.6.21-1.29.31-2.07.31ZM193.04,283.24c.64,0,1.21-.13,1.71-.39s.88-.61,1.16-1.04.42-.94.42-1.49v-1.68c-.14.09-.32.17-.56.24-.24.07-.5.14-.8.2s-.59.11-.88.15c-.3.04-.56.08-.8.12-.51.08-.96.2-1.35.36-.38.17-.68.39-.9.67-.21.28-.32.62-.32,1.03,0,.6.22,1.05.65,1.37.44.31.99.47,1.66.47Z"/>
    <path class="cls-3" d="M211.22,292.23c-1.42,0-2.64-.19-3.65-.58s-1.82-.92-2.41-1.58c-.6-.67-.99-1.41-1.16-2.25l4.06-.55c.12.32.32.61.59.89s.62.5,1.07.66c.44.17.98.25,1.62.25.95,0,1.74-.23,2.36-.7.62-.46.93-1.24.93-2.32v-2.89h-.18c-.19.44-.48.85-.87,1.25-.38.39-.88.71-1.48.96-.6.25-1.32.37-2.16.37-1.19,0-2.27-.28-3.24-.83-.97-.55-1.74-1.4-2.32-2.54-.57-1.14-.86-2.59-.86-4.34s.29-3.29.88-4.49c.58-1.2,1.36-2.1,2.33-2.7.97-.6,2.04-.9,3.2-.9.88,0,1.63.15,2.22.45.6.3,1.08.67,1.45,1.11.37.44.65.88.85,1.3h.17v-2.66h4.36v15.97c0,1.35-.33,2.47-.99,3.38s-1.57,1.59-2.73,2.04c-1.16.46-2.5.69-4.01.69ZM211.31,282.44c.71,0,1.31-.18,1.8-.53.49-.35.87-.86,1.13-1.52.26-.66.4-1.46.4-2.38s-.13-1.73-.39-2.42c-.26-.68-.64-1.21-1.13-1.59-.49-.38-1.09-.57-1.8-.57s-1.33.19-1.82.58-.87.92-1.12,1.61-.38,1.48-.38,2.38.13,1.7.39,2.36c.26.66.63,1.17,1.12,1.53.49.36,1.1.54,1.82.54Z"/>
    <path class="cls-3" d="M229.67,286.27c-1.63,0-3.03-.33-4.2-.99-1.17-.66-2.07-1.6-2.7-2.82s-.95-2.66-.95-4.33.32-3.05.95-4.28c.63-1.23,1.52-2.19,2.67-2.87,1.15-.69,2.5-1.03,4.05-1.03,1.04,0,2.02.17,2.92.5s1.69.83,2.37,1.5c.68.67,1.2,1.5,1.58,2.51s.57,2.18.57,3.53v1.21h-13.36v-2.72h9.23c0-.63-.14-1.19-.41-1.68-.28-.49-.65-.87-1.14-1.15s-1.04-.42-1.68-.42-1.25.15-1.77.46c-.51.31-.91.71-1.2,1.23s-.44,1.08-.44,1.7v2.58c0,.78.15,1.46.44,2.03.29.57.71,1.01,1.24,1.32.54.31,1.17.46,1.91.46.49,0,.93-.07,1.34-.21.41-.14.75-.34,1.04-.62.29-.27.51-.61.66-1.01l4.06.27c-.21.97-.63,1.82-1.26,2.55-.64.72-1.45,1.29-2.45,1.69-1,.4-2.15.6-3.46.6Z"/>
    <path class="cls-3" d="M241.99,268.11c-.65,0-1.21-.22-1.67-.65-.46-.44-.7-.96-.7-1.57s.23-1.12.7-1.56c.46-.44,1.02-.65,1.67-.65s1.21.22,1.67.65c.46.44.7.96.7,1.56s-.23,1.13-.7,1.57c-.46.44-1.02.65-1.67.65ZM239.79,285.97v-15.82h4.39v15.82h-4.39Z"/>
    <path class="cls-3" d="M247.68,285.97v-15.82h4.25v2.76h.17c.29-.98.77-1.72,1.45-2.23.68-.5,1.46-.76,2.35-.76.22,0,.46.01.71.04.25.03.48.07.67.11v3.89c-.21-.06-.49-.12-.86-.17-.36-.05-.7-.07-1-.07-.65,0-1.22.14-1.73.42s-.9.66-1.19,1.16c-.29.5-.44,1.06-.44,1.71v8.95h-4.39Z"/>
    <path class="cls-3" d="M265.94,286.27c-1.6,0-2.98-.34-4.14-1.02-1.16-.68-2.06-1.64-2.69-2.86-.63-1.22-.95-2.65-.95-4.27s.32-3.06.95-4.29,1.53-2.18,2.69-2.86c1.16-.68,2.54-1.03,4.14-1.03s2.98.34,4.15,1.03c1.16.68,2.06,1.64,2.69,2.86.63,1.23.95,2.66.95,4.29s-.32,3.04-.95,4.27c-.63,1.23-1.53,2.18-2.69,2.86-1.16.68-2.55,1.02-4.15,1.02ZM265.96,282.88c.73,0,1.33-.21,1.82-.62.49-.42.86-.98,1.11-1.7.25-.72.38-1.54.38-2.46s-.12-1.74-.38-2.46c-.25-.72-.62-1.29-1.11-1.71-.49-.42-1.1-.63-1.82-.63s-1.35.21-1.85.63-.87.99-1.12,1.71c-.25.72-.38,1.54-.38,2.46s.12,1.74.38,2.46.62,1.29,1.12,1.7c.5.42,1.11.62,1.85.62Z"/>
    <path class="cls-3" d="M289.75,274.66l-4.02.25c-.07-.34-.22-.65-.44-.93s-.52-.5-.89-.67c-.37-.17-.8-.25-1.31-.25-.68,0-1.25.14-1.72.43-.47.28-.7.66-.7,1.14,0,.38.15.7.45.96.3.26.82.47,1.55.63l2.86.58c1.54.32,2.68.82,3.44,1.52.75.7,1.13,1.62,1.13,2.76,0,1.04-.3,1.95-.91,2.73-.61.78-1.44,1.39-2.49,1.83-1.05.44-2.27.65-3.64.65-2.09,0-3.76-.44-5-1.31-1.24-.88-1.97-2.07-2.18-3.58l4.32-.23c.13.64.45,1.12.95,1.46.5.33,1.14.5,1.93.5s1.39-.15,1.86-.45c.47-.3.71-.68.72-1.16,0-.4-.18-.73-.5-.98-.33-.26-.84-.46-1.52-.59l-2.74-.55c-1.54-.31-2.69-.84-3.44-1.61-.75-.76-1.13-1.73-1.13-2.91,0-1.02.28-1.89.83-2.63s1.33-1.3,2.34-1.7,2.18-.6,3.54-.6c2,0,3.57.42,4.72,1.27,1.15.84,1.82,2,2.01,3.45Z"/>
    <path class="cls-3" d="M308.01,270.15v3.3h-9.53v-3.3h9.53ZM300.65,266.36h4.39v14.75c0,.4.06.72.19.94.12.22.3.38.52.47.22.09.48.13.78.13.21,0,.41-.02.62-.06.21-.04.36-.07.47-.09l.69,3.26c-.22.07-.53.15-.93.24-.4.09-.88.15-1.45.17-1.06.04-1.98-.1-2.78-.42s-1.41-.82-1.85-1.5-.65-1.54-.65-2.57v-15.32Z"/>
    <path class="cls-3" d="M310.87,285.97v-15.82h4.25v2.76h.17c.29-.98.77-1.72,1.45-2.23.68-.5,1.46-.76,2.35-.76.22,0,.46.01.71.04.25.03.48.07.67.11v3.89c-.21-.06-.49-.12-.86-.17-.36-.05-.7-.07-1-.07-.65,0-1.22.14-1.73.42s-.9.66-1.19,1.16c-.29.5-.44,1.06-.44,1.71v8.95h-4.39Z"/>
    <path class="cls-3" d="M326.79,286.26c-1.01,0-1.91-.18-2.7-.53-.79-.35-1.41-.88-1.87-1.58-.46-.7-.69-1.57-.69-2.61,0-.88.16-1.62.48-2.21.32-.6.76-1.08,1.32-1.44.56-.36,1.19-.64,1.9-.82.71-.19,1.46-.32,2.24-.39.92-.1,1.66-.19,2.22-.27s.97-.21,1.23-.39.38-.43.38-.76v-.06c0-.65-.2-1.16-.61-1.51-.41-.36-.99-.54-1.73-.54-.79,0-1.42.17-1.88.52-.47.35-.78.78-.93,1.3l-4.06-.33c.21-.96.61-1.79,1.21-2.5.6-.7,1.38-1.25,2.34-1.63.96-.38,2.07-.57,3.33-.57.88,0,1.72.1,2.53.31s1.52.52,2.15.96c.63.43,1.12.99,1.49,1.66.36.68.54,1.49.54,2.43v10.67h-4.16v-2.19h-.12c-.25.49-.59.93-1.02,1.3s-.94.67-1.54.88c-.6.21-1.29.31-2.07.31ZM328.04,283.24c.65,0,1.22-.13,1.71-.39s.88-.61,1.16-1.04c.28-.44.42-.94.42-1.49v-1.68c-.14.09-.32.17-.56.24-.24.07-.5.14-.8.2s-.59.11-.89.15c-.3.04-.56.08-.8.12-.51.08-.96.2-1.35.36-.38.17-.68.39-.9.67-.21.28-.32.62-.32,1.03,0,.6.22,1.05.65,1.37s.99.47,1.66.47Z"/>
    <path class="cls-3" d="M343.49,276.82v9.14h-4.39v-15.82h4.18v2.79h.19c.35-.92.94-1.65,1.76-2.19.82-.54,1.82-.81,3-.81,1.1,0,2.06.24,2.87.72.82.48,1.45,1.17,1.91,2.05.45.89.68,1.95.68,3.18v10.07h-4.39v-9.29c0-.97-.24-1.72-.74-2.27-.5-.55-1.19-.82-2.07-.82-.59,0-1.11.13-1.56.38s-.8.62-1.05,1.11c-.25.48-.38,1.07-.39,1.75Z"/>
    <path class="cls-3" d="M370.3,274.66l-4.02.25c-.07-.34-.22-.65-.44-.93s-.52-.5-.89-.67c-.37-.17-.8-.25-1.31-.25-.68,0-1.25.14-1.72.43-.47.28-.7.66-.7,1.14,0,.38.15.7.45.96s.82.47,1.56.63l2.86.58c1.54.32,2.68.82,3.44,1.52.75.7,1.13,1.62,1.13,2.76,0,1.04-.3,1.95-.91,2.73-.61.78-1.44,1.39-2.49,1.83-1.05.44-2.27.65-3.64.65-2.09,0-3.76-.44-5-1.31-1.24-.88-1.96-2.07-2.18-3.58l4.31-.23c.13.64.45,1.12.95,1.46.5.33,1.14.5,1.93.5s1.39-.15,1.86-.45.71-.68.72-1.16c0-.4-.17-.73-.5-.98-.33-.26-.84-.46-1.52-.59l-2.74-.55c-1.54-.31-2.69-.84-3.44-1.61-.75-.76-1.13-1.73-1.13-2.91,0-1.02.28-1.89.83-2.63.55-.73,1.33-1.3,2.34-1.7s2.18-.6,3.54-.6c2,0,3.57.42,4.72,1.27,1.15.84,1.82,2,2.01,3.45Z"/>
    <path class="cls-3" d="M373.43,291.9v-21.75h4.33v2.66h.2c.19-.43.47-.86.84-1.3.37-.44.85-.81,1.44-1.11s1.33-.45,2.22-.45c1.15,0,2.22.3,3.19.9.98.6,1.75,1.5,2.34,2.71.58,1.21.88,2.71.88,4.53s-.28,3.25-.85,4.46-1.34,2.13-2.31,2.75c-.97.62-2.06.93-3.26.93-.85,0-1.57-.14-2.17-.42s-1.08-.64-1.46-1.07c-.38-.43-.67-.86-.87-1.3h-.13v8.46h-4.39ZM377.72,278.06c0,.94.13,1.76.39,2.46.26.7.64,1.25,1.13,1.63s1.1.58,1.8.58,1.32-.2,1.81-.59c.49-.39.87-.94,1.13-1.65.26-.7.39-1.52.39-2.44s-.13-1.72-.38-2.41c-.25-.69-.63-1.24-1.12-1.63-.49-.39-1.1-.59-1.82-.59s-1.32.19-1.81.57c-.49.38-.87.91-1.13,1.61-.26.69-.39,1.51-.39,2.45Z"/>
    <path class="cls-3" d="M398.92,286.27c-1.6,0-2.98-.34-4.15-1.02-1.16-.68-2.06-1.64-2.69-2.86-.63-1.22-.95-2.65-.95-4.27s.31-3.06.95-4.29c.63-1.23,1.53-2.18,2.69-2.86,1.16-.68,2.55-1.03,4.15-1.03s2.98.34,4.14,1.03c1.16.68,2.06,1.64,2.69,2.86.63,1.23.95,2.66.95,4.29s-.32,3.04-.95,4.27c-.63,1.23-1.53,2.18-2.69,2.86-1.16.68-2.54,1.02-4.14,1.02ZM398.94,282.88c.73,0,1.33-.21,1.82-.62.49-.42.86-.98,1.11-1.7s.38-1.54.38-2.46-.12-1.74-.38-2.46c-.25-.72-.62-1.29-1.11-1.71-.49-.42-1.1-.63-1.82-.63s-1.35.21-1.85.63-.87.99-1.12,1.71c-.25.72-.38,1.54-.38,2.46s.12,1.74.38,2.46c.25.72.62,1.29,1.12,1.7.5.42,1.11.62,1.85.62Z"/>
    <path class="cls-3" d="M409.56,285.97v-15.82h4.25v2.76h.17c.29-.98.77-1.72,1.45-2.23.68-.5,1.46-.76,2.35-.76.22,0,.46.01.71.04.25.03.48.07.67.11v3.89c-.21-.06-.49-.12-.85-.17s-.7-.07-1-.07c-.65,0-1.22.14-1.72.42-.5.28-.9.66-1.2,1.16-.29.5-.44,1.06-.44,1.71v8.95h-4.39Z"/>
    <path class="cls-3" d="M430.62,270.15v3.3h-9.53v-3.3h9.53ZM423.26,266.36h4.39v14.75c0,.4.06.72.19.94.12.22.3.38.52.47.22.09.48.13.78.13.21,0,.41-.02.62-.06.21-.04.36-.07.47-.09l.69,3.26c-.22.07-.53.15-.93.24-.4.09-.88.15-1.45.17-1.06.04-1.98-.1-2.78-.42s-1.41-.82-1.85-1.5-.66-1.54-.65-2.57v-15.32Z"/>
    <path class="cls-3" d="M437.99,286.26c-1.01,0-1.91-.18-2.7-.53-.79-.35-1.41-.88-1.87-1.58-.46-.7-.69-1.57-.69-2.61,0-.88.16-1.62.48-2.21.32-.6.76-1.08,1.32-1.44.56-.36,1.19-.64,1.9-.82.71-.19,1.46-.32,2.24-.39.92-.1,1.66-.19,2.22-.27s.97-.21,1.23-.39.38-.43.38-.76v-.06c0-.65-.2-1.16-.61-1.51-.41-.36-.99-.54-1.73-.54-.79,0-1.42.17-1.88.52-.47.35-.78.78-.93,1.3l-4.06-.33c.21-.96.61-1.79,1.21-2.5.6-.7,1.38-1.25,2.34-1.63.96-.38,2.07-.57,3.33-.57.88,0,1.72.1,2.53.31s1.52.52,2.15.96c.63.43,1.12.99,1.49,1.66.36.68.54,1.49.54,2.43v10.67h-4.16v-2.19h-.12c-.25.49-.59.93-1.02,1.3s-.94.67-1.54.88c-.6.21-1.29.31-2.07.31ZM439.24,283.24c.65,0,1.22-.13,1.71-.39s.88-.61,1.16-1.04c.28-.44.42-.94.42-1.49v-1.68c-.14.09-.32.17-.56.24-.24.07-.5.14-.8.2s-.59.11-.89.15c-.3.04-.56.08-.8.12-.51.08-.96.2-1.35.36-.38.17-.68.39-.9.67-.21.28-.32.62-.32,1.03,0,.6.22,1.05.65,1.37s.99.47,1.66.47Z"/>
    <path class="cls-3" d="M456.13,286.22c-1.2,0-2.29-.31-3.26-.93-.97-.62-1.74-1.54-2.31-2.75s-.85-2.7-.85-4.46.29-3.32.88-4.53c.58-1.2,1.36-2.11,2.33-2.71.97-.6,2.04-.9,3.2-.9.89,0,1.63.15,2.22.45s1.07.67,1.44,1.11c.37.44.65.88.84,1.3h.13v-7.93h4.38v21.09h-4.33v-2.53h-.18c-.21.44-.5.87-.87,1.3-.37.43-.86.78-1.45,1.07-.59.28-1.32.42-2.17.42ZM457.52,282.73c.71,0,1.31-.19,1.8-.58.49-.39.87-.93,1.13-1.63.26-.7.4-1.52.4-2.46s-.13-1.76-.39-2.45c-.26-.69-.64-1.23-1.13-1.61-.49-.38-1.09-.57-1.8-.57s-1.33.2-1.82.59c-.49.39-.87.93-1.12,1.63-.25.69-.38,1.5-.38,2.41s.13,1.73.39,2.44c.26.7.63,1.25,1.12,1.65.49.4,1.1.59,1.82.59Z"/>
    <path class="cls-3" d="M475.87,286.27c-1.6,0-2.98-.34-4.15-1.02-1.16-.68-2.06-1.64-2.69-2.86-.63-1.22-.95-2.65-.95-4.27s.32-3.06.95-4.29c.63-1.23,1.53-2.18,2.69-2.86,1.16-.68,2.54-1.03,4.15-1.03s2.98.34,4.15,1.03c1.16.68,2.06,1.64,2.69,2.86s.95,2.66.95,4.29-.32,3.04-.95,4.27c-.63,1.23-1.53,2.18-2.69,2.86-1.16.68-2.55,1.02-4.15,1.02ZM475.89,282.88c.73,0,1.33-.21,1.82-.62.49-.42.86-.98,1.11-1.7s.38-1.54.38-2.46-.13-1.74-.38-2.46c-.25-.72-.62-1.29-1.11-1.71-.49-.42-1.09-.63-1.82-.63s-1.35.21-1.85.63c-.5.42-.87.99-1.12,1.71-.25.72-.38,1.54-.38,2.46s.13,1.74.38,2.46c.25.72.62,1.29,1.12,1.7.5.42,1.11.62,1.85.62Z"/>
    <path class="cls-3" d="M499.68,274.66l-4.02.25c-.07-.34-.22-.65-.44-.93s-.52-.5-.89-.67c-.37-.17-.81-.25-1.31-.25-.68,0-1.25.14-1.72.43-.47.28-.7.66-.7,1.14,0,.38.15.7.45.96.3.26.82.47,1.55.63l2.86.58c1.54.32,2.68.82,3.44,1.52.76.7,1.13,1.62,1.13,2.76,0,1.04-.3,1.95-.91,2.73-.61.78-1.44,1.39-2.49,1.83-1.05.44-2.27.65-3.64.65-2.09,0-3.76-.44-5-1.31-1.24-.88-1.97-2.07-2.18-3.58l4.32-.23c.13.64.45,1.12.95,1.46.5.33,1.14.5,1.93.5s1.39-.15,1.86-.45c.47-.3.71-.68.71-1.16,0-.4-.17-.73-.5-.98-.33-.26-.84-.46-1.52-.59l-2.74-.55c-1.54-.31-2.69-.84-3.45-1.61-.75-.76-1.13-1.73-1.13-2.91,0-1.02.28-1.89.83-2.63s1.33-1.3,2.34-1.7,2.19-.6,3.54-.6c2,0,3.57.42,4.72,1.27,1.15.84,1.82,2,2.01,3.45Z"/>
    <path class="cls-3" d="M513.93,276.82v9.14h-4.39v-15.82h4.18v2.79h.19c.35-.92.94-1.65,1.76-2.19s1.82-.81,3-.81c1.1,0,2.06.24,2.87.72.82.48,1.45,1.17,1.91,2.05.45.89.68,1.95.68,3.18v10.07h-4.39v-9.29c0-.97-.24-1.72-.74-2.27-.5-.55-1.19-.82-2.07-.82-.59,0-1.11.13-1.56.38-.45.25-.8.62-1.05,1.11-.25.48-.38,1.07-.39,1.75Z"/>
    <path class="cls-3" d="M537.71,279.23v-9.08h4.39v15.82h-4.21v-2.87h-.17c-.36.93-.95,1.67-1.78,2.23-.83.56-1.83.84-3.02.84-1.06,0-1.99-.24-2.79-.72s-1.43-1.16-1.88-2.05c-.45-.89-.68-1.95-.69-3.18v-10.07h4.39v9.29c0,.93.26,1.67.75,2.21.49.54,1.16.81,1.99.81.53,0,1.02-.12,1.48-.37.46-.24.83-.61,1.12-1.09s.42-1.08.42-1.78Z"/>
    <path class="cls-3" d="M545.6,285.97v-15.82h4.18v2.79h.19c.33-.93.88-1.66,1.65-2.19.77-.54,1.69-.8,2.76-.8s2.01.27,2.77.81,1.27,1.27,1.52,2.19h.17c.32-.91.91-1.63,1.76-2.18s1.85-.82,3.01-.82c1.48,0,2.68.47,3.6,1.41.92.94,1.38,2.26,1.38,3.98v10.64h-4.38v-9.77c0-.88-.23-1.54-.7-1.98-.47-.44-1.05-.66-1.75-.66-.8,0-1.42.25-1.86.76-.45.5-.67,1.17-.67,1.99v9.66h-4.25v-9.87c0-.78-.22-1.39-.66-1.85s-1.02-.69-1.75-.69c-.49,0-.93.12-1.31.37-.39.24-.7.58-.92,1.02-.23.44-.34.95-.34,1.53v9.5h-4.39Z"/>
    <path class="cls-3" d="M584.6,286.22c-1.2,0-2.29-.31-3.26-.93-.97-.62-1.74-1.54-2.31-2.75s-.85-2.7-.85-4.46.29-3.32.88-4.53c.58-1.2,1.36-2.11,2.33-2.71.97-.6,2.04-.9,3.2-.9.89,0,1.62.15,2.22.45s1.07.67,1.44,1.11c.37.44.65.88.84,1.3h.13v-7.93h4.38v21.09h-4.33v-2.53h-.19c-.21.44-.5.87-.87,1.3s-.86.78-1.45,1.07-1.32.42-2.17.42ZM585.99,282.73c.71,0,1.31-.19,1.8-.58.49-.39.87-.93,1.13-1.63.26-.7.4-1.52.4-2.46s-.13-1.76-.39-2.45c-.26-.69-.64-1.23-1.13-1.61-.49-.38-1.1-.57-1.8-.57s-1.33.2-1.82.59c-.49.39-.87.93-1.12,1.63-.25.69-.38,1.5-.38,2.41s.13,1.73.39,2.44c.26.7.63,1.25,1.12,1.65.49.4,1.1.59,1.82.59Z"/>
    <path class="cls-3" d="M599.4,268.11c-.65,0-1.21-.22-1.67-.65-.46-.44-.7-.96-.7-1.57s.23-1.12.7-1.56c.46-.44,1.02-.65,1.67-.65s1.21.22,1.67.65c.46.44.7.96.7,1.56s-.23,1.13-.7,1.57c-.46.44-1.02.65-1.67.65ZM597.2,285.97v-15.82h4.39v15.82h-4.39Z"/>
    <path class="cls-3" d="M609.59,286.26c-1.01,0-1.91-.18-2.7-.53s-1.41-.88-1.87-1.58c-.46-.7-.68-1.57-.68-2.61,0-.88.16-1.62.48-2.21.32-.6.76-1.08,1.32-1.44.56-.36,1.19-.64,1.9-.82s1.46-.32,2.24-.39c.92-.1,1.66-.19,2.22-.27.56-.09.97-.21,1.22-.39s.38-.43.38-.76v-.06c0-.65-.2-1.16-.61-1.51-.41-.36-.99-.54-1.74-.54-.79,0-1.42.17-1.88.52-.47.35-.78.78-.93,1.3l-4.06-.33c.21-.96.61-1.79,1.22-2.5.6-.7,1.38-1.25,2.34-1.63.96-.38,2.07-.57,3.33-.57.88,0,1.72.1,2.53.31s1.52.52,2.15.96c.63.43,1.12.99,1.49,1.66.36.68.55,1.49.55,2.43v10.67h-4.16v-2.19h-.12c-.25.49-.59.93-1.02,1.3s-.94.67-1.53.88c-.6.21-1.29.31-2.07.31ZM610.85,283.24c.64,0,1.21-.13,1.71-.39s.88-.61,1.16-1.04.42-.94.42-1.49v-1.68c-.14.09-.32.17-.56.24-.24.07-.5.14-.8.2s-.59.11-.88.15c-.3.04-.56.08-.8.12-.51.08-.96.2-1.35.36-.38.17-.68.39-.9.67-.21.28-.32.62-.32,1.03,0,.6.22,1.05.65,1.37.44.31.99.47,1.66.47Z"/>
    <path class="cls-3" d="M638.78,279.23v-9.08h4.39v15.82h-4.21v-2.87h-.16c-.36.93-.95,1.67-1.78,2.23-.83.56-1.83.84-3.02.84-1.06,0-1.99-.24-2.79-.72-.8-.48-1.43-1.16-1.88-2.05s-.68-1.95-.68-3.18v-10.07h4.39v9.29c0,.93.26,1.67.75,2.21.49.54,1.16.81,1.99.81.53,0,1.02-.12,1.48-.37.46-.24.83-.61,1.12-1.09s.42-1.08.42-1.78ZM634.34,268.11l2.18-4.69h4.06l-3.14,4.69h-3.1Z"/>
    <path class="cls-3" d="M655.08,270.15v3.3h-9.53v-3.3h9.53ZM647.72,266.36h4.39v14.75c0,.4.06.72.19.94.12.22.3.38.52.47.22.09.48.13.78.13.21,0,.41-.02.62-.06.21-.04.36-.07.47-.09l.69,3.26c-.22.07-.53.15-.93.24-.4.09-.88.15-1.45.17-1.06.04-1.98-.1-2.78-.42s-1.41-.82-1.85-1.5-.66-1.54-.65-2.57v-15.32Z"/>
    <path class="cls-3" d="M660.14,268.11c-.65,0-1.21-.22-1.67-.65-.46-.44-.7-.96-.7-1.57s.23-1.12.7-1.56c.46-.44,1.02-.65,1.67-.65s1.21.22,1.67.65c.46.44.7.96.7,1.56s-.23,1.13-.7,1.57c-.46.44-1.02.65-1.67.65ZM657.93,285.97v-15.82h4.39v15.82h-4.39Z"/>
    <path class="cls-3" d="M670.21,264.88v21.09h-4.39v-21.09h4.39Z"/>
    <path class="cls-3" d="M127.36,299.68v21.09h-2.55v-18.41h-.12l-5.15,3.42v-2.6l5.27-3.5h2.55Z"/>
    <path class="cls-3" d="M140.13,299.39c.87,0,1.73.17,2.6.49.87.32,1.65.86,2.37,1.6s1.29,1.76,1.72,3.04c.43,1.28.65,2.89.65,4.83s-.18,3.54-.53,4.99-.86,2.68-1.52,3.67c-.66,1-1.47,1.75-2.41,2.27-.94.52-2.01.77-3.2.77s-2.23-.24-3.16-.71c-.92-.47-1.68-1.13-2.27-1.97-.59-.84-.96-1.82-1.13-2.93h2.51c.23.97.68,1.77,1.35,2.39.68.63,1.57.94,2.68.94,1.63,0,2.91-.71,3.86-2.13.94-1.42,1.42-3.43,1.42-6.02h-.16c-.38.58-.84,1.08-1.37,1.49-.53.42-1.12.74-1.76.97-.65.23-1.33.34-2.06.34-1.21,0-2.31-.3-3.32-.9s-1.81-1.43-2.41-2.48c-.6-1.05-.9-2.26-.9-3.62s.29-2.47.87-3.55,1.4-1.93,2.45-2.57,2.29-.95,3.72-.93ZM140.13,301.65c-.87,0-1.64.21-2.33.64-.69.43-1.24,1.01-1.64,1.73-.4.72-.6,1.53-.6,2.41s.19,1.68.58,2.39c.39.72.92,1.29,1.6,1.71.68.42,1.45.63,2.31.63.65,0,1.26-.13,1.82-.39.56-.26,1.06-.61,1.48-1.06.42-.45.75-.96.99-1.53.24-.57.36-1.17.36-1.8,0-.82-.2-1.6-.59-2.32s-.94-1.3-1.63-1.75-1.47-.67-2.35-.67Z"/>
    <path class="cls-3" d="M165.67,321.1c-1.32,0-2.48-.33-3.49-1-1.01-.67-1.8-1.62-2.37-2.84s-.85-2.68-.85-4.35.28-3.1.85-4.33c.57-1.22,1.36-2.17,2.38-2.83s2.19-1,3.52-1c1.03,0,1.84.17,2.45.51.6.34,1.06.72,1.38,1.15.32.43.57.78.75,1.06h.21v-7.79h2.43v21.09h-2.35v-2.43h-.29c-.18.29-.43.65-.76,1.09-.33.44-.8.82-1.41,1.16s-1.42.51-2.44.51ZM166,318.91c.97,0,1.8-.26,2.47-.77.67-.51,1.18-1.22,1.53-2.13.35-.91.53-1.96.53-3.16s-.17-2.22-.51-3.1c-.34-.89-.85-1.58-1.52-2.08-.67-.5-1.5-.75-2.49-.75s-1.89.26-2.57.79c-.68.52-1.19,1.24-1.53,2.13-.34.9-.51,1.9-.51,3.01s.17,2.15.52,3.06c.35.92.86,1.64,1.54,2.18s1.53.81,2.55.81Z"/>
    <path class="cls-3" d="M184.33,321.1c-1.52,0-2.84-.34-3.94-1.01-1.1-.68-1.95-1.62-2.54-2.84s-.89-2.64-.89-4.26.3-3.05.89-4.29c.59-1.24,1.42-2.21,2.49-2.9,1.07-.7,2.32-1.05,3.74-1.05.82,0,1.64.14,2.44.41s1.53.72,2.19,1.33,1.18,1.43,1.58,2.44c.39,1.01.59,2.25.59,3.73v1.03h-12.19v-2.1h9.72c0-.89-.18-1.69-.53-2.39s-.86-1.25-1.5-1.66-1.41-.61-2.29-.61c-.97,0-1.8.24-2.51.72-.7.48-1.24,1.1-1.62,1.86-.38.76-.57,1.58-.57,2.45v1.4c0,1.2.21,2.21.62,3.03s.99,1.46,1.74,1.88c.74.43,1.6.64,2.58.64.64,0,1.22-.09,1.74-.27.52-.18.97-.46,1.34-.82.38-.37.67-.83.88-1.38l2.35.66c-.25.8-.66,1.5-1.25,2.1-.58.6-1.3,1.07-2.16,1.4-.86.33-1.82.5-2.89.5Z"/>
    <path class="cls-3" d="M209.79,304.95v2.06h-8.53v-2.06h8.53ZM203.82,320.77v-18c0-.91.21-1.66.64-2.27.43-.6.98-1.06,1.66-1.36.68-.3,1.4-.45,2.15-.45.6,0,1.08.05,1.46.14.38.1.66.19.84.27l-.7,2.1c-.12-.04-.29-.09-.51-.16-.22-.06-.5-.09-.85-.09-.8,0-1.38.2-1.74.61s-.53,1-.53,1.78v17.42h-2.43Z"/>
    <path class="cls-3" d="M219.18,321.1c-1.52,0-2.84-.34-3.94-1.01-1.1-.68-1.95-1.62-2.54-2.84s-.89-2.64-.89-4.26.3-3.05.89-4.29c.59-1.24,1.42-2.21,2.49-2.9,1.07-.7,2.32-1.05,3.74-1.05.82,0,1.64.14,2.44.41s1.53.72,2.19,1.33,1.18,1.43,1.58,2.44c.39,1.01.59,2.25.59,3.73v1.03h-12.19v-2.1h9.72c0-.89-.18-1.69-.53-2.39s-.86-1.25-1.5-1.66-1.41-.61-2.29-.61c-.97,0-1.8.24-2.51.72-.7.48-1.24,1.1-1.62,1.86-.38.76-.57,1.58-.57,2.45v1.4c0,1.2.21,2.21.62,3.03s.99,1.46,1.74,1.88c.74.43,1.6.64,2.58.64.64,0,1.22-.09,1.74-.27.52-.18.97-.46,1.34-.82.38-.37.67-.83.88-1.38l2.35.66c-.25.8-.66,1.5-1.25,2.1-.58.6-1.3,1.07-2.16,1.4-.86.33-1.82.5-2.89.5Z"/>
    <path class="cls-3" d="M241.88,304.95l-5.85,15.82h-2.47l-5.85-15.82h2.64l4.37,12.61h.16l4.37-12.61h2.64Z"/>
    <path class="cls-3" d="M251.15,321.1c-1.52,0-2.84-.34-3.94-1.01-1.1-.68-1.95-1.62-2.54-2.84s-.89-2.64-.89-4.26.3-3.05.89-4.29c.59-1.24,1.42-2.21,2.49-2.9,1.07-.7,2.32-1.05,3.74-1.05.82,0,1.64.14,2.44.41.8.27,1.53.72,2.19,1.33s1.18,1.43,1.58,2.44c.39,1.01.59,2.25.59,3.73v1.03h-12.19v-2.1h9.72c0-.89-.18-1.69-.53-2.39s-.85-1.25-1.5-1.66c-.65-.41-1.41-.61-2.29-.61-.97,0-1.8.24-2.51.72-.7.48-1.24,1.1-1.62,1.86-.38.76-.57,1.58-.57,2.45v1.4c0,1.2.21,2.21.62,3.03.42.83.99,1.46,1.73,1.88.74.43,1.6.64,2.59.64.64,0,1.22-.09,1.73-.27.52-.18.97-.46,1.34-.82.38-.37.67-.83.88-1.38l2.35.66c-.25.8-.66,1.5-1.25,2.1-.58.6-1.3,1.07-2.16,1.4s-1.82.5-2.89.5Z"/>
    <path class="cls-3" d="M261.41,320.77v-15.82h2.35v2.39h.17c.29-.78.81-1.42,1.57-1.91s1.61-.73,2.55-.73c.18,0,.4,0,.67.01s.47.02.61.03v2.47c-.08-.02-.27-.05-.56-.1s-.6-.07-.92-.07c-.77,0-1.45.16-2.05.48-.6.32-1.08.76-1.42,1.32s-.52,1.2-.52,1.91v10.01h-2.43Z"/>
    <path class="cls-3" d="M278.33,321.1c-1.52,0-2.84-.34-3.94-1.01-1.1-.68-1.95-1.62-2.54-2.84s-.89-2.64-.89-4.26.3-3.05.89-4.29c.59-1.24,1.43-2.21,2.49-2.9,1.07-.7,2.32-1.05,3.74-1.05.82,0,1.64.14,2.44.41.8.27,1.53.72,2.19,1.33.66.61,1.18,1.43,1.58,2.44.39,1.01.59,2.25.59,3.73v1.03h-12.19v-2.1h9.72c0-.89-.18-1.69-.53-2.39s-.86-1.25-1.5-1.66-1.41-.61-2.29-.61c-.97,0-1.8.24-2.51.72s-1.24,1.1-1.62,1.86c-.38.76-.57,1.58-.57,2.45v1.4c0,1.2.21,2.21.62,3.03.41.83.99,1.46,1.73,1.88.74.43,1.6.64,2.58.64.64,0,1.22-.09,1.74-.27.52-.18.97-.46,1.34-.82s.67-.83.88-1.38l2.35.66c-.25.8-.66,1.5-1.25,2.1s-1.3,1.07-2.16,1.4c-.86.33-1.82.5-2.89.5Z"/>
    <path class="cls-3" d="M289.83,302.31c-.47,0-.88-.16-1.22-.48s-.51-.71-.51-1.16.17-.84.51-1.16c.34-.32.75-.48,1.22-.48s.88.16,1.22.48c.34.32.51.71.51,1.16s-.17.84-.51,1.16-.75.48-1.22.48ZM288.59,320.77v-15.82h2.43v15.82h-2.43Z"/>
    <path class="cls-3" d="M295.47,320.77v-15.82h2.35v2.39h.17c.29-.78.81-1.42,1.56-1.91.76-.49,1.61-.73,2.55-.73.18,0,.4,0,.67.01s.47.02.61.03v2.47c-.08-.02-.27-.05-.56-.1-.29-.04-.6-.07-.92-.07-.77,0-1.45.16-2.05.48s-1.08.76-1.42,1.32c-.35.56-.52,1.2-.52,1.91v10.01h-2.43Z"/>
    <path class="cls-3" d="M312.2,321.1c-1.43,0-2.68-.34-3.75-1.02s-1.91-1.63-2.51-2.85c-.6-1.22-.9-2.65-.9-4.28s.3-3.09.9-4.31,1.44-2.18,2.51-2.86,2.33-1.02,3.75-1.02,2.68.34,3.75,1.02c1.07.68,1.91,1.63,2.51,2.86.6,1.23.9,2.67.9,4.31s-.3,3.06-.9,4.28c-.6,1.22-1.44,2.17-2.51,2.85-1.08.68-2.33,1.02-3.75,1.02ZM312.2,318.91c1.08,0,1.98-.28,2.68-.83.7-.56,1.22-1.29,1.55-2.19s.5-1.89.5-2.95-.17-2.04-.5-2.96-.86-1.65-1.55-2.21c-.7-.56-1.59-.84-2.68-.84s-1.98.28-2.68.84c-.7.56-1.22,1.3-1.55,2.21-.34.91-.5,1.9-.5,2.96s.17,2.04.5,2.95c.34.91.85,1.64,1.55,2.19.7.56,1.59.83,2.68.83Z"/>
    <path class="cls-3" d="M337.2,321.1c-1.32,0-2.48-.33-3.49-1-1.01-.67-1.8-1.62-2.37-2.84s-.86-2.68-.86-4.35.29-3.1.86-4.33c.57-1.22,1.36-2.17,2.38-2.83s2.19-1,3.52-1c1.03,0,1.85.17,2.45.51s1.06.72,1.38,1.15c.32.43.57.78.75,1.06h.21v-7.79h2.43v21.09h-2.35v-2.43h-.29c-.18.29-.43.65-.76,1.09-.33.44-.8.82-1.41,1.16-.61.34-1.43.51-2.44.51ZM337.53,318.91c.97,0,1.8-.26,2.47-.77.67-.51,1.19-1.22,1.54-2.13.35-.91.53-1.96.53-3.16s-.17-2.22-.52-3.1c-.34-.89-.85-1.58-1.52-2.08-.67-.5-1.5-.75-2.49-.75s-1.89.26-2.57.79c-.68.52-1.19,1.24-1.53,2.13-.34.9-.51,1.9-.51,3.01s.17,2.15.52,3.06c.35.92.86,1.64,1.54,2.18.68.54,1.53.81,2.55.81Z"/>
    <path class="cls-3" d="M355.86,321.1c-1.52,0-2.84-.34-3.94-1.01-1.1-.68-1.95-1.62-2.54-2.84s-.89-2.64-.89-4.26.3-3.05.89-4.29c.59-1.24,1.42-2.21,2.49-2.9,1.07-.7,2.31-1.05,3.74-1.05.82,0,1.64.14,2.44.41.8.27,1.54.72,2.19,1.33.66.61,1.18,1.43,1.58,2.44.39,1.01.59,2.25.59,3.73v1.03h-12.19v-2.1h9.72c0-.89-.18-1.69-.53-2.39s-.85-1.25-1.5-1.66c-.65-.41-1.41-.61-2.29-.61-.97,0-1.8.24-2.51.72s-1.24,1.1-1.62,1.86c-.38.76-.57,1.58-.57,2.45v1.4c0,1.2.21,2.21.62,3.03.42.83.99,1.46,1.74,1.88.74.43,1.6.64,2.58.64.64,0,1.22-.09,1.74-.27.52-.18.97-.46,1.34-.82s.67-.83.88-1.38l2.35.66c-.25.8-.66,1.5-1.25,2.1s-1.3,1.07-2.16,1.4c-.86.33-1.82.5-2.89.5Z"/>
    <path class="cls-3" d="M374.23,320.77v-1.85l6.96-7.62c.82-.89,1.49-1.67,2.02-2.33.53-.66.92-1.29,1.18-1.88s.39-1.2.39-1.85c0-.74-.18-1.38-.53-1.93-.35-.54-.84-.96-1.45-1.26-.61-.29-1.3-.44-2.06-.44-.81,0-1.52.17-2.12.5s-1.06.8-1.39,1.4c-.33.6-.49,1.3-.49,2.1h-2.43c0-1.24.28-2.32.85-3.25.57-.93,1.35-1.66,2.33-2.18.98-.52,2.09-.78,3.32-.78s2.33.26,3.29.78c.96.52,1.7,1.23,2.25,2.11s.81,1.87.81,2.96c0,.78-.14,1.53-.42,2.27s-.76,1.56-1.44,2.46c-.68.9-1.63,2-2.84,3.3l-4.74,5.07v.17h9.8v2.27h-13.31Z"/>
    <path class="cls-3" d="M398.66,321.05c-1.55,0-2.87-.42-3.96-1.27s-1.93-2.08-2.5-3.7-.87-3.57-.87-5.87.29-4.23.87-5.84,1.42-2.85,2.51-3.71c1.1-.86,2.41-1.28,3.95-1.28s2.85.43,3.95,1.28c1.1.85,1.93,2.09,2.51,3.71s.87,3.56.87,5.84-.29,4.25-.87,5.87-1.41,2.85-2.5,3.7-2.41,1.27-3.96,1.27ZM398.66,318.79c1.54,0,2.73-.74,3.58-2.22.85-1.48,1.28-3.6,1.28-6.34,0-1.83-.19-3.38-.58-4.67-.39-1.28-.94-2.26-1.67-2.93s-1.59-1.01-2.61-1.01c-1.52,0-2.71.75-3.57,2.25s-1.29,3.62-1.29,6.36c0,1.83.19,3.38.58,4.66.38,1.28.94,2.25,1.66,2.91.72.67,1.6,1,2.62,1Z"/>
    <path class="cls-3" d="M409.9,320.77v-1.85l6.96-7.62c.82-.89,1.49-1.67,2.02-2.33.53-.66.92-1.29,1.18-1.88.26-.59.39-1.2.39-1.85,0-.74-.18-1.38-.53-1.93-.35-.54-.84-.96-1.45-1.26s-1.3-.44-2.06-.44c-.81,0-1.52.17-2.12.5-.6.33-1.06.8-1.39,1.4-.33.6-.49,1.3-.49,2.1h-2.43c0-1.24.29-2.32.86-3.25.57-.93,1.35-1.66,2.33-2.18.99-.52,2.09-.78,3.32-.78s2.33.26,3.29.78,1.7,1.23,2.25,2.11.81,1.87.81,2.96c0,.78-.14,1.53-.42,2.27-.28.74-.76,1.56-1.44,2.46-.68.9-1.63,2-2.84,3.3l-4.74,5.07v.17h9.8v2.27h-13.31Z"/>
    <path class="cls-3" d="M434.04,321.05c-1.21,0-2.3-.24-3.26-.72-.97-.48-1.74-1.14-2.33-1.98-.58-.84-.9-1.79-.96-2.86h2.47c.1.95.53,1.74,1.3,2.36.77.62,1.7.93,2.78.93.87,0,1.64-.2,2.31-.61s1.21-.96,1.6-1.67c.39-.71.58-1.51.58-2.41s-.2-1.74-.6-2.47c-.4-.72-.95-1.3-1.65-1.71s-1.5-.63-2.4-.64c-.65,0-1.31.09-1.99.29s-1.24.46-1.68.78l-2.39-.29,1.28-10.38h10.96v2.27h-8.82l-.74,6.22h.12c.43-.34.97-.63,1.63-.85s1.33-.34,2.04-.34c1.29,0,2.44.31,3.46.92,1.01.61,1.81,1.45,2.39,2.52.58,1.06.87,2.28.87,3.65s-.3,2.55-.9,3.6c-.6,1.05-1.43,1.88-2.48,2.49-1.05.61-2.24.91-3.58.91Z"/>
  </g>
  <g>
    <g>
      <path class="cls-3" d="M749.87,205.31c-19.48,0-35.32-15.84-35.32-35.32s15.85-35.32,35.32-35.32,35.32,15.84,35.32,35.32-15.85,35.32-35.32,35.32ZM749.87,141.22c-15.86,0-28.76,12.9-28.76,28.76s12.9,28.76,28.76,28.76,28.76-12.9,28.76-28.76-12.9-28.76-28.76-28.76Z"/>
      <path class="cls-3" d="M731.69,182.34c-5.1,0-10.02-1.06-14.63-3.16-1.65-.75-2.38-2.7-1.62-4.34.75-1.65,2.7-2.38,4.34-1.62,3.75,1.71,7.75,2.57,11.91,2.57,15.86,0,28.76-12.9,28.76-28.76,0-1.65-.14-3.3-.42-4.91-.31-1.79.89-3.48,2.68-3.79,1.78-.31,3.48.89,3.79,2.68.34,1.97.51,4,.51,6.02,0,19.48-15.85,35.32-35.32,35.32Z"/>
      <path class="cls-3" d="M780.27,182.34c-10.29,0-20.05-4.48-26.77-12.28-1.18-1.37-1.03-3.44.34-4.62,1.37-1.18,3.44-1.03,4.62.35,5.48,6.36,13.42,10,21.8,10,1.81,0,3.28,1.47,3.28,3.28s-1.47,3.28-3.28,3.28Z"/>
    </g>
    <path class="cls-3" d="M705.24,291.71c-1.81,0-3.28-1.47-3.28-3.28v-55.19c0-11.97,9.74-21.72,21.72-21.72h52.39c1.81,0,3.28,1.47,3.28,3.28s-1.47,3.28-3.28,3.28h-52.39c-8.36,0-15.16,6.8-15.16,15.16v55.19c0,1.81-1.47,3.28-3.28,3.28Z"/>
    <path class="cls-3" d="M723.36,291.71c-1.81,0-3.28-1.47-3.28-3.28v-32.68c0-1.81,1.47-3.28,3.28-3.28s3.28,1.47,3.28,3.28v32.68c0,1.81-1.47,3.28-3.28,3.28Z"/>
    <path class="cls-3" d="M776.38,291.71c-1.81,0-3.28-1.47-3.28-3.28v-48.9c0-1.81,1.47-3.28,3.28-3.28h3.53c26.56,0,48.17-21.61,48.17-48.17v-50.13c0-1.81,1.47-3.28,3.28-3.28s3.28,1.47,3.28,3.28v50.13c0,30.18-24.55,54.73-54.73,54.73h-.25v45.62c0,1.81-1.47,3.28-3.28,3.28Z"/>
    <path class="cls-3" d="M783.72,218.09h-29.65c-1.81,0-3.28-1.47-3.28-3.28s1.47-3.28,3.28-3.28h29.65c14.04,0,25.46-11.42,25.46-25.46v-48.12c0-1.81,1.47-3.28,3.28-3.28s3.28,1.47,3.28,3.28v48.12c0,17.66-14.36,32.02-32.02,32.02Z"/>
    <path class="cls-3" d="M836.09,135.62c-1.15,0-2.27-.61-2.87-1.69-.88-1.58-.31-3.58,1.28-4.46,7.98-4.42,12.93-12.83,12.93-21.94v-1.59c0-13.82-11.25-25.07-25.07-25.07s-25.07,11.25-25.07,25.07v1.59c0,8.34,4.13,16.11,11.05,20.78,1.5,1.01,1.89,3.05.88,4.55-1.01,1.5-3.05,1.9-4.55.88-8.72-5.9-13.93-15.7-13.93-26.22v-1.59c0-17.44,14.19-31.63,31.63-31.63s31.63,14.19,31.63,31.63v1.59c0,11.49-6.25,22.1-16.31,27.68-.5.28-1.05.41-1.59.41Z"/>
    <path class="cls-3" d="M836.08,139.16h-29.93c-1.81,0-3.28-1.47-3.28-3.28v-1.69c0-10.06,8.18-18.24,18.24-18.24s18.24,8.18,18.24,18.24v1.69c0,1.81-1.47,3.28-3.28,3.28ZM809.54,132.6h23.15c-.78-5.69-5.67-10.09-11.58-10.09s-10.8,4.4-11.57,10.09Z"/>
    <path class="cls-3" d="M822.36,80.87c-1.81,0-3.28-1.47-3.28-3.28v-30.6c0-1.81,1.47-3.28,3.28-3.28s3.28,1.47,3.28,3.28v30.6c0,1.81-1.47,3.28-3.28,3.28Z"/>
  </g>
</svg>