<svg width="24" height="24" viewBox="0 0 24 24" fill="none" xmlns="http://www.w3.org/2000/svg">
<g clip-path="url(#clip0_93_299)">
<g clip-path="url(#clip1_93_299)">
<path d="M21.8175 0H2.1825C0.977139 0 0 0.977139 0 2.1825V21.8175C0 23.0229 0.977139 24 2.1825 24H21.8175C23.0229 24 24 23.0229 24 21.8175V2.1825C24 0.977139 23.0229 0 21.8175 0Z" fill="#286FB7"/>
<path d="M11.1525 6.9075C11.1525 9.2025 9.62999 10.83 6.79499 10.83H5.33999V14.7375C5.33999 14.895 5.23499 14.9925 5.08499 14.9925H3.24749C3.08999 14.9925 2.99249 14.8875 2.99249 14.7375V3.255C2.99249 3.0975 3.09749 3 3.24749 3H6.79499C9.62249 3 11.1525 4.6275 11.1525 6.9075ZM8.90249 6.9075C8.90249 5.52 7.83749 5.07 6.74249 5.07H5.33999V8.7375H6.74249C7.83749 8.7375 8.90249 8.31 8.90249 6.9V6.9075Z" fill="white"/>
<path d="M9.90749 15.6075C11.1375 15.6075 12.135 16.605 12.135 17.835C12.135 19.065 11.1375 20.0625 9.90749 20.0625C8.67749 20.0625 7.67999 19.065 7.67999 17.835C7.67999 16.605 8.67749 15.6075 9.90749 15.6075ZM9.90749 14.67C8.15999 14.67 6.74249 16.0875 6.74249 17.835C6.74249 19.5825 8.15999 21 9.90749 21C11.655 21 13.0725 19.5825 13.0725 17.835C13.0725 16.0875 11.655 14.67 9.90749 14.67Z" fill="white"/>
<path d="M18.9075 15.6075C20.1375 15.6075 21.135 16.605 21.135 17.835C21.135 19.065 20.1375 20.0625 18.9075 20.0625C17.6775 20.0625 16.68 19.065 16.68 17.835C16.68 16.605 17.6775 15.6075 18.9075 15.6075ZM18.9075 14.67C17.16 14.67 15.7425 16.0875 15.7425 17.835C15.7425 19.5825 17.16 21 18.9075 21C20.655 21 22.0725 19.5825 22.0725 17.835C22.0725 16.0875 20.655 14.67 18.9075 14.67Z" fill="white"/>
<path d="M18.7425 17.25L16.4925 12.75H14.9925" stroke="white" stroke-width="1.25" stroke-linecap="round" stroke-linejoin="round"/>
<path d="M16.4925 14.25L13.4925 18H9.74249L11.2425 14.25H16.4925Z" stroke="white" stroke-width="1.25" stroke-linecap="round" stroke-linejoin="round"/>
<path d="M10.4925 12.75H11.9775" stroke="white" stroke-width="1.25" stroke-linecap="round" stroke-linejoin="round"/>
<path d="M11.2425 14.25V12.75" stroke="white" stroke-width="1.25" stroke-linecap="round" stroke-linejoin="round"/>
</g>
</g>
<defs>
<clipPath id="clip0_93_299">
<rect width="24" height="24" fill="white"/>
</clipPath>
<clipPath id="clip1_93_299">
<rect width="24" height="24" fill="white"/>
</clipPath>
</defs>
</svg>
