<svg width="24" height="24" viewBox="0 0 24 24" fill="none" xmlns="http://www.w3.org/2000/svg">
<g clip-path="url(#clip0_87_281)">
<path d="M11.9775 23.955C18.5925 23.955 23.955 18.5925 23.955 11.9775C23.955 5.36251 18.5925 0 11.9775 0C5.36251 0 0 5.36251 0 11.9775C0 18.5925 5.36251 23.955 11.9775 23.955Z" fill="#FFDD00"/>
<path d="M15.7125 6.72749H8.24248C7.81998 6.72749 7.47748 7.07 7.47748 7.49249V15.7125C7.47748 16.135 7.81998 16.4775 8.24248 16.4775H15.7125C16.135 16.4775 16.4775 16.135 16.4775 15.7125V7.49249C16.4775 7.07 16.135 6.72749 15.7125 6.72749Z" stroke="black" stroke-width="2" stroke-linecap="round" stroke-linejoin="round"/>
<path d="M8.97748 17.2275V17.9775" stroke="black" stroke-width="2" stroke-linecap="round" stroke-linejoin="round"/>
<path d="M14.9775 17.2275V17.9775" stroke="black" stroke-width="2" stroke-linecap="round" stroke-linejoin="round"/>
<path d="M16.8525 12.7275H7.10248V16.4775H16.8525V12.7275Z" fill="black"/>
<path d="M5.78248 8.22749H6.72748V9.72749H5.78248C5.47498 9.72749 5.22748 9.47999 5.22748 9.17249V8.78249C5.22748 8.47499 5.47498 8.22749 5.78248 8.22749Z" fill="black"/>
<path d="M18.165 9.71999H17.22V8.21999H18.165C18.4725 8.21999 18.72 8.46749 18.72 8.77499V9.16499C18.72 9.47249 18.4725 9.71999 18.165 9.71999Z" fill="black"/>
<path d="M8.97748 15.7275C9.39169 15.7275 9.72748 15.3917 9.72748 14.9775C9.72748 14.5633 9.39169 14.2275 8.97748 14.2275C8.56326 14.2275 8.22748 14.5633 8.22748 14.9775C8.22748 15.3917 8.56326 15.7275 8.97748 15.7275Z" fill="#FFDD00"/>
<path d="M14.9775 15.7275C15.3917 15.7275 15.7275 15.3917 15.7275 14.9775C15.7275 14.5633 15.3917 14.2275 14.9775 14.2275C14.5633 14.2275 14.2275 14.5633 14.2275 14.9775C14.2275 15.3917 14.5633 15.7275 14.9775 15.7275Z" fill="#FFDD00"/>
<path d="M10.4775 7.47749H13.4775V8.36999C13.4775 8.70749 13.2075 8.97749 12.87 8.97749H11.085C10.7475 8.97749 10.4775 8.70749 10.4775 8.36999V7.47749Z" fill="black"/>
<path d="M12.0038 24.0075C18.6332 24.0075 24.0075 18.6332 24.0075 12.0038C24.0075 5.37427 18.6332 0 12.0038 0C5.37427 0 0 5.37427 0 12.0038C0 18.6332 5.37427 24.0075 12.0038 24.0075Z" fill="#FFDD00"/>
<path d="M18.2048 8.24553H17.2578V7.50892C17.2578 6.6746 16.5738 5.9906 15.7394 5.9906H8.25305C7.41873 5.9906 6.73473 6.6746 6.73473 7.50892V8.24553H5.78766C5.47949 8.24553 5.23145 8.49358 5.23145 8.80175V9.1926C5.23145 9.50078 5.47949 9.74882 5.78766 9.74882H6.73473V15.7469C6.73473 16.5813 7.41121 17.2577 8.23802 17.2653V18.0169C8.23802 18.4303 8.57626 18.7686 8.98967 18.7686C9.40307 18.7686 9.74131 18.4303 9.74131 18.0169V17.2653H14.2512V18.0169C14.2512 18.4303 14.5894 18.7686 15.0028 18.7686C15.4162 18.7686 15.7545 18.4303 15.7545 18.0169V17.2653C16.5813 17.2653 17.2578 16.5813 17.2578 15.7469V9.74882H18.2048C18.513 9.74882 18.761 9.50078 18.761 9.1926V8.80175C18.761 8.49358 18.513 8.24553 18.2048 8.24553ZM8.25305 7.49389H10.493V8.38835C10.493 8.72659 10.7635 8.99718 11.1018 8.99718H12.8907C13.2289 8.99718 13.4995 8.72659 13.4995 8.38835V7.50141H15.7545V12.7554H8.24554V7.49389H8.25305ZM14.2587 15.0103C14.2587 14.5969 14.5969 14.2587 15.0103 14.2587C15.4237 14.2587 15.762 14.5969 15.762 15.0103C15.762 15.4237 15.4313 15.7545 15.0179 15.762C14.6044 15.762 14.2737 15.4237 14.2737 15.0103H14.2587ZM9.0498 15.7469C9.0498 15.7469 9.01222 15.762 8.98967 15.762C8.96712 15.762 8.95208 15.7545 8.92954 15.7469C8.5462 15.7169 8.23802 15.4012 8.23802 15.0103C8.23802 14.5969 8.57626 14.2662 8.98967 14.2662C9.40307 14.2662 9.74131 14.6044 9.74131 15.0178C9.74131 15.4313 9.43314 15.7244 9.0498 15.7545V15.7469Z" fill="black"/>
</g>
<defs>
<clipPath id="clip0_87_281">
<rect width="24" height="24" fill="white"/>
</clipPath>
</defs>
</svg>
