<svg width="24" height="24" viewBox="0 0 24 24" fill="none" xmlns="http://www.w3.org/2000/svg">
<g clip-path="url(#clip0_93_306)">
<g clip-path="url(#clip1_93_306)">
<path d="M21.8175 0H2.1825C0.977139 0 0 0.977139 0 2.1825V21.8175C0 23.0229 0.977139 24 2.1825 24H21.8175C23.0229 24 24 23.0229 24 21.8175V2.1825C24 0.977139 23.0229 0 21.8175 0Z" fill="#286FB7"/>
<path d="M11.16 6.9075C11.16 9.2025 9.6375 10.83 6.8025 10.83H5.3475V14.7375C5.3475 14.895 5.2425 14.9925 5.0925 14.9925H3.255C3.0975 14.9925 3 14.8875 3 14.7375V3.255C3 3.0975 3.105 3 3.255 3H6.8025C9.63 3 11.16 4.6275 11.16 6.9075ZM8.9175 6.9075C8.9175 5.52 7.8525 5.07 6.7575 5.07H5.355V8.7375H6.7575C7.8525 8.7375 8.9175 8.31 8.9175 6.9V6.9075Z" fill="white"/>
<path d="M19.545 15.1875C19.8225 15.1875 20.055 15.4125 20.055 15.6975V18.06C20.055 18.3375 19.83 18.57 19.545 18.57H11.9325C11.655 18.57 11.43 18.345 11.43 18.06V15.6975C11.43 15.42 11.655 15.1875 11.9325 15.1875H19.545ZM19.545 14.25H11.9325C11.1375 14.25 10.4925 14.895 10.4925 15.6975V18.06C10.4925 18.855 11.1375 19.5075 11.9325 19.5075H19.545C20.34 19.5075 20.9925 18.8625 20.9925 18.06V15.6975C20.9925 14.9025 20.3475 14.25 19.545 14.25Z" fill="white"/>
<path d="M12 15L12.6825 11.925C12.7725 11.535 13.2225 11.25 13.7475 11.25H17.7375C18.2625 11.25 18.7125 11.535 18.8025 11.925L19.485 15" stroke="white" stroke-width="1.25" stroke-miterlimit="10"/>
<path d="M12.915 19.44V20.25" stroke="white" stroke-width="1.25" stroke-linecap="round" stroke-linejoin="round"/>
<path d="M18.57 19.44V20.25" stroke="white" stroke-width="1.25" stroke-linecap="round" stroke-linejoin="round"/>
<path d="M13.0875 16.5C12.8625 16.5 12.6825 16.68 12.6825 16.905C12.6825 17.13 12.8625 17.31 13.0875 17.31C13.3125 17.31 13.4925 17.13 13.4925 16.905C13.4925 16.68 13.3125 16.5 13.0875 16.5Z" fill="white"/>
<path d="M18.3975 16.5C18.1725 16.5 17.9925 16.68 17.9925 16.905C17.9925 17.13 18.1725 17.31 18.3975 17.31C18.6225 17.31 18.8025 17.13 18.8025 16.905C18.8025 16.68 18.6225 16.5 18.3975 16.5Z" fill="white"/>
</g>
</g>
<defs>
<clipPath id="clip0_93_306">
<rect width="24" height="24" fill="white"/>
</clipPath>
<clipPath id="clip1_93_306">
<rect width="24" height="24" fill="white"/>
</clipPath>
</defs>
</svg>
