<svg width="24" height="24" viewBox="0 0 24 24" fill="none" xmlns="http://www.w3.org/2000/svg">
<g clip-path="url(#clip0_87_279)">
<path d="M12.0038 24.0075C18.6332 24.0075 24.0075 18.6332 24.0075 12.0038C24.0075 5.37427 18.6332 0 12.0038 0C5.37427 0 0 5.37427 0 12.0038C0 18.6332 5.37427 24.0075 12.0038 24.0075Z" fill="#FFDD00"/>
<path d="M15.4613 4.48732H8.53869C7.54652 4.48732 6.73474 5.2991 6.73474 6.29127V6.74225C6.73474 7.15566 7.07298 7.4939 7.48639 7.4939C7.89979 7.4939 8.23803 7.15566 8.23803 6.74225V6.29127C8.23803 6.1259 8.37333 5.99061 8.53869 5.99061H11.2446V8.99719H8.84686C8.09522 8.99719 7.48639 9.60602 7.48639 10.3577V16.6489C7.48639 17.3104 7.95992 17.8591 8.58379 17.9869L7.6743 19.0166C7.39619 19.3248 7.42625 19.8058 7.74194 20.0764C7.88476 20.2042 8.06515 20.2643 8.23803 20.2643C8.44849 20.2643 8.65143 20.1817 8.80176 20.0088L10.5381 18.0395C10.5381 18.0395 10.5531 18.0169 10.5606 18.0019H13.4394C13.4394 18.0019 13.4469 18.0244 13.462 18.0395L15.1983 20.0088C15.3486 20.1741 15.5515 20.2643 15.762 20.2643C15.9424 20.2643 16.1153 20.2042 16.2581 20.0764C16.5662 19.7983 16.5963 19.3248 16.3257 19.0166L15.4162 17.9869C16.0401 17.8666 16.5136 17.3104 16.5136 16.6489V10.3577C16.5136 9.60602 15.9048 8.99719 15.1532 8.99719H12.7554V5.99061H15.4613C15.6267 5.99061 15.762 6.1259 15.762 6.29127V6.74225C15.762 7.15566 16.1002 7.4939 16.5136 7.4939C16.927 7.4939 17.2653 7.15566 17.2653 6.74225V6.29127C17.2653 5.2991 16.4535 4.48732 15.4613 4.48732ZM13.5071 15.762C13.5071 15.3486 13.8453 15.0103 14.2587 15.0103C14.6721 15.0103 15.0103 15.3486 15.0103 15.762C15.0103 16.1754 14.6721 16.5136 14.2587 16.5136C13.8453 16.5136 13.5071 16.1754 13.5071 15.762ZM9.74883 16.5136C9.33543 16.5136 8.99719 16.1754 8.99719 15.762C8.99719 15.3486 9.33543 15.0103 9.74883 15.0103C10.1622 15.0103 10.5005 15.3486 10.5005 15.762C10.5005 16.1754 10.1622 16.5136 9.74883 16.5136ZM15.0103 10.5005V13.5071H8.99719V10.5005H10.5005V11.1544C10.5005 11.5002 10.7786 11.7708 11.1168 11.7708H12.8832C13.2289 11.7708 13.4995 11.4926 13.4995 11.1544V10.5005H15.0028H15.0103Z" fill="black"/>
</g>
<defs>
<clipPath id="clip0_87_279">
<rect width="24" height="24" fill="white"/>
</clipPath>
</defs>
</svg>
