<svg width="24" height="24" viewBox="0 0 24 24" fill="none" xmlns="http://www.w3.org/2000/svg">
<g clip-path="url(#clip0_87_282)">
<path d="M12.0038 24.0075C18.6332 24.0075 24.0075 18.6332 24.0075 12.0038C24.0075 5.37427 18.6332 0 12.0038 0C5.37427 0 0 5.37427 0 12.0038C0 18.6332 5.37427 24.0075 12.0038 24.0075Z" fill="#FFDD00"/>
<path d="M15.1456 7.86972H8.85437C8.10273 7.86972 7.4939 8.47855 7.4939 9.2302V15.5215C7.4939 16.2506 8.07267 16.8444 8.79424 16.8819L7.60665 18.7385C7.38115 19.0918 7.48638 19.5503 7.83214 19.7758C7.95992 19.8584 8.09521 19.896 8.23803 19.896C8.48607 19.896 8.7266 19.7758 8.86941 19.5503L10.5681 16.8895H13.4244L15.1231 19.5503C15.2659 19.7758 15.5064 19.896 15.7545 19.896C15.8898 19.896 16.0326 19.8584 16.1604 19.7758C16.5136 19.5503 16.6113 19.0843 16.3858 18.7385L15.1983 16.8819C15.9198 16.8519 16.4986 16.2581 16.4986 15.5215V9.2302C16.4986 8.47855 15.8898 7.86972 15.1381 7.86972H15.1456ZM8.99719 14.6345C8.99719 14.2211 9.33543 13.8829 9.74883 13.8829C10.1622 13.8829 10.5005 14.2211 10.5005 14.6345C10.5005 15.0479 10.1622 15.3862 9.74883 15.3862C9.33543 15.3862 8.99719 15.0479 8.99719 14.6345ZM13.5071 14.6345C13.5071 14.2211 13.8453 13.8829 14.2587 13.8829C14.6721 13.8829 15.0103 14.2211 15.0103 14.6345C15.0103 15.0479 14.6721 15.3862 14.2587 15.3862C13.8453 15.3862 13.5071 15.0479 13.5071 14.6345ZM8.99719 9.37301H10.5606V10.0345C10.5606 10.3727 10.8312 10.6433 11.1694 10.6433H12.8456C13.1838 10.6433 13.4544 10.3727 13.4544 10.0345V9.37301H15.0179V12.3796H9.0047V9.37301H8.99719Z" fill="black"/>
<path d="M12.0037 3.73567C7.86219 3.73567 4.4873 7.02787 4.4873 11.0792V16.5136C4.4873 16.927 4.82554 17.2653 5.23895 17.2653C5.65235 17.2653 5.99059 16.927 5.99059 16.5136V11.0792C5.99059 7.85468 8.689 5.23896 12.0037 5.23896C15.3185 5.23896 18.0169 7.8622 18.0169 11.0792V16.5136C18.0169 16.927 18.3551 17.2653 18.7685 17.2653C19.1819 17.2653 19.5202 16.927 19.5202 16.5136V11.0792C19.5202 7.02787 16.1453 3.73567 12.0037 3.73567Z" fill="black"/>
</g>
<defs>
<clipPath id="clip0_87_282">
<rect width="24" height="24" fill="white"/>
</clipPath>
</defs>
</svg>
