<svg width="24" height="24" viewBox="0 0 24 24" fill="none" xmlns="http://www.w3.org/2000/svg">
<path d="M12.0085 16.6501C14.5767 16.6501 16.6586 14.5682 16.6586 12C16.6586 9.43178 14.5767 7.34985 12.0085 7.34985C9.44032 7.34985 7.3584 9.43178 7.3584 12C7.3584 14.5682 9.44032 16.6501 12.0085 16.6501Z" fill="white"/>
<path d="M12.0085 5.94465C11.5486 5.94465 11.1739 5.56992 11.1739 5.11001V0.834636C11.1739 0.374734 11.5486 0 12.0085 0C12.4684 0 12.8432 0.374734 12.8432 0.834636V5.11853C12.8432 5.57843 12.4684 5.95317 12.0085 5.95317V5.94465Z" fill="white"/>
<path d="M12.0085 24C11.5486 24 11.1739 23.6253 11.1739 23.1654V18.8815C11.1739 18.4216 11.5486 18.0469 12.0085 18.0469C12.4684 18.0469 12.8432 18.4216 12.8432 18.8815V23.1654C12.8432 23.6253 12.4684 24 12.0085 24Z" fill="white"/>
<path d="M16.8801 7.96313C16.6672 7.96313 16.4543 7.87796 16.2925 7.71615C15.9688 7.39251 15.9688 6.86448 16.2925 6.53233L19.3159 3.5089C19.6395 3.18527 20.1676 3.18527 20.4997 3.5089C20.8234 3.83253 20.8234 4.36057 20.4997 4.69272L17.4763 7.71615C17.3145 7.87796 17.1016 7.96313 16.8886 7.96313H16.8801Z" fill="white"/>
<path d="M4.11358 20.7295C3.90066 20.7295 3.68775 20.6444 3.52593 20.4826C3.20229 20.1589 3.20229 19.6309 3.52593 19.2987L6.54935 16.2753C6.87299 15.9517 7.40102 15.9517 7.73317 16.2753C8.05681 16.599 8.05681 17.127 7.73317 17.4591L4.70975 20.4826C4.54793 20.6444 4.33501 20.7295 4.12209 20.7295H4.11358Z" fill="white"/>
<path d="M23.1739 12.8346H18.89C18.4301 12.8346 18.0554 12.4599 18.0554 12C18.0554 11.5401 18.4301 11.1653 18.89 11.1653H23.1739C23.6338 11.1653 24.0085 11.5401 24.0085 12C24.0085 12.4599 23.6338 12.8346 23.1739 12.8346Z" fill="white"/>
<path d="M5.11853 12.8346H0.834635C0.374734 12.8346 0 12.4599 0 12C0 11.5401 0.374734 11.1653 0.834635 11.1653H5.11853C5.57843 11.1653 5.95317 11.5401 5.95317 12C5.95317 12.4599 5.57843 12.8346 5.11853 12.8346Z" fill="white"/>
<path d="M19.9035 20.7295C19.6906 20.7295 19.4777 20.6444 19.3159 20.4826L16.2925 17.4591C15.9688 17.1355 15.9688 16.6075 16.2925 16.2753C16.6161 15.9517 17.1441 15.9517 17.4763 16.2753L20.4997 19.2987C20.8234 19.6224 20.8234 20.1504 20.4997 20.4826C20.3379 20.6444 20.125 20.7295 19.9121 20.7295H19.9035Z" fill="white"/>
<path d="M7.137 7.96313C6.92409 7.96313 6.71117 7.87796 6.54935 7.71615L3.52593 4.69272C3.20229 4.36909 3.20229 3.84105 3.52593 3.5089C3.84956 3.18527 4.3776 3.18527 4.70975 3.5089L7.73317 6.53233C8.05681 6.85596 8.05681 7.38399 7.73317 7.71615C7.57136 7.87796 7.35844 7.96313 7.14552 7.96313H7.137Z" fill="white"/>
</svg>
