<svg width="24" height="24" viewBox="0 0 24 24" fill="none" xmlns="http://www.w3.org/2000/svg">
<path d="M16.2106 6.78578H15.1275V1.36792H16.1243C16.5088 1.36792 16.8228 1.06052 16.8228 0.683958C16.8228 0.307397 16.5088 0 16.1243 0H7.89928C7.51472 0 7.20079 0.307397 7.20079 0.683958C7.20079 1.06052 7.51472 1.36792 7.89928 1.36792H8.89601V6.79347H7.81295C6.81622 6.79347 6 7.58501 6 8.56868V20.05C6 20.9798 6.73774 21.733 7.66383 21.8098C7.44408 22.0403 7.31067 22.3477 7.31067 22.6936C7.31067 23.4159 7.90713 24 8.64487 24C9.3826 24 9.97907 23.4159 9.97907 22.6936C9.97907 22.3554 9.84565 22.0557 9.63375 21.8252H14.3663C14.1544 22.0557 14.0209 22.3554 14.0209 22.6936C14.0209 23.4159 14.6174 24 15.3551 24C16.0929 24 16.6893 23.4159 16.6893 22.6936C16.6893 22.3554 16.5559 22.0403 16.3362 21.8098C17.2701 21.7406 18 20.9798 18 20.05V8.56868C18 7.5927 17.1916 6.79347 16.1871 6.79347L16.2106 6.78578ZM8.89601 19.3353C8.89601 19.5351 8.76259 19.7041 8.58208 19.7656C8.53499 19.7887 8.4879 19.804 8.42512 19.804C8.36233 19.804 8.31524 19.7887 8.26815 19.7656C8.08764 19.7041 7.95422 19.5351 7.95422 19.3353V9.25264C7.95422 8.99904 8.16612 8.79155 8.42512 8.79155C8.68411 8.79155 8.89601 8.99904 8.89601 9.25264V19.3353ZM12.4827 19.3353C12.4827 19.5351 12.3492 19.7041 12.1687 19.7656C12.1216 19.7887 12.0746 19.804 12.0118 19.804C11.949 19.804 11.9019 19.7887 11.8548 19.7656C11.6743 19.7041 11.5409 19.5351 11.5409 19.3353V9.25264C11.5409 8.99904 11.7528 8.79155 12.0118 8.79155C12.2708 8.79155 12.4827 8.99904 12.4827 9.25264V19.3353ZM13.7384 6.78578H10.293V1.36792H13.7384V6.79347V6.78578ZM16.0693 19.3353C16.0693 19.5351 15.9359 19.7041 15.7554 19.7656C15.7083 19.7887 15.6612 19.804 15.5984 19.804C15.5356 19.804 15.4886 19.7887 15.4415 19.7656C15.261 19.7041 15.1275 19.5351 15.1275 19.3353V9.25264C15.1275 8.99904 15.3394 8.79155 15.5984 8.79155C15.8574 8.79155 16.0693 8.99904 16.0693 9.25264V19.3353Z" fill="white"/>
</svg>
