<svg width="24" height="24" viewBox="0 0 24 24" fill="none" xmlns="http://www.w3.org/2000/svg">
<path d="M21.5472 3.12208L20.2091 5.94425C20.1245 5.80583 20.0476 5.65972 19.9554 5.52131C19.94 5.49055 19.9169 5.46748 19.8938 5.44441C19.8246 5.34444 19.7477 5.24447 19.6708 5.15219L21.2396 1.84556C21.4164 1.47645 21.2549 1.03813 20.8858 0.861262L19.2479 0.0692086C19.1479 0.0230695 19.0403 0 18.9326 0C18.6558 0 18.3943 0.153797 18.2636 0.422941L17.1178 2.83755C17.0025 2.76834 16.8871 2.69145 16.7641 2.62224C16.641 2.55303 16.518 2.4992 16.395 2.43768C15.1953 1.85325 13.8496 1.5149 12.427 1.5149C11.0044 1.5149 9.58945 1.86863 8.36676 2.48382C8.24372 2.54534 8.12069 2.60686 7.99765 2.67607C7.87461 2.74527 7.75926 2.82217 7.64392 2.89138L6.47506 0.430631C6.34433 0.153797 6.08288 0 5.80604 0C5.69839 0 5.59073 0.0230695 5.48307 0.0692086L3.84513 0.845883C3.47602 1.02275 3.32223 1.46107 3.4914 1.83018L5.10627 5.22909C5.02937 5.32906 4.95247 5.42903 4.88326 5.529C4.86788 5.55976 4.8525 5.58283 4.82943 5.61359C4.73716 5.752 4.65257 5.89811 4.57567 6.03653L3.1915 3.12208C2.95311 4.2371 2.79163 6.19032 3.62982 8.38193C3.45295 9.08939 3.34529 9.82762 3.34529 10.5889V21.5316C3.34529 22.8927 4.45263 24 5.81373 24H19.0326C20.3937 24 21.501 22.8927 21.501 21.5316V10.5889C21.501 9.75841 21.378 8.95867 21.1704 8.19737C21.9316 6.08267 21.7778 4.19865 21.5472 3.11439V3.12208ZM19.0864 17.6251V20.3166C19.0864 21.1009 18.4481 21.7392 17.6638 21.7392H7.18253C6.39816 21.7392 5.75991 21.1009 5.75991 20.3166V16.1025C5.75991 15.3182 6.39816 14.6799 7.18253 14.6799H17.6561C18.4405 14.6799 19.0787 15.3182 19.0787 16.1025V17.6251H19.0864ZM18.6712 11.6809C18.4405 11.6809 18.2559 11.4963 18.2559 11.2656C18.2559 8.05127 15.6414 5.42903 12.4193 5.42903C9.19727 5.42903 6.58272 8.04358 6.58272 11.2656C6.58272 11.4963 6.39816 11.6809 6.16747 11.6809C5.93677 11.6809 5.75222 11.4963 5.75222 11.2656C5.75222 9.83531 6.21361 8.52035 6.98259 7.43608C7.17484 7.16693 7.38246 6.92086 7.60547 6.68247C8.02841 6.24415 8.51287 5.86735 9.03578 5.55976C9.18189 5.47517 9.32799 5.39058 9.48179 5.31368C10.3738 4.87536 11.3581 4.60622 12.4193 4.60622C13.4805 4.60622 14.3802 4.85229 15.2338 5.25216C15.3876 5.32137 15.5337 5.41365 15.6798 5.49824C16.2873 5.84428 16.8333 6.26722 17.3024 6.77475C17.51 6.99776 17.7099 7.22845 17.8791 7.47453C18.6327 8.55111 19.0787 9.85838 19.0787 11.2733C19.0787 11.504 18.8942 11.6886 18.6635 11.6886L18.6712 11.6809Z" fill="white"/>
<path d="M17.9176 15.3797H7.44399C7.11332 15.3797 6.84418 15.6488 6.84418 15.9795V17.0945H18.5097V15.9795C18.5097 15.6488 18.2405 15.3797 17.9099 15.3797H17.9176Z" fill="white"/>
<path d="M8.82045 18.894C8.82045 19.1247 8.63589 19.3092 8.4052 19.3092C8.1745 19.3092 7.98994 19.1247 7.98994 18.894V18.0404H6.59039V20.3166C6.59039 20.6473 6.85954 20.9164 7.1902 20.9164H17.6638C17.9944 20.9164 18.2636 20.6473 18.2636 20.3166V18.0404H8.82045V18.894Z" fill="white"/>
</svg>
