<?xml version="1.0" encoding="UTF-8"?>
<svg id="Camada_2" xmlns="http://www.w3.org/2000/svg" version="1.1" viewBox="0 0 1168.2 639.2">
  <!-- Generator: Adobe Illustrator 29.1.0, SVG Export Plug-In . SVG Version: 2.1.0 Build 142)  -->
  <defs>
    <style>
      .st0, .st1 {
        fill: #fd0;
      }

      .st1 {
        isolation: isolate;
      }

      .st1, .st2 {
        opacity: .2;
      }

      .st3 {
        fill: #fdb71a;
      }
    </style>
  </defs>
  <rect class="st1" x="16.2" y="25.4" width="1121.4" height="585" rx="80.1" ry="80.1"/>
  <g class="st2">
    <path class="st0" d="M1137.6,530.3V105.5c0-13.4-3.3-26.1-9.2-37.2-34.6,41.5-74,79.6-121.1,105.8-49.1,27.2-105.9,41.2-149.3,76.7-33.3,27.3-56.7,65.8-92.7,89.5-26.8,17.6-58.8,25.6-86.6,41.6-25.9,14.9-47.5,36.2-70.5,55.3-77.8,64.4-175.9,103.8-276.6,111.2-29,2.1-58.1,1.7-87,5.3-27.3,3.4-54,10.5-80.6,17.5-36,9.5-71.9,19-107.9,28.4,11.8,6.8,25.5,10.8,40.1,10.8h961.2c44.2,0,80.1-35.9,80.1-80.1h0Z"/>
    <path class="st1" d="M1137.6,530.3V105.5c0-13.4-3.3-26.1-9.2-37.2-34.6,41.5-74,79.6-121.1,105.8-49.1,27.2-105.9,41.2-149.3,76.7-33.3,27.3-56.7,65.8-92.7,89.5-26.8,17.6-58.8,25.6-86.6,41.6-25.9,14.9-47.5,36.2-70.5,55.3-77.8,64.4-175.9,103.8-276.6,111.2-29,2.1-58.1,1.7-87,5.3-27.3,3.4-54,10.5-80.6,17.5-36,9.5-71.9,19-107.9,28.4,11.8,6.8,25.5,10.8,40.1,10.8h961.2c44.2,0,80.1-35.9,80.1-80.1h0Z"/>
  </g>
  <g>
    <g class="st2">
      <path class="st0" d="M1137.6,530.3v-221.7c-51.2,21.6-112.3,16.2-167.4,29.7-60.3,14.8-112.4,52.1-160.4,91.4-14.6,12-29.2,24.4-46.6,31.8-23.7,10.2-51,10.4-74,22.1-16,8.2-28.8,21.5-43.9,31.4-19,12.4-41,18.9-62.8,25.3-29.2,8.6-58.6,17.2-89,19.7-30.8,2.5-61.9-1.5-92.4,3.2-32.4,5-62.5,19.5-94.5,26.3-33.1,7.1-67.4,5.8-101.1,9.1-18.4,1.8-37.1,5.2-54.3,11.7h906.2c44.2,0,80.1-35.9,80.1-80.1h0Z"/>
    </g>
    <path class="st1" d="M1137.6,530.3v-221.7c-51.2,21.6-112.3,16.2-167.4,29.7-60.3,14.8-112.4,52.1-160.4,91.4-14.6,12-29.2,24.4-46.6,31.8-23.7,10.2-51,10.4-74,22.1-16,8.2-28.8,21.5-43.9,31.4-19,12.4-41,18.9-62.8,25.3-29.2,8.6-58.6,17.2-89,19.7-30.8,2.5-61.9-1.5-92.4,3.2-32.4,5-62.5,19.5-94.5,26.3-33.1,7.1-67.4,5.8-101.1,9.1-18.4,1.8-37.1,5.2-54.3,11.7h906.2c44.2,0,80.1-35.9,80.1-80.1h0Z"/>
  </g>
  <g>
    <path class="st0" d="M1137.6,530.3v-97.9c-30.5-1.7-61.3,2.4-90.2,12-21,7-41,16.7-61.9,24-70.8,24.6-150.6,20.1-217.3,54.1-33.1,16.9-61.4,42.5-95.7,56.8-41.4,17.3-87.7,16.6-132.6,18-30.2,1-61.6,3.5-90,13h607.6c44.2,0,80.1-35.9,80.1-80.1Z"/>
    <path class="st1" d="M1137.6,530.3v-97.9c-30.5-1.7-61.3,2.4-90.2,12-21,7-41,16.7-61.9,24-70.8,24.6-150.6,20.1-217.3,54.1-33.1,16.9-61.4,42.5-95.7,56.8-41.4,17.3-87.7,16.6-132.6,18-30.2,1-61.6,3.5-90,13h607.6c44.2,0,80.1-35.9,80.1-80.1Z"/>
  </g>
  <g>
    <path class="st3" d="M119.5,291.9v-21.8h4.3v2.7h.2c.2-.4.5-.9.8-1.3.4-.4.8-.8,1.4-1.1s1.3-.5,2.2-.5,2.2.3,3.2.9,1.8,1.5,2.3,2.7c.6,1.2.9,2.7.9,4.5s-.3,3.2-.9,4.5-1.3,2.1-2.3,2.8-2.1.9-3.3.9-1.6-.1-2.2-.4-1.1-.6-1.5-1.1-.7-.9-.9-1.3h-.1v8.5h-4.4ZM123.8,278.1c0,.9.1,1.8.4,2.5.3.7.6,1.2,1.1,1.6.5.4,1.1.6,1.8.6s1.3-.2,1.8-.6c.5-.4.9-.9,1.1-1.6.3-.7.4-1.5.4-2.4s-.1-1.7-.4-2.4-.6-1.2-1.1-1.6c-.5-.4-1.1-.6-1.8-.6s-1.3.2-1.8.6-.9.9-1.1,1.6-.4,1.5-.4,2.5h0Z"/>
    <path class="st3" d="M142.4,286.3c-1,0-1.9-.2-2.7-.5s-1.4-.9-1.9-1.6c-.5-.7-.7-1.6-.7-2.6s.2-1.6.5-2.2c.3-.6.8-1.1,1.3-1.4.6-.4,1.2-.6,1.9-.8.7-.2,1.5-.3,2.2-.4.9-.1,1.7-.2,2.2-.3s1-.2,1.2-.4.4-.4.4-.8h0c0-.7-.2-1.2-.6-1.6-.4-.4-1-.5-1.7-.5s-1.4.2-1.9.5c-.5.4-.8.8-.9,1.3l-4.1-.3c.2-1,.6-1.8,1.2-2.5.6-.7,1.4-1.2,2.3-1.6,1-.4,2.1-.6,3.3-.6s1.7.1,2.5.3,1.5.5,2.1,1c.6.4,1.1,1,1.5,1.7.4.7.5,1.5.5,2.4v10.7h-4.2v-2.2h-.1c-.2.5-.6.9-1,1.3s-.9.7-1.5.9c-.6.2-1.3.3-2.1.3h0ZM143.6,283.2c.6,0,1.2-.1,1.7-.4s.9-.6,1.2-1c.3-.4.4-.9.4-1.5v-1.7c-.1,0-.3.2-.6.2-.2,0-.5.1-.8.2s-.6.1-.9.1-.6,0-.8.1c-.5,0-1,.2-1.4.4-.4.2-.7.4-.9.7-.2.3-.3.6-.3,1,0,.6.2,1,.6,1.4s1,.5,1.7.5h0Z"/>
    <path class="st3" d="M167.9,274.7l-4,.2c0-.3-.2-.6-.4-.9s-.5-.5-.9-.7-.8-.2-1.3-.2-1.2.1-1.7.4c-.5.3-.7.7-.7,1.1s.1.7.4,1c.3.3.8.5,1.6.6l2.9.6c1.5.3,2.7.8,3.4,1.5s1.1,1.6,1.1,2.8-.3,2-.9,2.7-1.4,1.4-2.5,1.8c-1.1.4-2.3.6-3.6.6-2.1,0-3.8-.4-5-1.3-1.2-.9-2-2.1-2.2-3.6l4.3-.2c.1.6.4,1.1.9,1.5.5.3,1.1.5,1.9.5s1.4-.1,1.9-.5.7-.7.7-1.2-.2-.7-.5-1c-.3-.3-.8-.5-1.5-.6l-2.7-.5c-1.5-.3-2.7-.8-3.4-1.6-.8-.8-1.1-1.7-1.1-2.9s.3-1.9.8-2.6c.6-.7,1.3-1.3,2.3-1.7s2.2-.6,3.5-.6c2,0,3.6.4,4.7,1.3,1.1.8,1.8,2,2,3.5h0Z"/>
    <path class="st3" d="M184.1,274.7l-4,.2c0-.3-.2-.6-.4-.9s-.5-.5-.9-.7-.8-.2-1.3-.2-1.2.1-1.7.4c-.5.3-.7.7-.7,1.1s.1.7.4,1c.3.3.8.5,1.6.6l2.9.6c1.5.3,2.7.8,3.4,1.5.8.7,1.1,1.6,1.1,2.8s-.3,2-.9,2.7-1.4,1.4-2.5,1.8c-1.1.4-2.3.6-3.6.6-2.1,0-3.8-.4-5-1.3-1.2-.9-2-2.1-2.2-3.6l4.3-.2c.1.6.4,1.1.9,1.5.5.3,1.1.5,1.9.5s1.4-.1,1.9-.5c.5-.3.7-.7.7-1.2,0-.4-.2-.7-.5-1-.3-.3-.8-.5-1.5-.6l-2.7-.5c-1.5-.3-2.7-.8-3.4-1.6-.8-.8-1.1-1.7-1.1-2.9s.3-1.9.8-2.6,1.3-1.3,2.3-1.7,2.2-.6,3.5-.6c2,0,3.6.4,4.7,1.3,1.1.8,1.8,2,2,3.5h0Z"/>
    <path class="st3" d="M191.8,286.3c-1,0-1.9-.2-2.7-.5s-1.4-.9-1.9-1.6c-.5-.7-.7-1.6-.7-2.6s.2-1.6.5-2.2c.3-.6.8-1.1,1.3-1.4.6-.4,1.2-.6,1.9-.8s1.5-.3,2.2-.4c.9-.1,1.7-.2,2.2-.3.6,0,1-.2,1.2-.4s.4-.4.4-.8h0c0-.7-.2-1.2-.6-1.6-.4-.4-1-.5-1.7-.5s-1.4.2-1.9.5c-.5.4-.8.8-.9,1.3l-4.1-.3c.2-1,.6-1.8,1.2-2.5.6-.7,1.4-1.2,2.3-1.6,1-.4,2.1-.6,3.3-.6s1.7.1,2.5.3,1.5.5,2.1,1c.6.4,1.1,1,1.5,1.7.4.7.6,1.5.6,2.4v10.7h-4.2v-2.2h-.1c-.2.5-.6.9-1,1.3s-.9.7-1.5.9c-.6.2-1.3.3-2.1.3h0ZM193,283.2c.6,0,1.2-.1,1.7-.4s.9-.6,1.2-1,.4-.9.4-1.5v-1.7c-.1,0-.3.2-.6.2-.2,0-.5.1-.8.2s-.6.1-.9.1c-.3,0-.6,0-.8.1-.5,0-1,.2-1.4.4-.4.2-.7.4-.9.7-.2.3-.3.6-.3,1,0,.6.2,1,.6,1.4.4.3,1,.5,1.7.5h0Z"/>
    <path class="st3" d="M211.2,292.2c-1.4,0-2.6-.2-3.6-.6s-1.8-.9-2.4-1.6c-.6-.7-1-1.4-1.2-2.2l4.1-.5c.1.3.3.6.6.9s.6.5,1.1.7c.4.2,1,.2,1.6.2.9,0,1.7-.2,2.4-.7.6-.5.9-1.2.9-2.3v-2.9h-.2c-.2.4-.5.9-.9,1.2-.4.4-.9.7-1.5,1-.6.2-1.3.4-2.2.4-1.2,0-2.3-.3-3.2-.8s-1.7-1.4-2.3-2.5c-.6-1.1-.9-2.6-.9-4.3s.3-3.3.9-4.5c.6-1.2,1.4-2.1,2.3-2.7s2-.9,3.2-.9,1.6.1,2.2.5c.6.3,1.1.7,1.4,1.1.4.4.6.9.9,1.3h.2v-2.7h4.4v16c0,1.4-.3,2.5-1,3.4s-1.6,1.6-2.7,2c-1.2.5-2.5.7-4,.7h0ZM211.3,282.4c.7,0,1.3-.2,1.8-.5s.9-.9,1.1-1.5c.3-.7.4-1.5.4-2.4s-.1-1.7-.4-2.4c-.3-.7-.6-1.2-1.1-1.6s-1.1-.6-1.8-.6-1.3.2-1.8.6-.9.9-1.1,1.6-.4,1.5-.4,2.4.1,1.7.4,2.4c.3.7.6,1.2,1.1,1.5.5.4,1.1.5,1.8.5h0Z"/>
    <path class="st3" d="M229.7,286.3c-1.6,0-3-.3-4.2-1s-2.1-1.6-2.7-2.8-.9-2.7-.9-4.3.3-3,.9-4.3c.6-1.2,1.5-2.2,2.7-2.9,1.1-.7,2.5-1,4.1-1s2,.2,2.9.5,1.7.8,2.4,1.5,1.2,1.5,1.6,2.5.6,2.2.6,3.5v1.2h-13.4v-2.7h9.2c0-.6-.1-1.2-.4-1.7-.3-.5-.6-.9-1.1-1.1s-1-.4-1.7-.4-1.2.1-1.8.5c-.5.3-.9.7-1.2,1.2s-.4,1.1-.4,1.7v2.6c0,.8.1,1.5.4,2,.3.6.7,1,1.2,1.3.5.3,1.2.5,1.9.5s.9,0,1.3-.2c.4-.1.8-.3,1-.6.3-.3.5-.6.7-1l4.1.3c-.2,1-.6,1.8-1.3,2.5-.6.7-1.4,1.3-2.4,1.7s-2.1.6-3.5.6h0Z"/>
    <path class="st3" d="M242,268.1c-.6,0-1.2-.2-1.7-.6-.5-.4-.7-1-.7-1.6s.2-1.1.7-1.6c.5-.4,1-.6,1.7-.6s1.2.2,1.7.6c.5.4.7,1,.7,1.6s-.2,1.1-.7,1.6c-.5.4-1,.6-1.7.6ZM239.8,286v-15.8h4.4v15.8h-4.4Z"/>
    <path class="st3" d="M247.7,286v-15.8h4.2v2.8h.2c.3-1,.8-1.7,1.4-2.2.7-.5,1.5-.8,2.4-.8s.5,0,.7,0,.5,0,.7.1v3.9c-.2,0-.5-.1-.9-.2-.4,0-.7,0-1,0-.6,0-1.2.1-1.7.4s-.9.7-1.2,1.2c-.3.5-.4,1.1-.4,1.7v9h-4.4,0Z"/>
    <path class="st3" d="M265.9,286.3c-1.6,0-3-.3-4.1-1s-2.1-1.6-2.7-2.9c-.6-1.2-1-2.6-1-4.3s.3-3.1,1-4.3,1.5-2.2,2.7-2.9,2.5-1,4.1-1,3,.3,4.1,1c1.2.7,2.1,1.6,2.7,2.9.6,1.2,1,2.7,1,4.3s-.3,3-1,4.3c-.6,1.2-1.5,2.2-2.7,2.9s-2.5,1-4.1,1ZM266,282.9c.7,0,1.3-.2,1.8-.6.5-.4.9-1,1.1-1.7s.4-1.5.4-2.5-.1-1.7-.4-2.5c-.2-.7-.6-1.3-1.1-1.7-.5-.4-1.1-.6-1.8-.6s-1.4.2-1.9.6-.9,1-1.1,1.7-.4,1.5-.4,2.5.1,1.7.4,2.5.6,1.3,1.1,1.7c.5.4,1.1.6,1.9.6Z"/>
    <path class="st3" d="M289.8,274.7l-4,.2c0-.3-.2-.6-.4-.9s-.5-.5-.9-.7c-.4-.2-.8-.2-1.3-.2s-1.2.1-1.7.4c-.5.3-.7.7-.7,1.1s.1.7.5,1c.3.3.8.5,1.5.6l2.9.6c1.5.3,2.7.8,3.4,1.5.8.7,1.1,1.6,1.1,2.8s-.3,2-.9,2.7c-.6.8-1.4,1.4-2.5,1.8-1,.4-2.3.6-3.6.6-2.1,0-3.8-.4-5-1.3-1.2-.9-2-2.1-2.2-3.6l4.3-.2c.1.6.5,1.1,1,1.5.5.3,1.1.5,1.9.5s1.4-.1,1.9-.5c.5-.3.7-.7.7-1.2,0-.4-.2-.7-.5-1-.3-.3-.8-.5-1.5-.6l-2.7-.5c-1.5-.3-2.7-.8-3.4-1.6-.8-.8-1.1-1.7-1.1-2.9s.3-1.9.8-2.6,1.3-1.3,2.3-1.7,2.2-.6,3.5-.6c2,0,3.6.4,4.7,1.3,1.1.8,1.8,2,2,3.5h0Z"/>
    <path class="st3" d="M308,270.1v3.3h-9.5v-3.3h9.5ZM300.6,266.4h4.4v14.8c0,.4,0,.7.2.9.1.2.3.4.5.5s.5.1.8.1.4,0,.6,0,.4,0,.5,0l.7,3.3c-.2,0-.5.1-.9.2s-.9.1-1.5.2c-1.1,0-2-.1-2.8-.4s-1.4-.8-1.9-1.5-.6-1.5-.6-2.6v-15.3Z"/>
    <path class="st3" d="M310.9,286v-15.8h4.2v2.8h.2c.3-1,.8-1.7,1.5-2.2.7-.5,1.5-.8,2.4-.8s.5,0,.7,0,.5,0,.7.1v3.9c-.2,0-.5-.1-.9-.2-.4,0-.7,0-1,0-.6,0-1.2.1-1.7.4s-.9.7-1.2,1.2-.4,1.1-.4,1.7v9h-4.4,0Z"/>
    <path class="st3" d="M326.8,286.3c-1,0-1.9-.2-2.7-.5s-1.4-.9-1.9-1.6c-.5-.7-.7-1.6-.7-2.6s.2-1.6.5-2.2c.3-.6.8-1.1,1.3-1.4.6-.4,1.2-.6,1.9-.8.7-.2,1.5-.3,2.2-.4.9-.1,1.7-.2,2.2-.3s1-.2,1.2-.4.4-.4.4-.8h0c0-.7-.2-1.2-.6-1.6-.4-.4-1-.5-1.7-.5s-1.4.2-1.9.5c-.5.4-.8.8-.9,1.3l-4.1-.3c.2-1,.6-1.8,1.2-2.5.6-.7,1.4-1.2,2.3-1.6s2.1-.6,3.3-.6,1.7.1,2.5.3,1.5.5,2.1,1c.6.4,1.1,1,1.5,1.7.4.7.5,1.5.5,2.4v10.7h-4.2v-2.2h-.1c-.2.5-.6.9-1,1.3s-.9.7-1.5.9-1.3.3-2.1.3h0ZM328,283.2c.6,0,1.2-.1,1.7-.4s.9-.6,1.2-1c.3-.4.4-.9.4-1.5v-1.7c-.1,0-.3.2-.6.2-.2,0-.5.1-.8.2s-.6.1-.9.1c-.3,0-.6,0-.8.1-.5,0-1,.2-1.4.4-.4.2-.7.4-.9.7-.2.3-.3.6-.3,1,0,.6.2,1,.6,1.4s1,.5,1.7.5h0Z"/>
    <path class="st3" d="M343.5,276.8v9.1h-4.4v-15.8h4.2v2.8h.2c.4-.9.9-1.6,1.8-2.2s1.8-.8,3-.8,2.1.2,2.9.7c.8.5,1.5,1.2,1.9,2,.5.9.7,2,.7,3.2v10.1h-4.4v-9.3c0-1-.2-1.7-.7-2.3s-1.2-.8-2.1-.8-1.1.1-1.6.4-.8.6-1,1.1c-.2.5-.4,1.1-.4,1.8h0Z"/>
    <path class="st3" d="M370.3,274.7l-4,.2c0-.3-.2-.6-.4-.9s-.5-.5-.9-.7c-.4-.2-.8-.2-1.3-.2s-1.2.1-1.7.4c-.5.3-.7.7-.7,1.1s.1.7.5,1,.8.5,1.6.6l2.9.6c1.5.3,2.7.8,3.4,1.5.8.7,1.1,1.6,1.1,2.8s-.3,2-.9,2.7c-.6.8-1.4,1.4-2.5,1.8-1,.4-2.3.6-3.6.6-2.1,0-3.8-.4-5-1.3-1.2-.9-2-2.1-2.2-3.6l4.3-.2c.1.6.5,1.1,1,1.5.5.3,1.1.5,1.9.5s1.4-.1,1.9-.5.7-.7.7-1.2c0-.4-.2-.7-.5-1-.3-.3-.8-.5-1.5-.6l-2.7-.5c-1.5-.3-2.7-.8-3.4-1.6-.8-.8-1.1-1.7-1.1-2.9s.3-1.9.8-2.6c.5-.7,1.3-1.3,2.3-1.7s2.2-.6,3.5-.6c2,0,3.6.4,4.7,1.3,1.1.8,1.8,2,2,3.5h0Z"/>
    <path class="st3" d="M373.4,291.9v-21.8h4.3v2.7h.2c.2-.4.5-.9.8-1.3s.9-.8,1.4-1.1,1.3-.5,2.2-.5,2.2.3,3.2.9c1,.6,1.8,1.5,2.3,2.7.6,1.2.9,2.7.9,4.5s-.3,3.2-.9,4.5-1.3,2.1-2.3,2.8-2.1.9-3.3.9-1.6-.1-2.2-.4-1.1-.6-1.5-1.1-.7-.9-.9-1.3h-.1v8.5h-4.4,0ZM377.7,278.1c0,.9.1,1.8.4,2.5.3.7.6,1.2,1.1,1.6s1.1.6,1.8.6,1.3-.2,1.8-.6c.5-.4.9-.9,1.1-1.6.3-.7.4-1.5.4-2.4s-.1-1.7-.4-2.4-.6-1.2-1.1-1.6-1.1-.6-1.8-.6-1.3.2-1.8.6-.9.9-1.1,1.6c-.3.7-.4,1.5-.4,2.5h0Z"/>
    <path class="st3" d="M398.9,286.3c-1.6,0-3-.3-4.1-1-1.2-.7-2.1-1.6-2.7-2.9-.6-1.2-1-2.6-1-4.3s.3-3.1,1-4.3c.6-1.2,1.5-2.2,2.7-2.9s2.5-1,4.1-1,3,.3,4.1,1c1.2.7,2.1,1.6,2.7,2.9.6,1.2,1,2.7,1,4.3s-.3,3-1,4.3c-.6,1.2-1.5,2.2-2.7,2.9s-2.5,1-4.1,1ZM398.9,282.9c.7,0,1.3-.2,1.8-.6.5-.4.9-1,1.1-1.7s.4-1.5.4-2.5-.1-1.7-.4-2.5c-.2-.7-.6-1.3-1.1-1.7-.5-.4-1.1-.6-1.8-.6s-1.4.2-1.9.6-.9,1-1.1,1.7-.4,1.5-.4,2.5.1,1.7.4,2.5c.2.7.6,1.3,1.1,1.7.5.4,1.1.6,1.9.6Z"/>
    <path class="st3" d="M409.6,286v-15.8h4.2v2.8h.2c.3-1,.8-1.7,1.5-2.2.7-.5,1.5-.8,2.4-.8s.5,0,.7,0,.5,0,.7.1v3.9c-.2,0-.5-.1-.9-.2s-.7,0-1,0c-.6,0-1.2.1-1.7.4s-.9.7-1.2,1.2c-.3.5-.4,1.1-.4,1.7v9h-4.4Z"/>
    <path class="st3" d="M430.6,270.1v3.3h-9.5v-3.3h9.5ZM423.3,266.4h4.4v14.8c0,.4,0,.7.2.9.1.2.3.4.5.5s.5.1.8.1.4,0,.6,0,.4,0,.5,0l.7,3.3c-.2,0-.5.1-.9.2s-.9.1-1.5.2c-1.1,0-2-.1-2.8-.4s-1.4-.8-1.9-1.5-.7-1.5-.6-2.6v-15.3Z"/>
    <path class="st3" d="M438,286.3c-1,0-1.9-.2-2.7-.5s-1.4-.9-1.9-1.6c-.5-.7-.7-1.6-.7-2.6s.2-1.6.5-2.2c.3-.6.8-1.1,1.3-1.4.6-.4,1.2-.6,1.9-.8.7-.2,1.5-.3,2.2-.4.9-.1,1.7-.2,2.2-.3s1-.2,1.2-.4.4-.4.4-.8h0c0-.7-.2-1.2-.6-1.6-.4-.4-1-.5-1.7-.5s-1.4.2-1.9.5c-.5.4-.8.8-.9,1.3l-4.1-.3c.2-1,.6-1.8,1.2-2.5.6-.7,1.4-1.2,2.3-1.6s2.1-.6,3.3-.6,1.7.1,2.5.3,1.5.5,2.1,1c.6.4,1.1,1,1.5,1.7.4.7.5,1.5.5,2.4v10.7h-4.2v-2.2h-.1c-.2.5-.6.9-1,1.3s-.9.7-1.5.9-1.3.3-2.1.3h0ZM439.2,283.2c.6,0,1.2-.1,1.7-.4s.9-.6,1.2-1c.3-.4.4-.9.4-1.5v-1.7c-.1,0-.3.2-.6.2-.2,0-.5.1-.8.2s-.6.1-.9.1c-.3,0-.6,0-.8.1-.5,0-1,.2-1.4.4-.4.2-.7.4-.9.7-.2.3-.3.6-.3,1,0,.6.2,1,.6,1.4s1,.5,1.7.5h0Z"/>
    <path class="st3" d="M456.1,286.2c-1.2,0-2.3-.3-3.3-.9s-1.7-1.5-2.3-2.8-.9-2.7-.9-4.5.3-3.3.9-4.5c.6-1.2,1.4-2.1,2.3-2.7s2-.9,3.2-.9,1.6.1,2.2.5,1.1.7,1.4,1.1c.4.4.6.9.8,1.3h.1v-7.9h4.4v21.1h-4.3v-2.5h-.2c-.2.4-.5.9-.9,1.3s-.9.8-1.5,1.1c-.6.3-1.3.4-2.2.4h0ZM457.5,282.7c.7,0,1.3-.2,1.8-.6.5-.4.9-.9,1.1-1.6s.4-1.5.4-2.5-.1-1.8-.4-2.5-.6-1.2-1.1-1.6c-.5-.4-1.1-.6-1.8-.6s-1.3.2-1.8.6c-.5.4-.9.9-1.1,1.6-.2.7-.4,1.5-.4,2.4s.1,1.7.4,2.4c.3.7.6,1.2,1.1,1.6s1.1.6,1.8.6h0Z"/>
    <path class="st3" d="M475.9,286.3c-1.6,0-3-.3-4.1-1-1.2-.7-2.1-1.6-2.7-2.9-.6-1.2-1-2.6-1-4.3s.3-3.1,1-4.3,1.5-2.2,2.7-2.9,2.5-1,4.1-1,3,.3,4.1,1c1.2.7,2.1,1.6,2.7,2.9s1,2.7,1,4.3-.3,3-1,4.3c-.6,1.2-1.5,2.2-2.7,2.9s-2.5,1-4.1,1ZM475.9,282.9c.7,0,1.3-.2,1.8-.6.5-.4.9-1,1.1-1.7s.4-1.5.4-2.5-.1-1.7-.4-2.5-.6-1.3-1.1-1.7c-.5-.4-1.1-.6-1.8-.6s-1.4.2-1.9.6-.9,1-1.1,1.7-.4,1.5-.4,2.5.1,1.7.4,2.5.6,1.3,1.1,1.7c.5.4,1.1.6,1.9.6Z"/>
    <path class="st3" d="M499.7,274.7l-4,.2c0-.3-.2-.6-.4-.9s-.5-.5-.9-.7c-.4-.2-.8-.2-1.3-.2s-1.2.1-1.7.4c-.5.3-.7.7-.7,1.1s.1.7.5,1c.3.3.8.5,1.5.6l2.9.6c1.5.3,2.7.8,3.4,1.5.8.7,1.1,1.6,1.1,2.8s-.3,2-.9,2.7c-.6.8-1.4,1.4-2.5,1.8-1,.4-2.3.6-3.6.6-2.1,0-3.8-.4-5-1.3-1.2-.9-2-2.1-2.2-3.6l4.3-.2c.1.6.5,1.1,1,1.5.5.3,1.1.5,1.9.5s1.4-.1,1.9-.5c.5-.3.7-.7.7-1.2s-.2-.7-.5-1c-.3-.3-.8-.5-1.5-.6l-2.7-.5c-1.5-.3-2.7-.8-3.5-1.6-.8-.8-1.1-1.7-1.1-2.9s.3-1.9.8-2.6,1.3-1.3,2.3-1.7,2.2-.6,3.5-.6c2,0,3.6.4,4.7,1.3,1.1.8,1.8,2,2,3.5h0Z"/>
    <path class="st3" d="M513.9,276.8v9.1h-4.4v-15.8h4.2v2.8h.2c.3-.9.9-1.6,1.8-2.2s1.8-.8,3-.8,2.1.2,2.9.7c.8.5,1.5,1.2,1.9,2,.5.9.7,2,.7,3.2v10.1h-4.4v-9.3c0-1-.2-1.7-.7-2.3s-1.2-.8-2.1-.8-1.1.1-1.6.4-.8.6-1,1.1c-.2.5-.4,1.1-.4,1.8h0Z"/>
    <path class="st3" d="M537.7,279.2v-9.1h4.4v15.8h-4.2v-2.9h-.2c-.4.9-1,1.7-1.8,2.2s-1.8.8-3,.8-2-.2-2.8-.7-1.4-1.2-1.9-2c-.5-.9-.7-2-.7-3.2v-10.1h4.4v9.3c0,.9.3,1.7.8,2.2.5.5,1.2.8,2,.8s1-.1,1.5-.4c.5-.2.8-.6,1.1-1.1s.4-1.1.4-1.8h0Z"/>
    <path class="st3" d="M545.6,286v-15.8h4.2v2.8h.2c.3-.9.9-1.7,1.7-2.2.8-.5,1.7-.8,2.8-.8s2,.3,2.8.8,1.3,1.3,1.5,2.2h.2c.3-.9.9-1.6,1.8-2.2s1.8-.8,3-.8,2.7.5,3.6,1.4,1.4,2.3,1.4,4v10.6h-4.4v-9.8c0-.9-.2-1.5-.7-2-.5-.4-1-.7-1.8-.7s-1.4.2-1.9.8c-.5.5-.7,1.2-.7,2v9.7h-4.2v-9.9c0-.8-.2-1.4-.7-1.9s-1-.7-1.8-.7-.9.1-1.3.4c-.4.2-.7.6-.9,1-.2.4-.3,1-.3,1.5v9.5h-4.4Z"/>
    <path class="st3" d="M584.6,286.2c-1.2,0-2.3-.3-3.3-.9-1-.6-1.7-1.5-2.3-2.8s-.8-2.7-.8-4.5.3-3.3.9-4.5c.6-1.2,1.4-2.1,2.3-2.7,1-.6,2-.9,3.2-.9s1.6.1,2.2.5,1.1.7,1.4,1.1c.4.4.7.9.8,1.3h.1v-7.9h4.4v21.1h-4.3v-2.5h-.2c-.2.4-.5.9-.9,1.3s-.9.8-1.5,1.1-1.3.4-2.2.4h0ZM586,282.7c.7,0,1.3-.2,1.8-.6.5-.4.9-.9,1.1-1.6s.4-1.5.4-2.5-.1-1.8-.4-2.5-.6-1.2-1.1-1.6c-.5-.4-1.1-.6-1.8-.6s-1.3.2-1.8.6c-.5.4-.9.9-1.1,1.6-.2.7-.4,1.5-.4,2.4s.1,1.7.4,2.4c.3.7.6,1.2,1.1,1.6s1.1.6,1.8.6h0Z"/>
    <path class="st3" d="M599.4,268.1c-.7,0-1.2-.2-1.7-.6-.5-.4-.7-1-.7-1.6s.2-1.1.7-1.6c.5-.4,1-.6,1.7-.6s1.2.2,1.7.6c.5.4.7,1,.7,1.6s-.2,1.1-.7,1.6c-.5.4-1,.6-1.7.6ZM597.2,286v-15.8h4.4v15.8h-4.4Z"/>
    <path class="st3" d="M609.6,286.3c-1,0-1.9-.2-2.7-.5s-1.4-.9-1.9-1.6c-.5-.7-.7-1.6-.7-2.6s.2-1.6.5-2.2c.3-.6.8-1.1,1.3-1.4.6-.4,1.2-.6,1.9-.8s1.5-.3,2.2-.4c.9-.1,1.7-.2,2.2-.3.6,0,1-.2,1.2-.4s.4-.4.4-.8h0c0-.7-.2-1.2-.6-1.6-.4-.4-1-.5-1.7-.5s-1.4.2-1.9.5c-.5.4-.8.8-.9,1.3l-4.1-.3c.2-1,.6-1.8,1.2-2.5.6-.7,1.4-1.2,2.3-1.6s2.1-.6,3.3-.6,1.7.1,2.5.3,1.5.5,2.2,1c.6.4,1.1,1,1.5,1.7.4.7.5,1.5.5,2.4v10.7h-4.2v-2.2h-.1c-.2.5-.6.9-1,1.3s-.9.7-1.5.9c-.6.2-1.3.3-2.1.3h0ZM610.8,283.2c.6,0,1.2-.1,1.7-.4s.9-.6,1.2-1,.4-.9.4-1.5v-1.7c-.1,0-.3.2-.6.2-.2,0-.5.1-.8.2s-.6.1-.9.1c-.3,0-.6,0-.8.1-.5,0-1,.2-1.3.4-.4.2-.7.4-.9.7-.2.3-.3.6-.3,1,0,.6.2,1,.7,1.4.4.3,1,.5,1.7.5h0Z"/>
    <path class="st3" d="M638.8,279.2v-9.1h4.4v15.8h-4.2v-2.9h-.2c-.4.9-1,1.7-1.8,2.2s-1.8.8-3,.8-2-.2-2.8-.7-1.4-1.2-1.9-2-.7-2-.7-3.2v-10.1h4.4v9.3c0,.9.3,1.7.8,2.2.5.5,1.2.8,2,.8s1-.1,1.5-.4c.5-.2.8-.6,1.1-1.1s.4-1.1.4-1.8h0ZM634.3,268.1l2.2-4.7h4.1l-3.1,4.7h-3.1Z"/>
    <path class="st3" d="M655.1,270.1v3.3h-9.5v-3.3h9.5ZM647.7,266.4h4.4v14.8c0,.4,0,.7.2.9.1.2.3.4.5.5.2,0,.5.1.8.1s.4,0,.6,0,.4,0,.5,0l.7,3.3c-.2,0-.5.1-.9.2-.4,0-.9.1-1.5.2-1.1,0-2-.1-2.8-.4s-1.4-.8-1.8-1.5-.7-1.5-.7-2.6v-15.3Z"/>
    <path class="st3" d="M660.1,268.1c-.7,0-1.2-.2-1.7-.6-.5-.4-.7-1-.7-1.6s.2-1.1.7-1.6c.5-.4,1-.6,1.7-.6s1.2.2,1.7.6c.5.4.7,1,.7,1.6s-.2,1.1-.7,1.6c-.5.4-1,.6-1.7.6ZM657.9,286v-15.8h4.4v15.8h-4.4Z"/>
    <path class="st3" d="M670.2,264.9v21.1h-4.4v-21.1h4.4Z"/>
  </g>
  <g>
    <g>
      <path class="st3" d="M749.9,205.3c-19.5,0-35.3-15.8-35.3-35.3s15.8-35.3,35.3-35.3,35.3,15.8,35.3,35.3-15.8,35.3-35.3,35.3ZM749.9,141.2c-15.9,0-28.8,12.9-28.8,28.8s12.9,28.8,28.8,28.8,28.8-12.9,28.8-28.8-12.9-28.8-28.8-28.8Z"/>
      <path class="st3" d="M731.7,182.3c-5.1,0-10-1.1-14.6-3.2-1.7-.8-2.4-2.7-1.6-4.3.8-1.6,2.7-2.4,4.3-1.6,3.8,1.7,7.8,2.6,11.9,2.6,15.9,0,28.8-12.9,28.8-28.8s-.1-3.3-.4-4.9c-.3-1.8.9-3.5,2.7-3.8,1.8-.3,3.5.9,3.8,2.7.3,2,.5,4,.5,6,0,19.5-15.8,35.3-35.3,35.3h0Z"/>
      <path class="st3" d="M780.3,182.3c-10.3,0-20-4.5-26.8-12.3-1.2-1.4-1-3.4.3-4.6,1.4-1.2,3.4-1,4.6.4,5.5,6.4,13.4,10,21.8,10s3.3,1.5,3.3,3.3-1.5,3.3-3.3,3.3h0Z"/>
    </g>
    <path class="st3" d="M705.2,291.7c-1.8,0-3.3-1.5-3.3-3.3v-55.2c0-12,9.7-21.7,21.7-21.7h52.4c1.8,0,3.3,1.5,3.3,3.3s-1.5,3.3-3.3,3.3h-52.4c-8.4,0-15.2,6.8-15.2,15.2v55.2c0,1.8-1.5,3.3-3.3,3.3h0Z"/>
    <path class="st3" d="M723.4,291.7c-1.8,0-3.3-1.5-3.3-3.3v-32.7c0-1.8,1.5-3.3,3.3-3.3s3.3,1.5,3.3,3.3v32.7c0,1.8-1.5,3.3-3.3,3.3Z"/>
    <path class="st3" d="M776.4,291.7c-1.8,0-3.3-1.5-3.3-3.3v-48.9c0-1.8,1.5-3.3,3.3-3.3h3.5c26.6,0,48.2-21.6,48.2-48.2v-50.1c0-1.8,1.5-3.3,3.3-3.3s3.3,1.5,3.3,3.3v50.1c0,30.2-24.5,54.7-54.7,54.7h-.2v45.6c0,1.8-1.5,3.3-3.3,3.3h0Z"/>
    <path class="st3" d="M783.7,218.1h-29.7c-1.8,0-3.3-1.5-3.3-3.3s1.5-3.3,3.3-3.3h29.7c14,0,25.5-11.4,25.5-25.5v-48.1c0-1.8,1.5-3.3,3.3-3.3s3.3,1.5,3.3,3.3v48.1c0,17.7-14.4,32-32,32h0Z"/>
    <path class="st3" d="M836.1,135.6c-1.2,0-2.3-.6-2.9-1.7-.9-1.6-.3-3.6,1.3-4.5,8-4.4,12.9-12.8,12.9-21.9v-1.6c0-13.8-11.2-25.1-25.1-25.1s-25.1,11.2-25.1,25.1v1.6c0,8.3,4.1,16.1,11,20.8,1.5,1,1.9,3.1.9,4.6s-3,1.9-4.5.9c-8.7-5.9-13.9-15.7-13.9-26.2v-1.6c0-17.4,14.2-31.6,31.6-31.6s31.6,14.2,31.6,31.6v1.6c0,11.5-6.2,22.1-16.3,27.7-.5.3-1,.4-1.6.4h0Z"/>
    <path class="st3" d="M836.1,139.2h-29.9c-1.8,0-3.3-1.5-3.3-3.3v-1.7c0-10.1,8.2-18.2,18.2-18.2s18.2,8.2,18.2,18.2v1.7c0,1.8-1.5,3.3-3.3,3.3h0ZM809.5,132.6h23.2c-.8-5.7-5.7-10.1-11.6-10.1s-10.8,4.4-11.6,10.1Z"/>
    <path class="st3" d="M822.4,80.9c-1.8,0-3.3-1.5-3.3-3.3v-30.6c0-1.8,1.5-3.3,3.3-3.3s3.3,1.5,3.3,3.3v30.6c0,1.8-1.5,3.3-3.3,3.3Z"/>
  </g>
  <g>
    <path class="st3" d="M127.2,231.5l40.8-80.7v-.7h-47.5v-17h69v17.2l-40.8,81.1h-21.5Z"/>
    <path class="st3" d="M246.6,133.1v98.4h-20.8v-78.6h-.6l-22.5,14.1v-18.4l24.4-15.4h19.6Z"/>
    <path class="st3" d="M305.9,232.8c-6.8,0-12.8-1.2-18.1-3.7-5.3-2.5-9.5-5.9-12.6-10.3-3.1-4.4-4.7-9.4-4.9-15.1h20.2c.2,3.8,1.8,6.9,4.8,9.3,3,2.4,6.5,3.6,10.6,3.6s6.2-.7,8.7-2.2c2.5-1.5,4.5-3.5,5.9-6.1,1.4-2.6,2.1-5.6,2.1-9s-.7-6.5-2.2-9.1c-1.5-2.6-3.5-4.7-6-6.1-2.6-1.5-5.5-2.2-8.8-2.3-2.9,0-5.7.6-8.4,1.8-2.7,1.2-4.8,2.8-6.3,4.9l-18.5-3.3,4.7-51.9h60.1v17h-43l-2.5,24.6h.6c1.7-2.4,4.3-4.5,7.8-6.1,3.5-1.6,7.4-2.4,11.7-2.4s11.2,1.4,15.9,4.2c4.6,2.8,8.3,6.6,11,11.5,2.7,4.9,4,10.4,4,16.7,0,6.6-1.5,12.5-4.6,17.7-3.1,5.1-7.4,9.2-12.9,12.1-5.5,2.9-11.9,4.4-19.2,4.4Z"/>
    <path class="st3" d="M427.1,233.6c-8.3,0-15.4-2.1-21.3-6.1s-10.5-9.9-13.7-17.5c-3.2-7.7-4.8-16.9-4.7-27.6,0-10.7,1.6-19.9,4.8-27.4,3.2-7.6,7.7-13.3,13.7-17.3,5.9-4,13-5.9,21.3-5.9s15.3,2,21.3,6c5.9,4,10.5,9.7,13.7,17.3,3.2,7.5,4.8,16.7,4.8,27.4,0,10.8-1.6,20-4.8,27.7-3.2,7.7-7.7,13.5-13.7,17.5-5.9,4-13,6.1-21.3,6.1ZM427.1,216.4c5.6,0,10.1-2.8,13.5-8.5,3.4-5.7,5-14.2,5-25.5,0-7.5-.8-13.7-2.3-18.6-1.5-5-3.7-8.7-6.4-11.2-2.8-2.5-6-3.7-9.8-3.7-5.6,0-10.1,2.8-13.5,8.4-3.4,5.6-5.1,14-5.1,25.2,0,7.6.8,13.9,2.3,18.9,1.5,5,3.7,8.8,6.5,11.3,2.8,2.5,6.1,3.8,9.8,3.8Z"/>
    <path class="st3" d="M520.2,233.6c-8.3,0-15.4-2.1-21.3-6.1s-10.5-9.9-13.7-17.5c-3.2-7.7-4.8-16.9-4.7-27.6,0-10.7,1.6-19.9,4.8-27.4,3.2-7.6,7.7-13.3,13.7-17.3,5.9-4,13-5.9,21.3-5.9s15.3,2,21.3,6c5.9,4,10.5,9.7,13.7,17.3,3.2,7.5,4.8,16.7,4.8,27.4,0,10.8-1.6,20-4.8,27.7-3.2,7.7-7.7,13.5-13.7,17.5-5.9,4-13,6.1-21.3,6.1ZM520.2,216.4c5.6,0,10.1-2.8,13.5-8.5,3.4-5.7,5-14.2,5-25.5,0-7.5-.8-13.7-2.3-18.6-1.5-5-3.7-8.7-6.4-11.2-2.8-2.5-6-3.7-9.8-3.7-5.6,0-10.1,2.8-13.5,8.4-3.4,5.6-5.1,14-5.1,25.2,0,7.6.8,13.9,2.3,18.9,1.5,5,3.7,8.8,6.5,11.3,2.8,2.5,6.1,3.8,9.8,3.8Z"/>
    <path class="st3" d="M613.3,233.6c-8.3,0-15.4-2.1-21.3-6.1-5.9-4-10.5-9.9-13.7-17.5-3.2-7.7-4.8-16.9-4.7-27.6,0-10.7,1.6-19.9,4.8-27.4,3.2-7.6,7.7-13.3,13.7-17.3,5.9-4,13-5.9,21.3-5.9s15.3,2,21.3,6c5.9,4,10.5,9.7,13.7,17.3,3.2,7.5,4.8,16.7,4.8,27.4,0,10.8-1.6,20-4.8,27.7-3.2,7.7-7.7,13.5-13.7,17.5-5.9,4-13,6.1-21.3,6.1ZM613.3,216.4c5.6,0,10.1-2.8,13.5-8.5,3.4-5.7,5-14.2,5-25.5,0-7.5-.8-13.7-2.3-18.6-1.5-5-3.7-8.7-6.4-11.2-2.8-2.5-6-3.7-9.8-3.7-5.6,0-10.1,2.8-13.4,8.4-3.4,5.6-5.1,14-5.1,25.2,0,7.6.8,13.9,2.3,18.9,1.5,5,3.7,8.8,6.5,11.3,2.8,2.5,6.1,3.8,9.8,3.8Z"/>
  </g>
  <g>
    <path class="st3" d="M120.9,321.8v-2l7.4-8.1c.9-.9,1.6-1.8,2.1-2.5s1-1.4,1.2-2,.4-1.3.4-2-.2-1.5-.6-2c-.4-.6-.9-1-1.5-1.3-.6-.3-1.4-.5-2.2-.5s-1.6.2-2.2.5c-.6.4-1.1.8-1.5,1.5-.3.6-.5,1.4-.5,2.2h-2.6c0-1.3.3-2.5.9-3.4.6-1,1.4-1.8,2.5-2.3,1-.6,2.2-.8,3.5-.8s2.5.3,3.5.8c1,.6,1.8,1.3,2.4,2.2.6.9.9,2,.9,3.1s-.1,1.6-.4,2.4c-.3.8-.8,1.6-1.5,2.6-.7,1-1.7,2.1-3,3.5l-5,5.4v.2h10.4v2.4h-14.1Z"/>
    <path class="st3" d="M146.9,322.1c-.9,0-1.8-.2-2.7-.5-.9-.3-1.8-.9-2.5-1.7-.8-.8-1.4-1.9-1.8-3.2-.5-1.4-.7-3.1-.7-5.1s.2-3.7.6-5.3c.4-1.5.9-2.8,1.6-3.9s1.6-1.8,2.6-2.4c1-.5,2.1-.8,3.4-.8s2.4.2,3.3.7c1,.5,1.8,1.2,2.4,2.1.6.9,1,1.9,1.2,3.1h-2.7c-.2-1-.7-1.8-1.4-2.5-.7-.7-1.7-1-2.8-1-1.7,0-3.1.8-4.1,2.3-1,1.5-1.5,3.6-1.5,6.3h.2c.4-.6.9-1.1,1.5-1.6.6-.4,1.2-.8,1.9-1,.7-.2,1.4-.4,2.2-.4,1.3,0,2.4.3,3.5,1,1.1.6,1.9,1.5,2.5,2.6.6,1.1,1,2.4,1,3.8s-.3,2.6-.9,3.8c-.6,1.1-1.5,2.1-2.6,2.7-1.1.7-2.4,1-3.9,1ZM146.9,319.7c.9,0,1.7-.2,2.5-.7.7-.5,1.3-1.1,1.7-1.8.4-.8.6-1.6.6-2.6s-.2-1.8-.6-2.5c-.4-.8-1-1.4-1.7-1.8-.7-.5-1.5-.7-2.4-.7s-1.3.1-1.9.4c-.6.3-1.1.6-1.6,1.1-.4.5-.8,1-1.1,1.6s-.4,1.2-.4,1.9.2,1.7.6,2.5c.4.8,1,1.4,1.7,1.9.7.5,1.6.7,2.5.7Z"/>
    <path class="st3" d="M173.6,322.1c-1.4,0-2.6-.4-3.7-1.1-1.1-.7-1.9-1.7-2.5-3-.6-1.3-.9-2.8-.9-4.6s.3-3.3.9-4.6,1.4-2.3,2.5-3c1.1-.7,2.3-1.1,3.7-1.1s2,.2,2.6.5c.6.4,1.1.8,1.5,1.2.3.5.6.8.8,1.1h.2v-8.2h2.6v22.3h-2.5v-2.6h-.3c-.2.3-.5.7-.8,1.1s-.8.9-1.5,1.2-1.5.5-2.6.5ZM174,319.8c1,0,1.9-.3,2.6-.8.7-.5,1.3-1.3,1.6-2.3s.6-2.1.6-3.3-.2-2.3-.5-3.3c-.4-.9-.9-1.7-1.6-2.2-.7-.5-1.6-.8-2.6-.8s-2,.3-2.7.8-1.3,1.3-1.6,2.3c-.4.9-.5,2-.5,3.2s.2,2.3.5,3.2c.4,1,.9,1.7,1.6,2.3.7.6,1.6.9,2.7.9Z"/>
    <path class="st3" d="M193.3,322.1c-1.6,0-3-.4-4.2-1.1-1.2-.7-2.1-1.7-2.7-3-.6-1.3-.9-2.8-.9-4.5s.3-3.2.9-4.5c.6-1.3,1.5-2.3,2.6-3.1,1.1-.7,2.4-1.1,4-1.1s1.7.1,2.6.4c.8.3,1.6.8,2.3,1.4.7.7,1.3,1.5,1.7,2.6s.6,2.4.6,3.9v1.1h-12.9v-2.2h10.3c0-.9-.2-1.8-.6-2.5s-.9-1.3-1.6-1.8-1.5-.6-2.4-.6-1.9.3-2.7.8-1.3,1.2-1.7,2c-.4.8-.6,1.7-.6,2.6v1.5c0,1.3.2,2.3.7,3.2.4.9,1.1,1.5,1.8,2,.8.5,1.7.7,2.7.7s1.3,0,1.8-.3c.5-.2,1-.5,1.4-.9.4-.4.7-.9.9-1.5l2.5.7c-.3.8-.7,1.6-1.3,2.2-.6.6-1.4,1.1-2.3,1.5s-1.9.5-3.1.5Z"/>
    <path class="st3" d="M212.8,321.8v-16.7h2.5v2.6h.2c.3-.9.9-1.6,1.7-2.1.8-.5,1.7-.7,2.8-.7s2,.2,2.8.7c.7.5,1.3,1.2,1.7,2.1h.2c.4-.9,1.1-1.6,1.9-2.1.9-.5,1.9-.8,3.1-.8s2.7.5,3.7,1.4,1.4,2.4,1.4,4.4v11.2h-2.6v-11.2c0-1.2-.3-2.1-1-2.6-.7-.5-1.5-.8-2.4-.8s-2.1.4-2.7,1.1c-.6.7-1,1.6-1,2.7v10.9h-2.6v-11.5c0-1-.3-1.7-.9-2.3-.6-.6-1.4-.9-2.4-.9s-1.3.2-1.9.5c-.6.4-1,.8-1.4,1.5-.4.6-.5,1.4-.5,2.2v10.5h-2.6Z"/>
    <path class="st3" d="M244.4,322.1c-1.1,0-2-.2-2.9-.6-.9-.4-1.6-1-2.1-1.8s-.8-1.7-.8-2.8.2-1.7.6-2.3c.4-.6.9-1.1,1.5-1.4.6-.3,1.3-.6,2.1-.8.8-.2,1.5-.3,2.3-.4,1-.1,1.8-.2,2.5-.3.6,0,1.1-.2,1.4-.4.3-.2.4-.5.4-.9h0c0-1.2-.3-2-.9-2.6-.6-.6-1.5-.9-2.7-.9s-2.2.3-2.9.8c-.7.5-1.2,1.1-1.5,1.7l-2.4-.9c.4-1,1-1.8,1.7-2.4s1.5-1,2.4-1.2c.9-.2,1.7-.3,2.6-.3s1.2,0,1.9.2c.7.1,1.4.4,2,.8.7.4,1.2,1,1.6,1.8s.7,1.9.7,3.2v11h-2.6v-2.3h-.1c-.2.4-.5.8-.9,1.2-.4.4-.9.8-1.6,1.1-.7.3-1.5.4-2.5.4ZM244.8,319.8c1,0,1.9-.2,2.6-.6.7-.4,1.2-.9,1.6-1.5s.5-1.3.5-2v-2.4c-.1.1-.3.2-.7.4s-.8.2-1.3.3c-.5,0-.9.1-1.4.2-.4,0-.8,0-1.1.1-.7,0-1.3.2-1.9.4s-1,.5-1.4.9c-.4.4-.5.9-.5,1.6s.3,1.6,1,2c.7.5,1.5.7,2.5.7Z"/>
    <path class="st3" d="M256.8,321.8v-16.7h2.5v2.5h.2c.3-.8.9-1.5,1.7-2,.8-.5,1.7-.8,2.7-.8s.4,0,.7,0c.3,0,.5,0,.6,0v2.6c0,0-.3,0-.6-.1-.3,0-.6,0-1,0-.8,0-1.5.2-2.2.5-.6.3-1.1.8-1.5,1.4-.4.6-.6,1.3-.6,2v10.6h-2.6Z"/>
    <path class="st3" d="M274.5,322.1c-1.6,0-2.9-.4-4.1-1.1-1.1-.7-2-1.8-2.6-3.1-.6-1.3-.9-2.8-.9-4.5s.3-3.2.9-4.5c.6-1.3,1.5-2.3,2.6-3.1,1.1-.7,2.4-1.1,4-1.1s2.2.2,3.2.7c.9.4,1.7,1,2.3,1.8s1,1.7,1.1,2.7h-2.6c-.2-.8-.6-1.4-1.3-2-.7-.6-1.6-.9-2.7-.9s-1.9.3-2.6.8c-.8.5-1.3,1.2-1.8,2.2-.4.9-.6,2-.6,3.3s.2,2.4.6,3.4c.4,1,1,1.7,1.7,2.2.8.5,1.6.8,2.7.8s1.3-.1,1.8-.3,1-.6,1.4-1c.4-.4.6-1,.8-1.6h2.6c-.1,1-.5,1.9-1.1,2.7-.6.8-1.3,1.4-2.3,1.9-.9.5-2,.7-3.3.7ZM273.3,321.7h2.1l-.2.9c.6,0,1.1.3,1.6.7s.7,1,.7,1.9-.4,1.7-1.2,2.3c-.8.6-1.9.9-3.4.9v-1.7c.6,0,1.1-.1,1.6-.3.4-.2.7-.6.7-1.1s-.2-.8-.6-1c-.4-.2-1-.3-1.8-.4l.4-2.1Z"/>
    <path class="st3" d="M291.6,322.1c-1.5,0-2.8-.4-4-1.1-1.1-.7-2-1.7-2.7-3-.6-1.3-1-2.8-1-4.5s.3-3.3,1-4.6c.6-1.3,1.5-2.3,2.7-3,1.1-.7,2.5-1.1,4-1.1s2.8.4,4,1.1c1.1.7,2,1.7,2.7,3,.6,1.3,1,2.8,1,4.6s-.3,3.2-1,4.5c-.6,1.3-1.5,2.3-2.7,3-1.1.7-2.5,1.1-4,1.1ZM291.6,319.8c1.1,0,2.1-.3,2.8-.9.7-.6,1.3-1.4,1.6-2.3.4-1,.5-2,.5-3.1s-.2-2.2-.5-3.1c-.4-1-.9-1.7-1.6-2.3-.7-.6-1.7-.9-2.8-.9s-2.1.3-2.8.9c-.7.6-1.3,1.4-1.6,2.3-.4,1-.5,2-.5,3.1s.2,2.2.5,3.1c.4,1,.9,1.7,1.6,2.3.7.6,1.7.9,2.8.9Z"/>
    <path class="st3" d="M318.1,322.1c-1.4,0-2.6-.4-3.7-1.1-1.1-.7-1.9-1.7-2.5-3-.6-1.3-.9-2.8-.9-4.6s.3-3.3.9-4.6,1.4-2.3,2.5-3c1.1-.7,2.3-1.1,3.7-1.1s2,.2,2.6.5c.6.4,1.1.8,1.5,1.2.3.5.6.8.8,1.1h.2v-8.2h2.6v22.3h-2.5v-2.6h-.3c-.2.3-.5.7-.8,1.1s-.8.9-1.5,1.2-1.5.5-2.6.5ZM318.4,319.8c1,0,1.9-.3,2.6-.8.7-.5,1.3-1.3,1.6-2.3s.6-2.1.6-3.3-.2-2.3-.5-3.3c-.4-.9-.9-1.7-1.6-2.2-.7-.5-1.6-.8-2.6-.8s-2,.3-2.7.8-1.3,1.3-1.6,2.3c-.4.9-.5,2-.5,3.2s.2,2.3.5,3.2c.4,1,.9,1.7,1.6,2.3.7.6,1.6.9,2.7.9Z"/>
    <path class="st3" d="M337.8,322.1c-1.6,0-3-.4-4.2-1.1-1.2-.7-2.1-1.7-2.7-3-.6-1.3-.9-2.8-.9-4.5s.3-3.2.9-4.5c.6-1.3,1.5-2.3,2.6-3.1,1.1-.7,2.4-1.1,4-1.1s1.7.1,2.6.4c.8.3,1.6.8,2.3,1.4.7.7,1.3,1.5,1.7,2.6s.6,2.4.6,3.9v1.1h-12.9v-2.2h10.3c0-.9-.2-1.8-.6-2.5s-.9-1.3-1.6-1.8-1.5-.6-2.4-.6-1.9.3-2.7.8-1.3,1.2-1.7,2c-.4.8-.6,1.7-.6,2.6v1.5c0,1.3.2,2.3.7,3.2.4.9,1.1,1.5,1.8,2,.8.5,1.7.7,2.7.7s1.3,0,1.8-.3c.5-.2,1-.5,1.4-.9.4-.4.7-.9.9-1.5l2.5.7c-.3.8-.7,1.6-1.3,2.2-.6.6-1.4,1.1-2.3,1.5s-1.9.5-3.1.5Z"/>
    <path class="st3" d="M357.3,321.8v-2l7.4-8.1c.9-.9,1.6-1.8,2.1-2.5s1-1.4,1.2-2,.4-1.3.4-2-.2-1.5-.6-2c-.4-.6-.9-1-1.5-1.3-.6-.3-1.4-.5-2.2-.5s-1.6.2-2.2.5c-.6.4-1.1.8-1.5,1.5-.3.6-.5,1.4-.5,2.2h-2.6c0-1.3.3-2.5.9-3.4.6-1,1.4-1.8,2.5-2.3,1-.6,2.2-.8,3.5-.8s2.5.3,3.5.8c1,.6,1.8,1.3,2.4,2.2.6.9.9,2,.9,3.1s-.1,1.6-.4,2.4c-.3.8-.8,1.6-1.5,2.6-.7,1-1.7,2.1-3,3.5l-5,5.4v.2h10.4v2.4h-14.1Z"/>
    <path class="st3" d="M383.1,322.1c-1.6,0-3-.4-4.2-1.3-1.2-.9-2-2.2-2.6-3.9-.6-1.7-.9-3.8-.9-6.2s.3-4.5.9-6.2,1.5-3,2.7-3.9,2.6-1.4,4.2-1.4,3,.5,4.2,1.4c1.2.9,2,2.2,2.7,3.9s.9,3.8.9,6.2-.3,4.5-.9,6.2c-.6,1.7-1.5,3-2.6,3.9-1.2.9-2.6,1.3-4.2,1.3ZM383.1,319.7c1.6,0,2.9-.8,3.8-2.4.9-1.6,1.4-3.8,1.4-6.7s-.2-3.6-.6-4.9c-.4-1.4-1-2.4-1.8-3.1-.8-.7-1.7-1.1-2.8-1.1-1.6,0-2.9.8-3.8,2.4-.9,1.6-1.4,3.8-1.4,6.7s.2,3.6.6,4.9,1,2.4,1.8,3.1c.8.7,1.7,1.1,2.8,1.1Z"/>
    <path class="st3" d="M395,321.8v-2l7.4-8.1c.9-.9,1.6-1.8,2.1-2.5s1-1.4,1.2-2,.4-1.3.4-2-.2-1.5-.6-2c-.4-.6-.9-1-1.5-1.3-.6-.3-1.4-.5-2.2-.5s-1.6.2-2.2.5c-.6.4-1.1.8-1.5,1.5-.3.6-.5,1.4-.5,2.2h-2.6c0-1.3.3-2.5.9-3.4.6-1,1.4-1.8,2.5-2.3,1-.6,2.2-.8,3.5-.8s2.5.3,3.5.8c1,.6,1.8,1.3,2.4,2.2.6.9.9,2,.9,3.1s-.1,1.6-.4,2.4c-.3.8-.8,1.6-1.5,2.6-.7,1-1.7,2.1-3,3.5l-5,5.4v.2h10.4v2.4h-14.1Z"/>
    <path class="st3" d="M420.5,322.1c-1.3,0-2.4-.3-3.5-.8-1-.5-1.8-1.2-2.5-2.1-.6-.9-1-1.9-1-3h2.6c.1,1,.6,1.8,1.4,2.5.8.7,1.8,1,2.9,1s1.7-.2,2.4-.6c.7-.4,1.3-1,1.7-1.8.4-.8.6-1.6.6-2.6s-.2-1.8-.6-2.6-1-1.4-1.7-1.8c-.7-.4-1.6-.7-2.5-.7-.7,0-1.4,0-2.1.3-.7.2-1.3.5-1.8.8l-2.5-.3,1.4-11h11.6v2.4h-9.3l-.8,6.6h.1c.5-.4,1-.7,1.7-.9.7-.2,1.4-.4,2.2-.4,1.4,0,2.6.3,3.7,1,1.1.6,1.9,1.5,2.5,2.7s.9,2.4.9,3.9-.3,2.7-1,3.8-1.5,2-2.6,2.6c-1.1.6-2.4,1-3.8,1Z"/>
  </g>
</svg>